M48
;DRILL file {KiCad 4.0.5} date 04/27/18 19:00:26
;FORMAT={-:-/ absolute / metric / decimal}
FMAT,2
METRIC,TZ
T1C0.330
T2C0.650
T3C2.100
T4C0.900
%
G90
G05
M71
T1
X102.108Y-78.359
X102.616Y-63.754
X103.378Y-64.389
X104.648Y-76.454
X105.156Y-75.565
X105.791Y-78.359
X106.172Y-64.516
X106.489Y-83.693
X106.553Y-74.295
X107.188Y-59.753
X107.251Y-61.023
X107.823Y-66.675
X107.823Y-67.691
X107.823Y-83.566
X107.886Y-68.644
X107.886Y-81.534
X107.95Y-69.596
X108.013Y-71.628
X108.013Y-82.677
X108.458Y-59.69
X109.029Y-75.184
X109.093Y-73.469
X109.347Y-58.801
X110.426Y-76.772
X110.947Y-80.594
X111.061Y-57.531
X111.252Y-70.739
X111.316Y-72.644
X111.379Y-69.85
X111.442Y-63.182
X112.141Y-78.041
X112.268Y-66.739
X112.712Y-84.519
X112.903Y-75.692
X113.665Y-86.233
X113.919Y-72.644
X114.63Y-63.322
X114.808Y-67.691
X115.062Y-85.471
X116.205Y-64.008
X116.205Y-84.772
X116.332Y-67.691
X117.983Y-60.833
X118.11Y-59.436
X118.237Y-79.502
X118.237Y-83.312
X119.888Y-83.312
X119.939Y-69.317
X119.951Y-67.691
X120.269Y-76.708
X120.396Y-78.994
X121.031Y-81.28
X121.285Y-64.135
X121.539Y-86.106
X121.856Y-80.137
X122.174Y-59.563
X122.301Y-58.293
X122.682Y-56.134
X122.999Y-77.216
X123.317Y-79.248
X123.876Y-62.179
X124.714Y-65.532
X125.349Y-69.532
X125.412Y-61.468
X126.555Y-77.406
X127.127Y-66.929
T2
X107.95Y-86.868
X109.22Y-86.868
X123.825Y-81.661
X123.825Y-82.931
X123.825Y-84.201
X123.825Y-85.471
X123.825Y-86.741
T3
X103.124Y-56.388
X103.124Y-86.614
X127.508Y-56.388
X127.508Y-86.614
T4
X128.016Y-61.334
X128.016Y-63.634
X128.016Y-70.478
X128.016Y-72.778
X128.016Y-79.622
X128.016Y-81.922
T0
M30
