G04 #@! TF.FileFunction,Copper,L2,Inr,Signal*
%FSLAX46Y46*%
G04 Gerber Fmt 4.6, Leading zero omitted, Abs format (unit mm)*
G04 Created by KiCad (PCBNEW 4.0.5) date 04/27/18 19:00:17*
%MOMM*%
%LPD*%
G01*
G04 APERTURE LIST*
%ADD10C,0.100000*%
%ADD11R,1.000000X1.000000*%
%ADD12O,1.000000X1.000000*%
%ADD13C,2.200000*%
%ADD14C,0.685800*%
%ADD15C,0.300000*%
%ADD16C,0.152400*%
G04 APERTURE END LIST*
D10*
D11*
X123825000Y-86741000D03*
D12*
X123825000Y-85471000D03*
X123825000Y-84201000D03*
X123825000Y-82931000D03*
X123825000Y-81661000D03*
D13*
X103124000Y-86614000D03*
X127508000Y-56388000D03*
X127508000Y-86614000D03*
X103124000Y-56388000D03*
D11*
X107950000Y-86868000D03*
D12*
X109220000Y-86868000D03*
D14*
X122174000Y-59563000D03*
X122301000Y-58293000D03*
X118237000Y-79502000D03*
X119888000Y-83312000D03*
X113919000Y-72644000D03*
X116205000Y-64008000D03*
X121285000Y-64135000D03*
X107188000Y-59753500D03*
X127127000Y-66929000D03*
X120269000Y-76708000D03*
X104648000Y-76454000D03*
X110426500Y-76771500D03*
X111442500Y-63182500D03*
X106489500Y-83693000D03*
X122999500Y-77216000D03*
X121856500Y-80137000D03*
X111315500Y-72644000D03*
X115062000Y-85471000D03*
X106172000Y-64516000D03*
X109093000Y-73469500D03*
X102616000Y-63754000D03*
X108013500Y-71628000D03*
X103378000Y-64389000D03*
X110947200Y-80594200D03*
X112712500Y-84518500D03*
X111252000Y-70739000D03*
X106553000Y-74295000D03*
X107823000Y-83566000D03*
X108013500Y-82677000D03*
X109029500Y-75184000D03*
X107886500Y-68643500D03*
X107950000Y-69596000D03*
X107886500Y-81534000D03*
X116205000Y-84772500D03*
X112903000Y-75692000D03*
X121031000Y-81280000D03*
X123317000Y-79248000D03*
X102108000Y-78359000D03*
X108458000Y-59690000D03*
X107823000Y-66675000D03*
X118110000Y-59436000D03*
X107823000Y-67691000D03*
X111061500Y-57531000D03*
X112141000Y-78041500D03*
X120396000Y-78994000D03*
X117983000Y-60833000D03*
X125412500Y-61468000D03*
X112268000Y-66738500D03*
X125349000Y-69532500D03*
X119938800Y-69316600D03*
X111379000Y-69850000D03*
X126555500Y-77406500D03*
X107251500Y-61023500D03*
X114630200Y-63322200D03*
X119951500Y-67691000D03*
X124714000Y-65532000D03*
X123875800Y-62179200D03*
X109347000Y-58801000D03*
X122682000Y-56134000D03*
X113665000Y-86233000D03*
X105791000Y-78359000D03*
X105156000Y-75565000D03*
X121539000Y-86106000D03*
X118237000Y-83312000D03*
X116332000Y-67691000D03*
X114808000Y-67691000D03*
D15*
X104648000Y-76454000D02*
X104648000Y-76517500D01*
X111315500Y-72644000D02*
X111315500Y-75438000D01*
X111315500Y-75438000D02*
X112903000Y-77025500D01*
X112903000Y-77025500D02*
X112903000Y-80645000D01*
X112903000Y-80645000D02*
X114173000Y-81915000D01*
X114173000Y-81915000D02*
X115125500Y-82931000D01*
X115125500Y-82931000D02*
X115062000Y-85471000D01*
X103822500Y-69596000D02*
X103822500Y-68262500D01*
X109093000Y-73469500D02*
X109029500Y-73406000D01*
X109029500Y-73406000D02*
X104521000Y-73406000D01*
X104521000Y-73406000D02*
X103822500Y-72771000D01*
X103822500Y-72771000D02*
X103822500Y-69596000D01*
X102616000Y-67056000D02*
X102616000Y-63754000D01*
X103822500Y-68262500D02*
X102616000Y-67056000D01*
X104521000Y-69786500D02*
X104521000Y-68072000D01*
X108013500Y-71628000D02*
X106934000Y-72707500D01*
X106934000Y-72707500D02*
X104902000Y-72707500D01*
X104902000Y-72707500D02*
X104521000Y-72326500D01*
X104521000Y-72326500D02*
X104521000Y-69786500D01*
X103378000Y-66929000D02*
X103378000Y-64389000D01*
X104521000Y-68072000D02*
X103378000Y-66929000D01*
X106553000Y-82296000D02*
X106553000Y-74295000D01*
X107823000Y-83566000D02*
X106553000Y-82296000D01*
X109029500Y-75184000D02*
X107632500Y-75184000D01*
X107632500Y-75184000D02*
X107124500Y-75692000D01*
X107124500Y-75692000D02*
X107124500Y-81788000D01*
X108013500Y-82677000D02*
X107124500Y-81788000D01*
D16*
X108902500Y-75311000D02*
X109029500Y-75184000D01*
D15*
X107886500Y-81534000D02*
X107886500Y-76454000D01*
X107886500Y-76454000D02*
X108204000Y-76136500D01*
X108204000Y-76136500D02*
X109474000Y-76136500D01*
X109474000Y-76136500D02*
X109918500Y-75692000D01*
X109918500Y-74612500D02*
X109918500Y-75692000D01*
X109918500Y-74295000D02*
X109918500Y-74612500D01*
X109918500Y-73850500D02*
X109918500Y-74295000D01*
X109918500Y-71564500D02*
X109918500Y-73850500D01*
X107950000Y-69596000D02*
X109918500Y-71564500D01*
D16*
X107886500Y-81534000D02*
X107950000Y-81470500D01*
D15*
X112903000Y-75946000D02*
X112903000Y-75692000D01*
X116205000Y-84772500D02*
X115760500Y-84328000D01*
X115760500Y-84328000D02*
X115760500Y-82804000D01*
X115760500Y-82804000D02*
X113601500Y-80645000D01*
X113601500Y-80645000D02*
X113601500Y-76708000D01*
X113601500Y-76708000D02*
X112903000Y-75946000D01*
X121031000Y-81280000D02*
X122428000Y-81280000D01*
X122428000Y-81280000D02*
X123317000Y-80391000D01*
X123317000Y-80391000D02*
X123317000Y-79248000D01*
X107823000Y-66675000D02*
X105156000Y-66675000D01*
X108013500Y-58991500D02*
X108458000Y-59690000D01*
X106044492Y-59025903D02*
X108013500Y-58991500D01*
X104838500Y-60134500D02*
X106044492Y-59025903D01*
X104838500Y-63436500D02*
X104838500Y-60134500D01*
X104838500Y-66357500D02*
X104838500Y-63436500D01*
X105156000Y-66675000D02*
X104838500Y-66357500D01*
X106426000Y-57531000D02*
X111061500Y-57531000D01*
X104140000Y-59817000D02*
X106426000Y-57531000D01*
X104140000Y-66675000D02*
X104140000Y-59817000D01*
X105156000Y-67691000D02*
X104140000Y-66675000D01*
X107823000Y-67691000D02*
X105156000Y-67691000D01*
X118872000Y-77470000D02*
X120396000Y-78994000D01*
X118872000Y-61722000D02*
X118872000Y-77470000D01*
X117983000Y-60833000D02*
X118872000Y-61722000D01*
X110363000Y-63881000D02*
X114071400Y-63881000D01*
X110363000Y-63881000D02*
X107569000Y-61087000D01*
X107569000Y-61087000D02*
X107315000Y-61087000D01*
X107315000Y-61087000D02*
X107251500Y-61023500D01*
X114071400Y-63881000D02*
X114630200Y-63322200D01*
X119951500Y-67691000D02*
X120015000Y-67627500D01*
X120015000Y-67627500D02*
X121920000Y-67627500D01*
X121920000Y-67627500D02*
X124015500Y-65532000D01*
X124015500Y-65532000D02*
X124714000Y-65532000D01*
X113665000Y-86233000D02*
X113030000Y-86868000D01*
X113030000Y-86868000D02*
X109220000Y-86868000D01*
X107950000Y-86868000D02*
X106680000Y-86868000D01*
X105791000Y-85979000D02*
X106426000Y-86614000D01*
X105791000Y-85979000D02*
X105791000Y-78359000D01*
X106680000Y-86868000D02*
X106426000Y-86614000D01*
X105791000Y-76200000D02*
X105791000Y-78359000D01*
X105156000Y-75565000D02*
X105791000Y-76200000D01*
X122174000Y-85471000D02*
X123825000Y-85471000D01*
X121539000Y-86106000D02*
X122174000Y-85471000D01*
X117348000Y-83312000D02*
X118237000Y-83312000D01*
X117094000Y-83058000D02*
X117348000Y-83312000D01*
X117094000Y-79756000D02*
X117094000Y-83058000D01*
X115570000Y-78232000D02*
X117094000Y-79756000D01*
X115570000Y-68453000D02*
X115570000Y-78232000D01*
X116332000Y-67691000D02*
X115570000Y-68453000D01*
X116268500Y-80137000D02*
X116205000Y-80137000D01*
X114808000Y-78740000D02*
X114808000Y-67691000D01*
X116205000Y-80137000D02*
X114808000Y-78740000D01*
X116903500Y-84201000D02*
X123825000Y-84201000D01*
X116268500Y-83566000D02*
X116903500Y-84201000D01*
X116268500Y-80073500D02*
X116268500Y-80137000D01*
X116268500Y-80137000D02*
X116268500Y-83566000D01*
M02*
