G04 #@! TF.FileFunction,Soldermask,Bot*
%FSLAX46Y46*%
G04 Gerber Fmt 4.6, Leading zero omitted, Abs format (unit mm)*
G04 Created by KiCad (PCBNEW 4.0.5) date 04/27/18 19:00:17*
%MOMM*%
%LPD*%
G01*
G04 APERTURE LIST*
%ADD10C,0.100000*%
%ADD11R,3.600000X2.000000*%
%ADD12R,1.380000X0.400000*%
%ADD13R,1.000000X1.000000*%
%ADD14O,1.000000X1.000000*%
%ADD15R,5.100000X2.500000*%
%ADD16C,5.000000*%
%ADD17R,1.700000X0.900000*%
%ADD18C,2.200000*%
%ADD19C,0.900000*%
%ADD20R,1.300000X0.800000*%
%ADD21R,0.800000X1.500000*%
%ADD22R,1.200000X1.200000*%
G04 APERTURE END LIST*
D10*
D11*
X103367000Y-66538000D03*
X103367000Y-58938000D03*
D12*
X104902000Y-64008000D03*
X104902000Y-62738000D03*
X104902000Y-61468000D03*
X104902000Y-63373000D03*
X104902000Y-62103000D03*
D13*
X123825000Y-86741000D03*
D14*
X123825000Y-85471000D03*
X123825000Y-84201000D03*
X123825000Y-82931000D03*
X123825000Y-81661000D03*
D15*
X114808000Y-82697000D03*
X114808000Y-59797000D03*
D16*
X114808000Y-71247000D03*
D17*
X102616000Y-79580000D03*
X102616000Y-82980000D03*
D18*
X103124000Y-86614000D03*
X127508000Y-56388000D03*
X127508000Y-86614000D03*
X103124000Y-56388000D03*
D13*
X107950000Y-86868000D03*
D14*
X109220000Y-86868000D03*
D19*
X128016000Y-79622000D03*
X128016000Y-81922000D03*
D20*
X128466000Y-84672000D03*
X128466000Y-76872000D03*
D21*
X128716000Y-84322000D03*
X128716000Y-77222000D03*
D22*
X126566000Y-82872000D03*
X126566000Y-78672000D03*
D19*
X128016000Y-70478000D03*
X128016000Y-72778000D03*
D20*
X128466000Y-75528000D03*
X128466000Y-67728000D03*
D21*
X128716000Y-75178000D03*
X128716000Y-68078000D03*
D22*
X126566000Y-73728000D03*
X126566000Y-69528000D03*
D19*
X128016000Y-61334000D03*
X128016000Y-63634000D03*
D20*
X128466000Y-66384000D03*
X128466000Y-58584000D03*
D21*
X128716000Y-66034000D03*
X128716000Y-58934000D03*
D22*
X126566000Y-64584000D03*
X126566000Y-60384000D03*
M02*
