G04 #@! TF.FileFunction,Copper,L2,Inr,Signal*
%FSLAX46Y46*%
G04 Gerber Fmt 4.6, Leading zero omitted, Abs format (unit mm)*
G04 Created by KiCad (PCBNEW 4.0.5) date 09/25/17 19:08:10*
%MOMM*%
%LPD*%
G01*
G04 APERTURE LIST*
%ADD10C,0.100000*%
%ADD11R,1.000000X1.000000*%
%ADD12O,1.000000X1.000000*%
%ADD13C,2.200000*%
%ADD14C,0.685800*%
%ADD15C,0.300000*%
G04 APERTURE END LIST*
D10*
D11*
X123787000Y-81521400D03*
D12*
X123787000Y-82791400D03*
X123787000Y-84061400D03*
X123787000Y-85331400D03*
X123787000Y-86601400D03*
D11*
X120866000Y-83655000D03*
D12*
X120866000Y-82385000D03*
X119596000Y-83655000D03*
X119596000Y-82385000D03*
X118326000Y-83655000D03*
X118326000Y-82385000D03*
X117056000Y-83655000D03*
X117056000Y-82385000D03*
X115786000Y-83655000D03*
X115786000Y-82385000D03*
D13*
X127508000Y-86487000D03*
X103124000Y-86487000D03*
D14*
X108654000Y-86576000D03*
X112865000Y-84925000D03*
X106701000Y-82893000D03*
X112799000Y-82178000D03*
X110899000Y-82178000D03*
X118346000Y-86195000D03*
X103281000Y-83843000D03*
X111849000Y-84925000D03*
D15*
X112865000Y-84925000D02*
X112865000Y-83274000D01*
X120866000Y-81496000D02*
X120866000Y-82385000D01*
X120231000Y-80861000D02*
X120866000Y-81496000D01*
X114389000Y-80861000D02*
X120231000Y-80861000D01*
X113881000Y-81369000D02*
X114389000Y-80861000D01*
X113881000Y-82258000D02*
X113881000Y-81369000D01*
X112865000Y-83274000D02*
X113881000Y-82258000D01*
X112865000Y-85687000D02*
X112865000Y-84925000D01*
X112103000Y-86449000D02*
X112865000Y-85687000D01*
X108801000Y-86449000D02*
X112103000Y-86449000D01*
X108674000Y-86576000D02*
X108801000Y-86449000D01*
X108674000Y-86576000D02*
X108654000Y-86576000D01*
M02*
