G04 #@! TF.FileFunction,Copper,L1,Top,Signal*
%FSLAX46Y46*%
G04 Gerber Fmt 4.6, Leading zero omitted, Abs format (unit mm)*
G04 Created by KiCad (PCBNEW 4.0.5) date 04/27/18 19:00:17*
%MOMM*%
%LPD*%
G01*
G04 APERTURE LIST*
%ADD10C,0.100000*%
%ADD11R,0.300000X1.000000*%
%ADD12R,2.000000X1.300000*%
%ADD13R,1.500000X1.250000*%
%ADD14R,1.250000X1.500000*%
%ADD15R,1.000000X1.000000*%
%ADD16O,1.000000X1.000000*%
%ADD17R,1.500000X1.300000*%
%ADD18R,1.300000X1.500000*%
%ADD19R,1.060000X0.650000*%
%ADD20R,1.600000X0.550000*%
%ADD21R,0.550000X1.600000*%
%ADD22R,1.550000X0.600000*%
%ADD23R,0.400000X1.500000*%
%ADD24C,2.200000*%
%ADD25R,1.200000X1.200000*%
%ADD26C,0.685800*%
%ADD27C,0.300000*%
%ADD28C,0.152400*%
%ADD29C,0.254000*%
G04 APERTURE END LIST*
D10*
D11*
X115050000Y-81923000D03*
X114550000Y-81923000D03*
X114050000Y-81923000D03*
X113550000Y-81923000D03*
X113050000Y-81923000D03*
X115550000Y-81923000D03*
X116050000Y-81923000D03*
X116550000Y-81923000D03*
X117050000Y-81923000D03*
X117550000Y-81923000D03*
D12*
X110750000Y-84623000D03*
X119850000Y-84623000D03*
D13*
X118765000Y-65405000D03*
X121265000Y-65405000D03*
D14*
X118745000Y-74505500D03*
X118745000Y-77005500D03*
D13*
X114320000Y-77152500D03*
X116820000Y-77152500D03*
X122979500Y-77216000D03*
X120479500Y-77216000D03*
D14*
X102679500Y-82276000D03*
X102679500Y-79776000D03*
X106489500Y-79776000D03*
X106489500Y-82276000D03*
X113157000Y-63226000D03*
X113157000Y-60726000D03*
D13*
X114955000Y-79502000D03*
X117455000Y-79502000D03*
D14*
X104584500Y-79776000D03*
X104584500Y-82276000D03*
D15*
X123825000Y-86741000D03*
D16*
X123825000Y-85471000D03*
X123825000Y-84201000D03*
X123825000Y-82931000D03*
X123825000Y-81661000D03*
D17*
X124603500Y-79248000D03*
X121903500Y-79248000D03*
X116221500Y-56261000D03*
X113521500Y-56261000D03*
X108124000Y-56197500D03*
X110824000Y-56197500D03*
D18*
X108966000Y-79455000D03*
X108966000Y-76755000D03*
D19*
X103611500Y-75567500D03*
X103611500Y-76517500D03*
X103611500Y-77467500D03*
X105811500Y-77467500D03*
X105811500Y-75567500D03*
D20*
X118423000Y-72523000D03*
X118423000Y-71723000D03*
X118423000Y-70923000D03*
X118423000Y-70123000D03*
X118423000Y-69323000D03*
X118423000Y-68523000D03*
X118423000Y-67723000D03*
X118423000Y-66923000D03*
D21*
X116973000Y-65473000D03*
X116173000Y-65473000D03*
X115373000Y-65473000D03*
X114573000Y-65473000D03*
X113773000Y-65473000D03*
X112973000Y-65473000D03*
X112173000Y-65473000D03*
X111373000Y-65473000D03*
D20*
X109923000Y-66923000D03*
X109923000Y-67723000D03*
X109923000Y-68523000D03*
X109923000Y-69323000D03*
X109923000Y-70123000D03*
X109923000Y-70923000D03*
X109923000Y-71723000D03*
X109923000Y-72523000D03*
D21*
X111373000Y-73973000D03*
X112173000Y-73973000D03*
X112973000Y-73973000D03*
X113773000Y-73973000D03*
X114573000Y-73973000D03*
X115373000Y-73973000D03*
X116173000Y-73973000D03*
X116973000Y-73973000D03*
D22*
X105885000Y-58483500D03*
X105885000Y-59753500D03*
X105885000Y-61023500D03*
X105885000Y-62293500D03*
X111285000Y-62293500D03*
X111285000Y-61023500D03*
X111285000Y-59753500D03*
X111285000Y-58483500D03*
X121127500Y-62166500D03*
X121127500Y-60896500D03*
X121127500Y-59626500D03*
X121127500Y-58356500D03*
X115727500Y-58356500D03*
X115727500Y-59626500D03*
X115727500Y-60896500D03*
X115727500Y-62166500D03*
D23*
X112283000Y-76775000D03*
X111633000Y-76775000D03*
X110983000Y-76775000D03*
X110983000Y-79435000D03*
X112283000Y-79435000D03*
D18*
X127063500Y-68342500D03*
X127063500Y-65642500D03*
D17*
X119808000Y-56261000D03*
X122508000Y-56261000D03*
D24*
X103124000Y-86614000D03*
X127508000Y-56388000D03*
X127508000Y-86614000D03*
X103124000Y-56388000D03*
D25*
X125222000Y-65575000D03*
X125222000Y-67775000D03*
D15*
X107950000Y-86868000D03*
D16*
X109220000Y-86868000D03*
D26*
X122174000Y-59563000D03*
X122301000Y-58293000D03*
X118237000Y-79502000D03*
X119888000Y-83312000D03*
X113919000Y-72644000D03*
X116205000Y-64008000D03*
X121285000Y-64135000D03*
X107188000Y-59753500D03*
X127127000Y-66929000D03*
X120269000Y-76708000D03*
X104648000Y-76454000D03*
X110426500Y-76771500D03*
X111442500Y-63182500D03*
X106489500Y-83693000D03*
X122999500Y-77216000D03*
X121856500Y-80137000D03*
X111315500Y-72644000D03*
X115062000Y-85471000D03*
X106172000Y-64516000D03*
X109093000Y-73469500D03*
X102616000Y-63754000D03*
X108013500Y-71628000D03*
X103378000Y-64389000D03*
X110947200Y-80594200D03*
X112712500Y-84518500D03*
X111252000Y-70739000D03*
X106553000Y-74295000D03*
X107823000Y-83566000D03*
X108013500Y-82677000D03*
X109029500Y-75184000D03*
X107886500Y-68643500D03*
X107950000Y-69596000D03*
X107886500Y-81534000D03*
X116205000Y-84772500D03*
X112903000Y-75692000D03*
X121031000Y-81280000D03*
X123317000Y-79248000D03*
X102108000Y-78359000D03*
X108458000Y-59690000D03*
X107823000Y-66675000D03*
X118110000Y-59436000D03*
X107823000Y-67691000D03*
X111061500Y-57531000D03*
X112141000Y-78041500D03*
X120396000Y-78994000D03*
X117983000Y-60833000D03*
X125412500Y-61468000D03*
X112268000Y-66738500D03*
X125349000Y-69532500D03*
X119938800Y-69316600D03*
X111379000Y-69850000D03*
X126555500Y-77406500D03*
X107251500Y-61023500D03*
X114630200Y-63322200D03*
X119951500Y-67691000D03*
X124714000Y-65532000D03*
X123875800Y-62179200D03*
X109347000Y-58801000D03*
X122682000Y-56134000D03*
X113665000Y-86233000D03*
X105791000Y-78359000D03*
X105156000Y-75565000D03*
X121539000Y-86106000D03*
X118237000Y-83312000D03*
X116332000Y-67691000D03*
X114808000Y-67691000D03*
D27*
X118745000Y-74505500D02*
X118534500Y-74505500D01*
X118534500Y-74505500D02*
X117475000Y-75565000D01*
X115373000Y-75495000D02*
X115373000Y-73973000D01*
X115443000Y-75565000D02*
X115373000Y-75495000D01*
X117475000Y-75565000D02*
X115443000Y-75565000D01*
X116973000Y-65473000D02*
X118697000Y-65473000D01*
X118697000Y-65473000D02*
X118765000Y-65405000D01*
X115550000Y-81923000D02*
X115550000Y-82951000D01*
X115550000Y-82951000D02*
X115316000Y-83185000D01*
X114955000Y-79502000D02*
X114955000Y-79903000D01*
X114955000Y-79903000D02*
X115550000Y-80498000D01*
X115550000Y-80498000D02*
X115550000Y-81923000D01*
X108966000Y-79455000D02*
X108919000Y-79455000D01*
X118745000Y-74505500D02*
X119781000Y-74505500D01*
X119781000Y-74505500D02*
X120269000Y-74993500D01*
X115727500Y-62166500D02*
X114744500Y-62166500D01*
X114744500Y-62166500D02*
X113304000Y-60726000D01*
X113304000Y-60726000D02*
X113157000Y-60726000D01*
X111094500Y-61023500D02*
X112669000Y-61023500D01*
X112669000Y-61023500D02*
X112966500Y-60726000D01*
X116050000Y-81923000D02*
X115550000Y-81923000D01*
X115050000Y-81923000D02*
X115550000Y-81923000D01*
X108124000Y-56197500D02*
X108124000Y-57070000D01*
X108458000Y-57404000D02*
X108458000Y-58039000D01*
X108124000Y-57070000D02*
X108458000Y-57404000D01*
X108458000Y-58039000D02*
X108521500Y-58102500D01*
X108458000Y-58039000D02*
X109601000Y-58039000D01*
X121127500Y-59626500D02*
X122110500Y-59626500D01*
X122110500Y-59626500D02*
X122174000Y-59563000D01*
X121127500Y-58356500D02*
X122237500Y-58356500D01*
X122237500Y-58356500D02*
X122301000Y-58293000D01*
X117455000Y-79502000D02*
X118237000Y-79502000D01*
X117455000Y-79502000D02*
X117729000Y-79502000D01*
X117550000Y-81923000D02*
X118491000Y-82169000D01*
X118491000Y-82169000D02*
X119888000Y-83312000D01*
X117455000Y-79502000D02*
X117983000Y-79502000D01*
X113773000Y-73973000D02*
X113900000Y-72663000D01*
X113900000Y-72663000D02*
X113919000Y-72644000D01*
X116173000Y-65473000D02*
X116173000Y-64040000D01*
X116173000Y-64040000D02*
X116205000Y-64008000D01*
X121265000Y-65405000D02*
X121265000Y-64155000D01*
X121265000Y-64155000D02*
X121285000Y-64135000D01*
X127063500Y-65642500D02*
X127063500Y-66865500D01*
X127063500Y-66865500D02*
X127127000Y-66929000D01*
X120225500Y-76751500D02*
X120269000Y-76708000D01*
X120225500Y-76751500D02*
X118745000Y-77005500D01*
X103611500Y-76517500D02*
X104584500Y-76517500D01*
X104584500Y-76517500D02*
X104648000Y-76454000D01*
X110983000Y-76775000D02*
X110411500Y-76756500D01*
X110411500Y-76756500D02*
X110426500Y-76771500D01*
X116820000Y-77152500D02*
X118598000Y-77152500D01*
X118598000Y-77152500D02*
X118745000Y-77005500D01*
X117050000Y-81923000D02*
X117550000Y-81923000D01*
X111094500Y-62293500D02*
X111094500Y-62834500D01*
X111486000Y-63226000D02*
X111442500Y-63182500D01*
X111486000Y-63226000D02*
X112966500Y-63226000D01*
X111094500Y-62834500D02*
X111442500Y-63182500D01*
X105694500Y-59753500D02*
X107188000Y-59753500D01*
X102679500Y-82276000D02*
X104584500Y-82276000D01*
X104584500Y-82276000D02*
X106489500Y-82276000D01*
X106489500Y-82276000D02*
X106489500Y-83693000D01*
X114573000Y-73973000D02*
X114573000Y-75292000D01*
X114320000Y-75545000D02*
X114320000Y-77152500D01*
X114573000Y-75292000D02*
X114320000Y-75545000D01*
X114065000Y-76897500D02*
X114320000Y-77152500D01*
X112173000Y-73973000D02*
X112173000Y-72803000D01*
X112014000Y-72644000D02*
X111315500Y-72644000D01*
X112173000Y-72803000D02*
X112014000Y-72644000D01*
X122999500Y-77216000D02*
X122979500Y-77216000D01*
X121903500Y-79248000D02*
X121903500Y-80090000D01*
X121903500Y-80090000D02*
X121856500Y-80137000D01*
X105811500Y-77467500D02*
X105666500Y-77467500D01*
X105666500Y-77467500D02*
X104775000Y-78359000D01*
X104775000Y-78359000D02*
X103314500Y-78359000D01*
X103314500Y-78359000D02*
X102679500Y-78994000D01*
X102679500Y-78994000D02*
X102679500Y-79776000D01*
X101917500Y-74612500D02*
X102489000Y-75184000D01*
X102489000Y-75184000D02*
X102489000Y-75755500D01*
X101917500Y-68770500D02*
X101917500Y-74612500D01*
X106172000Y-64516000D02*
X101917500Y-68770500D01*
X103611500Y-75567500D02*
X102677000Y-75567500D01*
X102677000Y-77467500D02*
X103611500Y-77467500D01*
X102489000Y-77279500D02*
X102677000Y-77467500D01*
X102489000Y-75755500D02*
X102489000Y-77279500D01*
X102677000Y-75567500D02*
X102489000Y-75755500D01*
X109415000Y-73147500D02*
X109093000Y-73469500D01*
X109415000Y-72459500D02*
X109415000Y-73147500D01*
X108045000Y-71659500D02*
X108013500Y-71628000D01*
X109415000Y-71659500D02*
X108045000Y-71659500D01*
X114550000Y-82681000D02*
X114427000Y-83185000D01*
X110983000Y-79435000D02*
X110995700Y-80545700D01*
X110947200Y-80594200D02*
X110995700Y-80545700D01*
X114550000Y-82681000D02*
X114550000Y-81923000D01*
X113157000Y-84455000D02*
X112712500Y-84518500D01*
X114427000Y-83185000D02*
X113157000Y-84455000D01*
X114050000Y-81923000D02*
X114050000Y-82736500D01*
X111245500Y-70732500D02*
X109415000Y-70859500D01*
X111252000Y-70739000D02*
X111245500Y-70732500D01*
X113220500Y-83566000D02*
X107823000Y-83566000D01*
X114050000Y-82736500D02*
X113220500Y-83566000D01*
X113550000Y-82588800D02*
X113550000Y-81923000D01*
X108381800Y-83045300D02*
X108013500Y-82677000D01*
X113093500Y-83045300D02*
X108381800Y-83045300D01*
X113550000Y-82588800D02*
X113093500Y-83045300D01*
X108070500Y-68459500D02*
X109415000Y-68459500D01*
X107886500Y-68643500D02*
X108070500Y-68459500D01*
X113050000Y-81923000D02*
X113050000Y-82072800D01*
X113050000Y-82072800D02*
X112649000Y-82473800D01*
X112649000Y-82473800D02*
X108826300Y-82473800D01*
X108286500Y-69259500D02*
X109415000Y-69259500D01*
X108286500Y-69259500D02*
X107950000Y-69596000D01*
X108826300Y-82473800D02*
X107886500Y-81534000D01*
X116550000Y-81923000D02*
X116550000Y-82586000D01*
X116550000Y-82586000D02*
X116205000Y-82931000D01*
X116205000Y-82931000D02*
X116205000Y-84772500D01*
X112973000Y-75622000D02*
X112973000Y-73973000D01*
X112903000Y-75692000D02*
X112973000Y-75622000D01*
X123317000Y-79248000D02*
X124603500Y-79248000D01*
X111031000Y-59690000D02*
X108839000Y-59690000D01*
X108458000Y-59690000D02*
X108839000Y-59690000D01*
X108007500Y-66859500D02*
X107823000Y-66675000D01*
X108007500Y-66859500D02*
X109415000Y-66859500D01*
D28*
X111031000Y-59690000D02*
X111094500Y-59753500D01*
X109415000Y-66859500D02*
X108833000Y-66859500D01*
X110967500Y-59880500D02*
X111094500Y-59753500D01*
X111094500Y-59753500D02*
X111823500Y-59753500D01*
D27*
X111823500Y-59753500D02*
X112395000Y-59182000D01*
X112712500Y-58356500D02*
X115727500Y-58356500D01*
X112395000Y-58674000D02*
X112712500Y-58356500D01*
X112395000Y-59182000D02*
X112395000Y-58674000D01*
D28*
X115727500Y-58356500D02*
X115727500Y-58539400D01*
D27*
X115727500Y-58539400D02*
X114935000Y-57746900D01*
X114935000Y-57746900D02*
X114935000Y-56642000D01*
X114935000Y-56642000D02*
X114554000Y-56261000D01*
X114554000Y-56261000D02*
X113521500Y-56261000D01*
X115727500Y-59626500D02*
X117919500Y-59626500D01*
X117919500Y-59626500D02*
X118110000Y-59436000D01*
X109415000Y-67659500D02*
X107854500Y-67659500D01*
X107854500Y-67659500D02*
X107823000Y-67691000D01*
X110824000Y-56197500D02*
X110824000Y-57293500D01*
X110824000Y-57293500D02*
X111061500Y-57531000D01*
X110824000Y-56197500D02*
X111188500Y-56197500D01*
X111285000Y-58483500D02*
X111285000Y-57942500D01*
X111285000Y-57942500D02*
X111061500Y-57719000D01*
X111061500Y-57719000D02*
X111061500Y-57531000D01*
X115727500Y-60896500D02*
X117919500Y-60896500D01*
X112141000Y-78041500D02*
X111633000Y-77533500D01*
X111633000Y-77533500D02*
X111633000Y-76775000D01*
X117919500Y-60896500D02*
X117983000Y-60833000D01*
X108966000Y-76755000D02*
X108966000Y-77978000D01*
X108966000Y-77978000D02*
X109156500Y-78168500D01*
X109156500Y-78168500D02*
X111442500Y-78168500D01*
X111442500Y-78168500D02*
X111633000Y-77978000D01*
X111633000Y-77978000D02*
X111633000Y-76775000D01*
X112173000Y-66643500D02*
X112268000Y-66738500D01*
X112173000Y-66643500D02*
X112268000Y-66738500D01*
X112173000Y-65473000D02*
X112173000Y-66643500D01*
X117915000Y-69259500D02*
X119881700Y-69259500D01*
X119881700Y-69259500D02*
X119938800Y-69316600D01*
X111169500Y-70059500D02*
X111379000Y-69850000D01*
X111169500Y-70059500D02*
X109415000Y-70059500D01*
X114573000Y-65473000D02*
X114573000Y-63379400D01*
X114573000Y-63379400D02*
X114630200Y-63322200D01*
X105885000Y-61023500D02*
X107251500Y-61023500D01*
X114630200Y-63322200D02*
X114579400Y-63373000D01*
X117915000Y-67659500D02*
X119920000Y-67659500D01*
X119920000Y-67659500D02*
X119951500Y-67691000D01*
X124714000Y-65532000D02*
X124734500Y-65511500D01*
D28*
X124734500Y-65511500D02*
X124777500Y-65511500D01*
D27*
X125158500Y-67711500D02*
X125306000Y-67711500D01*
X125306000Y-67711500D02*
X125937000Y-68342500D01*
X125937000Y-68342500D02*
X127063500Y-68342500D01*
X107886500Y-58483500D02*
X108204000Y-58801000D01*
X108204000Y-58801000D02*
X109347000Y-58801000D01*
X105885000Y-58483500D02*
X107886500Y-58483500D01*
X122682000Y-56134000D02*
X122635000Y-56134000D01*
X123863100Y-62166500D02*
X121127500Y-62166500D01*
X123875800Y-62179200D02*
X123863100Y-62166500D01*
X105811500Y-75567500D02*
X105158500Y-75567500D01*
X105791000Y-78359000D02*
X104584500Y-79565500D01*
X105158500Y-75567500D02*
X105156000Y-75565000D01*
X104584500Y-79565500D02*
X104584500Y-79776000D01*
X104584500Y-79776000D02*
X104882000Y-79776000D01*
X104584500Y-79776000D02*
X106489500Y-79776000D01*
X106489500Y-79776000D02*
X106489500Y-79438500D01*
X106810500Y-79455000D02*
X106489500Y-79776000D01*
X116973000Y-73973000D02*
X116973000Y-71634000D01*
X116332000Y-70993000D02*
X116332000Y-67691000D01*
X116973000Y-71634000D02*
X116332000Y-70993000D01*
X116173000Y-72104000D02*
X116173000Y-73973000D01*
X115570000Y-71501000D02*
X116173000Y-72104000D01*
X115570000Y-68453000D02*
X115570000Y-71501000D01*
X114808000Y-67691000D02*
X115570000Y-68453000D01*
D29*
G36*
X118519673Y-55251301D02*
X118423000Y-55484690D01*
X118423000Y-55975250D01*
X118581750Y-56134000D01*
X119681000Y-56134000D01*
X119681000Y-56114000D01*
X119935000Y-56114000D01*
X119935000Y-56134000D01*
X119955000Y-56134000D01*
X119955000Y-56388000D01*
X119935000Y-56388000D01*
X119935000Y-57387250D01*
X120046543Y-57498793D01*
X119901059Y-57592410D01*
X119756069Y-57804610D01*
X119705060Y-58056500D01*
X119705060Y-58656500D01*
X119749338Y-58891817D01*
X119813178Y-58991028D01*
X119756069Y-59074610D01*
X119705060Y-59326500D01*
X119705060Y-59926500D01*
X119749338Y-60161817D01*
X119813178Y-60261028D01*
X119756069Y-60344610D01*
X119705060Y-60596500D01*
X119705060Y-61196500D01*
X119749338Y-61431817D01*
X119813178Y-61531028D01*
X119756069Y-61614610D01*
X119705060Y-61866500D01*
X119705060Y-62466500D01*
X119749338Y-62701817D01*
X119888410Y-62917941D01*
X120100610Y-63062931D01*
X120352500Y-63113940D01*
X121902500Y-63113940D01*
X122137817Y-63069662D01*
X122321446Y-62951500D01*
X123264999Y-62951500D01*
X123321141Y-63007740D01*
X123680430Y-63156930D01*
X124069463Y-63157269D01*
X124429012Y-63008707D01*
X124704340Y-62733859D01*
X124853530Y-62374570D01*
X124853602Y-62292293D01*
X124857841Y-62296540D01*
X125217130Y-62445730D01*
X125606163Y-62446069D01*
X125965712Y-62297507D01*
X126241040Y-62022659D01*
X126390230Y-61663370D01*
X126390569Y-61274337D01*
X126242007Y-60914788D01*
X125967159Y-60639460D01*
X125607870Y-60490270D01*
X125218837Y-60489931D01*
X124859288Y-60638493D01*
X124583960Y-60913341D01*
X124434770Y-61272630D01*
X124434698Y-61354907D01*
X124430459Y-61350660D01*
X124071170Y-61201470D01*
X123682137Y-61201131D01*
X123322588Y-61349693D01*
X123290725Y-61381500D01*
X122512477Y-61381500D01*
X122549940Y-61196500D01*
X122549940Y-60596500D01*
X122527113Y-60475186D01*
X122727212Y-60392507D01*
X123002540Y-60117659D01*
X123151730Y-59758370D01*
X123152069Y-59369337D01*
X123003507Y-59009788D01*
X122985349Y-58991598D01*
X123129540Y-58847659D01*
X123278730Y-58488370D01*
X123279069Y-58099337D01*
X123130507Y-57739788D01*
X122949475Y-57558440D01*
X123258000Y-57558440D01*
X123493317Y-57514162D01*
X123709441Y-57375090D01*
X123854431Y-57162890D01*
X123905440Y-56911000D01*
X123905440Y-55611000D01*
X123861162Y-55375683D01*
X123777070Y-55245000D01*
X126197192Y-55245000D01*
X126037996Y-55403918D01*
X125773301Y-56041373D01*
X125772699Y-56731599D01*
X126036281Y-57369515D01*
X126523918Y-57858004D01*
X127161373Y-58122699D01*
X127851599Y-58123301D01*
X128489515Y-57859719D01*
X128574689Y-57774694D01*
X128574467Y-60391075D01*
X128232767Y-60249189D01*
X127801127Y-60248812D01*
X127402200Y-60413646D01*
X127096718Y-60718595D01*
X126931189Y-61117233D01*
X126930812Y-61548873D01*
X127095646Y-61947800D01*
X127400595Y-62253282D01*
X127799233Y-62418811D01*
X128230873Y-62419188D01*
X128574307Y-62277283D01*
X128574272Y-62690994D01*
X128232767Y-62549189D01*
X127801127Y-62548812D01*
X127402200Y-62713646D01*
X127096718Y-63018595D01*
X126931189Y-63417233D01*
X126930812Y-63848873D01*
X127094514Y-64245060D01*
X126413500Y-64245060D01*
X126178183Y-64289338D01*
X126047743Y-64373274D01*
X125822000Y-64327560D01*
X124622000Y-64327560D01*
X124386683Y-64371838D01*
X124170559Y-64510910D01*
X124025569Y-64723110D01*
X123996541Y-64866453D01*
X123885460Y-64977341D01*
X123736270Y-65336630D01*
X123735931Y-65725663D01*
X123884493Y-66085212D01*
X123974661Y-66175538D01*
X124018838Y-66410317D01*
X124157910Y-66626441D01*
X124227711Y-66674134D01*
X124170559Y-66710910D01*
X124025569Y-66923110D01*
X123974560Y-67175000D01*
X123974560Y-68375000D01*
X124018838Y-68610317D01*
X124157910Y-68826441D01*
X124370110Y-68971431D01*
X124511253Y-69000013D01*
X124371270Y-69337130D01*
X124370931Y-69726163D01*
X124519493Y-70085712D01*
X124794341Y-70361040D01*
X125153630Y-70510230D01*
X125542663Y-70510569D01*
X125902212Y-70362007D01*
X126177540Y-70087159D01*
X126326730Y-69727870D01*
X126326735Y-69722370D01*
X126413500Y-69739940D01*
X127219587Y-69739940D01*
X127096718Y-69862595D01*
X126931189Y-70261233D01*
X126930812Y-70692873D01*
X127095646Y-71091800D01*
X127400595Y-71397282D01*
X127799233Y-71562811D01*
X128230873Y-71563188D01*
X128573533Y-71421603D01*
X128573498Y-71834673D01*
X128232767Y-71693189D01*
X127801127Y-71692812D01*
X127402200Y-71857646D01*
X127096718Y-72162595D01*
X126931189Y-72561233D01*
X126930812Y-72992873D01*
X127095646Y-73391800D01*
X127400595Y-73697282D01*
X127799233Y-73862811D01*
X128230873Y-73863188D01*
X128573338Y-73721684D01*
X128572918Y-78678432D01*
X128232767Y-78537189D01*
X127801127Y-78536812D01*
X127402200Y-78701646D01*
X127096718Y-79006595D01*
X126931189Y-79405233D01*
X126930812Y-79836873D01*
X127095646Y-80235800D01*
X127400595Y-80541282D01*
X127799233Y-80706811D01*
X128230873Y-80707188D01*
X128572758Y-80565923D01*
X128572723Y-80978351D01*
X128232767Y-80837189D01*
X127801127Y-80836812D01*
X127402200Y-81001646D01*
X127096718Y-81306595D01*
X126931189Y-81705233D01*
X126930812Y-82136873D01*
X127095646Y-82535800D01*
X127400595Y-82841282D01*
X127799233Y-83006811D01*
X128230873Y-83007188D01*
X128572563Y-82866004D01*
X128572363Y-85224418D01*
X128492082Y-85143996D01*
X127854627Y-84879301D01*
X127164401Y-84878699D01*
X126526485Y-85142281D01*
X126037996Y-85629918D01*
X125773301Y-86267373D01*
X125772699Y-86957599D01*
X126036281Y-87595515D01*
X126172129Y-87731600D01*
X124732425Y-87731600D01*
X124863327Y-87600699D01*
X124960000Y-87367310D01*
X124960000Y-87026750D01*
X124801250Y-86868000D01*
X123952000Y-86868000D01*
X123952000Y-86888000D01*
X123698000Y-86888000D01*
X123698000Y-86868000D01*
X122848750Y-86868000D01*
X122690000Y-87026750D01*
X122690000Y-87367310D01*
X122786673Y-87600699D01*
X122917575Y-87731600D01*
X120332494Y-87731600D01*
X119653568Y-87080167D01*
X119534774Y-87004294D01*
X119417605Y-86926004D01*
X119409749Y-86924441D01*
X119402997Y-86920129D01*
X119264230Y-86895496D01*
X119126000Y-86868000D01*
X114413059Y-86868000D01*
X114493540Y-86787659D01*
X114642730Y-86428370D01*
X114642793Y-86355785D01*
X114866630Y-86448730D01*
X115255663Y-86449069D01*
X115615212Y-86300507D01*
X115890540Y-86025659D01*
X116005603Y-85748558D01*
X116009630Y-85750230D01*
X116398663Y-85750569D01*
X116758212Y-85602007D01*
X117033540Y-85327159D01*
X117182730Y-84967870D01*
X117183069Y-84578837D01*
X117034507Y-84219288D01*
X116990000Y-84174703D01*
X116990000Y-83256158D01*
X117105079Y-83141079D01*
X117152278Y-83070440D01*
X117200000Y-83070440D01*
X117285099Y-83054428D01*
X117259270Y-83116630D01*
X117258931Y-83505663D01*
X117407493Y-83865212D01*
X117682341Y-84140540D01*
X118041630Y-84289730D01*
X118202560Y-84289870D01*
X118202560Y-85273000D01*
X118246838Y-85508317D01*
X118385910Y-85724441D01*
X118598110Y-85869431D01*
X118850000Y-85920440D01*
X120561261Y-85920440D01*
X120560931Y-86299663D01*
X120709493Y-86659212D01*
X120984341Y-86934540D01*
X121343630Y-87083730D01*
X121732663Y-87084069D01*
X122092212Y-86935507D01*
X122367540Y-86660659D01*
X122516730Y-86301370D01*
X122517069Y-85912337D01*
X122368507Y-85552788D01*
X122093659Y-85277460D01*
X121734370Y-85128270D01*
X121497440Y-85128064D01*
X121497440Y-83973000D01*
X121453162Y-83737683D01*
X121314090Y-83521559D01*
X121101890Y-83376569D01*
X120865886Y-83328777D01*
X120866069Y-83118337D01*
X120717507Y-82758788D01*
X120442659Y-82483460D01*
X120083370Y-82334270D01*
X119932497Y-82334139D01*
X118988092Y-81561444D01*
X118974953Y-81554446D01*
X118965071Y-81543316D01*
X118840229Y-81482694D01*
X118717751Y-81417463D01*
X118702939Y-81416026D01*
X118689546Y-81409523D01*
X118327074Y-81314764D01*
X118303162Y-81187683D01*
X118164090Y-80971559D01*
X117951890Y-80826569D01*
X117700000Y-80775560D01*
X117400000Y-80775560D01*
X117296329Y-80795067D01*
X117200000Y-80775560D01*
X116900000Y-80775560D01*
X116796329Y-80795067D01*
X116700000Y-80775560D01*
X116400000Y-80775560D01*
X116328676Y-80788981D01*
X116326309Y-80788000D01*
X116283750Y-80788000D01*
X116272129Y-80799621D01*
X116164683Y-80819838D01*
X116061354Y-80886329D01*
X116059698Y-80884673D01*
X115826309Y-80788000D01*
X115773691Y-80788000D01*
X115550000Y-80880656D01*
X115326309Y-80788000D01*
X115273691Y-80788000D01*
X115040302Y-80884673D01*
X115038932Y-80886043D01*
X114951890Y-80826569D01*
X114830170Y-80801920D01*
X114816250Y-80788000D01*
X114773691Y-80788000D01*
X114769665Y-80789668D01*
X114700000Y-80775560D01*
X114400000Y-80775560D01*
X114296329Y-80795067D01*
X114200000Y-80775560D01*
X113900000Y-80775560D01*
X113796329Y-80795067D01*
X113700000Y-80775560D01*
X113400000Y-80775560D01*
X113296329Y-80795067D01*
X113200000Y-80775560D01*
X112900000Y-80775560D01*
X112664683Y-80819838D01*
X112448559Y-80958910D01*
X112303569Y-81171110D01*
X112252560Y-81423000D01*
X112252560Y-81688800D01*
X109151458Y-81688800D01*
X108864515Y-81401857D01*
X108864569Y-81340337D01*
X108716007Y-80980788D01*
X108575464Y-80840000D01*
X108680250Y-80840000D01*
X108839000Y-80681250D01*
X108839000Y-79582000D01*
X108819000Y-79582000D01*
X108819000Y-79328000D01*
X108839000Y-79328000D01*
X108839000Y-79308000D01*
X109093000Y-79308000D01*
X109093000Y-79328000D01*
X109113000Y-79328000D01*
X109113000Y-79582000D01*
X109093000Y-79582000D01*
X109093000Y-80681250D01*
X109251750Y-80840000D01*
X109742310Y-80840000D01*
X109969167Y-80746032D01*
X109969131Y-80787863D01*
X110117693Y-81147412D01*
X110392541Y-81422740D01*
X110751830Y-81571930D01*
X111140863Y-81572269D01*
X111500412Y-81423707D01*
X111775740Y-81148859D01*
X111918810Y-80804309D01*
X111956690Y-80820000D01*
X112024250Y-80820000D01*
X112183000Y-80661250D01*
X112183000Y-79562000D01*
X112383000Y-79562000D01*
X112383000Y-80661250D01*
X112541750Y-80820000D01*
X112609310Y-80820000D01*
X112842699Y-80723327D01*
X113021327Y-80544698D01*
X113118000Y-80311309D01*
X113118000Y-79787750D01*
X113570000Y-79787750D01*
X113570000Y-80253310D01*
X113666673Y-80486699D01*
X113845302Y-80665327D01*
X114078691Y-80762000D01*
X114669250Y-80762000D01*
X114828000Y-80603250D01*
X114828000Y-79629000D01*
X113728750Y-79629000D01*
X113570000Y-79787750D01*
X113118000Y-79787750D01*
X113118000Y-79720750D01*
X112959250Y-79562000D01*
X112383000Y-79562000D01*
X112183000Y-79562000D01*
X112136000Y-79562000D01*
X112136000Y-79308000D01*
X112183000Y-79308000D01*
X112183000Y-79288000D01*
X112383000Y-79288000D01*
X112383000Y-79308000D01*
X112959250Y-79308000D01*
X113118000Y-79149250D01*
X113118000Y-78558691D01*
X113051631Y-78398462D01*
X113118461Y-78237517D01*
X113318110Y-78373931D01*
X113570000Y-78424940D01*
X113759035Y-78424940D01*
X113666673Y-78517301D01*
X113570000Y-78750690D01*
X113570000Y-79216250D01*
X113728750Y-79375000D01*
X114828000Y-79375000D01*
X114828000Y-79355000D01*
X115082000Y-79355000D01*
X115082000Y-79375000D01*
X115102000Y-79375000D01*
X115102000Y-79629000D01*
X115082000Y-79629000D01*
X115082000Y-80603250D01*
X115240750Y-80762000D01*
X115831309Y-80762000D01*
X116064698Y-80665327D01*
X116205936Y-80524090D01*
X116240910Y-80578441D01*
X116453110Y-80723431D01*
X116705000Y-80774440D01*
X118205000Y-80774440D01*
X118440317Y-80730162D01*
X118656441Y-80591090D01*
X118801431Y-80378890D01*
X118816300Y-80305464D01*
X119065540Y-80056659D01*
X119214730Y-79697370D01*
X119215069Y-79308337D01*
X119066507Y-78948788D01*
X118819363Y-78701213D01*
X118808162Y-78641683D01*
X118669090Y-78425559D01*
X118635986Y-78402940D01*
X119370000Y-78402940D01*
X119414795Y-78394511D01*
X119477610Y-78437431D01*
X119561222Y-78454363D01*
X119418270Y-78798630D01*
X119417931Y-79187663D01*
X119566493Y-79547212D01*
X119841341Y-79822540D01*
X120200630Y-79971730D01*
X120519986Y-79972008D01*
X120550338Y-80133317D01*
X120689410Y-80349441D01*
X120701824Y-80357923D01*
X120477788Y-80450493D01*
X120202460Y-80725341D01*
X120053270Y-81084630D01*
X120052931Y-81473663D01*
X120201493Y-81833212D01*
X120476341Y-82108540D01*
X120835630Y-82257730D01*
X121224663Y-82258069D01*
X121584212Y-82109507D01*
X121859540Y-81834659D01*
X122008730Y-81475370D01*
X122009044Y-81115033D01*
X122050163Y-81115069D01*
X122409712Y-80966507D01*
X122685040Y-80691659D01*
X122753575Y-80526610D01*
X122888817Y-80501162D01*
X123104941Y-80362090D01*
X123198066Y-80225797D01*
X123309910Y-80225894D01*
X123389410Y-80349441D01*
X123601610Y-80494431D01*
X123779931Y-80530542D01*
X123368418Y-80612397D01*
X123000198Y-80858434D01*
X122754161Y-81226654D01*
X122667764Y-81661000D01*
X122754161Y-82095346D01*
X122888234Y-82296000D01*
X122754161Y-82496654D01*
X122667764Y-82931000D01*
X122754161Y-83365346D01*
X122888234Y-83566000D01*
X122754161Y-83766654D01*
X122667764Y-84201000D01*
X122754161Y-84635346D01*
X122888234Y-84836000D01*
X122754161Y-85036654D01*
X122667764Y-85471000D01*
X122754161Y-85905346D01*
X122768083Y-85926182D01*
X122690000Y-86114690D01*
X122690000Y-86455250D01*
X122848750Y-86614000D01*
X123698000Y-86614000D01*
X123698000Y-86594000D01*
X123742436Y-86594000D01*
X123802764Y-86606000D01*
X123847236Y-86606000D01*
X123907564Y-86594000D01*
X123952000Y-86594000D01*
X123952000Y-86614000D01*
X124801250Y-86614000D01*
X124960000Y-86455250D01*
X124960000Y-86114690D01*
X124881917Y-85926182D01*
X124895839Y-85905346D01*
X124982236Y-85471000D01*
X124895839Y-85036654D01*
X124761766Y-84836000D01*
X124895839Y-84635346D01*
X124982236Y-84201000D01*
X124895839Y-83766654D01*
X124761766Y-83566000D01*
X124895839Y-83365346D01*
X124982236Y-82931000D01*
X124895839Y-82496654D01*
X124761766Y-82296000D01*
X124895839Y-82095346D01*
X124982236Y-81661000D01*
X124895839Y-81226654D01*
X124649802Y-80858434D01*
X124281582Y-80612397D01*
X123944967Y-80545440D01*
X125353500Y-80545440D01*
X125588817Y-80501162D01*
X125804941Y-80362090D01*
X125949931Y-80149890D01*
X126000940Y-79898000D01*
X126000940Y-78598000D01*
X125956662Y-78362683D01*
X125817590Y-78146559D01*
X125605390Y-78001569D01*
X125353500Y-77950560D01*
X124354754Y-77950560D01*
X124376940Y-77841000D01*
X124376940Y-77600163D01*
X125577431Y-77600163D01*
X125725993Y-77959712D01*
X126000841Y-78235040D01*
X126360130Y-78384230D01*
X126749163Y-78384569D01*
X127108712Y-78236007D01*
X127384040Y-77961159D01*
X127533230Y-77601870D01*
X127533569Y-77212837D01*
X127385007Y-76853288D01*
X127110159Y-76577960D01*
X126750870Y-76428770D01*
X126361837Y-76428431D01*
X126002288Y-76576993D01*
X125726960Y-76851841D01*
X125577770Y-77211130D01*
X125577431Y-77600163D01*
X124376940Y-77600163D01*
X124376940Y-76591000D01*
X124332662Y-76355683D01*
X124193590Y-76139559D01*
X123981390Y-75994569D01*
X123729500Y-75943560D01*
X122229500Y-75943560D01*
X121994183Y-75987838D01*
X121778059Y-76126910D01*
X121730366Y-76196711D01*
X121693590Y-76139559D01*
X121481390Y-75994569D01*
X121229500Y-75943560D01*
X120887647Y-75943560D01*
X120823659Y-75879460D01*
X120464370Y-75730270D01*
X120075337Y-75729931D01*
X119847079Y-75824245D01*
X119834090Y-75804059D01*
X119765994Y-75757531D01*
X119908327Y-75615198D01*
X120005000Y-75381809D01*
X120005000Y-74791250D01*
X119846250Y-74632500D01*
X118872000Y-74632500D01*
X118872000Y-74652500D01*
X118618000Y-74652500D01*
X118618000Y-74632500D01*
X118598000Y-74632500D01*
X118598000Y-74378500D01*
X118618000Y-74378500D01*
X118618000Y-74358500D01*
X118872000Y-74358500D01*
X118872000Y-74378500D01*
X119846250Y-74378500D01*
X120005000Y-74219750D01*
X120005000Y-73629191D01*
X119908327Y-73395802D01*
X119729699Y-73217173D01*
X119710551Y-73209242D01*
X119819431Y-73049890D01*
X119870440Y-72798000D01*
X119870440Y-72248000D01*
X119846056Y-72118411D01*
X119870440Y-71998000D01*
X119870440Y-71448000D01*
X119846056Y-71318411D01*
X119870440Y-71198000D01*
X119870440Y-70648000D01*
X119846056Y-70518411D01*
X119870440Y-70398000D01*
X119870440Y-70294441D01*
X120132463Y-70294669D01*
X120492012Y-70146107D01*
X120767340Y-69871259D01*
X120916530Y-69511970D01*
X120916869Y-69122937D01*
X120768307Y-68763388D01*
X120515299Y-68509938D01*
X120780040Y-68245659D01*
X120929230Y-67886370D01*
X120929569Y-67497337D01*
X120781007Y-67137788D01*
X120506159Y-66862460D01*
X120146870Y-66713270D01*
X119870440Y-66713029D01*
X119870440Y-66648000D01*
X119856840Y-66575724D01*
X119874698Y-66568327D01*
X120015936Y-66427090D01*
X120050910Y-66481441D01*
X120263110Y-66626431D01*
X120515000Y-66677440D01*
X122015000Y-66677440D01*
X122250317Y-66633162D01*
X122466441Y-66494090D01*
X122611431Y-66281890D01*
X122662440Y-66030000D01*
X122662440Y-64780000D01*
X122618162Y-64544683D01*
X122479090Y-64328559D01*
X122266890Y-64183569D01*
X122262859Y-64182753D01*
X122263069Y-63941337D01*
X122114507Y-63581788D01*
X121839659Y-63306460D01*
X121480370Y-63157270D01*
X121091337Y-63156931D01*
X120731788Y-63305493D01*
X120456460Y-63580341D01*
X120307270Y-63939630D01*
X120307068Y-64171685D01*
X120279683Y-64176838D01*
X120063559Y-64315910D01*
X120017031Y-64384006D01*
X119874698Y-64241673D01*
X119641309Y-64145000D01*
X119050750Y-64145000D01*
X118892000Y-64303750D01*
X118892000Y-65278000D01*
X118912000Y-65278000D01*
X118912000Y-65532000D01*
X118892000Y-65532000D01*
X118892000Y-65552000D01*
X118638000Y-65552000D01*
X118638000Y-65532000D01*
X117538750Y-65532000D01*
X117470750Y-65600000D01*
X117100000Y-65600000D01*
X117100000Y-65620000D01*
X117095440Y-65620000D01*
X117095440Y-65326000D01*
X117100000Y-65326000D01*
X117100000Y-65346000D01*
X117724250Y-65346000D01*
X117792250Y-65278000D01*
X118638000Y-65278000D01*
X118638000Y-64303750D01*
X118479250Y-64145000D01*
X117888691Y-64145000D01*
X117697302Y-64224276D01*
X117607699Y-64134673D01*
X117374310Y-64038000D01*
X117258750Y-64038000D01*
X117182808Y-64113942D01*
X117183069Y-63814337D01*
X117034507Y-63454788D01*
X116759659Y-63179460D01*
X116571911Y-63101500D01*
X116628809Y-63101500D01*
X116862198Y-63004827D01*
X117040827Y-62826199D01*
X117137500Y-62592810D01*
X117137500Y-62452250D01*
X116978750Y-62293500D01*
X115854500Y-62293500D01*
X115854500Y-62942750D01*
X115962047Y-63050297D01*
X115651788Y-63178493D01*
X115608188Y-63222017D01*
X115608269Y-63128537D01*
X115551677Y-62991573D01*
X115600500Y-62942750D01*
X115600500Y-62293500D01*
X115580500Y-62293500D01*
X115580500Y-62039500D01*
X115600500Y-62039500D01*
X115600500Y-62019500D01*
X115854500Y-62019500D01*
X115854500Y-62039500D01*
X116978750Y-62039500D01*
X117137500Y-61880750D01*
X117137500Y-61740190D01*
X117113190Y-61681500D01*
X117476410Y-61681500D01*
X117787630Y-61810730D01*
X118176663Y-61811069D01*
X118536212Y-61662507D01*
X118811540Y-61387659D01*
X118960730Y-61028370D01*
X118961069Y-60639337D01*
X118812507Y-60279788D01*
X118730849Y-60197988D01*
X118938540Y-59990659D01*
X119087730Y-59631370D01*
X119088069Y-59242337D01*
X118939507Y-58882788D01*
X118664659Y-58607460D01*
X118305370Y-58458270D01*
X117916337Y-58457931D01*
X117556788Y-58606493D01*
X117321371Y-58841500D01*
X117112477Y-58841500D01*
X117149940Y-58656500D01*
X117149940Y-58056500D01*
X117105662Y-57821183D01*
X116966590Y-57605059D01*
X116880154Y-57546000D01*
X117097809Y-57546000D01*
X117331198Y-57449327D01*
X117509827Y-57270699D01*
X117606500Y-57037310D01*
X117606500Y-56546750D01*
X118423000Y-56546750D01*
X118423000Y-57037310D01*
X118519673Y-57270699D01*
X118698302Y-57449327D01*
X118931691Y-57546000D01*
X119522250Y-57546000D01*
X119681000Y-57387250D01*
X119681000Y-56388000D01*
X118581750Y-56388000D01*
X118423000Y-56546750D01*
X117606500Y-56546750D01*
X117447750Y-56388000D01*
X116348500Y-56388000D01*
X116348500Y-56408000D01*
X116094500Y-56408000D01*
X116094500Y-56388000D01*
X116074500Y-56388000D01*
X116074500Y-56134000D01*
X116094500Y-56134000D01*
X116094500Y-56114000D01*
X116348500Y-56114000D01*
X116348500Y-56134000D01*
X117447750Y-56134000D01*
X117606500Y-55975250D01*
X117606500Y-55484690D01*
X117509827Y-55251301D01*
X117503526Y-55245000D01*
X118525974Y-55245000D01*
X118519673Y-55251301D01*
X118519673Y-55251301D01*
G37*
X118519673Y-55251301D02*
X118423000Y-55484690D01*
X118423000Y-55975250D01*
X118581750Y-56134000D01*
X119681000Y-56134000D01*
X119681000Y-56114000D01*
X119935000Y-56114000D01*
X119935000Y-56134000D01*
X119955000Y-56134000D01*
X119955000Y-56388000D01*
X119935000Y-56388000D01*
X119935000Y-57387250D01*
X120046543Y-57498793D01*
X119901059Y-57592410D01*
X119756069Y-57804610D01*
X119705060Y-58056500D01*
X119705060Y-58656500D01*
X119749338Y-58891817D01*
X119813178Y-58991028D01*
X119756069Y-59074610D01*
X119705060Y-59326500D01*
X119705060Y-59926500D01*
X119749338Y-60161817D01*
X119813178Y-60261028D01*
X119756069Y-60344610D01*
X119705060Y-60596500D01*
X119705060Y-61196500D01*
X119749338Y-61431817D01*
X119813178Y-61531028D01*
X119756069Y-61614610D01*
X119705060Y-61866500D01*
X119705060Y-62466500D01*
X119749338Y-62701817D01*
X119888410Y-62917941D01*
X120100610Y-63062931D01*
X120352500Y-63113940D01*
X121902500Y-63113940D01*
X122137817Y-63069662D01*
X122321446Y-62951500D01*
X123264999Y-62951500D01*
X123321141Y-63007740D01*
X123680430Y-63156930D01*
X124069463Y-63157269D01*
X124429012Y-63008707D01*
X124704340Y-62733859D01*
X124853530Y-62374570D01*
X124853602Y-62292293D01*
X124857841Y-62296540D01*
X125217130Y-62445730D01*
X125606163Y-62446069D01*
X125965712Y-62297507D01*
X126241040Y-62022659D01*
X126390230Y-61663370D01*
X126390569Y-61274337D01*
X126242007Y-60914788D01*
X125967159Y-60639460D01*
X125607870Y-60490270D01*
X125218837Y-60489931D01*
X124859288Y-60638493D01*
X124583960Y-60913341D01*
X124434770Y-61272630D01*
X124434698Y-61354907D01*
X124430459Y-61350660D01*
X124071170Y-61201470D01*
X123682137Y-61201131D01*
X123322588Y-61349693D01*
X123290725Y-61381500D01*
X122512477Y-61381500D01*
X122549940Y-61196500D01*
X122549940Y-60596500D01*
X122527113Y-60475186D01*
X122727212Y-60392507D01*
X123002540Y-60117659D01*
X123151730Y-59758370D01*
X123152069Y-59369337D01*
X123003507Y-59009788D01*
X122985349Y-58991598D01*
X123129540Y-58847659D01*
X123278730Y-58488370D01*
X123279069Y-58099337D01*
X123130507Y-57739788D01*
X122949475Y-57558440D01*
X123258000Y-57558440D01*
X123493317Y-57514162D01*
X123709441Y-57375090D01*
X123854431Y-57162890D01*
X123905440Y-56911000D01*
X123905440Y-55611000D01*
X123861162Y-55375683D01*
X123777070Y-55245000D01*
X126197192Y-55245000D01*
X126037996Y-55403918D01*
X125773301Y-56041373D01*
X125772699Y-56731599D01*
X126036281Y-57369515D01*
X126523918Y-57858004D01*
X127161373Y-58122699D01*
X127851599Y-58123301D01*
X128489515Y-57859719D01*
X128574689Y-57774694D01*
X128574467Y-60391075D01*
X128232767Y-60249189D01*
X127801127Y-60248812D01*
X127402200Y-60413646D01*
X127096718Y-60718595D01*
X126931189Y-61117233D01*
X126930812Y-61548873D01*
X127095646Y-61947800D01*
X127400595Y-62253282D01*
X127799233Y-62418811D01*
X128230873Y-62419188D01*
X128574307Y-62277283D01*
X128574272Y-62690994D01*
X128232767Y-62549189D01*
X127801127Y-62548812D01*
X127402200Y-62713646D01*
X127096718Y-63018595D01*
X126931189Y-63417233D01*
X126930812Y-63848873D01*
X127094514Y-64245060D01*
X126413500Y-64245060D01*
X126178183Y-64289338D01*
X126047743Y-64373274D01*
X125822000Y-64327560D01*
X124622000Y-64327560D01*
X124386683Y-64371838D01*
X124170559Y-64510910D01*
X124025569Y-64723110D01*
X123996541Y-64866453D01*
X123885460Y-64977341D01*
X123736270Y-65336630D01*
X123735931Y-65725663D01*
X123884493Y-66085212D01*
X123974661Y-66175538D01*
X124018838Y-66410317D01*
X124157910Y-66626441D01*
X124227711Y-66674134D01*
X124170559Y-66710910D01*
X124025569Y-66923110D01*
X123974560Y-67175000D01*
X123974560Y-68375000D01*
X124018838Y-68610317D01*
X124157910Y-68826441D01*
X124370110Y-68971431D01*
X124511253Y-69000013D01*
X124371270Y-69337130D01*
X124370931Y-69726163D01*
X124519493Y-70085712D01*
X124794341Y-70361040D01*
X125153630Y-70510230D01*
X125542663Y-70510569D01*
X125902212Y-70362007D01*
X126177540Y-70087159D01*
X126326730Y-69727870D01*
X126326735Y-69722370D01*
X126413500Y-69739940D01*
X127219587Y-69739940D01*
X127096718Y-69862595D01*
X126931189Y-70261233D01*
X126930812Y-70692873D01*
X127095646Y-71091800D01*
X127400595Y-71397282D01*
X127799233Y-71562811D01*
X128230873Y-71563188D01*
X128573533Y-71421603D01*
X128573498Y-71834673D01*
X128232767Y-71693189D01*
X127801127Y-71692812D01*
X127402200Y-71857646D01*
X127096718Y-72162595D01*
X126931189Y-72561233D01*
X126930812Y-72992873D01*
X127095646Y-73391800D01*
X127400595Y-73697282D01*
X127799233Y-73862811D01*
X128230873Y-73863188D01*
X128573338Y-73721684D01*
X128572918Y-78678432D01*
X128232767Y-78537189D01*
X127801127Y-78536812D01*
X127402200Y-78701646D01*
X127096718Y-79006595D01*
X126931189Y-79405233D01*
X126930812Y-79836873D01*
X127095646Y-80235800D01*
X127400595Y-80541282D01*
X127799233Y-80706811D01*
X128230873Y-80707188D01*
X128572758Y-80565923D01*
X128572723Y-80978351D01*
X128232767Y-80837189D01*
X127801127Y-80836812D01*
X127402200Y-81001646D01*
X127096718Y-81306595D01*
X126931189Y-81705233D01*
X126930812Y-82136873D01*
X127095646Y-82535800D01*
X127400595Y-82841282D01*
X127799233Y-83006811D01*
X128230873Y-83007188D01*
X128572563Y-82866004D01*
X128572363Y-85224418D01*
X128492082Y-85143996D01*
X127854627Y-84879301D01*
X127164401Y-84878699D01*
X126526485Y-85142281D01*
X126037996Y-85629918D01*
X125773301Y-86267373D01*
X125772699Y-86957599D01*
X126036281Y-87595515D01*
X126172129Y-87731600D01*
X124732425Y-87731600D01*
X124863327Y-87600699D01*
X124960000Y-87367310D01*
X124960000Y-87026750D01*
X124801250Y-86868000D01*
X123952000Y-86868000D01*
X123952000Y-86888000D01*
X123698000Y-86888000D01*
X123698000Y-86868000D01*
X122848750Y-86868000D01*
X122690000Y-87026750D01*
X122690000Y-87367310D01*
X122786673Y-87600699D01*
X122917575Y-87731600D01*
X120332494Y-87731600D01*
X119653568Y-87080167D01*
X119534774Y-87004294D01*
X119417605Y-86926004D01*
X119409749Y-86924441D01*
X119402997Y-86920129D01*
X119264230Y-86895496D01*
X119126000Y-86868000D01*
X114413059Y-86868000D01*
X114493540Y-86787659D01*
X114642730Y-86428370D01*
X114642793Y-86355785D01*
X114866630Y-86448730D01*
X115255663Y-86449069D01*
X115615212Y-86300507D01*
X115890540Y-86025659D01*
X116005603Y-85748558D01*
X116009630Y-85750230D01*
X116398663Y-85750569D01*
X116758212Y-85602007D01*
X117033540Y-85327159D01*
X117182730Y-84967870D01*
X117183069Y-84578837D01*
X117034507Y-84219288D01*
X116990000Y-84174703D01*
X116990000Y-83256158D01*
X117105079Y-83141079D01*
X117152278Y-83070440D01*
X117200000Y-83070440D01*
X117285099Y-83054428D01*
X117259270Y-83116630D01*
X117258931Y-83505663D01*
X117407493Y-83865212D01*
X117682341Y-84140540D01*
X118041630Y-84289730D01*
X118202560Y-84289870D01*
X118202560Y-85273000D01*
X118246838Y-85508317D01*
X118385910Y-85724441D01*
X118598110Y-85869431D01*
X118850000Y-85920440D01*
X120561261Y-85920440D01*
X120560931Y-86299663D01*
X120709493Y-86659212D01*
X120984341Y-86934540D01*
X121343630Y-87083730D01*
X121732663Y-87084069D01*
X122092212Y-86935507D01*
X122367540Y-86660659D01*
X122516730Y-86301370D01*
X122517069Y-85912337D01*
X122368507Y-85552788D01*
X122093659Y-85277460D01*
X121734370Y-85128270D01*
X121497440Y-85128064D01*
X121497440Y-83973000D01*
X121453162Y-83737683D01*
X121314090Y-83521559D01*
X121101890Y-83376569D01*
X120865886Y-83328777D01*
X120866069Y-83118337D01*
X120717507Y-82758788D01*
X120442659Y-82483460D01*
X120083370Y-82334270D01*
X119932497Y-82334139D01*
X118988092Y-81561444D01*
X118974953Y-81554446D01*
X118965071Y-81543316D01*
X118840229Y-81482694D01*
X118717751Y-81417463D01*
X118702939Y-81416026D01*
X118689546Y-81409523D01*
X118327074Y-81314764D01*
X118303162Y-81187683D01*
X118164090Y-80971559D01*
X117951890Y-80826569D01*
X117700000Y-80775560D01*
X117400000Y-80775560D01*
X117296329Y-80795067D01*
X117200000Y-80775560D01*
X116900000Y-80775560D01*
X116796329Y-80795067D01*
X116700000Y-80775560D01*
X116400000Y-80775560D01*
X116328676Y-80788981D01*
X116326309Y-80788000D01*
X116283750Y-80788000D01*
X116272129Y-80799621D01*
X116164683Y-80819838D01*
X116061354Y-80886329D01*
X116059698Y-80884673D01*
X115826309Y-80788000D01*
X115773691Y-80788000D01*
X115550000Y-80880656D01*
X115326309Y-80788000D01*
X115273691Y-80788000D01*
X115040302Y-80884673D01*
X115038932Y-80886043D01*
X114951890Y-80826569D01*
X114830170Y-80801920D01*
X114816250Y-80788000D01*
X114773691Y-80788000D01*
X114769665Y-80789668D01*
X114700000Y-80775560D01*
X114400000Y-80775560D01*
X114296329Y-80795067D01*
X114200000Y-80775560D01*
X113900000Y-80775560D01*
X113796329Y-80795067D01*
X113700000Y-80775560D01*
X113400000Y-80775560D01*
X113296329Y-80795067D01*
X113200000Y-80775560D01*
X112900000Y-80775560D01*
X112664683Y-80819838D01*
X112448559Y-80958910D01*
X112303569Y-81171110D01*
X112252560Y-81423000D01*
X112252560Y-81688800D01*
X109151458Y-81688800D01*
X108864515Y-81401857D01*
X108864569Y-81340337D01*
X108716007Y-80980788D01*
X108575464Y-80840000D01*
X108680250Y-80840000D01*
X108839000Y-80681250D01*
X108839000Y-79582000D01*
X108819000Y-79582000D01*
X108819000Y-79328000D01*
X108839000Y-79328000D01*
X108839000Y-79308000D01*
X109093000Y-79308000D01*
X109093000Y-79328000D01*
X109113000Y-79328000D01*
X109113000Y-79582000D01*
X109093000Y-79582000D01*
X109093000Y-80681250D01*
X109251750Y-80840000D01*
X109742310Y-80840000D01*
X109969167Y-80746032D01*
X109969131Y-80787863D01*
X110117693Y-81147412D01*
X110392541Y-81422740D01*
X110751830Y-81571930D01*
X111140863Y-81572269D01*
X111500412Y-81423707D01*
X111775740Y-81148859D01*
X111918810Y-80804309D01*
X111956690Y-80820000D01*
X112024250Y-80820000D01*
X112183000Y-80661250D01*
X112183000Y-79562000D01*
X112383000Y-79562000D01*
X112383000Y-80661250D01*
X112541750Y-80820000D01*
X112609310Y-80820000D01*
X112842699Y-80723327D01*
X113021327Y-80544698D01*
X113118000Y-80311309D01*
X113118000Y-79787750D01*
X113570000Y-79787750D01*
X113570000Y-80253310D01*
X113666673Y-80486699D01*
X113845302Y-80665327D01*
X114078691Y-80762000D01*
X114669250Y-80762000D01*
X114828000Y-80603250D01*
X114828000Y-79629000D01*
X113728750Y-79629000D01*
X113570000Y-79787750D01*
X113118000Y-79787750D01*
X113118000Y-79720750D01*
X112959250Y-79562000D01*
X112383000Y-79562000D01*
X112183000Y-79562000D01*
X112136000Y-79562000D01*
X112136000Y-79308000D01*
X112183000Y-79308000D01*
X112183000Y-79288000D01*
X112383000Y-79288000D01*
X112383000Y-79308000D01*
X112959250Y-79308000D01*
X113118000Y-79149250D01*
X113118000Y-78558691D01*
X113051631Y-78398462D01*
X113118461Y-78237517D01*
X113318110Y-78373931D01*
X113570000Y-78424940D01*
X113759035Y-78424940D01*
X113666673Y-78517301D01*
X113570000Y-78750690D01*
X113570000Y-79216250D01*
X113728750Y-79375000D01*
X114828000Y-79375000D01*
X114828000Y-79355000D01*
X115082000Y-79355000D01*
X115082000Y-79375000D01*
X115102000Y-79375000D01*
X115102000Y-79629000D01*
X115082000Y-79629000D01*
X115082000Y-80603250D01*
X115240750Y-80762000D01*
X115831309Y-80762000D01*
X116064698Y-80665327D01*
X116205936Y-80524090D01*
X116240910Y-80578441D01*
X116453110Y-80723431D01*
X116705000Y-80774440D01*
X118205000Y-80774440D01*
X118440317Y-80730162D01*
X118656441Y-80591090D01*
X118801431Y-80378890D01*
X118816300Y-80305464D01*
X119065540Y-80056659D01*
X119214730Y-79697370D01*
X119215069Y-79308337D01*
X119066507Y-78948788D01*
X118819363Y-78701213D01*
X118808162Y-78641683D01*
X118669090Y-78425559D01*
X118635986Y-78402940D01*
X119370000Y-78402940D01*
X119414795Y-78394511D01*
X119477610Y-78437431D01*
X119561222Y-78454363D01*
X119418270Y-78798630D01*
X119417931Y-79187663D01*
X119566493Y-79547212D01*
X119841341Y-79822540D01*
X120200630Y-79971730D01*
X120519986Y-79972008D01*
X120550338Y-80133317D01*
X120689410Y-80349441D01*
X120701824Y-80357923D01*
X120477788Y-80450493D01*
X120202460Y-80725341D01*
X120053270Y-81084630D01*
X120052931Y-81473663D01*
X120201493Y-81833212D01*
X120476341Y-82108540D01*
X120835630Y-82257730D01*
X121224663Y-82258069D01*
X121584212Y-82109507D01*
X121859540Y-81834659D01*
X122008730Y-81475370D01*
X122009044Y-81115033D01*
X122050163Y-81115069D01*
X122409712Y-80966507D01*
X122685040Y-80691659D01*
X122753575Y-80526610D01*
X122888817Y-80501162D01*
X123104941Y-80362090D01*
X123198066Y-80225797D01*
X123309910Y-80225894D01*
X123389410Y-80349441D01*
X123601610Y-80494431D01*
X123779931Y-80530542D01*
X123368418Y-80612397D01*
X123000198Y-80858434D01*
X122754161Y-81226654D01*
X122667764Y-81661000D01*
X122754161Y-82095346D01*
X122888234Y-82296000D01*
X122754161Y-82496654D01*
X122667764Y-82931000D01*
X122754161Y-83365346D01*
X122888234Y-83566000D01*
X122754161Y-83766654D01*
X122667764Y-84201000D01*
X122754161Y-84635346D01*
X122888234Y-84836000D01*
X122754161Y-85036654D01*
X122667764Y-85471000D01*
X122754161Y-85905346D01*
X122768083Y-85926182D01*
X122690000Y-86114690D01*
X122690000Y-86455250D01*
X122848750Y-86614000D01*
X123698000Y-86614000D01*
X123698000Y-86594000D01*
X123742436Y-86594000D01*
X123802764Y-86606000D01*
X123847236Y-86606000D01*
X123907564Y-86594000D01*
X123952000Y-86594000D01*
X123952000Y-86614000D01*
X124801250Y-86614000D01*
X124960000Y-86455250D01*
X124960000Y-86114690D01*
X124881917Y-85926182D01*
X124895839Y-85905346D01*
X124982236Y-85471000D01*
X124895839Y-85036654D01*
X124761766Y-84836000D01*
X124895839Y-84635346D01*
X124982236Y-84201000D01*
X124895839Y-83766654D01*
X124761766Y-83566000D01*
X124895839Y-83365346D01*
X124982236Y-82931000D01*
X124895839Y-82496654D01*
X124761766Y-82296000D01*
X124895839Y-82095346D01*
X124982236Y-81661000D01*
X124895839Y-81226654D01*
X124649802Y-80858434D01*
X124281582Y-80612397D01*
X123944967Y-80545440D01*
X125353500Y-80545440D01*
X125588817Y-80501162D01*
X125804941Y-80362090D01*
X125949931Y-80149890D01*
X126000940Y-79898000D01*
X126000940Y-78598000D01*
X125956662Y-78362683D01*
X125817590Y-78146559D01*
X125605390Y-78001569D01*
X125353500Y-77950560D01*
X124354754Y-77950560D01*
X124376940Y-77841000D01*
X124376940Y-77600163D01*
X125577431Y-77600163D01*
X125725993Y-77959712D01*
X126000841Y-78235040D01*
X126360130Y-78384230D01*
X126749163Y-78384569D01*
X127108712Y-78236007D01*
X127384040Y-77961159D01*
X127533230Y-77601870D01*
X127533569Y-77212837D01*
X127385007Y-76853288D01*
X127110159Y-76577960D01*
X126750870Y-76428770D01*
X126361837Y-76428431D01*
X126002288Y-76576993D01*
X125726960Y-76851841D01*
X125577770Y-77211130D01*
X125577431Y-77600163D01*
X124376940Y-77600163D01*
X124376940Y-76591000D01*
X124332662Y-76355683D01*
X124193590Y-76139559D01*
X123981390Y-75994569D01*
X123729500Y-75943560D01*
X122229500Y-75943560D01*
X121994183Y-75987838D01*
X121778059Y-76126910D01*
X121730366Y-76196711D01*
X121693590Y-76139559D01*
X121481390Y-75994569D01*
X121229500Y-75943560D01*
X120887647Y-75943560D01*
X120823659Y-75879460D01*
X120464370Y-75730270D01*
X120075337Y-75729931D01*
X119847079Y-75824245D01*
X119834090Y-75804059D01*
X119765994Y-75757531D01*
X119908327Y-75615198D01*
X120005000Y-75381809D01*
X120005000Y-74791250D01*
X119846250Y-74632500D01*
X118872000Y-74632500D01*
X118872000Y-74652500D01*
X118618000Y-74652500D01*
X118618000Y-74632500D01*
X118598000Y-74632500D01*
X118598000Y-74378500D01*
X118618000Y-74378500D01*
X118618000Y-74358500D01*
X118872000Y-74358500D01*
X118872000Y-74378500D01*
X119846250Y-74378500D01*
X120005000Y-74219750D01*
X120005000Y-73629191D01*
X119908327Y-73395802D01*
X119729699Y-73217173D01*
X119710551Y-73209242D01*
X119819431Y-73049890D01*
X119870440Y-72798000D01*
X119870440Y-72248000D01*
X119846056Y-72118411D01*
X119870440Y-71998000D01*
X119870440Y-71448000D01*
X119846056Y-71318411D01*
X119870440Y-71198000D01*
X119870440Y-70648000D01*
X119846056Y-70518411D01*
X119870440Y-70398000D01*
X119870440Y-70294441D01*
X120132463Y-70294669D01*
X120492012Y-70146107D01*
X120767340Y-69871259D01*
X120916530Y-69511970D01*
X120916869Y-69122937D01*
X120768307Y-68763388D01*
X120515299Y-68509938D01*
X120780040Y-68245659D01*
X120929230Y-67886370D01*
X120929569Y-67497337D01*
X120781007Y-67137788D01*
X120506159Y-66862460D01*
X120146870Y-66713270D01*
X119870440Y-66713029D01*
X119870440Y-66648000D01*
X119856840Y-66575724D01*
X119874698Y-66568327D01*
X120015936Y-66427090D01*
X120050910Y-66481441D01*
X120263110Y-66626431D01*
X120515000Y-66677440D01*
X122015000Y-66677440D01*
X122250317Y-66633162D01*
X122466441Y-66494090D01*
X122611431Y-66281890D01*
X122662440Y-66030000D01*
X122662440Y-64780000D01*
X122618162Y-64544683D01*
X122479090Y-64328559D01*
X122266890Y-64183569D01*
X122262859Y-64182753D01*
X122263069Y-63941337D01*
X122114507Y-63581788D01*
X121839659Y-63306460D01*
X121480370Y-63157270D01*
X121091337Y-63156931D01*
X120731788Y-63305493D01*
X120456460Y-63580341D01*
X120307270Y-63939630D01*
X120307068Y-64171685D01*
X120279683Y-64176838D01*
X120063559Y-64315910D01*
X120017031Y-64384006D01*
X119874698Y-64241673D01*
X119641309Y-64145000D01*
X119050750Y-64145000D01*
X118892000Y-64303750D01*
X118892000Y-65278000D01*
X118912000Y-65278000D01*
X118912000Y-65532000D01*
X118892000Y-65532000D01*
X118892000Y-65552000D01*
X118638000Y-65552000D01*
X118638000Y-65532000D01*
X117538750Y-65532000D01*
X117470750Y-65600000D01*
X117100000Y-65600000D01*
X117100000Y-65620000D01*
X117095440Y-65620000D01*
X117095440Y-65326000D01*
X117100000Y-65326000D01*
X117100000Y-65346000D01*
X117724250Y-65346000D01*
X117792250Y-65278000D01*
X118638000Y-65278000D01*
X118638000Y-64303750D01*
X118479250Y-64145000D01*
X117888691Y-64145000D01*
X117697302Y-64224276D01*
X117607699Y-64134673D01*
X117374310Y-64038000D01*
X117258750Y-64038000D01*
X117182808Y-64113942D01*
X117183069Y-63814337D01*
X117034507Y-63454788D01*
X116759659Y-63179460D01*
X116571911Y-63101500D01*
X116628809Y-63101500D01*
X116862198Y-63004827D01*
X117040827Y-62826199D01*
X117137500Y-62592810D01*
X117137500Y-62452250D01*
X116978750Y-62293500D01*
X115854500Y-62293500D01*
X115854500Y-62942750D01*
X115962047Y-63050297D01*
X115651788Y-63178493D01*
X115608188Y-63222017D01*
X115608269Y-63128537D01*
X115551677Y-62991573D01*
X115600500Y-62942750D01*
X115600500Y-62293500D01*
X115580500Y-62293500D01*
X115580500Y-62039500D01*
X115600500Y-62039500D01*
X115600500Y-62019500D01*
X115854500Y-62019500D01*
X115854500Y-62039500D01*
X116978750Y-62039500D01*
X117137500Y-61880750D01*
X117137500Y-61740190D01*
X117113190Y-61681500D01*
X117476410Y-61681500D01*
X117787630Y-61810730D01*
X118176663Y-61811069D01*
X118536212Y-61662507D01*
X118811540Y-61387659D01*
X118960730Y-61028370D01*
X118961069Y-60639337D01*
X118812507Y-60279788D01*
X118730849Y-60197988D01*
X118938540Y-59990659D01*
X119087730Y-59631370D01*
X119088069Y-59242337D01*
X118939507Y-58882788D01*
X118664659Y-58607460D01*
X118305370Y-58458270D01*
X117916337Y-58457931D01*
X117556788Y-58606493D01*
X117321371Y-58841500D01*
X117112477Y-58841500D01*
X117149940Y-58656500D01*
X117149940Y-58056500D01*
X117105662Y-57821183D01*
X116966590Y-57605059D01*
X116880154Y-57546000D01*
X117097809Y-57546000D01*
X117331198Y-57449327D01*
X117509827Y-57270699D01*
X117606500Y-57037310D01*
X117606500Y-56546750D01*
X118423000Y-56546750D01*
X118423000Y-57037310D01*
X118519673Y-57270699D01*
X118698302Y-57449327D01*
X118931691Y-57546000D01*
X119522250Y-57546000D01*
X119681000Y-57387250D01*
X119681000Y-56388000D01*
X118581750Y-56388000D01*
X118423000Y-56546750D01*
X117606500Y-56546750D01*
X117447750Y-56388000D01*
X116348500Y-56388000D01*
X116348500Y-56408000D01*
X116094500Y-56408000D01*
X116094500Y-56388000D01*
X116074500Y-56388000D01*
X116074500Y-56134000D01*
X116094500Y-56134000D01*
X116094500Y-56114000D01*
X116348500Y-56114000D01*
X116348500Y-56134000D01*
X117447750Y-56134000D01*
X117606500Y-55975250D01*
X117606500Y-55484690D01*
X117509827Y-55251301D01*
X117503526Y-55245000D01*
X118525974Y-55245000D01*
X118519673Y-55251301D01*
G36*
X115420000Y-84174377D02*
X115376460Y-84217841D01*
X115261397Y-84494942D01*
X115257370Y-84493270D01*
X114868337Y-84492931D01*
X114508788Y-84641493D01*
X114233460Y-84916341D01*
X114084270Y-85275630D01*
X114084207Y-85348215D01*
X113860370Y-85255270D01*
X113471337Y-85254931D01*
X113279580Y-85334163D01*
X113427884Y-85186117D01*
X113457407Y-85180245D01*
X113504044Y-85149083D01*
X113556952Y-85130472D01*
X113630234Y-85064766D01*
X113712079Y-85010079D01*
X114982079Y-83740079D01*
X115015723Y-83689727D01*
X115060344Y-83648789D01*
X115100019Y-83563568D01*
X115152245Y-83485407D01*
X115164059Y-83426015D01*
X115189618Y-83371115D01*
X115266736Y-83055119D01*
X115273691Y-83058000D01*
X115326309Y-83058000D01*
X115420000Y-83019192D01*
X115420000Y-84174377D01*
X115420000Y-84174377D01*
G37*
X115420000Y-84174377D02*
X115376460Y-84217841D01*
X115261397Y-84494942D01*
X115257370Y-84493270D01*
X114868337Y-84492931D01*
X114508788Y-84641493D01*
X114233460Y-84916341D01*
X114084270Y-85275630D01*
X114084207Y-85348215D01*
X113860370Y-85255270D01*
X113471337Y-85254931D01*
X113279580Y-85334163D01*
X113427884Y-85186117D01*
X113457407Y-85180245D01*
X113504044Y-85149083D01*
X113556952Y-85130472D01*
X113630234Y-85064766D01*
X113712079Y-85010079D01*
X114982079Y-83740079D01*
X115015723Y-83689727D01*
X115060344Y-83648789D01*
X115100019Y-83563568D01*
X115152245Y-83485407D01*
X115164059Y-83426015D01*
X115189618Y-83371115D01*
X115266736Y-83055119D01*
X115273691Y-83058000D01*
X115326309Y-83058000D01*
X115420000Y-83019192D01*
X115420000Y-84174377D01*
G36*
X106739000Y-55421190D02*
X106739000Y-55911750D01*
X106897750Y-56070500D01*
X107997000Y-56070500D01*
X107997000Y-56050500D01*
X108251000Y-56050500D01*
X108251000Y-56070500D01*
X108271000Y-56070500D01*
X108271000Y-56324500D01*
X108251000Y-56324500D01*
X108251000Y-57323750D01*
X108409750Y-57482500D01*
X109000309Y-57482500D01*
X109233698Y-57385827D01*
X109412327Y-57207199D01*
X109468654Y-57071213D01*
X109470838Y-57082817D01*
X109609910Y-57298941D01*
X109822110Y-57443931D01*
X110074000Y-57494940D01*
X110079069Y-57494940D01*
X110083611Y-57517775D01*
X110083450Y-57703393D01*
X110058559Y-57719410D01*
X109913569Y-57931610D01*
X109904683Y-57975489D01*
X109901659Y-57972460D01*
X109542370Y-57823270D01*
X109153337Y-57822931D01*
X108793788Y-57971493D01*
X108749203Y-58016000D01*
X108529158Y-58016000D01*
X108441579Y-57928421D01*
X108186907Y-57758255D01*
X107886500Y-57698500D01*
X107074975Y-57698500D01*
X106911890Y-57587069D01*
X106660000Y-57536060D01*
X105110000Y-57536060D01*
X104874683Y-57580338D01*
X104658559Y-57719410D01*
X104513569Y-57931610D01*
X104462560Y-58183500D01*
X104462560Y-58783500D01*
X104506838Y-59018817D01*
X104570678Y-59118028D01*
X104513569Y-59201610D01*
X104462560Y-59453500D01*
X104462560Y-60053500D01*
X104506838Y-60288817D01*
X104570678Y-60388028D01*
X104513569Y-60471610D01*
X104462560Y-60723500D01*
X104462560Y-61323500D01*
X104506838Y-61558817D01*
X104570678Y-61658028D01*
X104513569Y-61741610D01*
X104462560Y-61993500D01*
X104462560Y-62593500D01*
X104506838Y-62828817D01*
X104645910Y-63044941D01*
X104858110Y-63189931D01*
X105110000Y-63240940D01*
X106660000Y-63240940D01*
X106895317Y-63196662D01*
X107111441Y-63057590D01*
X107256431Y-62845390D01*
X107307440Y-62593500D01*
X107307440Y-62001449D01*
X107445163Y-62001569D01*
X107804712Y-61853007D01*
X108080040Y-61578159D01*
X108229230Y-61218870D01*
X108229569Y-60829837D01*
X108141869Y-60617586D01*
X108262630Y-60667730D01*
X108651663Y-60668069D01*
X109011212Y-60519507D01*
X109055797Y-60475000D01*
X109925613Y-60475000D01*
X109875000Y-60597190D01*
X109875000Y-60737750D01*
X110033750Y-60896500D01*
X111158000Y-60896500D01*
X111158000Y-60876500D01*
X111412000Y-60876500D01*
X111412000Y-60896500D01*
X111432000Y-60896500D01*
X111432000Y-61150500D01*
X111412000Y-61150500D01*
X111412000Y-61170500D01*
X111158000Y-61170500D01*
X111158000Y-61150500D01*
X110033750Y-61150500D01*
X109875000Y-61309250D01*
X109875000Y-61449810D01*
X109964806Y-61666622D01*
X109913569Y-61741610D01*
X109862560Y-61993500D01*
X109862560Y-62593500D01*
X109906838Y-62828817D01*
X110045910Y-63044941D01*
X110258110Y-63189931D01*
X110429166Y-63224571D01*
X110464517Y-63277477D01*
X110464431Y-63376163D01*
X110612993Y-63735712D01*
X110887841Y-64011040D01*
X110977440Y-64048245D01*
X110862683Y-64069838D01*
X110646559Y-64208910D01*
X110501569Y-64421110D01*
X110450560Y-64673000D01*
X110450560Y-66000560D01*
X109123000Y-66000560D01*
X108887683Y-66044838D01*
X108841587Y-66074500D01*
X108605301Y-66074500D01*
X108377659Y-65846460D01*
X108018370Y-65697270D01*
X107629337Y-65696931D01*
X107269788Y-65845493D01*
X106994460Y-66120341D01*
X106845270Y-66479630D01*
X106844931Y-66868663D01*
X106974948Y-67183330D01*
X106845270Y-67495630D01*
X106844931Y-67884663D01*
X106993469Y-68244153D01*
X106908770Y-68448130D01*
X106908431Y-68837163D01*
X107056969Y-69196653D01*
X106972270Y-69400630D01*
X106971931Y-69789663D01*
X107120493Y-70149212D01*
X107395341Y-70424540D01*
X107754630Y-70573730D01*
X108143663Y-70574069D01*
X108482357Y-70434124D01*
X108499944Y-70527589D01*
X108475560Y-70648000D01*
X108475560Y-70761009D01*
X108208870Y-70650270D01*
X107819837Y-70649931D01*
X107460288Y-70798493D01*
X107184960Y-71073341D01*
X107035770Y-71432630D01*
X107035431Y-71821663D01*
X107183993Y-72181212D01*
X107458841Y-72456540D01*
X107818130Y-72605730D01*
X108207163Y-72606069D01*
X108475560Y-72495170D01*
X108475560Y-72704109D01*
X108264460Y-72914841D01*
X108115270Y-73274130D01*
X108114931Y-73663163D01*
X108263493Y-74022712D01*
X108538341Y-74298040D01*
X108575536Y-74313485D01*
X108476288Y-74354493D01*
X108200960Y-74629341D01*
X108051770Y-74988630D01*
X108051431Y-75377663D01*
X108065466Y-75411630D01*
X107864559Y-75540910D01*
X107719569Y-75753110D01*
X107668560Y-76005000D01*
X107668560Y-77505000D01*
X107712838Y-77740317D01*
X107851910Y-77956441D01*
X108064110Y-78101431D01*
X108097490Y-78108191D01*
X107956301Y-78166673D01*
X107777673Y-78345302D01*
X107681000Y-78578691D01*
X107681000Y-78733709D01*
X107578590Y-78574559D01*
X107366390Y-78429569D01*
X107114500Y-78378560D01*
X106768883Y-78378560D01*
X106768976Y-78272011D01*
X106792941Y-78256590D01*
X106937931Y-78044390D01*
X106988940Y-77792500D01*
X106988940Y-77142500D01*
X106944662Y-76907183D01*
X106805590Y-76691059D01*
X106593390Y-76546069D01*
X106456380Y-76518324D01*
X106576817Y-76495662D01*
X106792941Y-76356590D01*
X106937931Y-76144390D01*
X106988940Y-75892500D01*
X106988940Y-75242500D01*
X106976800Y-75177979D01*
X107106212Y-75124507D01*
X107381540Y-74849659D01*
X107530730Y-74490370D01*
X107531069Y-74101337D01*
X107382507Y-73741788D01*
X107107659Y-73466460D01*
X106748370Y-73317270D01*
X106359337Y-73316931D01*
X105999788Y-73465493D01*
X105724460Y-73740341D01*
X105575270Y-74099630D01*
X105574931Y-74488663D01*
X105618893Y-74595060D01*
X105370130Y-74595060D01*
X105351370Y-74587270D01*
X104962337Y-74586931D01*
X104602788Y-74735493D01*
X104570882Y-74767344D01*
X104393390Y-74646069D01*
X104141500Y-74595060D01*
X103081500Y-74595060D01*
X103021507Y-74606349D01*
X102702500Y-74287342D01*
X102702500Y-69095658D01*
X106304143Y-65494015D01*
X106365663Y-65494069D01*
X106725212Y-65345507D01*
X107000540Y-65070659D01*
X107149730Y-64711370D01*
X107150069Y-64322337D01*
X107001507Y-63962788D01*
X106726659Y-63687460D01*
X106367370Y-63538270D01*
X105978337Y-63537931D01*
X105618788Y-63686493D01*
X105343460Y-63961341D01*
X105194270Y-64320630D01*
X105194215Y-64383627D01*
X102108000Y-67469842D01*
X102108000Y-64601915D01*
X102420630Y-64731730D01*
X102461539Y-64731766D01*
X102548493Y-64942212D01*
X102823341Y-65217540D01*
X103182630Y-65366730D01*
X103571663Y-65367069D01*
X103931212Y-65218507D01*
X104206540Y-64943659D01*
X104355730Y-64584370D01*
X104356069Y-64195337D01*
X104207507Y-63835788D01*
X103932659Y-63560460D01*
X103573370Y-63411270D01*
X103532461Y-63411234D01*
X103445507Y-63200788D01*
X103170659Y-62925460D01*
X102811370Y-62776270D01*
X102422337Y-62775931D01*
X102108000Y-62905812D01*
X102108000Y-57826030D01*
X102139918Y-57858004D01*
X102777373Y-58122699D01*
X103467599Y-58123301D01*
X104105515Y-57859719D01*
X104594004Y-57372082D01*
X104858699Y-56734627D01*
X104858918Y-56483250D01*
X106739000Y-56483250D01*
X106739000Y-56973810D01*
X106835673Y-57207199D01*
X107014302Y-57385827D01*
X107247691Y-57482500D01*
X107838250Y-57482500D01*
X107997000Y-57323750D01*
X107997000Y-56324500D01*
X106897750Y-56324500D01*
X106739000Y-56483250D01*
X104858918Y-56483250D01*
X104859301Y-56044401D01*
X104595719Y-55406485D01*
X104434516Y-55245000D01*
X106811980Y-55245000D01*
X106739000Y-55421190D01*
X106739000Y-55421190D01*
G37*
X106739000Y-55421190D02*
X106739000Y-55911750D01*
X106897750Y-56070500D01*
X107997000Y-56070500D01*
X107997000Y-56050500D01*
X108251000Y-56050500D01*
X108251000Y-56070500D01*
X108271000Y-56070500D01*
X108271000Y-56324500D01*
X108251000Y-56324500D01*
X108251000Y-57323750D01*
X108409750Y-57482500D01*
X109000309Y-57482500D01*
X109233698Y-57385827D01*
X109412327Y-57207199D01*
X109468654Y-57071213D01*
X109470838Y-57082817D01*
X109609910Y-57298941D01*
X109822110Y-57443931D01*
X110074000Y-57494940D01*
X110079069Y-57494940D01*
X110083611Y-57517775D01*
X110083450Y-57703393D01*
X110058559Y-57719410D01*
X109913569Y-57931610D01*
X109904683Y-57975489D01*
X109901659Y-57972460D01*
X109542370Y-57823270D01*
X109153337Y-57822931D01*
X108793788Y-57971493D01*
X108749203Y-58016000D01*
X108529158Y-58016000D01*
X108441579Y-57928421D01*
X108186907Y-57758255D01*
X107886500Y-57698500D01*
X107074975Y-57698500D01*
X106911890Y-57587069D01*
X106660000Y-57536060D01*
X105110000Y-57536060D01*
X104874683Y-57580338D01*
X104658559Y-57719410D01*
X104513569Y-57931610D01*
X104462560Y-58183500D01*
X104462560Y-58783500D01*
X104506838Y-59018817D01*
X104570678Y-59118028D01*
X104513569Y-59201610D01*
X104462560Y-59453500D01*
X104462560Y-60053500D01*
X104506838Y-60288817D01*
X104570678Y-60388028D01*
X104513569Y-60471610D01*
X104462560Y-60723500D01*
X104462560Y-61323500D01*
X104506838Y-61558817D01*
X104570678Y-61658028D01*
X104513569Y-61741610D01*
X104462560Y-61993500D01*
X104462560Y-62593500D01*
X104506838Y-62828817D01*
X104645910Y-63044941D01*
X104858110Y-63189931D01*
X105110000Y-63240940D01*
X106660000Y-63240940D01*
X106895317Y-63196662D01*
X107111441Y-63057590D01*
X107256431Y-62845390D01*
X107307440Y-62593500D01*
X107307440Y-62001449D01*
X107445163Y-62001569D01*
X107804712Y-61853007D01*
X108080040Y-61578159D01*
X108229230Y-61218870D01*
X108229569Y-60829837D01*
X108141869Y-60617586D01*
X108262630Y-60667730D01*
X108651663Y-60668069D01*
X109011212Y-60519507D01*
X109055797Y-60475000D01*
X109925613Y-60475000D01*
X109875000Y-60597190D01*
X109875000Y-60737750D01*
X110033750Y-60896500D01*
X111158000Y-60896500D01*
X111158000Y-60876500D01*
X111412000Y-60876500D01*
X111412000Y-60896500D01*
X111432000Y-60896500D01*
X111432000Y-61150500D01*
X111412000Y-61150500D01*
X111412000Y-61170500D01*
X111158000Y-61170500D01*
X111158000Y-61150500D01*
X110033750Y-61150500D01*
X109875000Y-61309250D01*
X109875000Y-61449810D01*
X109964806Y-61666622D01*
X109913569Y-61741610D01*
X109862560Y-61993500D01*
X109862560Y-62593500D01*
X109906838Y-62828817D01*
X110045910Y-63044941D01*
X110258110Y-63189931D01*
X110429166Y-63224571D01*
X110464517Y-63277477D01*
X110464431Y-63376163D01*
X110612993Y-63735712D01*
X110887841Y-64011040D01*
X110977440Y-64048245D01*
X110862683Y-64069838D01*
X110646559Y-64208910D01*
X110501569Y-64421110D01*
X110450560Y-64673000D01*
X110450560Y-66000560D01*
X109123000Y-66000560D01*
X108887683Y-66044838D01*
X108841587Y-66074500D01*
X108605301Y-66074500D01*
X108377659Y-65846460D01*
X108018370Y-65697270D01*
X107629337Y-65696931D01*
X107269788Y-65845493D01*
X106994460Y-66120341D01*
X106845270Y-66479630D01*
X106844931Y-66868663D01*
X106974948Y-67183330D01*
X106845270Y-67495630D01*
X106844931Y-67884663D01*
X106993469Y-68244153D01*
X106908770Y-68448130D01*
X106908431Y-68837163D01*
X107056969Y-69196653D01*
X106972270Y-69400630D01*
X106971931Y-69789663D01*
X107120493Y-70149212D01*
X107395341Y-70424540D01*
X107754630Y-70573730D01*
X108143663Y-70574069D01*
X108482357Y-70434124D01*
X108499944Y-70527589D01*
X108475560Y-70648000D01*
X108475560Y-70761009D01*
X108208870Y-70650270D01*
X107819837Y-70649931D01*
X107460288Y-70798493D01*
X107184960Y-71073341D01*
X107035770Y-71432630D01*
X107035431Y-71821663D01*
X107183993Y-72181212D01*
X107458841Y-72456540D01*
X107818130Y-72605730D01*
X108207163Y-72606069D01*
X108475560Y-72495170D01*
X108475560Y-72704109D01*
X108264460Y-72914841D01*
X108115270Y-73274130D01*
X108114931Y-73663163D01*
X108263493Y-74022712D01*
X108538341Y-74298040D01*
X108575536Y-74313485D01*
X108476288Y-74354493D01*
X108200960Y-74629341D01*
X108051770Y-74988630D01*
X108051431Y-75377663D01*
X108065466Y-75411630D01*
X107864559Y-75540910D01*
X107719569Y-75753110D01*
X107668560Y-76005000D01*
X107668560Y-77505000D01*
X107712838Y-77740317D01*
X107851910Y-77956441D01*
X108064110Y-78101431D01*
X108097490Y-78108191D01*
X107956301Y-78166673D01*
X107777673Y-78345302D01*
X107681000Y-78578691D01*
X107681000Y-78733709D01*
X107578590Y-78574559D01*
X107366390Y-78429569D01*
X107114500Y-78378560D01*
X106768883Y-78378560D01*
X106768976Y-78272011D01*
X106792941Y-78256590D01*
X106937931Y-78044390D01*
X106988940Y-77792500D01*
X106988940Y-77142500D01*
X106944662Y-76907183D01*
X106805590Y-76691059D01*
X106593390Y-76546069D01*
X106456380Y-76518324D01*
X106576817Y-76495662D01*
X106792941Y-76356590D01*
X106937931Y-76144390D01*
X106988940Y-75892500D01*
X106988940Y-75242500D01*
X106976800Y-75177979D01*
X107106212Y-75124507D01*
X107381540Y-74849659D01*
X107530730Y-74490370D01*
X107531069Y-74101337D01*
X107382507Y-73741788D01*
X107107659Y-73466460D01*
X106748370Y-73317270D01*
X106359337Y-73316931D01*
X105999788Y-73465493D01*
X105724460Y-73740341D01*
X105575270Y-74099630D01*
X105574931Y-74488663D01*
X105618893Y-74595060D01*
X105370130Y-74595060D01*
X105351370Y-74587270D01*
X104962337Y-74586931D01*
X104602788Y-74735493D01*
X104570882Y-74767344D01*
X104393390Y-74646069D01*
X104141500Y-74595060D01*
X103081500Y-74595060D01*
X103021507Y-74606349D01*
X102702500Y-74287342D01*
X102702500Y-69095658D01*
X106304143Y-65494015D01*
X106365663Y-65494069D01*
X106725212Y-65345507D01*
X107000540Y-65070659D01*
X107149730Y-64711370D01*
X107150069Y-64322337D01*
X107001507Y-63962788D01*
X106726659Y-63687460D01*
X106367370Y-63538270D01*
X105978337Y-63537931D01*
X105618788Y-63686493D01*
X105343460Y-63961341D01*
X105194270Y-64320630D01*
X105194215Y-64383627D01*
X102108000Y-67469842D01*
X102108000Y-64601915D01*
X102420630Y-64731730D01*
X102461539Y-64731766D01*
X102548493Y-64942212D01*
X102823341Y-65217540D01*
X103182630Y-65366730D01*
X103571663Y-65367069D01*
X103931212Y-65218507D01*
X104206540Y-64943659D01*
X104355730Y-64584370D01*
X104356069Y-64195337D01*
X104207507Y-63835788D01*
X103932659Y-63560460D01*
X103573370Y-63411270D01*
X103532461Y-63411234D01*
X103445507Y-63200788D01*
X103170659Y-62925460D01*
X102811370Y-62776270D01*
X102422337Y-62775931D01*
X102108000Y-62905812D01*
X102108000Y-57826030D01*
X102139918Y-57858004D01*
X102777373Y-58122699D01*
X103467599Y-58123301D01*
X104105515Y-57859719D01*
X104594004Y-57372082D01*
X104858699Y-56734627D01*
X104858918Y-56483250D01*
X106739000Y-56483250D01*
X106739000Y-56973810D01*
X106835673Y-57207199D01*
X107014302Y-57385827D01*
X107247691Y-57482500D01*
X107838250Y-57482500D01*
X107997000Y-57323750D01*
X107997000Y-56324500D01*
X106897750Y-56324500D01*
X106739000Y-56483250D01*
X104858918Y-56483250D01*
X104859301Y-56044401D01*
X104595719Y-55406485D01*
X104434516Y-55245000D01*
X106811980Y-55245000D01*
X106739000Y-55421190D01*
G36*
X115433910Y-75224441D02*
X115564245Y-75313495D01*
X115658750Y-75408000D01*
X115774310Y-75408000D01*
X115794753Y-75399532D01*
X115898000Y-75420440D01*
X116448000Y-75420440D01*
X116577589Y-75396056D01*
X116698000Y-75420440D01*
X117248000Y-75420440D01*
X117483317Y-75376162D01*
X117485000Y-75375079D01*
X117485000Y-75381809D01*
X117581673Y-75615198D01*
X117722910Y-75756436D01*
X117668559Y-75791410D01*
X117603370Y-75886818D01*
X117570000Y-75880060D01*
X116070000Y-75880060D01*
X115834683Y-75924338D01*
X115618559Y-76063410D01*
X115570866Y-76133211D01*
X115534090Y-76076059D01*
X115321890Y-75931069D01*
X115105000Y-75887148D01*
X115105000Y-75870158D01*
X115128079Y-75847079D01*
X115298245Y-75592407D01*
X115358000Y-75292000D01*
X115358000Y-75151386D01*
X115372884Y-75129603D01*
X115433910Y-75224441D01*
X115433910Y-75224441D01*
G37*
X115433910Y-75224441D02*
X115564245Y-75313495D01*
X115658750Y-75408000D01*
X115774310Y-75408000D01*
X115794753Y-75399532D01*
X115898000Y-75420440D01*
X116448000Y-75420440D01*
X116577589Y-75396056D01*
X116698000Y-75420440D01*
X117248000Y-75420440D01*
X117483317Y-75376162D01*
X117485000Y-75375079D01*
X117485000Y-75381809D01*
X117581673Y-75615198D01*
X117722910Y-75756436D01*
X117668559Y-75791410D01*
X117603370Y-75886818D01*
X117570000Y-75880060D01*
X116070000Y-75880060D01*
X115834683Y-75924338D01*
X115618559Y-76063410D01*
X115570866Y-76133211D01*
X115534090Y-76076059D01*
X115321890Y-75931069D01*
X115105000Y-75887148D01*
X115105000Y-75870158D01*
X115128079Y-75847079D01*
X115298245Y-75592407D01*
X115358000Y-75292000D01*
X115358000Y-75151386D01*
X115372884Y-75129603D01*
X115433910Y-75224441D01*
G36*
X114305060Y-59326500D02*
X114305060Y-59601035D01*
X114141699Y-59437673D01*
X113908310Y-59341000D01*
X113442750Y-59341000D01*
X113284000Y-59499750D01*
X113284000Y-60599000D01*
X113304000Y-60599000D01*
X113304000Y-60853000D01*
X113284000Y-60853000D01*
X113284000Y-60873000D01*
X113030000Y-60873000D01*
X113030000Y-60853000D01*
X113010000Y-60853000D01*
X113010000Y-60599000D01*
X113030000Y-60599000D01*
X113030000Y-59617468D01*
X113120245Y-59482407D01*
X113180000Y-59182000D01*
X113180000Y-59141500D01*
X114342523Y-59141500D01*
X114305060Y-59326500D01*
X114305060Y-59326500D01*
G37*
X114305060Y-59326500D02*
X114305060Y-59601035D01*
X114141699Y-59437673D01*
X113908310Y-59341000D01*
X113442750Y-59341000D01*
X113284000Y-59499750D01*
X113284000Y-60599000D01*
X113304000Y-60599000D01*
X113304000Y-60853000D01*
X113284000Y-60853000D01*
X113284000Y-60873000D01*
X113030000Y-60873000D01*
X113030000Y-60853000D01*
X113010000Y-60853000D01*
X113010000Y-60599000D01*
X113030000Y-60599000D01*
X113030000Y-59617468D01*
X113120245Y-59482407D01*
X113180000Y-59182000D01*
X113180000Y-59141500D01*
X114342523Y-59141500D01*
X114305060Y-59326500D01*
M02*
