G04 #@! TF.FileFunction,Copper,L4,Bot,Signal*
%FSLAX46Y46*%
G04 Gerber Fmt 4.6, Leading zero omitted, Abs format (unit mm)*
G04 Created by KiCad (PCBNEW 4.0.5) date 09/25/17 19:08:10*
%MOMM*%
%LPD*%
G01*
G04 APERTURE LIST*
%ADD10C,0.100000*%
%ADD11R,1.000000X1.000000*%
%ADD12O,1.000000X1.000000*%
%ADD13C,2.200000*%
%ADD14C,0.685800*%
%ADD15C,0.300000*%
%ADD16C,0.152400*%
%ADD17C,0.254000*%
G04 APERTURE END LIST*
D10*
D11*
X123787000Y-81521400D03*
D12*
X123787000Y-82791400D03*
X123787000Y-84061400D03*
X123787000Y-85331400D03*
X123787000Y-86601400D03*
D11*
X120866000Y-83655000D03*
D12*
X120866000Y-82385000D03*
X119596000Y-83655000D03*
X119596000Y-82385000D03*
X118326000Y-83655000D03*
X118326000Y-82385000D03*
X117056000Y-83655000D03*
X117056000Y-82385000D03*
X115786000Y-83655000D03*
X115786000Y-82385000D03*
D13*
X127508000Y-86487000D03*
X103124000Y-86487000D03*
D14*
X108654000Y-86576000D03*
X112865000Y-84925000D03*
X106701000Y-82893000D03*
X112799000Y-82178000D03*
X110899000Y-82178000D03*
X118346000Y-86195000D03*
X103281000Y-83843000D03*
X111849000Y-84925000D03*
D15*
X112799000Y-82178000D02*
X112799000Y-81181000D01*
X112752000Y-82131000D02*
X112799000Y-82178000D01*
X112752000Y-82131000D02*
X112738000Y-82131000D01*
X112738000Y-82131000D02*
X112738000Y-81115000D01*
X112357000Y-80734000D02*
X112738000Y-81115000D01*
X108801000Y-80734000D02*
X112357000Y-80734000D01*
X106642000Y-82893000D02*
X108801000Y-80734000D01*
X106701000Y-82893000D02*
X106642000Y-82893000D01*
X119596000Y-81242000D02*
X119596000Y-82385000D01*
X119088000Y-80734000D02*
X119596000Y-81242000D01*
X113246000Y-80734000D02*
X119088000Y-80734000D01*
X112799000Y-81181000D02*
X113246000Y-80734000D01*
X123787000Y-84061400D02*
X123685400Y-84061400D01*
X110960000Y-82131000D02*
X110946000Y-82131000D01*
X110946000Y-82131000D02*
X110899000Y-82178000D01*
D16*
X118346000Y-86195000D02*
X118326000Y-86195000D01*
D15*
X111849000Y-86576000D02*
X111849000Y-84925000D01*
X110579000Y-87846000D02*
X111849000Y-86576000D01*
X105499000Y-87846000D02*
X110579000Y-87846000D01*
X104991000Y-87338000D02*
X105499000Y-87846000D01*
X104991000Y-85553000D02*
X104991000Y-87338000D01*
X104991000Y-85553000D02*
X103281000Y-83843000D01*
D17*
G36*
X103378000Y-80975200D02*
X107449642Y-80975200D01*
X106509909Y-81914933D01*
X106507337Y-81914931D01*
X106147788Y-82063493D01*
X105872460Y-82338341D01*
X105723270Y-82697630D01*
X105722931Y-83086663D01*
X105871493Y-83446212D01*
X106146341Y-83721540D01*
X106505630Y-83870730D01*
X106894663Y-83871069D01*
X107254212Y-83722507D01*
X107529540Y-83447659D01*
X107678730Y-83088370D01*
X107678836Y-82966322D01*
X109126158Y-81519000D01*
X111953000Y-81519000D01*
X111953000Y-81665389D01*
X111821270Y-81982630D01*
X111820931Y-82371663D01*
X111969493Y-82731212D01*
X112244341Y-83006540D01*
X112603630Y-83155730D01*
X112992663Y-83156069D01*
X113352212Y-83007507D01*
X113627540Y-82732659D01*
X113776730Y-82373370D01*
X113777069Y-81984337D01*
X113628507Y-81624788D01*
X113584000Y-81580203D01*
X113584000Y-81519000D01*
X115045091Y-81519000D01*
X114983434Y-81560198D01*
X114737397Y-81928418D01*
X114651000Y-82362764D01*
X114651000Y-82407236D01*
X114737397Y-82841582D01*
X114856612Y-83020000D01*
X114737397Y-83198418D01*
X114651000Y-83632764D01*
X114651000Y-83677236D01*
X114737397Y-84111582D01*
X114983434Y-84479802D01*
X115351654Y-84725839D01*
X115786000Y-84812236D01*
X116220346Y-84725839D01*
X116421000Y-84591766D01*
X116621654Y-84725839D01*
X117056000Y-84812236D01*
X117490346Y-84725839D01*
X117700304Y-84585549D01*
X117765791Y-84642127D01*
X118024126Y-84749119D01*
X118199000Y-84622954D01*
X118199000Y-83782000D01*
X118453000Y-83782000D01*
X118453000Y-84622954D01*
X118627874Y-84749119D01*
X118886209Y-84642127D01*
X118961000Y-84577511D01*
X119035791Y-84642127D01*
X119294126Y-84749119D01*
X119469000Y-84622954D01*
X119469000Y-83782000D01*
X118453000Y-83782000D01*
X118199000Y-83782000D01*
X118179000Y-83782000D01*
X118179000Y-83737564D01*
X118191000Y-83677236D01*
X118191000Y-83632764D01*
X118179000Y-83572436D01*
X118179000Y-83528000D01*
X118199000Y-83528000D01*
X118199000Y-83516974D01*
X118326000Y-83542236D01*
X118453000Y-83516974D01*
X118453000Y-83528000D01*
X119469000Y-83528000D01*
X119469000Y-83516974D01*
X119596000Y-83542236D01*
X119718560Y-83517857D01*
X119718560Y-84155000D01*
X119723000Y-84178597D01*
X119723000Y-84622954D01*
X119897874Y-84749119D01*
X120030398Y-84694233D01*
X120114110Y-84751431D01*
X120366000Y-84802440D01*
X121366000Y-84802440D01*
X121601317Y-84758162D01*
X121817441Y-84619090D01*
X121962431Y-84406890D01*
X122013440Y-84155000D01*
X122013440Y-83155000D01*
X121969162Y-82919683D01*
X121915619Y-82836475D01*
X122001000Y-82407236D01*
X122001000Y-82362764D01*
X121914603Y-81928418D01*
X121668566Y-81560198D01*
X121300346Y-81314161D01*
X120866000Y-81227764D01*
X120431654Y-81314161D01*
X120381000Y-81348007D01*
X120381000Y-81242000D01*
X120327930Y-80975200D01*
X122652000Y-80975200D01*
X122652000Y-81235650D01*
X122810750Y-81394400D01*
X123660000Y-81394400D01*
X123660000Y-81374400D01*
X123914000Y-81374400D01*
X123914000Y-81394400D01*
X124763250Y-81394400D01*
X124922000Y-81235650D01*
X124922000Y-80975200D01*
X126073000Y-80975200D01*
X126073000Y-82385000D01*
X126131004Y-82676605D01*
X126296185Y-82923815D01*
X126543395Y-83088996D01*
X126835000Y-83147000D01*
X128566291Y-83147000D01*
X128563789Y-85088828D01*
X128492082Y-85016996D01*
X127854627Y-84752301D01*
X127164401Y-84751699D01*
X126526485Y-85015281D01*
X126037996Y-85502918D01*
X125773301Y-86140373D01*
X125772699Y-86830599D01*
X126036281Y-87468515D01*
X126172129Y-87604600D01*
X124311532Y-87604600D01*
X124611802Y-87403966D01*
X124857839Y-87035746D01*
X124944236Y-86601400D01*
X124857839Y-86167054D01*
X124723766Y-85966400D01*
X124857839Y-85765746D01*
X124944236Y-85331400D01*
X124857839Y-84897054D01*
X124723766Y-84696400D01*
X124857839Y-84495746D01*
X124944236Y-84061400D01*
X124857839Y-83627054D01*
X124723766Y-83426400D01*
X124857839Y-83225746D01*
X124944236Y-82791400D01*
X124857839Y-82357054D01*
X124843917Y-82336218D01*
X124922000Y-82147710D01*
X124922000Y-81807150D01*
X124763250Y-81648400D01*
X123914000Y-81648400D01*
X123914000Y-81668400D01*
X123869564Y-81668400D01*
X123809236Y-81656400D01*
X123764764Y-81656400D01*
X123704436Y-81668400D01*
X123660000Y-81668400D01*
X123660000Y-81648400D01*
X122810750Y-81648400D01*
X122652000Y-81807150D01*
X122652000Y-82147710D01*
X122730083Y-82336218D01*
X122716161Y-82357054D01*
X122629764Y-82791400D01*
X122716161Y-83225746D01*
X122850234Y-83426400D01*
X122716161Y-83627054D01*
X122629764Y-84061400D01*
X122716161Y-84495746D01*
X122850234Y-84696400D01*
X122716161Y-84897054D01*
X122629764Y-85331400D01*
X122716161Y-85765746D01*
X122850234Y-85966400D01*
X122716161Y-86167054D01*
X122629764Y-86601400D01*
X122716161Y-87035746D01*
X122962198Y-87403966D01*
X123262468Y-87604600D01*
X120307094Y-87604600D01*
X119628168Y-86953167D01*
X119509374Y-86877294D01*
X119392205Y-86799004D01*
X119384349Y-86797441D01*
X119377597Y-86793129D01*
X119238830Y-86768496D01*
X119100600Y-86741000D01*
X112601179Y-86741000D01*
X112634000Y-86576000D01*
X112634000Y-85887935D01*
X112669630Y-85902730D01*
X113058663Y-85903069D01*
X113418212Y-85754507D01*
X113693540Y-85479659D01*
X113842730Y-85120370D01*
X113843069Y-84731337D01*
X113694507Y-84371788D01*
X113419659Y-84096460D01*
X113060370Y-83947270D01*
X112671337Y-83946931D01*
X112356670Y-84076948D01*
X112044370Y-83947270D01*
X111655337Y-83946931D01*
X111295788Y-84095493D01*
X111020460Y-84370341D01*
X110871270Y-84729630D01*
X110870931Y-85118663D01*
X111019493Y-85478212D01*
X111064000Y-85522797D01*
X111064000Y-86250842D01*
X110253842Y-87061000D01*
X109511465Y-87061000D01*
X109631730Y-86771370D01*
X109632069Y-86382337D01*
X109483507Y-86022788D01*
X109208659Y-85747460D01*
X108849370Y-85598270D01*
X108460337Y-85597931D01*
X108100788Y-85746493D01*
X107825460Y-86021341D01*
X107676270Y-86380630D01*
X107675931Y-86769663D01*
X107796308Y-87061000D01*
X105824157Y-87061000D01*
X105776000Y-87012842D01*
X105776000Y-85553000D01*
X105716245Y-85252594D01*
X105716245Y-85252593D01*
X105546079Y-84997921D01*
X104259015Y-83710857D01*
X104259069Y-83649337D01*
X104110507Y-83289788D01*
X103835659Y-83014460D01*
X103476370Y-82865270D01*
X103087337Y-82864931D01*
X102727788Y-83013493D01*
X102452460Y-83288341D01*
X102303270Y-83647630D01*
X102302931Y-84036663D01*
X102451493Y-84396212D01*
X102726341Y-84671540D01*
X102919678Y-84751820D01*
X102780401Y-84751699D01*
X102142485Y-85015281D01*
X102070000Y-85087640D01*
X102070000Y-82332793D01*
X102189198Y-81733546D01*
X102450251Y-81342851D01*
X102840946Y-81081798D01*
X103377425Y-80975086D01*
X103378000Y-80975200D01*
X103378000Y-80975200D01*
G37*
X103378000Y-80975200D02*
X107449642Y-80975200D01*
X106509909Y-81914933D01*
X106507337Y-81914931D01*
X106147788Y-82063493D01*
X105872460Y-82338341D01*
X105723270Y-82697630D01*
X105722931Y-83086663D01*
X105871493Y-83446212D01*
X106146341Y-83721540D01*
X106505630Y-83870730D01*
X106894663Y-83871069D01*
X107254212Y-83722507D01*
X107529540Y-83447659D01*
X107678730Y-83088370D01*
X107678836Y-82966322D01*
X109126158Y-81519000D01*
X111953000Y-81519000D01*
X111953000Y-81665389D01*
X111821270Y-81982630D01*
X111820931Y-82371663D01*
X111969493Y-82731212D01*
X112244341Y-83006540D01*
X112603630Y-83155730D01*
X112992663Y-83156069D01*
X113352212Y-83007507D01*
X113627540Y-82732659D01*
X113776730Y-82373370D01*
X113777069Y-81984337D01*
X113628507Y-81624788D01*
X113584000Y-81580203D01*
X113584000Y-81519000D01*
X115045091Y-81519000D01*
X114983434Y-81560198D01*
X114737397Y-81928418D01*
X114651000Y-82362764D01*
X114651000Y-82407236D01*
X114737397Y-82841582D01*
X114856612Y-83020000D01*
X114737397Y-83198418D01*
X114651000Y-83632764D01*
X114651000Y-83677236D01*
X114737397Y-84111582D01*
X114983434Y-84479802D01*
X115351654Y-84725839D01*
X115786000Y-84812236D01*
X116220346Y-84725839D01*
X116421000Y-84591766D01*
X116621654Y-84725839D01*
X117056000Y-84812236D01*
X117490346Y-84725839D01*
X117700304Y-84585549D01*
X117765791Y-84642127D01*
X118024126Y-84749119D01*
X118199000Y-84622954D01*
X118199000Y-83782000D01*
X118453000Y-83782000D01*
X118453000Y-84622954D01*
X118627874Y-84749119D01*
X118886209Y-84642127D01*
X118961000Y-84577511D01*
X119035791Y-84642127D01*
X119294126Y-84749119D01*
X119469000Y-84622954D01*
X119469000Y-83782000D01*
X118453000Y-83782000D01*
X118199000Y-83782000D01*
X118179000Y-83782000D01*
X118179000Y-83737564D01*
X118191000Y-83677236D01*
X118191000Y-83632764D01*
X118179000Y-83572436D01*
X118179000Y-83528000D01*
X118199000Y-83528000D01*
X118199000Y-83516974D01*
X118326000Y-83542236D01*
X118453000Y-83516974D01*
X118453000Y-83528000D01*
X119469000Y-83528000D01*
X119469000Y-83516974D01*
X119596000Y-83542236D01*
X119718560Y-83517857D01*
X119718560Y-84155000D01*
X119723000Y-84178597D01*
X119723000Y-84622954D01*
X119897874Y-84749119D01*
X120030398Y-84694233D01*
X120114110Y-84751431D01*
X120366000Y-84802440D01*
X121366000Y-84802440D01*
X121601317Y-84758162D01*
X121817441Y-84619090D01*
X121962431Y-84406890D01*
X122013440Y-84155000D01*
X122013440Y-83155000D01*
X121969162Y-82919683D01*
X121915619Y-82836475D01*
X122001000Y-82407236D01*
X122001000Y-82362764D01*
X121914603Y-81928418D01*
X121668566Y-81560198D01*
X121300346Y-81314161D01*
X120866000Y-81227764D01*
X120431654Y-81314161D01*
X120381000Y-81348007D01*
X120381000Y-81242000D01*
X120327930Y-80975200D01*
X122652000Y-80975200D01*
X122652000Y-81235650D01*
X122810750Y-81394400D01*
X123660000Y-81394400D01*
X123660000Y-81374400D01*
X123914000Y-81374400D01*
X123914000Y-81394400D01*
X124763250Y-81394400D01*
X124922000Y-81235650D01*
X124922000Y-80975200D01*
X126073000Y-80975200D01*
X126073000Y-82385000D01*
X126131004Y-82676605D01*
X126296185Y-82923815D01*
X126543395Y-83088996D01*
X126835000Y-83147000D01*
X128566291Y-83147000D01*
X128563789Y-85088828D01*
X128492082Y-85016996D01*
X127854627Y-84752301D01*
X127164401Y-84751699D01*
X126526485Y-85015281D01*
X126037996Y-85502918D01*
X125773301Y-86140373D01*
X125772699Y-86830599D01*
X126036281Y-87468515D01*
X126172129Y-87604600D01*
X124311532Y-87604600D01*
X124611802Y-87403966D01*
X124857839Y-87035746D01*
X124944236Y-86601400D01*
X124857839Y-86167054D01*
X124723766Y-85966400D01*
X124857839Y-85765746D01*
X124944236Y-85331400D01*
X124857839Y-84897054D01*
X124723766Y-84696400D01*
X124857839Y-84495746D01*
X124944236Y-84061400D01*
X124857839Y-83627054D01*
X124723766Y-83426400D01*
X124857839Y-83225746D01*
X124944236Y-82791400D01*
X124857839Y-82357054D01*
X124843917Y-82336218D01*
X124922000Y-82147710D01*
X124922000Y-81807150D01*
X124763250Y-81648400D01*
X123914000Y-81648400D01*
X123914000Y-81668400D01*
X123869564Y-81668400D01*
X123809236Y-81656400D01*
X123764764Y-81656400D01*
X123704436Y-81668400D01*
X123660000Y-81668400D01*
X123660000Y-81648400D01*
X122810750Y-81648400D01*
X122652000Y-81807150D01*
X122652000Y-82147710D01*
X122730083Y-82336218D01*
X122716161Y-82357054D01*
X122629764Y-82791400D01*
X122716161Y-83225746D01*
X122850234Y-83426400D01*
X122716161Y-83627054D01*
X122629764Y-84061400D01*
X122716161Y-84495746D01*
X122850234Y-84696400D01*
X122716161Y-84897054D01*
X122629764Y-85331400D01*
X122716161Y-85765746D01*
X122850234Y-85966400D01*
X122716161Y-86167054D01*
X122629764Y-86601400D01*
X122716161Y-87035746D01*
X122962198Y-87403966D01*
X123262468Y-87604600D01*
X120307094Y-87604600D01*
X119628168Y-86953167D01*
X119509374Y-86877294D01*
X119392205Y-86799004D01*
X119384349Y-86797441D01*
X119377597Y-86793129D01*
X119238830Y-86768496D01*
X119100600Y-86741000D01*
X112601179Y-86741000D01*
X112634000Y-86576000D01*
X112634000Y-85887935D01*
X112669630Y-85902730D01*
X113058663Y-85903069D01*
X113418212Y-85754507D01*
X113693540Y-85479659D01*
X113842730Y-85120370D01*
X113843069Y-84731337D01*
X113694507Y-84371788D01*
X113419659Y-84096460D01*
X113060370Y-83947270D01*
X112671337Y-83946931D01*
X112356670Y-84076948D01*
X112044370Y-83947270D01*
X111655337Y-83946931D01*
X111295788Y-84095493D01*
X111020460Y-84370341D01*
X110871270Y-84729630D01*
X110870931Y-85118663D01*
X111019493Y-85478212D01*
X111064000Y-85522797D01*
X111064000Y-86250842D01*
X110253842Y-87061000D01*
X109511465Y-87061000D01*
X109631730Y-86771370D01*
X109632069Y-86382337D01*
X109483507Y-86022788D01*
X109208659Y-85747460D01*
X108849370Y-85598270D01*
X108460337Y-85597931D01*
X108100788Y-85746493D01*
X107825460Y-86021341D01*
X107676270Y-86380630D01*
X107675931Y-86769663D01*
X107796308Y-87061000D01*
X105824157Y-87061000D01*
X105776000Y-87012842D01*
X105776000Y-85553000D01*
X105716245Y-85252594D01*
X105716245Y-85252593D01*
X105546079Y-84997921D01*
X104259015Y-83710857D01*
X104259069Y-83649337D01*
X104110507Y-83289788D01*
X103835659Y-83014460D01*
X103476370Y-82865270D01*
X103087337Y-82864931D01*
X102727788Y-83013493D01*
X102452460Y-83288341D01*
X102303270Y-83647630D01*
X102302931Y-84036663D01*
X102451493Y-84396212D01*
X102726341Y-84671540D01*
X102919678Y-84751820D01*
X102780401Y-84751699D01*
X102142485Y-85015281D01*
X102070000Y-85087640D01*
X102070000Y-82332793D01*
X102189198Y-81733546D01*
X102450251Y-81342851D01*
X102840946Y-81081798D01*
X103377425Y-80975086D01*
X103378000Y-80975200D01*
M02*
