G04 #@! TF.FileFunction,Legend,Top*
%FSLAX46Y46*%
G04 Gerber Fmt 4.6, Leading zero omitted, Abs format (unit mm)*
G04 Created by KiCad (PCBNEW 4.0.5) date 04/27/18 19:00:17*
%MOMM*%
%LPD*%
G01*
G04 APERTURE LIST*
%ADD10C,0.100000*%
%ADD11C,0.125000*%
%ADD12C,0.200000*%
%ADD13C,0.150000*%
%ADD14C,0.120000*%
G04 APERTURE END LIST*
D10*
D11*
X109177143Y-85126429D02*
X109205714Y-85040715D01*
X109234286Y-85012143D01*
X109291429Y-84983572D01*
X109377143Y-84983572D01*
X109434286Y-85012143D01*
X109462857Y-85040715D01*
X109491429Y-85097857D01*
X109491429Y-85326429D01*
X108891429Y-85326429D01*
X108891429Y-85126429D01*
X108920000Y-85069286D01*
X108948571Y-85040715D01*
X109005714Y-85012143D01*
X109062857Y-85012143D01*
X109120000Y-85040715D01*
X109148571Y-85069286D01*
X109177143Y-85126429D01*
X109177143Y-85326429D01*
X109320000Y-84755000D02*
X109320000Y-84469286D01*
X109491429Y-84812143D02*
X108891429Y-84612143D01*
X109491429Y-84412143D01*
X108891429Y-84297857D02*
X108891429Y-83955000D01*
X109491429Y-84126429D02*
X108891429Y-84126429D01*
X108891429Y-83840714D02*
X108891429Y-83497857D01*
X109491429Y-83669286D02*
X108891429Y-83669286D01*
X108221429Y-84967714D02*
X107935714Y-85167714D01*
X108221429Y-85310571D02*
X107621429Y-85310571D01*
X107621429Y-85081999D01*
X107650000Y-85024857D01*
X107678571Y-84996285D01*
X107735714Y-84967714D01*
X107821429Y-84967714D01*
X107878571Y-84996285D01*
X107907143Y-85024857D01*
X107935714Y-85081999D01*
X107935714Y-85310571D01*
X107907143Y-84710571D02*
X107907143Y-84510571D01*
X108221429Y-84424857D02*
X108221429Y-84710571D01*
X107621429Y-84710571D01*
X107621429Y-84424857D01*
X107650000Y-83853428D02*
X107621429Y-83910571D01*
X107621429Y-83996285D01*
X107650000Y-84082000D01*
X107707143Y-84139142D01*
X107764286Y-84167714D01*
X107878571Y-84196285D01*
X107964286Y-84196285D01*
X108078571Y-84167714D01*
X108135714Y-84139142D01*
X108192857Y-84082000D01*
X108221429Y-83996285D01*
X108221429Y-83939142D01*
X108192857Y-83853428D01*
X108164286Y-83824857D01*
X107964286Y-83824857D01*
X107964286Y-83939142D01*
D12*
X116403317Y-71945500D02*
G75*
G03X116403317Y-71945500I-261817J0D01*
G01*
X119705317Y-61912500D02*
G75*
G03X119705317Y-61912500I-261817J0D01*
G01*
D11*
X120272285Y-86412429D02*
X120643714Y-86412429D01*
X120443714Y-86641000D01*
X120529428Y-86641000D01*
X120586571Y-86669571D01*
X120615142Y-86698143D01*
X120643714Y-86755286D01*
X120643714Y-86898143D01*
X120615142Y-86955286D01*
X120586571Y-86983857D01*
X120529428Y-87012429D01*
X120358000Y-87012429D01*
X120300857Y-86983857D01*
X120272285Y-86955286D01*
X120900857Y-86955286D02*
X120929429Y-86983857D01*
X120900857Y-87012429D01*
X120872286Y-86983857D01*
X120900857Y-86955286D01*
X120900857Y-87012429D01*
X121129428Y-86412429D02*
X121500857Y-86412429D01*
X121300857Y-86641000D01*
X121386571Y-86641000D01*
X121443714Y-86669571D01*
X121472285Y-86698143D01*
X121500857Y-86755286D01*
X121500857Y-86898143D01*
X121472285Y-86955286D01*
X121443714Y-86983857D01*
X121386571Y-87012429D01*
X121215143Y-87012429D01*
X121158000Y-86983857D01*
X121129428Y-86955286D01*
X121672286Y-86412429D02*
X121872286Y-87012429D01*
X122072286Y-86412429D01*
X120356429Y-85713857D02*
X120442143Y-85742429D01*
X120585000Y-85742429D01*
X120642143Y-85713857D01*
X120670714Y-85685286D01*
X120699286Y-85628143D01*
X120699286Y-85571000D01*
X120670714Y-85513857D01*
X120642143Y-85485286D01*
X120585000Y-85456714D01*
X120470714Y-85428143D01*
X120413572Y-85399571D01*
X120385000Y-85371000D01*
X120356429Y-85313857D01*
X120356429Y-85256714D01*
X120385000Y-85199571D01*
X120413572Y-85171000D01*
X120470714Y-85142429D01*
X120613572Y-85142429D01*
X120699286Y-85171000D01*
X120956429Y-85742429D02*
X120956429Y-85142429D01*
X121099286Y-85142429D01*
X121185001Y-85171000D01*
X121242143Y-85228143D01*
X121270715Y-85285286D01*
X121299286Y-85399571D01*
X121299286Y-85485286D01*
X121270715Y-85599571D01*
X121242143Y-85656714D01*
X121185001Y-85713857D01*
X121099286Y-85742429D01*
X120956429Y-85742429D01*
X121556429Y-85742429D02*
X121556429Y-85142429D01*
X121956429Y-85142429D02*
X122070715Y-85142429D01*
X122127857Y-85171000D01*
X122185000Y-85228143D01*
X122213572Y-85342429D01*
X122213572Y-85542429D01*
X122185000Y-85656714D01*
X122127857Y-85713857D01*
X122070715Y-85742429D01*
X121956429Y-85742429D01*
X121899286Y-85713857D01*
X121842143Y-85656714D01*
X121813572Y-85542429D01*
X121813572Y-85342429D01*
X121842143Y-85228143D01*
X121899286Y-85171000D01*
X121956429Y-85142429D01*
X125477715Y-84316857D02*
X125563429Y-84345429D01*
X125706286Y-84345429D01*
X125763429Y-84316857D01*
X125792000Y-84288286D01*
X125820572Y-84231143D01*
X125820572Y-84174000D01*
X125792000Y-84116857D01*
X125763429Y-84088286D01*
X125706286Y-84059714D01*
X125592000Y-84031143D01*
X125534858Y-84002571D01*
X125506286Y-83974000D01*
X125477715Y-83916857D01*
X125477715Y-83859714D01*
X125506286Y-83802571D01*
X125534858Y-83774000D01*
X125592000Y-83745429D01*
X125734858Y-83745429D01*
X125820572Y-83774000D01*
X126420572Y-84288286D02*
X126392001Y-84316857D01*
X126306287Y-84345429D01*
X126249144Y-84345429D01*
X126163429Y-84316857D01*
X126106287Y-84259714D01*
X126077715Y-84202571D01*
X126049144Y-84088286D01*
X126049144Y-84002571D01*
X126077715Y-83888286D01*
X126106287Y-83831143D01*
X126163429Y-83774000D01*
X126249144Y-83745429D01*
X126306287Y-83745429D01*
X126392001Y-83774000D01*
X126420572Y-83802571D01*
X126963429Y-84345429D02*
X126677715Y-84345429D01*
X126677715Y-83745429D01*
X127163429Y-84345429D02*
X127163429Y-83745429D01*
X127506286Y-84345429D02*
X127249143Y-84002571D01*
X127506286Y-83745429D02*
X127163429Y-84088286D01*
X125909428Y-83202429D02*
X125709428Y-82916714D01*
X125566571Y-83202429D02*
X125566571Y-82602429D01*
X125795143Y-82602429D01*
X125852285Y-82631000D01*
X125880857Y-82659571D01*
X125909428Y-82716714D01*
X125909428Y-82802429D01*
X125880857Y-82859571D01*
X125852285Y-82888143D01*
X125795143Y-82916714D01*
X125566571Y-82916714D01*
X126138000Y-83173857D02*
X126223714Y-83202429D01*
X126366571Y-83202429D01*
X126423714Y-83173857D01*
X126452285Y-83145286D01*
X126480857Y-83088143D01*
X126480857Y-83031000D01*
X126452285Y-82973857D01*
X126423714Y-82945286D01*
X126366571Y-82916714D01*
X126252285Y-82888143D01*
X126195143Y-82859571D01*
X126166571Y-82831000D01*
X126138000Y-82773857D01*
X126138000Y-82716714D01*
X126166571Y-82659571D01*
X126195143Y-82631000D01*
X126252285Y-82602429D01*
X126395143Y-82602429D01*
X126480857Y-82631000D01*
X126652286Y-82602429D02*
X126995143Y-82602429D01*
X126823714Y-83202429D02*
X126823714Y-82602429D01*
X125780858Y-81488000D02*
X125723715Y-81459429D01*
X125638001Y-81459429D01*
X125552286Y-81488000D01*
X125495144Y-81545143D01*
X125466572Y-81602286D01*
X125438001Y-81716571D01*
X125438001Y-81802286D01*
X125466572Y-81916571D01*
X125495144Y-81973714D01*
X125552286Y-82030857D01*
X125638001Y-82059429D01*
X125695144Y-82059429D01*
X125780858Y-82030857D01*
X125809429Y-82002286D01*
X125809429Y-81802286D01*
X125695144Y-81802286D01*
X126066572Y-82059429D02*
X126066572Y-81459429D01*
X126409429Y-82059429D01*
X126409429Y-81459429D01*
X126695143Y-82059429D02*
X126695143Y-81459429D01*
X126838000Y-81459429D01*
X126923715Y-81488000D01*
X126980857Y-81545143D01*
X127009429Y-81602286D01*
X127038000Y-81716571D01*
X127038000Y-81802286D01*
X127009429Y-81916571D01*
X126980857Y-81973714D01*
X126923715Y-82030857D01*
X126838000Y-82059429D01*
X126695143Y-82059429D01*
D12*
X107640317Y-59245500D02*
G75*
G03X107640317Y-59245500I-261817J0D01*
G01*
D13*
X117800000Y-82123000D02*
X118900000Y-82123000D01*
X118900000Y-82123000D02*
X118900000Y-81823000D01*
X118900000Y-81823000D02*
X120100000Y-81823000D01*
X120100000Y-81823000D02*
X120100000Y-85623000D01*
X120100000Y-85623000D02*
X119200000Y-85623000D01*
X119200000Y-85623000D02*
X119200000Y-86823000D01*
X119200000Y-86823000D02*
X111500000Y-86823000D01*
X111500000Y-86823000D02*
X111500000Y-85723000D01*
X111500000Y-85723000D02*
X110600000Y-85723000D01*
X110600000Y-85723000D02*
X110600000Y-81823000D01*
X110600000Y-81823000D02*
X111900000Y-81823000D01*
X111900000Y-81823000D02*
X111900000Y-82123000D01*
X111900000Y-82123000D02*
X117800000Y-82123000D01*
D14*
X120515000Y-64555000D02*
X119515000Y-64555000D01*
X119515000Y-66255000D02*
X120515000Y-66255000D01*
X119595000Y-76255500D02*
X119595000Y-75255500D01*
X117895000Y-75255500D02*
X117895000Y-76255500D01*
X116070000Y-76302500D02*
X115070000Y-76302500D01*
X115070000Y-78002500D02*
X116070000Y-78002500D01*
X121229500Y-78066000D02*
X122229500Y-78066000D01*
X122229500Y-76366000D02*
X121229500Y-76366000D01*
X101829500Y-80526000D02*
X101829500Y-81526000D01*
X103529500Y-81526000D02*
X103529500Y-80526000D01*
X107339500Y-81526000D02*
X107339500Y-80526000D01*
X105639500Y-80526000D02*
X105639500Y-81526000D01*
X112307000Y-61476000D02*
X112307000Y-62476000D01*
X114007000Y-62476000D02*
X114007000Y-61476000D01*
X116705000Y-78652000D02*
X115705000Y-78652000D01*
X115705000Y-80352000D02*
X116705000Y-80352000D01*
X105434500Y-81526000D02*
X105434500Y-80526000D01*
X103734500Y-80526000D02*
X103734500Y-81526000D01*
X125215000Y-86106000D02*
X125215000Y-80906000D01*
X125215000Y-80906000D02*
X122435000Y-80906000D01*
X122435000Y-80906000D02*
X122435000Y-86106000D01*
X122435000Y-86106000D02*
X125215000Y-86106000D01*
X125215000Y-86741000D02*
X125215000Y-87496000D01*
X125215000Y-87496000D02*
X123825000Y-87496000D01*
X122653500Y-78368000D02*
X123853500Y-78368000D01*
X123853500Y-80128000D02*
X122653500Y-80128000D01*
X114271500Y-55381000D02*
X115471500Y-55381000D01*
X115471500Y-57141000D02*
X114271500Y-57141000D01*
X110074000Y-57077500D02*
X108874000Y-57077500D01*
X108874000Y-55317500D02*
X110074000Y-55317500D01*
X109846000Y-77505000D02*
X109846000Y-78705000D01*
X108086000Y-78705000D02*
X108086000Y-77505000D01*
X103811500Y-78127500D02*
X105611500Y-78127500D01*
X105611500Y-74907500D02*
X103161500Y-74907500D01*
D13*
X117798000Y-73348000D02*
X117798000Y-73123000D01*
X110548000Y-73348000D02*
X110548000Y-73023000D01*
X110548000Y-66098000D02*
X110548000Y-66423000D01*
X117798000Y-66098000D02*
X117798000Y-66423000D01*
X117798000Y-73348000D02*
X117473000Y-73348000D01*
X117798000Y-66098000D02*
X117473000Y-66098000D01*
X110548000Y-66098000D02*
X110873000Y-66098000D01*
X110548000Y-73348000D02*
X110873000Y-73348000D01*
X117798000Y-73123000D02*
X119223000Y-73123000D01*
X106510000Y-57813500D02*
X106510000Y-57863500D01*
X110660000Y-57813500D02*
X110660000Y-57958500D01*
X110660000Y-62963500D02*
X110660000Y-62818500D01*
X106510000Y-62963500D02*
X106510000Y-62818500D01*
X106510000Y-57813500D02*
X110660000Y-57813500D01*
X106510000Y-62963500D02*
X110660000Y-62963500D01*
X106510000Y-57863500D02*
X105110000Y-57863500D01*
X120502500Y-62836500D02*
X120502500Y-62786500D01*
X116352500Y-62836500D02*
X116352500Y-62691500D01*
X116352500Y-57686500D02*
X116352500Y-57831500D01*
X120502500Y-57686500D02*
X120502500Y-57831500D01*
X120502500Y-62836500D02*
X116352500Y-62836500D01*
X120502500Y-57686500D02*
X116352500Y-57686500D01*
X120502500Y-62786500D02*
X121902500Y-62786500D01*
D14*
X112793000Y-78805000D02*
X112793000Y-76905000D01*
X110473000Y-77405000D02*
X110473000Y-78805000D01*
X127943500Y-66392500D02*
X127943500Y-67592500D01*
X126183500Y-67592500D02*
X126183500Y-66392500D01*
X121758000Y-57141000D02*
X120558000Y-57141000D01*
X120558000Y-55381000D02*
X121758000Y-55381000D01*
X124522000Y-68475000D02*
X125922000Y-68475000D01*
X125922000Y-68475000D02*
X125922000Y-65675000D01*
X124522000Y-68475000D02*
X124522000Y-65675000D01*
X108585000Y-88258000D02*
X109975000Y-88258000D01*
X109975000Y-88258000D02*
X109975000Y-85478000D01*
X109975000Y-85478000D02*
X108585000Y-85478000D01*
X108585000Y-85478000D02*
X108585000Y-88258000D01*
X107950000Y-88258000D02*
X107195000Y-88258000D01*
X107195000Y-88258000D02*
X107195000Y-86868000D01*
D13*
X114577905Y-85796381D02*
X114577905Y-84796381D01*
X114958858Y-84796381D01*
X115054096Y-84844000D01*
X115101715Y-84891619D01*
X115149334Y-84986857D01*
X115149334Y-85129714D01*
X115101715Y-85224952D01*
X115054096Y-85272571D01*
X114958858Y-85320190D01*
X114577905Y-85320190D01*
X115482667Y-84796381D02*
X116101715Y-84796381D01*
X115768381Y-85177333D01*
X115911239Y-85177333D01*
X116006477Y-85224952D01*
X116054096Y-85272571D01*
X116101715Y-85367810D01*
X116101715Y-85605905D01*
X116054096Y-85701143D01*
X116006477Y-85748762D01*
X115911239Y-85796381D01*
X115625524Y-85796381D01*
X115530286Y-85748762D01*
X115482667Y-85701143D01*
X122832834Y-65889143D02*
X122785215Y-65936762D01*
X122642358Y-65984381D01*
X122547120Y-65984381D01*
X122404262Y-65936762D01*
X122309024Y-65841524D01*
X122261405Y-65746286D01*
X122213786Y-65555810D01*
X122213786Y-65412952D01*
X122261405Y-65222476D01*
X122309024Y-65127238D01*
X122404262Y-65032000D01*
X122547120Y-64984381D01*
X122642358Y-64984381D01*
X122785215Y-65032000D01*
X122832834Y-65079619D01*
X123785215Y-65984381D02*
X123213786Y-65984381D01*
X123499500Y-65984381D02*
X123499500Y-64984381D01*
X123404262Y-65127238D01*
X123309024Y-65222476D01*
X123213786Y-65270095D01*
X120626143Y-75922166D02*
X120673762Y-75969785D01*
X120721381Y-76112642D01*
X120721381Y-76207880D01*
X120673762Y-76350738D01*
X120578524Y-76445976D01*
X120483286Y-76493595D01*
X120292810Y-76541214D01*
X120149952Y-76541214D01*
X119959476Y-76493595D01*
X119864238Y-76445976D01*
X119769000Y-76350738D01*
X119721381Y-76207880D01*
X119721381Y-76112642D01*
X119769000Y-75969785D01*
X119816619Y-75922166D01*
X119816619Y-75541214D02*
X119769000Y-75493595D01*
X119721381Y-75398357D01*
X119721381Y-75160261D01*
X119769000Y-75065023D01*
X119816619Y-75017404D01*
X119911857Y-74969785D01*
X120007095Y-74969785D01*
X120149952Y-75017404D01*
X120721381Y-75588833D01*
X120721381Y-74969785D01*
X115657334Y-75985643D02*
X115609715Y-76033262D01*
X115466858Y-76080881D01*
X115371620Y-76080881D01*
X115228762Y-76033262D01*
X115133524Y-75938024D01*
X115085905Y-75842786D01*
X115038286Y-75652310D01*
X115038286Y-75509452D01*
X115085905Y-75318976D01*
X115133524Y-75223738D01*
X115228762Y-75128500D01*
X115371620Y-75080881D01*
X115466858Y-75080881D01*
X115609715Y-75128500D01*
X115657334Y-75176119D01*
X115990667Y-75080881D02*
X116609715Y-75080881D01*
X116276381Y-75461833D01*
X116419239Y-75461833D01*
X116514477Y-75509452D01*
X116562096Y-75557071D01*
X116609715Y-75652310D01*
X116609715Y-75890405D01*
X116562096Y-75985643D01*
X116514477Y-76033262D01*
X116419239Y-76080881D01*
X116133524Y-76080881D01*
X116038286Y-76033262D01*
X115990667Y-75985643D01*
X124674334Y-77573143D02*
X124626715Y-77620762D01*
X124483858Y-77668381D01*
X124388620Y-77668381D01*
X124245762Y-77620762D01*
X124150524Y-77525524D01*
X124102905Y-77430286D01*
X124055286Y-77239810D01*
X124055286Y-77096952D01*
X124102905Y-76906476D01*
X124150524Y-76811238D01*
X124245762Y-76716000D01*
X124388620Y-76668381D01*
X124483858Y-76668381D01*
X124626715Y-76716000D01*
X124674334Y-76763619D01*
X125531477Y-77001714D02*
X125531477Y-77668381D01*
X125293381Y-76620762D02*
X125055286Y-77335048D01*
X125674334Y-77335048D01*
X103100143Y-84367666D02*
X103147762Y-84415285D01*
X103195381Y-84558142D01*
X103195381Y-84653380D01*
X103147762Y-84796238D01*
X103052524Y-84891476D01*
X102957286Y-84939095D01*
X102766810Y-84986714D01*
X102623952Y-84986714D01*
X102433476Y-84939095D01*
X102338238Y-84891476D01*
X102243000Y-84796238D01*
X102195381Y-84653380D01*
X102195381Y-84558142D01*
X102243000Y-84415285D01*
X102290619Y-84367666D01*
X102195381Y-83462904D02*
X102195381Y-83939095D01*
X102671571Y-83986714D01*
X102623952Y-83939095D01*
X102576333Y-83843857D01*
X102576333Y-83605761D01*
X102623952Y-83510523D01*
X102671571Y-83462904D01*
X102766810Y-83415285D01*
X103004905Y-83415285D01*
X103100143Y-83462904D01*
X103147762Y-83510523D01*
X103195381Y-83605761D01*
X103195381Y-83843857D01*
X103147762Y-83939095D01*
X103100143Y-83986714D01*
X106846643Y-85256666D02*
X106894262Y-85304285D01*
X106941881Y-85447142D01*
X106941881Y-85542380D01*
X106894262Y-85685238D01*
X106799024Y-85780476D01*
X106703786Y-85828095D01*
X106513310Y-85875714D01*
X106370452Y-85875714D01*
X106179976Y-85828095D01*
X106084738Y-85780476D01*
X105989500Y-85685238D01*
X105941881Y-85542380D01*
X105941881Y-85447142D01*
X105989500Y-85304285D01*
X106037119Y-85256666D01*
X105941881Y-84399523D02*
X105941881Y-84590000D01*
X105989500Y-84685238D01*
X106037119Y-84732857D01*
X106179976Y-84828095D01*
X106370452Y-84875714D01*
X106751405Y-84875714D01*
X106846643Y-84828095D01*
X106894262Y-84780476D01*
X106941881Y-84685238D01*
X106941881Y-84494761D01*
X106894262Y-84399523D01*
X106846643Y-84351904D01*
X106751405Y-84304285D01*
X106513310Y-84304285D01*
X106418071Y-84351904D01*
X106370452Y-84399523D01*
X106322833Y-84494761D01*
X106322833Y-84685238D01*
X106370452Y-84780476D01*
X106418071Y-84828095D01*
X106513310Y-84875714D01*
X113577643Y-58967666D02*
X113625262Y-59015285D01*
X113672881Y-59158142D01*
X113672881Y-59253380D01*
X113625262Y-59396238D01*
X113530024Y-59491476D01*
X113434786Y-59539095D01*
X113244310Y-59586714D01*
X113101452Y-59586714D01*
X112910976Y-59539095D01*
X112815738Y-59491476D01*
X112720500Y-59396238D01*
X112672881Y-59253380D01*
X112672881Y-59158142D01*
X112720500Y-59015285D01*
X112768119Y-58967666D01*
X113672881Y-58491476D02*
X113672881Y-58301000D01*
X113625262Y-58205761D01*
X113577643Y-58158142D01*
X113434786Y-58062904D01*
X113244310Y-58015285D01*
X112863357Y-58015285D01*
X112768119Y-58062904D01*
X112720500Y-58110523D01*
X112672881Y-58205761D01*
X112672881Y-58396238D01*
X112720500Y-58491476D01*
X112768119Y-58539095D01*
X112863357Y-58586714D01*
X113101452Y-58586714D01*
X113196690Y-58539095D01*
X113244310Y-58491476D01*
X113291929Y-58396238D01*
X113291929Y-58205761D01*
X113244310Y-58110523D01*
X113196690Y-58062904D01*
X113101452Y-58015285D01*
X119118143Y-79859143D02*
X119070524Y-79906762D01*
X118927667Y-79954381D01*
X118832429Y-79954381D01*
X118689571Y-79906762D01*
X118594333Y-79811524D01*
X118546714Y-79716286D01*
X118499095Y-79525810D01*
X118499095Y-79382952D01*
X118546714Y-79192476D01*
X118594333Y-79097238D01*
X118689571Y-79002000D01*
X118832429Y-78954381D01*
X118927667Y-78954381D01*
X119070524Y-79002000D01*
X119118143Y-79049619D01*
X120070524Y-79954381D02*
X119499095Y-79954381D01*
X119784809Y-79954381D02*
X119784809Y-78954381D01*
X119689571Y-79097238D01*
X119594333Y-79192476D01*
X119499095Y-79240095D01*
X121022905Y-79954381D02*
X120451476Y-79954381D01*
X120737190Y-79954381D02*
X120737190Y-78954381D01*
X120641952Y-79097238D01*
X120546714Y-79192476D01*
X120451476Y-79240095D01*
X105259143Y-85224857D02*
X105306762Y-85272476D01*
X105354381Y-85415333D01*
X105354381Y-85510571D01*
X105306762Y-85653429D01*
X105211524Y-85748667D01*
X105116286Y-85796286D01*
X104925810Y-85843905D01*
X104782952Y-85843905D01*
X104592476Y-85796286D01*
X104497238Y-85748667D01*
X104402000Y-85653429D01*
X104354381Y-85510571D01*
X104354381Y-85415333D01*
X104402000Y-85272476D01*
X104449619Y-85224857D01*
X105354381Y-84272476D02*
X105354381Y-84843905D01*
X105354381Y-84558191D02*
X104354381Y-84558191D01*
X104497238Y-84653429D01*
X104592476Y-84748667D01*
X104640095Y-84843905D01*
X104687714Y-83415333D02*
X105354381Y-83415333D01*
X104306762Y-83653429D02*
X105021048Y-83891524D01*
X105021048Y-83272476D01*
X121054881Y-84216833D02*
X121769167Y-84216833D01*
X121912024Y-84264453D01*
X122007262Y-84359691D01*
X122054881Y-84502548D01*
X122054881Y-84597786D01*
X121150119Y-83788262D02*
X121102500Y-83740643D01*
X121054881Y-83645405D01*
X121054881Y-83407309D01*
X121102500Y-83312071D01*
X121150119Y-83264452D01*
X121245357Y-83216833D01*
X121340595Y-83216833D01*
X121483452Y-83264452D01*
X122054881Y-83835881D01*
X122054881Y-83216833D01*
X126325334Y-79700381D02*
X125992000Y-79224190D01*
X125753905Y-79700381D02*
X125753905Y-78700381D01*
X126134858Y-78700381D01*
X126230096Y-78748000D01*
X126277715Y-78795619D01*
X126325334Y-78890857D01*
X126325334Y-79033714D01*
X126277715Y-79128952D01*
X126230096Y-79176571D01*
X126134858Y-79224190D01*
X125753905Y-79224190D01*
X127277715Y-79700381D02*
X126706286Y-79700381D01*
X126992000Y-79700381D02*
X126992000Y-78700381D01*
X126896762Y-78843238D01*
X126801524Y-78938476D01*
X126706286Y-78986095D01*
X118498881Y-56427666D02*
X118022690Y-56761000D01*
X118498881Y-56999095D02*
X117498881Y-56999095D01*
X117498881Y-56618142D01*
X117546500Y-56522904D01*
X117594119Y-56475285D01*
X117689357Y-56427666D01*
X117832214Y-56427666D01*
X117927452Y-56475285D01*
X117975071Y-56522904D01*
X118022690Y-56618142D01*
X118022690Y-56999095D01*
X117594119Y-56046714D02*
X117546500Y-55999095D01*
X117498881Y-55903857D01*
X117498881Y-55665761D01*
X117546500Y-55570523D01*
X117594119Y-55522904D01*
X117689357Y-55475285D01*
X117784595Y-55475285D01*
X117927452Y-55522904D01*
X118498881Y-56094333D01*
X118498881Y-55475285D01*
X112974381Y-56427666D02*
X112498190Y-56761000D01*
X112974381Y-56999095D02*
X111974381Y-56999095D01*
X111974381Y-56618142D01*
X112022000Y-56522904D01*
X112069619Y-56475285D01*
X112164857Y-56427666D01*
X112307714Y-56427666D01*
X112402952Y-56475285D01*
X112450571Y-56522904D01*
X112498190Y-56618142D01*
X112498190Y-56999095D01*
X111974381Y-56094333D02*
X111974381Y-55475285D01*
X112355333Y-55808619D01*
X112355333Y-55665761D01*
X112402952Y-55570523D01*
X112450571Y-55522904D01*
X112545810Y-55475285D01*
X112783905Y-55475285D01*
X112879143Y-55522904D01*
X112926762Y-55570523D01*
X112974381Y-55665761D01*
X112974381Y-55951476D01*
X112926762Y-56046714D01*
X112879143Y-56094333D01*
X109608881Y-81446666D02*
X109132690Y-81780000D01*
X109608881Y-82018095D02*
X108608881Y-82018095D01*
X108608881Y-81637142D01*
X108656500Y-81541904D01*
X108704119Y-81494285D01*
X108799357Y-81446666D01*
X108942214Y-81446666D01*
X109037452Y-81494285D01*
X109085071Y-81541904D01*
X109132690Y-81637142D01*
X109132690Y-82018095D01*
X108608881Y-80541904D02*
X108608881Y-81018095D01*
X109085071Y-81065714D01*
X109037452Y-81018095D01*
X108989833Y-80922857D01*
X108989833Y-80684761D01*
X109037452Y-80589523D01*
X109085071Y-80541904D01*
X109180310Y-80494285D01*
X109418405Y-80494285D01*
X109513643Y-80541904D01*
X109561262Y-80589523D01*
X109608881Y-80684761D01*
X109608881Y-80922857D01*
X109561262Y-81018095D01*
X109513643Y-81065714D01*
X106576881Y-77279405D02*
X107386405Y-77279405D01*
X107481643Y-77231786D01*
X107529262Y-77184167D01*
X107576881Y-77088929D01*
X107576881Y-76898452D01*
X107529262Y-76803214D01*
X107481643Y-76755595D01*
X107386405Y-76707976D01*
X106576881Y-76707976D01*
X107576881Y-75707976D02*
X107576881Y-76279405D01*
X107576881Y-75993691D02*
X106576881Y-75993691D01*
X106719738Y-76088929D01*
X106814976Y-76184167D01*
X106862595Y-76279405D01*
X113347595Y-69175381D02*
X113347595Y-69984905D01*
X113395214Y-70080143D01*
X113442833Y-70127762D01*
X113538071Y-70175381D01*
X113728548Y-70175381D01*
X113823786Y-70127762D01*
X113871405Y-70080143D01*
X113919024Y-69984905D01*
X113919024Y-69175381D01*
X114347595Y-69270619D02*
X114395214Y-69223000D01*
X114490452Y-69175381D01*
X114728548Y-69175381D01*
X114823786Y-69223000D01*
X114871405Y-69270619D01*
X114919024Y-69365857D01*
X114919024Y-69461095D01*
X114871405Y-69603952D01*
X114299976Y-70175381D01*
X114919024Y-70175381D01*
X107823095Y-59777381D02*
X107823095Y-60586905D01*
X107870714Y-60682143D01*
X107918333Y-60729762D01*
X108013571Y-60777381D01*
X108204048Y-60777381D01*
X108299286Y-60729762D01*
X108346905Y-60682143D01*
X108394524Y-60586905D01*
X108394524Y-59777381D01*
X108775476Y-59777381D02*
X109394524Y-59777381D01*
X109061190Y-60158333D01*
X109204048Y-60158333D01*
X109299286Y-60205952D01*
X109346905Y-60253571D01*
X109394524Y-60348810D01*
X109394524Y-60586905D01*
X109346905Y-60682143D01*
X109299286Y-60729762D01*
X109204048Y-60777381D01*
X108918333Y-60777381D01*
X108823095Y-60729762D01*
X108775476Y-60682143D01*
X117856095Y-59777381D02*
X117856095Y-60586905D01*
X117903714Y-60682143D01*
X117951333Y-60729762D01*
X118046571Y-60777381D01*
X118237048Y-60777381D01*
X118332286Y-60729762D01*
X118379905Y-60682143D01*
X118427524Y-60586905D01*
X118427524Y-59777381D01*
X119332286Y-60110714D02*
X119332286Y-60777381D01*
X119094190Y-59729762D02*
X118856095Y-60444048D01*
X119475143Y-60444048D01*
X110998095Y-80541881D02*
X110998095Y-81351405D01*
X111045714Y-81446643D01*
X111093333Y-81494262D01*
X111188571Y-81541881D01*
X111379048Y-81541881D01*
X111474286Y-81494262D01*
X111521905Y-81446643D01*
X111569524Y-81351405D01*
X111569524Y-80541881D01*
X112521905Y-80541881D02*
X112045714Y-80541881D01*
X111998095Y-81018071D01*
X112045714Y-80970452D01*
X112140952Y-80922833D01*
X112379048Y-80922833D01*
X112474286Y-80970452D01*
X112521905Y-81018071D01*
X112569524Y-81113310D01*
X112569524Y-81351405D01*
X112521905Y-81446643D01*
X112474286Y-81494262D01*
X112379048Y-81541881D01*
X112140952Y-81541881D01*
X112045714Y-81494262D01*
X111998095Y-81446643D01*
X127579381Y-70397666D02*
X127103190Y-70731000D01*
X127579381Y-70969095D02*
X126579381Y-70969095D01*
X126579381Y-70588142D01*
X126627000Y-70492904D01*
X126674619Y-70445285D01*
X126769857Y-70397666D01*
X126912714Y-70397666D01*
X127007952Y-70445285D01*
X127055571Y-70492904D01*
X127103190Y-70588142D01*
X127103190Y-70969095D01*
X126912714Y-69540523D02*
X127579381Y-69540523D01*
X126531762Y-69778619D02*
X127246048Y-70016714D01*
X127246048Y-69397666D01*
X124912381Y-56427666D02*
X124436190Y-56761000D01*
X124912381Y-56999095D02*
X123912381Y-56999095D01*
X123912381Y-56618142D01*
X123960000Y-56522904D01*
X124007619Y-56475285D01*
X124102857Y-56427666D01*
X124245714Y-56427666D01*
X124340952Y-56475285D01*
X124388571Y-56522904D01*
X124436190Y-56618142D01*
X124436190Y-56999095D01*
X123912381Y-55570523D02*
X123912381Y-55761000D01*
X123960000Y-55856238D01*
X124007619Y-55903857D01*
X124150476Y-55999095D01*
X124340952Y-56046714D01*
X124721905Y-56046714D01*
X124817143Y-55999095D01*
X124864762Y-55951476D01*
X124912381Y-55856238D01*
X124912381Y-55665761D01*
X124864762Y-55570523D01*
X124817143Y-55522904D01*
X124721905Y-55475285D01*
X124483810Y-55475285D01*
X124388571Y-55522904D01*
X124340952Y-55570523D01*
X124293333Y-55665761D01*
X124293333Y-55856238D01*
X124340952Y-55951476D01*
X124388571Y-55999095D01*
X124483810Y-56046714D01*
X87757095Y-90130381D02*
X87757095Y-90939905D01*
X87804714Y-91035143D01*
X87852333Y-91082762D01*
X87947571Y-91130381D01*
X88138048Y-91130381D01*
X88233286Y-91082762D01*
X88280905Y-91035143D01*
X88328524Y-90939905D01*
X88328524Y-90130381D01*
X89233286Y-90130381D02*
X89042809Y-90130381D01*
X88947571Y-90178000D01*
X88899952Y-90225619D01*
X88804714Y-90368476D01*
X88757095Y-90558952D01*
X88757095Y-90939905D01*
X88804714Y-91035143D01*
X88852333Y-91082762D01*
X88947571Y-91130381D01*
X89138048Y-91130381D01*
X89233286Y-91082762D01*
X89280905Y-91035143D01*
X89328524Y-90939905D01*
X89328524Y-90701810D01*
X89280905Y-90606571D01*
X89233286Y-90558952D01*
X89138048Y-90511333D01*
X88947571Y-90511333D01*
X88852333Y-90558952D01*
X88804714Y-90606571D01*
X88757095Y-90701810D01*
X145923095Y-56729381D02*
X145923095Y-57538905D01*
X145970714Y-57634143D01*
X146018333Y-57681762D01*
X146113571Y-57729381D01*
X146304048Y-57729381D01*
X146399286Y-57681762D01*
X146446905Y-57634143D01*
X146494524Y-57538905D01*
X146494524Y-56729381D01*
X146875476Y-56729381D02*
X147542143Y-56729381D01*
X147113571Y-57729381D01*
X146812095Y-88479381D02*
X146812095Y-89288905D01*
X146859714Y-89384143D01*
X146907333Y-89431762D01*
X147002571Y-89479381D01*
X147193048Y-89479381D01*
X147288286Y-89431762D01*
X147335905Y-89384143D01*
X147383524Y-89288905D01*
X147383524Y-88479381D01*
X148002571Y-88907952D02*
X147907333Y-88860333D01*
X147859714Y-88812714D01*
X147812095Y-88717476D01*
X147812095Y-88669857D01*
X147859714Y-88574619D01*
X147907333Y-88527000D01*
X148002571Y-88479381D01*
X148193048Y-88479381D01*
X148288286Y-88527000D01*
X148335905Y-88574619D01*
X148383524Y-88669857D01*
X148383524Y-88717476D01*
X148335905Y-88812714D01*
X148288286Y-88860333D01*
X148193048Y-88907952D01*
X148002571Y-88907952D01*
X147907333Y-88955571D01*
X147859714Y-89003190D01*
X147812095Y-89098429D01*
X147812095Y-89288905D01*
X147859714Y-89384143D01*
X147907333Y-89431762D01*
X148002571Y-89479381D01*
X148193048Y-89479381D01*
X148288286Y-89431762D01*
X148335905Y-89384143D01*
X148383524Y-89288905D01*
X148383524Y-89098429D01*
X148335905Y-89003190D01*
X148288286Y-88955571D01*
X148193048Y-88907952D01*
X90678095Y-51141381D02*
X90678095Y-51950905D01*
X90725714Y-52046143D01*
X90773333Y-52093762D01*
X90868571Y-52141381D01*
X91059048Y-52141381D01*
X91154286Y-52093762D01*
X91201905Y-52046143D01*
X91249524Y-51950905D01*
X91249524Y-51141381D01*
X91773333Y-52141381D02*
X91963809Y-52141381D01*
X92059048Y-52093762D01*
X92106667Y-52046143D01*
X92201905Y-51903286D01*
X92249524Y-51712810D01*
X92249524Y-51331857D01*
X92201905Y-51236619D01*
X92154286Y-51189000D01*
X92059048Y-51141381D01*
X91868571Y-51141381D01*
X91773333Y-51189000D01*
X91725714Y-51236619D01*
X91678095Y-51331857D01*
X91678095Y-51569952D01*
X91725714Y-51665190D01*
X91773333Y-51712810D01*
X91868571Y-51760429D01*
X92059048Y-51760429D01*
X92154286Y-51712810D01*
X92201905Y-51665190D01*
X92249524Y-51569952D01*
X124150381Y-68429095D02*
X123150381Y-68429095D01*
X123150381Y-68191000D01*
X123198000Y-68048142D01*
X123293238Y-67952904D01*
X123388476Y-67905285D01*
X123578952Y-67857666D01*
X123721810Y-67857666D01*
X123912286Y-67905285D01*
X124007524Y-67952904D01*
X124102762Y-68048142D01*
X124150381Y-68191000D01*
X124150381Y-68429095D01*
X124150381Y-66905285D02*
X124150381Y-67476714D01*
X124150381Y-67191000D02*
X123150381Y-67191000D01*
X123293238Y-67286238D01*
X123388476Y-67381476D01*
X123436095Y-67476714D01*
X95678667Y-95591381D02*
X95678667Y-96305667D01*
X95631047Y-96448524D01*
X95535809Y-96543762D01*
X95392952Y-96591381D01*
X95297714Y-96591381D01*
X96059619Y-95591381D02*
X96678667Y-95591381D01*
X96345333Y-95972333D01*
X96488191Y-95972333D01*
X96583429Y-96019952D01*
X96631048Y-96067571D01*
X96678667Y-96162810D01*
X96678667Y-96400905D01*
X96631048Y-96496143D01*
X96583429Y-96543762D01*
X96488191Y-96591381D01*
X96202476Y-96591381D01*
X96107238Y-96543762D01*
X96059619Y-96496143D01*
M02*
