M48
;DRILL file {KiCad 4.0.5} date 09/25/17 19:08:14
;FORMAT={-:-/ absolute / metric / decimal}
FMAT,2
METRIC,TZ
T1C0.330
T2C0.650
T3C2.100
%
G90
G05
M71
T1
X103.281Y-83.843
X106.701Y-82.893
X108.654Y-86.576
X110.899Y-82.178
X111.849Y-84.925
X112.799Y-82.178
X112.865Y-84.925
X118.346Y-86.195
T2
X115.786Y-82.385
X115.786Y-83.655
X117.056Y-82.385
X117.056Y-83.655
X118.326Y-82.385
X118.326Y-83.655
X119.596Y-82.385
X119.596Y-83.655
X120.866Y-82.385
X120.866Y-83.655
X123.787Y-81.521
X123.787Y-82.791
X123.787Y-84.061
X123.787Y-85.331
X123.787Y-86.601
T3
X103.124Y-86.487
X127.508Y-86.487
T0
M30
