G04 #@! TF.FileFunction,Soldermask,Top*
%FSLAX46Y46*%
G04 Gerber Fmt 4.6, Leading zero omitted, Abs format (unit mm)*
G04 Created by KiCad (PCBNEW 4.0.5) date 09/25/17 19:08:10*
%MOMM*%
%LPD*%
G01*
G04 APERTURE LIST*
%ADD10C,0.100000*%
G04 APERTURE END LIST*
D10*
G36*
X103239537Y-85387731D02*
X103450855Y-85431109D01*
X103649717Y-85514703D01*
X103828559Y-85635333D01*
X103980568Y-85788407D01*
X104099942Y-85968081D01*
X104182148Y-86167524D01*
X104223981Y-86378796D01*
X104223981Y-86378805D01*
X104224047Y-86379139D01*
X104220606Y-86625534D01*
X104220530Y-86625868D01*
X104220530Y-86625880D01*
X104172817Y-86835893D01*
X104085074Y-87032965D01*
X103960726Y-87209240D01*
X103804502Y-87358010D01*
X103622367Y-87473596D01*
X103421243Y-87551608D01*
X103208802Y-87589066D01*
X102993128Y-87584549D01*
X102782434Y-87538225D01*
X102584756Y-87451861D01*
X102407618Y-87328747D01*
X102257763Y-87173567D01*
X102140907Y-86992244D01*
X102061495Y-86791671D01*
X102022552Y-86579488D01*
X102025565Y-86363789D01*
X102070414Y-86152786D01*
X102155398Y-85954506D01*
X102277273Y-85776512D01*
X102431401Y-85625577D01*
X102611908Y-85507457D01*
X102811921Y-85426646D01*
X103023818Y-85386225D01*
X103239537Y-85387731D01*
X103239537Y-85387731D01*
G37*
G36*
X127623537Y-85387731D02*
X127834855Y-85431109D01*
X128033717Y-85514703D01*
X128212559Y-85635333D01*
X128364568Y-85788407D01*
X128483942Y-85968081D01*
X128566148Y-86167524D01*
X128607981Y-86378796D01*
X128607981Y-86378805D01*
X128608047Y-86379139D01*
X128604606Y-86625534D01*
X128604530Y-86625868D01*
X128604530Y-86625880D01*
X128556817Y-86835893D01*
X128469074Y-87032965D01*
X128344726Y-87209240D01*
X128188502Y-87358010D01*
X128006367Y-87473596D01*
X127805243Y-87551608D01*
X127592802Y-87589066D01*
X127377128Y-87584549D01*
X127166434Y-87538225D01*
X126968756Y-87451861D01*
X126791618Y-87328747D01*
X126641763Y-87173567D01*
X126524907Y-86992244D01*
X126445495Y-86791671D01*
X126406552Y-86579488D01*
X126409565Y-86363789D01*
X126454414Y-86152786D01*
X126539398Y-85954506D01*
X126661273Y-85776512D01*
X126815401Y-85625577D01*
X126995908Y-85507457D01*
X127195921Y-85426646D01*
X127407818Y-85386225D01*
X127623537Y-85387731D01*
X127623537Y-85387731D01*
G37*
G36*
X123792017Y-86101418D02*
X123796400Y-86101449D01*
X123893375Y-86112326D01*
X123986390Y-86141832D01*
X124071903Y-86188843D01*
X124146655Y-86251568D01*
X124207801Y-86327618D01*
X124253011Y-86414097D01*
X124280563Y-86507709D01*
X124280566Y-86507743D01*
X124280570Y-86507756D01*
X124289410Y-86604888D01*
X124279213Y-86701891D01*
X124279212Y-86701896D01*
X124279207Y-86701939D01*
X124250351Y-86795158D01*
X124203938Y-86880996D01*
X124141736Y-86956185D01*
X124066115Y-87017861D01*
X123979954Y-87063673D01*
X123886536Y-87091878D01*
X123789419Y-87101400D01*
X123784549Y-87101400D01*
X123781983Y-87101382D01*
X123777600Y-87101351D01*
X123680625Y-87090474D01*
X123587610Y-87060968D01*
X123502097Y-87013957D01*
X123427345Y-86951232D01*
X123366199Y-86875182D01*
X123320989Y-86788703D01*
X123293437Y-86695091D01*
X123293434Y-86695057D01*
X123293430Y-86695044D01*
X123284590Y-86597912D01*
X123294787Y-86500909D01*
X123294788Y-86500904D01*
X123294793Y-86500861D01*
X123323649Y-86407642D01*
X123370062Y-86321804D01*
X123432264Y-86246615D01*
X123507885Y-86184939D01*
X123594046Y-86139127D01*
X123687464Y-86110922D01*
X123784581Y-86101400D01*
X123789451Y-86101400D01*
X123792017Y-86101418D01*
X123792017Y-86101418D01*
G37*
G36*
X106654000Y-87076000D02*
X105654000Y-87076000D01*
X105654000Y-86076000D01*
X106654000Y-86076000D01*
X106654000Y-87076000D01*
X106654000Y-87076000D01*
G37*
G36*
X109154000Y-87076000D02*
X108154000Y-87076000D01*
X108154000Y-86076000D01*
X109154000Y-86076000D01*
X109154000Y-87076000D01*
X109154000Y-87076000D01*
G37*
G36*
X121596000Y-86820000D02*
X120096000Y-86820000D01*
X120096000Y-85570000D01*
X121596000Y-85570000D01*
X121596000Y-86820000D01*
X121596000Y-86820000D01*
G37*
G36*
X119096000Y-86820000D02*
X117596000Y-86820000D01*
X117596000Y-85570000D01*
X119096000Y-85570000D01*
X119096000Y-86820000D01*
X119096000Y-86820000D01*
G37*
G36*
X123792017Y-84831418D02*
X123796400Y-84831449D01*
X123893375Y-84842326D01*
X123986390Y-84871832D01*
X124071903Y-84918843D01*
X124146655Y-84981568D01*
X124207801Y-85057618D01*
X124253011Y-85144097D01*
X124280563Y-85237709D01*
X124280566Y-85237743D01*
X124280570Y-85237756D01*
X124289410Y-85334888D01*
X124279213Y-85431891D01*
X124279212Y-85431896D01*
X124279207Y-85431939D01*
X124250351Y-85525158D01*
X124203938Y-85610996D01*
X124141736Y-85686185D01*
X124066115Y-85747861D01*
X123979954Y-85793673D01*
X123886536Y-85821878D01*
X123789419Y-85831400D01*
X123784549Y-85831400D01*
X123781983Y-85831382D01*
X123777600Y-85831351D01*
X123680625Y-85820474D01*
X123587610Y-85790968D01*
X123502097Y-85743957D01*
X123427345Y-85681232D01*
X123366199Y-85605182D01*
X123320989Y-85518703D01*
X123293437Y-85425091D01*
X123293434Y-85425057D01*
X123293430Y-85425044D01*
X123284590Y-85327912D01*
X123294787Y-85230909D01*
X123294788Y-85230904D01*
X123294793Y-85230861D01*
X123323649Y-85137642D01*
X123370062Y-85051804D01*
X123432264Y-84976615D01*
X123507885Y-84914939D01*
X123594046Y-84869127D01*
X123687464Y-84840922D01*
X123784581Y-84831400D01*
X123789451Y-84831400D01*
X123792017Y-84831418D01*
X123792017Y-84831418D01*
G37*
G36*
X112174000Y-85658000D02*
X111524000Y-85658000D01*
X111524000Y-84098000D01*
X112174000Y-84098000D01*
X112174000Y-85658000D01*
X112174000Y-85658000D01*
G37*
G36*
X113124000Y-85658000D02*
X112474000Y-85658000D01*
X112474000Y-84098000D01*
X113124000Y-84098000D01*
X113124000Y-85658000D01*
X113124000Y-85658000D01*
G37*
G36*
X111224000Y-85658000D02*
X110574000Y-85658000D01*
X110574000Y-84098000D01*
X111224000Y-84098000D01*
X111224000Y-85658000D01*
X111224000Y-85658000D01*
G37*
G36*
X123792017Y-83561418D02*
X123796400Y-83561449D01*
X123893375Y-83572326D01*
X123986390Y-83601832D01*
X124071903Y-83648843D01*
X124146655Y-83711568D01*
X124207801Y-83787618D01*
X124253011Y-83874097D01*
X124280563Y-83967709D01*
X124280566Y-83967743D01*
X124280570Y-83967756D01*
X124289410Y-84064888D01*
X124279213Y-84161891D01*
X124279212Y-84161896D01*
X124279207Y-84161939D01*
X124250351Y-84255158D01*
X124203938Y-84340996D01*
X124141736Y-84416185D01*
X124066115Y-84477861D01*
X123979954Y-84523673D01*
X123886536Y-84551878D01*
X123789419Y-84561400D01*
X123784549Y-84561400D01*
X123781983Y-84561382D01*
X123777600Y-84561351D01*
X123680625Y-84550474D01*
X123587610Y-84520968D01*
X123502097Y-84473957D01*
X123427345Y-84411232D01*
X123366199Y-84335182D01*
X123320989Y-84248703D01*
X123293437Y-84155091D01*
X123293434Y-84155057D01*
X123293430Y-84155044D01*
X123284590Y-84057912D01*
X123294787Y-83960909D01*
X123294788Y-83960904D01*
X123294793Y-83960861D01*
X123323649Y-83867642D01*
X123370062Y-83781804D01*
X123432264Y-83706615D01*
X123507885Y-83644939D01*
X123594046Y-83599127D01*
X123687464Y-83570922D01*
X123784581Y-83561400D01*
X123789451Y-83561400D01*
X123792017Y-83561418D01*
X123792017Y-83561418D01*
G37*
G36*
X104281000Y-84168000D02*
X102281000Y-84168000D01*
X102281000Y-83518000D01*
X104281000Y-83518000D01*
X104281000Y-84168000D01*
X104281000Y-84168000D01*
G37*
G36*
X118426491Y-83162787D02*
X118426496Y-83162788D01*
X118426539Y-83162793D01*
X118519758Y-83191649D01*
X118605596Y-83238062D01*
X118680785Y-83300264D01*
X118742461Y-83375885D01*
X118788273Y-83462046D01*
X118816478Y-83555464D01*
X118826000Y-83652581D01*
X118826000Y-83657419D01*
X118825951Y-83664400D01*
X118815074Y-83761375D01*
X118785568Y-83854390D01*
X118738557Y-83939903D01*
X118675832Y-84014655D01*
X118599782Y-84075801D01*
X118513303Y-84121011D01*
X118419691Y-84148563D01*
X118419657Y-84148566D01*
X118419644Y-84148570D01*
X118322512Y-84157410D01*
X118225509Y-84147213D01*
X118225504Y-84147212D01*
X118225461Y-84147207D01*
X118132242Y-84118351D01*
X118046404Y-84071938D01*
X117971215Y-84009736D01*
X117909539Y-83934115D01*
X117863727Y-83847954D01*
X117835522Y-83754536D01*
X117826000Y-83657419D01*
X117826000Y-83652581D01*
X117826049Y-83645600D01*
X117836926Y-83548625D01*
X117866432Y-83455610D01*
X117913443Y-83370097D01*
X117976168Y-83295345D01*
X118052218Y-83234199D01*
X118138697Y-83188989D01*
X118232309Y-83161437D01*
X118232343Y-83161434D01*
X118232356Y-83161430D01*
X118329488Y-83152590D01*
X118426491Y-83162787D01*
X118426491Y-83162787D01*
G37*
G36*
X119696491Y-83162787D02*
X119696496Y-83162788D01*
X119696539Y-83162793D01*
X119789758Y-83191649D01*
X119875596Y-83238062D01*
X119950785Y-83300264D01*
X120012461Y-83375885D01*
X120058273Y-83462046D01*
X120086478Y-83555464D01*
X120096000Y-83652581D01*
X120096000Y-83657419D01*
X120095951Y-83664400D01*
X120085074Y-83761375D01*
X120055568Y-83854390D01*
X120008557Y-83939903D01*
X119945832Y-84014655D01*
X119869782Y-84075801D01*
X119783303Y-84121011D01*
X119689691Y-84148563D01*
X119689657Y-84148566D01*
X119689644Y-84148570D01*
X119592512Y-84157410D01*
X119495509Y-84147213D01*
X119495504Y-84147212D01*
X119495461Y-84147207D01*
X119402242Y-84118351D01*
X119316404Y-84071938D01*
X119241215Y-84009736D01*
X119179539Y-83934115D01*
X119133727Y-83847954D01*
X119105522Y-83754536D01*
X119096000Y-83657419D01*
X119096000Y-83652581D01*
X119096049Y-83645600D01*
X119106926Y-83548625D01*
X119136432Y-83455610D01*
X119183443Y-83370097D01*
X119246168Y-83295345D01*
X119322218Y-83234199D01*
X119408697Y-83188989D01*
X119502309Y-83161437D01*
X119502343Y-83161434D01*
X119502356Y-83161430D01*
X119599488Y-83152590D01*
X119696491Y-83162787D01*
X119696491Y-83162787D01*
G37*
G36*
X115886491Y-83162787D02*
X115886496Y-83162788D01*
X115886539Y-83162793D01*
X115979758Y-83191649D01*
X116065596Y-83238062D01*
X116140785Y-83300264D01*
X116202461Y-83375885D01*
X116248273Y-83462046D01*
X116276478Y-83555464D01*
X116286000Y-83652581D01*
X116286000Y-83657419D01*
X116285951Y-83664400D01*
X116275074Y-83761375D01*
X116245568Y-83854390D01*
X116198557Y-83939903D01*
X116135832Y-84014655D01*
X116059782Y-84075801D01*
X115973303Y-84121011D01*
X115879691Y-84148563D01*
X115879657Y-84148566D01*
X115879644Y-84148570D01*
X115782512Y-84157410D01*
X115685509Y-84147213D01*
X115685504Y-84147212D01*
X115685461Y-84147207D01*
X115592242Y-84118351D01*
X115506404Y-84071938D01*
X115431215Y-84009736D01*
X115369539Y-83934115D01*
X115323727Y-83847954D01*
X115295522Y-83754536D01*
X115286000Y-83657419D01*
X115286000Y-83652581D01*
X115286049Y-83645600D01*
X115296926Y-83548625D01*
X115326432Y-83455610D01*
X115373443Y-83370097D01*
X115436168Y-83295345D01*
X115512218Y-83234199D01*
X115598697Y-83188989D01*
X115692309Y-83161437D01*
X115692343Y-83161434D01*
X115692356Y-83161430D01*
X115789488Y-83152590D01*
X115886491Y-83162787D01*
X115886491Y-83162787D01*
G37*
G36*
X117156491Y-83162787D02*
X117156496Y-83162788D01*
X117156539Y-83162793D01*
X117249758Y-83191649D01*
X117335596Y-83238062D01*
X117410785Y-83300264D01*
X117472461Y-83375885D01*
X117518273Y-83462046D01*
X117546478Y-83555464D01*
X117556000Y-83652581D01*
X117556000Y-83657419D01*
X117555951Y-83664400D01*
X117545074Y-83761375D01*
X117515568Y-83854390D01*
X117468557Y-83939903D01*
X117405832Y-84014655D01*
X117329782Y-84075801D01*
X117243303Y-84121011D01*
X117149691Y-84148563D01*
X117149657Y-84148566D01*
X117149644Y-84148570D01*
X117052512Y-84157410D01*
X116955509Y-84147213D01*
X116955504Y-84147212D01*
X116955461Y-84147207D01*
X116862242Y-84118351D01*
X116776404Y-84071938D01*
X116701215Y-84009736D01*
X116639539Y-83934115D01*
X116593727Y-83847954D01*
X116565522Y-83754536D01*
X116556000Y-83657419D01*
X116556000Y-83652581D01*
X116556049Y-83645600D01*
X116566926Y-83548625D01*
X116596432Y-83455610D01*
X116643443Y-83370097D01*
X116706168Y-83295345D01*
X116782218Y-83234199D01*
X116868697Y-83188989D01*
X116962309Y-83161437D01*
X116962343Y-83161434D01*
X116962356Y-83161430D01*
X117059488Y-83152590D01*
X117156491Y-83162787D01*
X117156491Y-83162787D01*
G37*
G36*
X121366000Y-84155000D02*
X120366000Y-84155000D01*
X120366000Y-83155000D01*
X121366000Y-83155000D01*
X121366000Y-84155000D01*
X121366000Y-84155000D01*
G37*
G36*
X123792017Y-82291418D02*
X123796400Y-82291449D01*
X123893375Y-82302326D01*
X123986390Y-82331832D01*
X124071903Y-82378843D01*
X124146655Y-82441568D01*
X124207801Y-82517618D01*
X124253011Y-82604097D01*
X124280563Y-82697709D01*
X124280566Y-82697743D01*
X124280570Y-82697756D01*
X124289410Y-82794888D01*
X124279213Y-82891891D01*
X124279212Y-82891896D01*
X124279207Y-82891939D01*
X124250351Y-82985158D01*
X124203938Y-83070996D01*
X124141736Y-83146185D01*
X124066115Y-83207861D01*
X123979954Y-83253673D01*
X123886536Y-83281878D01*
X123789419Y-83291400D01*
X123784549Y-83291400D01*
X123781983Y-83291382D01*
X123777600Y-83291351D01*
X123680625Y-83280474D01*
X123587610Y-83250968D01*
X123502097Y-83203957D01*
X123427345Y-83141232D01*
X123366199Y-83065182D01*
X123320989Y-82978703D01*
X123293437Y-82885091D01*
X123293434Y-82885057D01*
X123293430Y-82885044D01*
X123284590Y-82787912D01*
X123294787Y-82690909D01*
X123294788Y-82690904D01*
X123294793Y-82690861D01*
X123323649Y-82597642D01*
X123370062Y-82511804D01*
X123432264Y-82436615D01*
X123507885Y-82374939D01*
X123594046Y-82329127D01*
X123687464Y-82300922D01*
X123784581Y-82291400D01*
X123789451Y-82291400D01*
X123792017Y-82291418D01*
X123792017Y-82291418D01*
G37*
G36*
X107701000Y-83218000D02*
X105701000Y-83218000D01*
X105701000Y-82568000D01*
X107701000Y-82568000D01*
X107701000Y-83218000D01*
X107701000Y-83218000D01*
G37*
G36*
X112174000Y-82958000D02*
X111524000Y-82958000D01*
X111524000Y-81398000D01*
X112174000Y-81398000D01*
X112174000Y-82958000D01*
X112174000Y-82958000D01*
G37*
G36*
X111224000Y-82958000D02*
X110574000Y-82958000D01*
X110574000Y-81398000D01*
X111224000Y-81398000D01*
X111224000Y-82958000D01*
X111224000Y-82958000D01*
G37*
G36*
X113124000Y-82958000D02*
X112474000Y-82958000D01*
X112474000Y-81398000D01*
X113124000Y-81398000D01*
X113124000Y-82958000D01*
X113124000Y-82958000D01*
G37*
G36*
X115886491Y-81892787D02*
X115886496Y-81892788D01*
X115886539Y-81892793D01*
X115979758Y-81921649D01*
X116065596Y-81968062D01*
X116140785Y-82030264D01*
X116202461Y-82105885D01*
X116248273Y-82192046D01*
X116276478Y-82285464D01*
X116286000Y-82382581D01*
X116286000Y-82387419D01*
X116285951Y-82394400D01*
X116275074Y-82491375D01*
X116245568Y-82584390D01*
X116198557Y-82669903D01*
X116135832Y-82744655D01*
X116059782Y-82805801D01*
X115973303Y-82851011D01*
X115879691Y-82878563D01*
X115879657Y-82878566D01*
X115879644Y-82878570D01*
X115782512Y-82887410D01*
X115685509Y-82877213D01*
X115685504Y-82877212D01*
X115685461Y-82877207D01*
X115592242Y-82848351D01*
X115506404Y-82801938D01*
X115431215Y-82739736D01*
X115369539Y-82664115D01*
X115323727Y-82577954D01*
X115295522Y-82484536D01*
X115286000Y-82387419D01*
X115286000Y-82382581D01*
X115286049Y-82375600D01*
X115296926Y-82278625D01*
X115326432Y-82185610D01*
X115373443Y-82100097D01*
X115436168Y-82025345D01*
X115512218Y-81964199D01*
X115598697Y-81918989D01*
X115692309Y-81891437D01*
X115692343Y-81891434D01*
X115692356Y-81891430D01*
X115789488Y-81882590D01*
X115886491Y-81892787D01*
X115886491Y-81892787D01*
G37*
G36*
X117156491Y-81892787D02*
X117156496Y-81892788D01*
X117156539Y-81892793D01*
X117249758Y-81921649D01*
X117335596Y-81968062D01*
X117410785Y-82030264D01*
X117472461Y-82105885D01*
X117518273Y-82192046D01*
X117546478Y-82285464D01*
X117556000Y-82382581D01*
X117556000Y-82387419D01*
X117555951Y-82394400D01*
X117545074Y-82491375D01*
X117515568Y-82584390D01*
X117468557Y-82669903D01*
X117405832Y-82744655D01*
X117329782Y-82805801D01*
X117243303Y-82851011D01*
X117149691Y-82878563D01*
X117149657Y-82878566D01*
X117149644Y-82878570D01*
X117052512Y-82887410D01*
X116955509Y-82877213D01*
X116955504Y-82877212D01*
X116955461Y-82877207D01*
X116862242Y-82848351D01*
X116776404Y-82801938D01*
X116701215Y-82739736D01*
X116639539Y-82664115D01*
X116593727Y-82577954D01*
X116565522Y-82484536D01*
X116556000Y-82387419D01*
X116556000Y-82382581D01*
X116556049Y-82375600D01*
X116566926Y-82278625D01*
X116596432Y-82185610D01*
X116643443Y-82100097D01*
X116706168Y-82025345D01*
X116782218Y-81964199D01*
X116868697Y-81918989D01*
X116962309Y-81891437D01*
X116962343Y-81891434D01*
X116962356Y-81891430D01*
X117059488Y-81882590D01*
X117156491Y-81892787D01*
X117156491Y-81892787D01*
G37*
G36*
X120966491Y-81892787D02*
X120966496Y-81892788D01*
X120966539Y-81892793D01*
X121059758Y-81921649D01*
X121145596Y-81968062D01*
X121220785Y-82030264D01*
X121282461Y-82105885D01*
X121328273Y-82192046D01*
X121356478Y-82285464D01*
X121366000Y-82382581D01*
X121366000Y-82387419D01*
X121365951Y-82394400D01*
X121355074Y-82491375D01*
X121325568Y-82584390D01*
X121278557Y-82669903D01*
X121215832Y-82744655D01*
X121139782Y-82805801D01*
X121053303Y-82851011D01*
X120959691Y-82878563D01*
X120959657Y-82878566D01*
X120959644Y-82878570D01*
X120862512Y-82887410D01*
X120765509Y-82877213D01*
X120765504Y-82877212D01*
X120765461Y-82877207D01*
X120672242Y-82848351D01*
X120586404Y-82801938D01*
X120511215Y-82739736D01*
X120449539Y-82664115D01*
X120403727Y-82577954D01*
X120375522Y-82484536D01*
X120366000Y-82387419D01*
X120366000Y-82382581D01*
X120366049Y-82375600D01*
X120376926Y-82278625D01*
X120406432Y-82185610D01*
X120453443Y-82100097D01*
X120516168Y-82025345D01*
X120592218Y-81964199D01*
X120678697Y-81918989D01*
X120772309Y-81891437D01*
X120772343Y-81891434D01*
X120772356Y-81891430D01*
X120869488Y-81882590D01*
X120966491Y-81892787D01*
X120966491Y-81892787D01*
G37*
G36*
X119696491Y-81892787D02*
X119696496Y-81892788D01*
X119696539Y-81892793D01*
X119789758Y-81921649D01*
X119875596Y-81968062D01*
X119950785Y-82030264D01*
X120012461Y-82105885D01*
X120058273Y-82192046D01*
X120086478Y-82285464D01*
X120096000Y-82382581D01*
X120096000Y-82387419D01*
X120095951Y-82394400D01*
X120085074Y-82491375D01*
X120055568Y-82584390D01*
X120008557Y-82669903D01*
X119945832Y-82744655D01*
X119869782Y-82805801D01*
X119783303Y-82851011D01*
X119689691Y-82878563D01*
X119689657Y-82878566D01*
X119689644Y-82878570D01*
X119592512Y-82887410D01*
X119495509Y-82877213D01*
X119495504Y-82877212D01*
X119495461Y-82877207D01*
X119402242Y-82848351D01*
X119316404Y-82801938D01*
X119241215Y-82739736D01*
X119179539Y-82664115D01*
X119133727Y-82577954D01*
X119105522Y-82484536D01*
X119096000Y-82387419D01*
X119096000Y-82382581D01*
X119096049Y-82375600D01*
X119106926Y-82278625D01*
X119136432Y-82185610D01*
X119183443Y-82100097D01*
X119246168Y-82025345D01*
X119322218Y-81964199D01*
X119408697Y-81918989D01*
X119502309Y-81891437D01*
X119502343Y-81891434D01*
X119502356Y-81891430D01*
X119599488Y-81882590D01*
X119696491Y-81892787D01*
X119696491Y-81892787D01*
G37*
G36*
X118426491Y-81892787D02*
X118426496Y-81892788D01*
X118426539Y-81892793D01*
X118519758Y-81921649D01*
X118605596Y-81968062D01*
X118680785Y-82030264D01*
X118742461Y-82105885D01*
X118788273Y-82192046D01*
X118816478Y-82285464D01*
X118826000Y-82382581D01*
X118826000Y-82387419D01*
X118825951Y-82394400D01*
X118815074Y-82491375D01*
X118785568Y-82584390D01*
X118738557Y-82669903D01*
X118675832Y-82744655D01*
X118599782Y-82805801D01*
X118513303Y-82851011D01*
X118419691Y-82878563D01*
X118419657Y-82878566D01*
X118419644Y-82878570D01*
X118322512Y-82887410D01*
X118225509Y-82877213D01*
X118225504Y-82877212D01*
X118225461Y-82877207D01*
X118132242Y-82848351D01*
X118046404Y-82801938D01*
X117971215Y-82739736D01*
X117909539Y-82664115D01*
X117863727Y-82577954D01*
X117835522Y-82484536D01*
X117826000Y-82387419D01*
X117826000Y-82382581D01*
X117826049Y-82375600D01*
X117836926Y-82278625D01*
X117866432Y-82185610D01*
X117913443Y-82100097D01*
X117976168Y-82025345D01*
X118052218Y-81964199D01*
X118138697Y-81918989D01*
X118232309Y-81891437D01*
X118232343Y-81891434D01*
X118232356Y-81891430D01*
X118329488Y-81882590D01*
X118426491Y-81892787D01*
X118426491Y-81892787D01*
G37*
G36*
X104281000Y-82268000D02*
X102281000Y-82268000D01*
X102281000Y-81618000D01*
X104281000Y-81618000D01*
X104281000Y-82268000D01*
X104281000Y-82268000D01*
G37*
G36*
X124287000Y-82021400D02*
X123287000Y-82021400D01*
X123287000Y-81021400D01*
X124287000Y-81021400D01*
X124287000Y-82021400D01*
X124287000Y-82021400D01*
G37*
M02*
