G04 #@! TF.FileFunction,Legend,Bot*
%FSLAX46Y46*%
G04 Gerber Fmt 4.6, Leading zero omitted, Abs format (unit mm)*
G04 Created by KiCad (PCBNEW 4.0.5) date 04/27/18 19:00:17*
%MOMM*%
%LPD*%
G01*
G04 APERTURE LIST*
%ADD10C,0.100000*%
%ADD11C,0.120000*%
%ADD12C,0.150000*%
%ADD13C,0.080000*%
G04 APERTURE END LIST*
D10*
X124309579Y-71247000D02*
G75*
G03X124309579Y-71247000I-9501579J0D01*
G01*
D11*
X100516000Y-80780000D02*
X100896000Y-80280000D01*
X100896000Y-80280000D02*
X101216000Y-80280000D01*
X100516000Y-80780000D02*
X100516000Y-81780000D01*
X100516000Y-81780000D02*
X100896000Y-82280000D01*
X100896000Y-82280000D02*
X101216000Y-82280000D01*
X104016000Y-79630000D02*
X104016000Y-82930000D01*
X103716000Y-79630000D02*
X104016000Y-79630000D01*
X104016000Y-82930000D02*
X103716000Y-82930000D01*
X101516000Y-79630000D02*
X101216000Y-79630000D01*
X101216000Y-79630000D02*
X101216000Y-82930000D01*
X101216000Y-82930000D02*
X101516000Y-82930000D01*
D12*
X105878381Y-62341167D02*
X106592667Y-62341167D01*
X106735524Y-62293547D01*
X106830762Y-62198309D01*
X106878381Y-62055452D01*
X106878381Y-61960214D01*
X106878381Y-63341167D02*
X106878381Y-62769738D01*
X106878381Y-63055452D02*
X105878381Y-63055452D01*
X106021238Y-62960214D01*
X106116476Y-62864976D01*
X106164095Y-62769738D01*
D13*
X103682762Y-61268000D02*
X103720857Y-61248952D01*
X103778000Y-61248952D01*
X103835143Y-61268000D01*
X103873238Y-61306095D01*
X103892286Y-61344190D01*
X103911334Y-61420381D01*
X103911334Y-61477524D01*
X103892286Y-61553714D01*
X103873238Y-61591810D01*
X103835143Y-61629905D01*
X103778000Y-61648952D01*
X103739905Y-61648952D01*
X103682762Y-61629905D01*
X103663714Y-61610857D01*
X103663714Y-61477524D01*
X103739905Y-61477524D01*
X103492286Y-61648952D02*
X103492286Y-61248952D01*
X103263714Y-61648952D01*
X103263714Y-61248952D01*
X103073238Y-61648952D02*
X103073238Y-61248952D01*
X102978000Y-61248952D01*
X102920857Y-61268000D01*
X102882762Y-61306095D01*
X102863714Y-61344190D01*
X102844666Y-61420381D01*
X102844666Y-61477524D01*
X102863714Y-61553714D01*
X102882762Y-61591810D01*
X102920857Y-61629905D01*
X102978000Y-61648952D01*
X103073238Y-61648952D01*
X103578000Y-62283952D02*
X103578000Y-61883952D01*
X103387524Y-62283952D02*
X103387524Y-61883952D01*
X103292286Y-61883952D01*
X103235143Y-61903000D01*
X103197048Y-61941095D01*
X103178000Y-61979190D01*
X103158952Y-62055381D01*
X103158952Y-62112524D01*
X103178000Y-62188714D01*
X103197048Y-62226810D01*
X103235143Y-62264905D01*
X103292286Y-62283952D01*
X103387524Y-62283952D01*
X103857381Y-62918952D02*
X103857381Y-62518952D01*
X103762143Y-62518952D01*
X103705000Y-62538000D01*
X103666905Y-62576095D01*
X103647857Y-62614190D01*
X103628809Y-62690381D01*
X103628809Y-62747524D01*
X103647857Y-62823714D01*
X103666905Y-62861810D01*
X103705000Y-62899905D01*
X103762143Y-62918952D01*
X103857381Y-62918952D01*
X103457381Y-62766571D02*
X103152619Y-62766571D01*
X103305000Y-62918952D02*
X103305000Y-62614190D01*
X103857381Y-63553952D02*
X103857381Y-63153952D01*
X103762143Y-63153952D01*
X103705000Y-63173000D01*
X103666905Y-63211095D01*
X103647857Y-63249190D01*
X103628809Y-63325381D01*
X103628809Y-63382524D01*
X103647857Y-63458714D01*
X103666905Y-63496810D01*
X103705000Y-63534905D01*
X103762143Y-63553952D01*
X103857381Y-63553952D01*
X103457381Y-63401571D02*
X103152619Y-63401571D01*
X103857333Y-63788952D02*
X103723999Y-64188952D01*
X103590666Y-63788952D01*
X103324000Y-63979429D02*
X103266857Y-63998476D01*
X103247809Y-64017524D01*
X103228761Y-64055619D01*
X103228761Y-64112762D01*
X103247809Y-64150857D01*
X103266857Y-64169905D01*
X103304952Y-64188952D01*
X103457333Y-64188952D01*
X103457333Y-63788952D01*
X103324000Y-63788952D01*
X103285904Y-63808000D01*
X103266857Y-63827048D01*
X103247809Y-63865143D01*
X103247809Y-63903238D01*
X103266857Y-63941333D01*
X103285904Y-63960381D01*
X103324000Y-63979429D01*
X103457333Y-63979429D01*
X103057333Y-63788952D02*
X103057333Y-64112762D01*
X103038285Y-64150857D01*
X103019238Y-64169905D01*
X102981142Y-64188952D01*
X102904952Y-64188952D01*
X102866857Y-64169905D01*
X102847809Y-64150857D01*
X102828761Y-64112762D01*
X102828761Y-63788952D01*
X102657333Y-64169905D02*
X102600190Y-64188952D01*
X102504952Y-64188952D01*
X102466856Y-64169905D01*
X102447809Y-64150857D01*
X102428761Y-64112762D01*
X102428761Y-64074667D01*
X102447809Y-64036571D01*
X102466856Y-64017524D01*
X102504952Y-63998476D01*
X102581142Y-63979429D01*
X102619237Y-63960381D01*
X102638285Y-63941333D01*
X102657333Y-63903238D01*
X102657333Y-63865143D01*
X102638285Y-63827048D01*
X102619237Y-63808000D01*
X102581142Y-63788952D01*
X102485904Y-63788952D01*
X102428761Y-63808000D01*
D12*
X102736571Y-70461286D02*
X102784190Y-70604143D01*
X102831810Y-70651762D01*
X102927048Y-70699381D01*
X103069905Y-70699381D01*
X103165143Y-70651762D01*
X103212762Y-70604143D01*
X103260381Y-70508905D01*
X103260381Y-70127952D01*
X102260381Y-70127952D01*
X102260381Y-70461286D01*
X102308000Y-70556524D01*
X102355619Y-70604143D01*
X102450857Y-70651762D01*
X102546095Y-70651762D01*
X102641333Y-70604143D01*
X102688952Y-70556524D01*
X102736571Y-70461286D01*
X102736571Y-70127952D01*
X102260381Y-70985095D02*
X102260381Y-71556524D01*
X103260381Y-71270809D02*
X102260381Y-71270809D01*
X103260381Y-72413667D02*
X103260381Y-71842238D01*
X103260381Y-72127952D02*
X102260381Y-72127952D01*
X102403238Y-72032714D01*
X102498476Y-71937476D01*
X102546095Y-71842238D01*
X111450857Y-68866047D02*
X111450857Y-70389857D01*
X110879429Y-71151761D02*
X112212762Y-71627952D01*
X110879429Y-72104142D01*
X112117524Y-73627952D02*
X112212762Y-73437476D01*
X112212762Y-73056524D01*
X112117524Y-72866047D01*
X111927048Y-72770809D01*
X111165143Y-72770809D01*
X110974667Y-72866047D01*
X110879429Y-73056524D01*
X110879429Y-73437476D01*
X110974667Y-73627952D01*
X111165143Y-73723190D01*
X111355619Y-73723190D01*
X111546095Y-72770809D01*
X116415143Y-82175572D02*
X116415143Y-83318429D01*
X116986571Y-82747000D02*
X115843714Y-82747000D01*
X116215143Y-59275572D02*
X116215143Y-60418429D01*
X116786571Y-59847000D02*
X115643714Y-59847000D01*
X102893762Y-79819667D02*
X102941381Y-79962524D01*
X102941381Y-80200620D01*
X102893762Y-80295858D01*
X102846143Y-80343477D01*
X102750905Y-80391096D01*
X102655667Y-80391096D01*
X102560429Y-80343477D01*
X102512810Y-80295858D01*
X102465190Y-80200620D01*
X102417571Y-80010143D01*
X102369952Y-79914905D01*
X102322333Y-79867286D01*
X102227095Y-79819667D01*
X102131857Y-79819667D01*
X102036619Y-79867286D01*
X101989000Y-79914905D01*
X101941381Y-80010143D01*
X101941381Y-80248239D01*
X101989000Y-80391096D01*
X101941381Y-80724429D02*
X102941381Y-80962524D01*
X102227095Y-81153001D01*
X102941381Y-81343477D01*
X101941381Y-81581572D01*
X102941381Y-82486334D02*
X102941381Y-81914905D01*
X102941381Y-82200619D02*
X101941381Y-82200619D01*
X102084238Y-82105381D01*
X102179476Y-82010143D01*
X102227095Y-81914905D01*
X124418381Y-78514857D02*
X123418381Y-78514857D01*
X123418381Y-78752952D01*
X123466000Y-78895810D01*
X123561238Y-78991048D01*
X123656476Y-79038667D01*
X123846952Y-79086286D01*
X123989810Y-79086286D01*
X124180286Y-79038667D01*
X124275524Y-78991048D01*
X124370762Y-78895810D01*
X124418381Y-78752952D01*
X124418381Y-78514857D01*
X123418381Y-79705333D02*
X123418381Y-79895810D01*
X123466000Y-79991048D01*
X123561238Y-80086286D01*
X123751714Y-80133905D01*
X124085048Y-80133905D01*
X124275524Y-80086286D01*
X124370762Y-79991048D01*
X124418381Y-79895810D01*
X124418381Y-79705333D01*
X124370762Y-79610095D01*
X124275524Y-79514857D01*
X124085048Y-79467238D01*
X123751714Y-79467238D01*
X123561238Y-79514857D01*
X123466000Y-79610095D01*
X123418381Y-79705333D01*
X123418381Y-80467238D02*
X124418381Y-80705333D01*
X123704095Y-80895810D01*
X124418381Y-81086286D01*
X123418381Y-81324381D01*
X124418381Y-81705333D02*
X123418381Y-81705333D01*
X124418381Y-82276762D01*
X123418381Y-82276762D01*
X124418381Y-83276762D02*
X124418381Y-82705333D01*
X124418381Y-82991047D02*
X123418381Y-82991047D01*
X123561238Y-82895809D01*
X123656476Y-82800571D01*
X123704095Y-82705333D01*
X124418381Y-70180381D02*
X123418381Y-70180381D01*
X124132667Y-70513715D01*
X123418381Y-70847048D01*
X124418381Y-70847048D01*
X124418381Y-71323238D02*
X123418381Y-71323238D01*
X124418381Y-71799428D02*
X123418381Y-71799428D01*
X123418381Y-72037523D01*
X123466000Y-72180381D01*
X123561238Y-72275619D01*
X123656476Y-72323238D01*
X123846952Y-72370857D01*
X123989810Y-72370857D01*
X124180286Y-72323238D01*
X124275524Y-72275619D01*
X124370762Y-72180381D01*
X124418381Y-72037523D01*
X124418381Y-71799428D01*
X124418381Y-73323238D02*
X124418381Y-72751809D01*
X124418381Y-73037523D02*
X123418381Y-73037523D01*
X123561238Y-72942285D01*
X123656476Y-72847047D01*
X123704095Y-72751809D01*
X123418381Y-61322095D02*
X124227905Y-61322095D01*
X124323143Y-61369714D01*
X124370762Y-61417333D01*
X124418381Y-61512571D01*
X124418381Y-61703048D01*
X124370762Y-61798286D01*
X124323143Y-61845905D01*
X124227905Y-61893524D01*
X123418381Y-61893524D01*
X124418381Y-62369714D02*
X123418381Y-62369714D01*
X123418381Y-62750667D01*
X123466000Y-62845905D01*
X123513619Y-62893524D01*
X123608857Y-62941143D01*
X123751714Y-62941143D01*
X123846952Y-62893524D01*
X123894571Y-62845905D01*
X123942190Y-62750667D01*
X123942190Y-62369714D01*
X124418381Y-63893524D02*
X124418381Y-63322095D01*
X124418381Y-63607809D02*
X123418381Y-63607809D01*
X123561238Y-63512571D01*
X123656476Y-63417333D01*
X123704095Y-63322095D01*
M02*
