G04 #@! TF.GenerationSoftware,KiCad,Pcbnew,(5.0.1)-4*
G04 #@! TF.CreationDate,2019-02-22T19:20:15-06:00*
G04 #@! TF.ProjectId,epoch,65706F63682E6B696361645F70636200,rev?*
G04 #@! TF.SameCoordinates,Original*
G04 #@! TF.FileFunction,Copper,L4,Bot,Signal*
G04 #@! TF.FilePolarity,Positive*
%FSLAX46Y46*%
G04 Gerber Fmt 4.6, Leading zero omitted, Abs format (unit mm)*
G04 Created by KiCad (PCBNEW (5.0.1)-4) date 2/22/2019 7:20:15 PM*
%MOMM*%
%LPD*%
G01*
G04 APERTURE LIST*
G04 #@! TA.AperFunction,ComponentPad*
%ADD10O,1.000000X1.000000*%
G04 #@! TD*
G04 #@! TA.AperFunction,ComponentPad*
%ADD11R,1.000000X1.000000*%
G04 #@! TD*
G04 #@! TA.AperFunction,SMDPad,CuDef*
%ADD12R,1.380000X0.400000*%
G04 #@! TD*
G04 #@! TA.AperFunction,SMDPad,CuDef*
%ADD13R,3.600000X2.000000*%
G04 #@! TD*
G04 #@! TA.AperFunction,SMDPad,CuDef*
%ADD14R,1.700000X0.900000*%
G04 #@! TD*
G04 #@! TA.AperFunction,SMDPad,CuDef*
%ADD15R,1.300000X0.800000*%
G04 #@! TD*
G04 #@! TA.AperFunction,SMDPad,CuDef*
%ADD16R,0.800000X1.500000*%
G04 #@! TD*
G04 #@! TA.AperFunction,SMDPad,CuDef*
%ADD17R,1.200000X1.200000*%
G04 #@! TD*
G04 #@! TA.AperFunction,ComponentPad*
%ADD18C,2.200000*%
G04 #@! TD*
G04 #@! TA.AperFunction,ViaPad*
%ADD19C,0.685800*%
G04 #@! TD*
G04 #@! TA.AperFunction,Conductor*
%ADD20C,0.300000*%
G04 #@! TD*
G04 #@! TA.AperFunction,Conductor*
%ADD21C,0.200000*%
G04 #@! TD*
G04 #@! TA.AperFunction,Conductor*
%ADD22C,0.400000*%
G04 #@! TD*
G04 #@! TA.AperFunction,Conductor*
%ADD23C,0.254000*%
G04 #@! TD*
G04 APERTURE END LIST*
D10*
G04 #@! TO.P,J3,5*
G04 #@! TO.N,VDD*
X119330000Y-54500000D03*
G04 #@! TO.P,J3,4*
G04 #@! TO.N,(+5)*
X118060000Y-54500000D03*
G04 #@! TO.P,J3,3*
G04 #@! TO.N,STAT*
X116790000Y-54500000D03*
G04 #@! TO.P,J3,2*
G04 #@! TO.N,PWR_SENSE*
X115520000Y-54500000D03*
D11*
G04 #@! TO.P,J3,1*
G04 #@! TO.N,(GND)*
X114250000Y-54500000D03*
G04 #@! TD*
D12*
G04 #@! TO.P,J1,4*
G04 #@! TO.N,N/C*
X104902000Y-62103000D03*
G04 #@! TO.P,J1,2*
G04 #@! TO.N,USB_D-*
X104902000Y-63373000D03*
G04 #@! TO.P,J1,5*
G04 #@! TO.N,(GND)*
X104902000Y-61468000D03*
G04 #@! TO.P,J1,3*
G04 #@! TO.N,USB_D+*
X104902000Y-62738000D03*
G04 #@! TO.P,J1,1*
G04 #@! TO.N,VDD*
X104902000Y-64008000D03*
D13*
G04 #@! TO.P,J1,6*
G04 #@! TO.N,(GND)*
X103367000Y-58938000D03*
X103367000Y-66538000D03*
G04 #@! TD*
D11*
G04 #@! TO.P,J2,1*
G04 #@! TO.N,(+3.3)*
X123825000Y-86741000D03*
D10*
G04 #@! TO.P,J2,2*
G04 #@! TO.N,SWDIO*
X123825000Y-85471000D03*
G04 #@! TO.P,J2,3*
G04 #@! TO.N,SWDCLK*
X123825000Y-84201000D03*
G04 #@! TO.P,J2,4*
G04 #@! TO.N,RESET*
X123825000Y-82931000D03*
G04 #@! TO.P,J2,5*
G04 #@! TO.N,(GND)*
X123825000Y-81661000D03*
G04 #@! TD*
D14*
G04 #@! TO.P,SW1,1*
G04 #@! TO.N,Net-(R1-Pad1)*
X102616000Y-79580000D03*
G04 #@! TO.P,SW1,2*
G04 #@! TO.N,(GND)*
X102616000Y-82980000D03*
G04 #@! TD*
D15*
G04 #@! TO.P,DOWN1,*
G04 #@! TO.N,*
X128466000Y-84672000D03*
X128466000Y-76872000D03*
D16*
X128716000Y-84322000D03*
X128716000Y-77222000D03*
D17*
G04 #@! TO.P,DOWN1,1*
G04 #@! TO.N,(GND)*
X126566000Y-82872000D03*
G04 #@! TO.P,DOWN1,2*
G04 #@! TO.N,BUT_DWN*
X126566000Y-78672000D03*
G04 #@! TD*
D15*
G04 #@! TO.P,MID1,*
G04 #@! TO.N,*
X128466000Y-75528000D03*
X128466000Y-67728000D03*
D16*
X128716000Y-75178000D03*
X128716000Y-68078000D03*
D17*
G04 #@! TO.P,MID1,1*
G04 #@! TO.N,(GND)*
X126566000Y-73728000D03*
G04 #@! TO.P,MID1,2*
G04 #@! TO.N,BUT_MID*
X126566000Y-69528000D03*
G04 #@! TD*
D15*
G04 #@! TO.P,UP1,*
G04 #@! TO.N,*
X128466000Y-66384000D03*
X128466000Y-58584000D03*
D16*
X128716000Y-66034000D03*
X128716000Y-58934000D03*
D17*
G04 #@! TO.P,UP1,1*
G04 #@! TO.N,(GND)*
X126566000Y-64584000D03*
G04 #@! TO.P,UP1,2*
G04 #@! TO.N,BUT_UP*
X126566000Y-60384000D03*
G04 #@! TD*
D18*
G04 #@! TO.P,U6,1*
G04 #@! TO.N,N/C*
X103124000Y-86614000D03*
G04 #@! TD*
G04 #@! TO.P,U7,1*
G04 #@! TO.N,N/C*
X127381000Y-56388000D03*
G04 #@! TD*
G04 #@! TO.P,U8,1*
G04 #@! TO.N,N/C*
X127508000Y-86741000D03*
G04 #@! TD*
G04 #@! TO.P,U9,1*
G04 #@! TO.N,N/C*
X103251000Y-56134000D03*
G04 #@! TD*
D19*
G04 #@! TO.N,(+3.3)*
X113474500Y-85344000D03*
X105981500Y-84836000D03*
X105791000Y-78359000D03*
X105156000Y-75565000D03*
G04 #@! TO.N,(GND)*
X122174000Y-59563000D03*
X122301000Y-58293000D03*
X118237000Y-79502000D03*
X119888000Y-83312000D03*
X113919000Y-72644000D03*
X116205000Y-64008000D03*
X121285000Y-64135000D03*
X107188000Y-59753500D03*
X127127000Y-66929000D03*
X120269000Y-76708000D03*
X104648000Y-76454000D03*
X110426500Y-76771500D03*
X111442500Y-63182500D03*
X106489500Y-83693000D03*
X112250000Y-56000000D03*
G04 #@! TO.N,RESET*
X122999500Y-77216000D03*
X121856500Y-80137000D03*
X111315500Y-72644000D03*
X115062000Y-85471000D03*
G04 #@! TO.N,USB_D+*
X109093000Y-73469500D03*
X102616000Y-63754000D03*
G04 #@! TO.N,USB_D-*
X108013500Y-71628000D03*
X103378000Y-64389000D03*
G04 #@! TO.N,VCOM*
X110947200Y-80594200D03*
X112712500Y-84518500D03*
G04 #@! TO.N,SPI_CS*
X111252000Y-70739000D03*
X106553000Y-74295000D03*
X107823000Y-83566000D03*
G04 #@! TO.N,SPI_SI*
X108013500Y-82677000D03*
X109029500Y-75184000D03*
X107886500Y-68643500D03*
G04 #@! TO.N,SPI_CLK*
X107950000Y-69596000D03*
X107886500Y-81534000D03*
G04 #@! TO.N,EXTMODE*
X116205000Y-84772500D03*
X112903000Y-75692000D03*
G04 #@! TO.N,Net-(R1-Pad1)*
X121031000Y-81280000D03*
X123317000Y-79248000D03*
X102108000Y-78359000D03*
G04 #@! TO.N,SDA*
X108458000Y-59690000D03*
X107823000Y-66675000D03*
G04 #@! TO.N,SCL*
X118110000Y-59436000D03*
X107823000Y-67691000D03*
X111061500Y-57645310D03*
G04 #@! TO.N,Net-(R5-Pad2)*
X112141000Y-78041500D03*
X120396000Y-78994000D03*
X118500014Y-61000000D03*
G04 #@! TO.N,BUT_UP*
X125412500Y-61468000D03*
X112268000Y-66738500D03*
G04 #@! TO.N,BUT_MID*
X125349000Y-69532500D03*
X119938800Y-69316600D03*
G04 #@! TO.N,BUT_DWN*
X111379000Y-69850000D03*
X126555500Y-77406500D03*
G04 #@! TO.N,INTC*
X107251500Y-61023500D03*
X114630200Y-63322200D03*
G04 #@! TO.N,LED*
X119951500Y-67691000D03*
X124714000Y-65532000D03*
G04 #@! TO.N,32KHz*
X123875800Y-62179200D03*
X109347000Y-58801000D03*
X122682000Y-56134000D03*
G04 #@! TO.N,SWDIO*
X121539000Y-86106000D03*
X118237000Y-83312000D03*
X116332000Y-67691000D03*
G04 #@! TO.N,SWDCLK*
X114808000Y-67691000D03*
G04 #@! TO.N,(+5)*
X102500000Y-74500000D03*
X106500000Y-55105314D03*
G04 #@! TO.N,PWR_SENSE*
X117323000Y-66923000D03*
G04 #@! TO.N,STAT*
X117625401Y-62768901D03*
G04 #@! TD*
D20*
G04 #@! TO.N,(+3.3)*
X114808000Y-82697000D02*
X114808000Y-84010500D01*
X114808000Y-84010500D02*
X113474500Y-85344000D01*
X114808000Y-82697000D02*
X114808000Y-83566000D01*
D21*
G04 #@! TO.N,(GND)*
X102020699Y-65191699D02*
X102020699Y-62876101D01*
X103367000Y-66538000D02*
X102020699Y-65191699D01*
X102020699Y-62876101D02*
X103428800Y-61468000D01*
X103428800Y-61468000D02*
X104952800Y-61468000D01*
D22*
X112250000Y-55500000D02*
X112837590Y-54912410D01*
X112837590Y-54912410D02*
X114250000Y-54912410D01*
X112250000Y-55500000D02*
X112250000Y-56000000D01*
X113287590Y-54962410D02*
X114375000Y-54962410D01*
X113025000Y-55225000D02*
X113287590Y-54962410D01*
X114375000Y-55225000D02*
X113025000Y-55225000D01*
X114150000Y-55450000D02*
X114375000Y-55225000D01*
X112800000Y-55450000D02*
X114150000Y-55450000D01*
X112250000Y-56000000D02*
X112800000Y-55450000D01*
D20*
G04 #@! TO.N,USB_D+*
X103632000Y-62738000D02*
X104902000Y-62738000D01*
X102616000Y-63754000D02*
X103632000Y-62738000D01*
G04 #@! TO.N,USB_D-*
X103886000Y-63373000D02*
X104902000Y-63373000D01*
X103378000Y-63881000D02*
X103886000Y-63373000D01*
X103378000Y-64389000D02*
X103378000Y-63881000D01*
G04 #@! TO.N,VCOM*
X110553500Y-81153000D02*
X110947200Y-80594200D01*
X110553500Y-83820000D02*
X110553500Y-81153000D01*
X111379000Y-84645500D02*
X110553500Y-83820000D01*
X112585500Y-84645500D02*
X111379000Y-84645500D01*
X112712500Y-84518500D02*
X112585500Y-84645500D01*
G04 #@! TO.N,Net-(R1-Pad1)*
X102616000Y-79580000D02*
X102616000Y-78867000D01*
X102616000Y-78867000D02*
X102108000Y-78359000D01*
G04 #@! TO.N,BUT_UP*
X126566000Y-60384000D02*
X126496500Y-60384000D01*
X126496500Y-60384000D02*
X125412500Y-61468000D01*
G04 #@! TO.N,BUT_MID*
X126566000Y-69528000D02*
X125353500Y-69528000D01*
X125353500Y-69528000D02*
X125349000Y-69532500D01*
X119938800Y-69316600D02*
X119888000Y-69265800D01*
G04 #@! TO.N,BUT_DWN*
X126566000Y-78672000D02*
X126566000Y-77417000D01*
X126566000Y-77417000D02*
X126555500Y-77406500D01*
G04 #@! TO.N,VDD*
X104902000Y-64008000D02*
X105992000Y-64008000D01*
X111572046Y-64008000D02*
X115800000Y-59780046D01*
X105992000Y-64008000D02*
X111572046Y-64008000D01*
X115800000Y-59780046D02*
X115800000Y-59500000D01*
X115800000Y-59500000D02*
X117075000Y-58225000D01*
X117075000Y-58225000D02*
X118250000Y-58225000D01*
X118250000Y-58225000D02*
X119350000Y-57125000D01*
X119350000Y-57125000D02*
X119350000Y-54912410D01*
G04 #@! TD*
D23*
G04 #@! TO.N,(GND)*
G36*
X122128064Y-55304977D02*
X121852977Y-55580064D01*
X121704100Y-55939484D01*
X121704100Y-56328516D01*
X121852977Y-56687936D01*
X122128064Y-56963023D01*
X122487484Y-57111900D01*
X122876516Y-57111900D01*
X123235936Y-56963023D01*
X123511023Y-56687936D01*
X123659900Y-56328516D01*
X123659900Y-55939484D01*
X123511023Y-55580064D01*
X123235936Y-55304977D01*
X123091139Y-55245000D01*
X126070339Y-55245000D01*
X125910138Y-55405201D01*
X125646000Y-56042887D01*
X125646000Y-56733113D01*
X125910138Y-57370799D01*
X126398201Y-57858862D01*
X127035887Y-58123000D01*
X127180694Y-58123000D01*
X127168560Y-58184000D01*
X127168560Y-58984000D01*
X127200261Y-59143375D01*
X127166000Y-59136560D01*
X125966000Y-59136560D01*
X125718235Y-59185843D01*
X125508191Y-59326191D01*
X125367843Y-59536235D01*
X125318560Y-59784000D01*
X125318560Y-60451783D01*
X125280243Y-60490100D01*
X125217984Y-60490100D01*
X124858564Y-60638977D01*
X124583477Y-60914064D01*
X124434600Y-61273484D01*
X124434600Y-61355041D01*
X124429736Y-61350177D01*
X124070316Y-61201300D01*
X123681284Y-61201300D01*
X123321864Y-61350177D01*
X123046777Y-61625264D01*
X122897900Y-61984684D01*
X122897900Y-62373716D01*
X123046777Y-62733136D01*
X123321864Y-63008223D01*
X123681284Y-63157100D01*
X124070316Y-63157100D01*
X124429736Y-63008223D01*
X124704823Y-62733136D01*
X124853700Y-62373716D01*
X124853700Y-62292159D01*
X124858564Y-62297023D01*
X125217984Y-62445900D01*
X125607016Y-62445900D01*
X125966436Y-62297023D01*
X126241523Y-62021936D01*
X126390400Y-61662516D01*
X126390400Y-61631440D01*
X126964808Y-61631440D01*
X127096182Y-61948603D01*
X127401397Y-62253818D01*
X127800180Y-62419000D01*
X128231820Y-62419000D01*
X128574308Y-62277136D01*
X128574273Y-62690849D01*
X128231820Y-62549000D01*
X127800180Y-62549000D01*
X127401397Y-62714182D01*
X127096182Y-63019397D01*
X126959655Y-63349000D01*
X126851750Y-63349000D01*
X126693000Y-63507750D01*
X126693000Y-64457000D01*
X126713000Y-64457000D01*
X126713000Y-64711000D01*
X126693000Y-64711000D01*
X126693000Y-65660250D01*
X126851750Y-65819000D01*
X127201380Y-65819000D01*
X127168560Y-65984000D01*
X127168560Y-66784000D01*
X127217843Y-67031765D01*
X127234036Y-67056000D01*
X127217843Y-67080235D01*
X127168560Y-67328000D01*
X127168560Y-68128000D01*
X127200261Y-68287375D01*
X127166000Y-68280560D01*
X125966000Y-68280560D01*
X125718235Y-68329843D01*
X125508191Y-68470191D01*
X125451790Y-68554600D01*
X125154484Y-68554600D01*
X124795064Y-68703477D01*
X124519977Y-68978564D01*
X124371100Y-69337984D01*
X124371100Y-69727016D01*
X124519977Y-70086436D01*
X124795064Y-70361523D01*
X125154484Y-70510400D01*
X125457804Y-70510400D01*
X125508191Y-70585809D01*
X125718235Y-70726157D01*
X125966000Y-70775440D01*
X126964808Y-70775440D01*
X127096182Y-71092603D01*
X127401397Y-71397818D01*
X127800180Y-71563000D01*
X128231820Y-71563000D01*
X128573533Y-71421457D01*
X128573498Y-71834528D01*
X128231820Y-71693000D01*
X127800180Y-71693000D01*
X127401397Y-71858182D01*
X127096182Y-72163397D01*
X126959655Y-72493000D01*
X126851750Y-72493000D01*
X126693000Y-72651750D01*
X126693000Y-73601000D01*
X126713000Y-73601000D01*
X126713000Y-73855000D01*
X126693000Y-73855000D01*
X126693000Y-74804250D01*
X126851750Y-74963000D01*
X127201380Y-74963000D01*
X127168560Y-75128000D01*
X127168560Y-75928000D01*
X127217843Y-76175765D01*
X127234036Y-76200000D01*
X127217843Y-76224235D01*
X127168560Y-76472000D01*
X127168560Y-76636601D01*
X127109436Y-76577477D01*
X126750016Y-76428600D01*
X126360984Y-76428600D01*
X126001564Y-76577477D01*
X125726477Y-76852564D01*
X125577600Y-77211984D01*
X125577600Y-77567813D01*
X125508191Y-77614191D01*
X125367843Y-77824235D01*
X125318560Y-78072000D01*
X125318560Y-79272000D01*
X125367843Y-79519765D01*
X125508191Y-79729809D01*
X125718235Y-79870157D01*
X125966000Y-79919440D01*
X126964808Y-79919440D01*
X127096182Y-80236603D01*
X127401397Y-80541818D01*
X127800180Y-80707000D01*
X128231820Y-80707000D01*
X128572758Y-80565778D01*
X128572723Y-80978207D01*
X128231820Y-80837000D01*
X127800180Y-80837000D01*
X127401397Y-81002182D01*
X127096182Y-81307397D01*
X126959655Y-81637000D01*
X126851750Y-81637000D01*
X126693000Y-81795750D01*
X126693000Y-82745000D01*
X126713000Y-82745000D01*
X126713000Y-82999000D01*
X126693000Y-82999000D01*
X126693000Y-83948250D01*
X126851750Y-84107000D01*
X127201380Y-84107000D01*
X127168560Y-84272000D01*
X127168560Y-85006000D01*
X127162887Y-85006000D01*
X126525201Y-85270138D01*
X126037138Y-85758201D01*
X125773000Y-86395887D01*
X125773000Y-87086113D01*
X126037138Y-87723799D01*
X126044939Y-87731600D01*
X124733734Y-87731600D01*
X124782809Y-87698809D01*
X124923157Y-87488765D01*
X124972440Y-87241000D01*
X124972440Y-86241000D01*
X124923157Y-85993235D01*
X124882131Y-85931836D01*
X124894146Y-85913855D01*
X124982235Y-85471000D01*
X124894146Y-85028145D01*
X124765759Y-84836000D01*
X124894146Y-84643855D01*
X124982235Y-84201000D01*
X124894146Y-83758145D01*
X124765759Y-83566000D01*
X124894146Y-83373855D01*
X124937131Y-83157750D01*
X125331000Y-83157750D01*
X125331000Y-83598309D01*
X125427673Y-83831698D01*
X125606301Y-84010327D01*
X125839690Y-84107000D01*
X126280250Y-84107000D01*
X126439000Y-83948250D01*
X126439000Y-82999000D01*
X125489750Y-82999000D01*
X125331000Y-83157750D01*
X124937131Y-83157750D01*
X124982235Y-82931000D01*
X124894146Y-82488145D01*
X124757801Y-82284090D01*
X124812127Y-82221209D01*
X124843403Y-82145691D01*
X125331000Y-82145691D01*
X125331000Y-82586250D01*
X125489750Y-82745000D01*
X126439000Y-82745000D01*
X126439000Y-81795750D01*
X126280250Y-81637000D01*
X125839690Y-81637000D01*
X125606301Y-81733673D01*
X125427673Y-81912302D01*
X125331000Y-82145691D01*
X124843403Y-82145691D01*
X124919119Y-81962874D01*
X124792954Y-81788000D01*
X123952000Y-81788000D01*
X123952000Y-81799027D01*
X123936783Y-81796000D01*
X123713217Y-81796000D01*
X123698000Y-81799027D01*
X123698000Y-81788000D01*
X122857046Y-81788000D01*
X122730881Y-81962874D01*
X122837873Y-82221209D01*
X122892199Y-82284090D01*
X122755854Y-82488145D01*
X122667765Y-82931000D01*
X122755854Y-83373855D01*
X122884241Y-83566000D01*
X122755854Y-83758145D01*
X122667765Y-84201000D01*
X122755854Y-84643855D01*
X122884241Y-84836000D01*
X122755854Y-85028145D01*
X122667765Y-85471000D01*
X122755854Y-85913855D01*
X122767869Y-85931836D01*
X122726843Y-85993235D01*
X122677560Y-86241000D01*
X122677560Y-87241000D01*
X122726843Y-87488765D01*
X122867191Y-87698809D01*
X122916266Y-87731600D01*
X120332493Y-87731600D01*
X119713463Y-87137637D01*
X119675371Y-87080629D01*
X119605143Y-87033704D01*
X119599415Y-87028208D01*
X119542818Y-86992060D01*
X119423317Y-86912212D01*
X119415305Y-86910618D01*
X119408423Y-86906223D01*
X119266957Y-86881110D01*
X119201048Y-86868000D01*
X119193105Y-86868000D01*
X119109948Y-86853238D01*
X119042996Y-86868000D01*
X111955746Y-86868000D01*
X111874272Y-86853177D01*
X111577963Y-86917180D01*
X111391620Y-87046155D01*
X110728274Y-87731600D01*
X104460061Y-87731600D01*
X104594862Y-87596799D01*
X104859000Y-86959113D01*
X104859000Y-86268887D01*
X104594862Y-85631201D01*
X104106799Y-85143138D01*
X103469113Y-84879000D01*
X102778887Y-84879000D01*
X102141201Y-85143138D01*
X102108000Y-85176339D01*
X102108000Y-84641484D01*
X105003600Y-84641484D01*
X105003600Y-85030516D01*
X105152477Y-85389936D01*
X105427564Y-85665023D01*
X105786984Y-85813900D01*
X106176016Y-85813900D01*
X106535436Y-85665023D01*
X106810523Y-85389936D01*
X106959400Y-85030516D01*
X106959400Y-84641484D01*
X106810523Y-84282064D01*
X106535436Y-84006977D01*
X106176016Y-83858100D01*
X105786984Y-83858100D01*
X105427564Y-84006977D01*
X105152477Y-84282064D01*
X105003600Y-84641484D01*
X102108000Y-84641484D01*
X102108000Y-84065000D01*
X102330250Y-84065000D01*
X102489000Y-83906250D01*
X102489000Y-83107000D01*
X102743000Y-83107000D01*
X102743000Y-83906250D01*
X102901750Y-84065000D01*
X103592310Y-84065000D01*
X103825699Y-83968327D01*
X104004327Y-83789698D01*
X104101000Y-83556309D01*
X104101000Y-83371484D01*
X106845100Y-83371484D01*
X106845100Y-83760516D01*
X106993977Y-84119936D01*
X107269064Y-84395023D01*
X107628484Y-84543900D01*
X108017516Y-84543900D01*
X108376936Y-84395023D01*
X108652023Y-84119936D01*
X108776260Y-83820000D01*
X109753122Y-83820000D01*
X109768500Y-83897312D01*
X109768500Y-83897315D01*
X109814046Y-84126291D01*
X109987547Y-84385953D01*
X110053092Y-84429749D01*
X110769253Y-85145911D01*
X110813047Y-85211453D01*
X110878589Y-85255247D01*
X110878591Y-85255249D01*
X110953625Y-85305385D01*
X111072708Y-85384954D01*
X111301684Y-85430500D01*
X111301688Y-85430500D01*
X111378999Y-85445878D01*
X111456310Y-85430500D01*
X112358888Y-85430500D01*
X112496600Y-85487542D01*
X112496600Y-85538516D01*
X112645477Y-85897936D01*
X112920564Y-86173023D01*
X113279984Y-86321900D01*
X113669016Y-86321900D01*
X114028436Y-86173023D01*
X114216442Y-85985017D01*
X114232977Y-86024936D01*
X114508064Y-86300023D01*
X114867484Y-86448900D01*
X115256516Y-86448900D01*
X115615936Y-86300023D01*
X115891023Y-86024936D01*
X115938016Y-85911484D01*
X120561100Y-85911484D01*
X120561100Y-86300516D01*
X120709977Y-86659936D01*
X120985064Y-86935023D01*
X121344484Y-87083900D01*
X121733516Y-87083900D01*
X122092936Y-86935023D01*
X122368023Y-86659936D01*
X122516900Y-86300516D01*
X122516900Y-85911484D01*
X122368023Y-85552064D01*
X122092936Y-85276977D01*
X121733516Y-85128100D01*
X121344484Y-85128100D01*
X120985064Y-85276977D01*
X120709977Y-85552064D01*
X120561100Y-85911484D01*
X115938016Y-85911484D01*
X116005581Y-85748369D01*
X116010484Y-85750400D01*
X116399516Y-85750400D01*
X116758936Y-85601523D01*
X117034023Y-85326436D01*
X117182900Y-84967016D01*
X117182900Y-84577984D01*
X117034023Y-84218564D01*
X116758936Y-83943477D01*
X116399516Y-83794600D01*
X116010484Y-83794600D01*
X115651064Y-83943477D01*
X115604340Y-83990201D01*
X115593000Y-83933188D01*
X115593000Y-83117484D01*
X117259100Y-83117484D01*
X117259100Y-83506516D01*
X117407977Y-83865936D01*
X117683064Y-84141023D01*
X118042484Y-84289900D01*
X118431516Y-84289900D01*
X118790936Y-84141023D01*
X119066023Y-83865936D01*
X119214900Y-83506516D01*
X119214900Y-83117484D01*
X119066023Y-82758064D01*
X118790936Y-82482977D01*
X118431516Y-82334100D01*
X118042484Y-82334100D01*
X117683064Y-82482977D01*
X117407977Y-82758064D01*
X117259100Y-83117484D01*
X115593000Y-83117484D01*
X115593000Y-82619684D01*
X115547454Y-82390708D01*
X115373953Y-82131047D01*
X115114291Y-81957546D01*
X114808000Y-81896621D01*
X114501708Y-81957546D01*
X114242047Y-82131047D01*
X114068546Y-82390709D01*
X114023000Y-82619685D01*
X114023000Y-83643316D01*
X114023001Y-83643320D01*
X114023001Y-83685341D01*
X113600762Y-84107580D01*
X113541523Y-83964564D01*
X113266436Y-83689477D01*
X112907016Y-83540600D01*
X112517984Y-83540600D01*
X112158564Y-83689477D01*
X111987541Y-83860500D01*
X111704158Y-83860500D01*
X111338500Y-83494843D01*
X111338500Y-81490589D01*
X111501136Y-81423223D01*
X111776223Y-81148136D01*
X111925100Y-80788716D01*
X111925100Y-80399684D01*
X111776223Y-80040264D01*
X111501136Y-79765177D01*
X111141716Y-79616300D01*
X110752684Y-79616300D01*
X110393264Y-79765177D01*
X110118177Y-80040264D01*
X109969300Y-80399684D01*
X109969300Y-80614357D01*
X109906208Y-80708781D01*
X109867246Y-80764081D01*
X109863277Y-80773030D01*
X109814047Y-80846708D01*
X109800582Y-80914402D01*
X109772600Y-80977498D01*
X109770410Y-81066089D01*
X109768501Y-81075684D01*
X109768501Y-81143284D01*
X109764881Y-81289694D01*
X109768501Y-81299083D01*
X109768500Y-83742688D01*
X109753122Y-83820000D01*
X108776260Y-83820000D01*
X108800900Y-83760516D01*
X108800900Y-83371484D01*
X108771925Y-83301534D01*
X108842523Y-83230936D01*
X108991400Y-82871516D01*
X108991400Y-82482484D01*
X108842523Y-82123064D01*
X108742432Y-82022973D01*
X108864400Y-81728516D01*
X108864400Y-81339484D01*
X108715523Y-80980064D01*
X108440436Y-80704977D01*
X108081016Y-80556100D01*
X107691984Y-80556100D01*
X107332564Y-80704977D01*
X107057477Y-80980064D01*
X106908600Y-81339484D01*
X106908600Y-81728516D01*
X107057477Y-82087936D01*
X107157568Y-82188027D01*
X107035600Y-82482484D01*
X107035600Y-82871516D01*
X107064575Y-82941466D01*
X106993977Y-83012064D01*
X106845100Y-83371484D01*
X104101000Y-83371484D01*
X104101000Y-83265750D01*
X103942250Y-83107000D01*
X102743000Y-83107000D01*
X102489000Y-83107000D01*
X102469000Y-83107000D01*
X102469000Y-82853000D01*
X102489000Y-82853000D01*
X102489000Y-82053750D01*
X102743000Y-82053750D01*
X102743000Y-82853000D01*
X103942250Y-82853000D01*
X104101000Y-82694250D01*
X104101000Y-82403691D01*
X104004327Y-82170302D01*
X103825699Y-81991673D01*
X103592310Y-81895000D01*
X102901750Y-81895000D01*
X102743000Y-82053750D01*
X102489000Y-82053750D01*
X102330250Y-81895000D01*
X102108000Y-81895000D01*
X102108000Y-80677440D01*
X103466000Y-80677440D01*
X103713765Y-80628157D01*
X103923809Y-80487809D01*
X104064157Y-80277765D01*
X104113440Y-80030000D01*
X104113440Y-79130000D01*
X104064157Y-78882235D01*
X103923809Y-78672191D01*
X103713765Y-78531843D01*
X103466000Y-78482560D01*
X103303237Y-78482560D01*
X103260752Y-78418977D01*
X103225749Y-78366591D01*
X103225747Y-78366589D01*
X103181953Y-78301047D01*
X103116410Y-78257253D01*
X103085900Y-78226742D01*
X103085900Y-78164484D01*
X104813100Y-78164484D01*
X104813100Y-78553516D01*
X104961977Y-78912936D01*
X105237064Y-79188023D01*
X105596484Y-79336900D01*
X105985516Y-79336900D01*
X106344936Y-79188023D01*
X106620023Y-78912936D01*
X106768900Y-78553516D01*
X106768900Y-78164484D01*
X106637387Y-77846984D01*
X111163100Y-77846984D01*
X111163100Y-78236016D01*
X111311977Y-78595436D01*
X111587064Y-78870523D01*
X111946484Y-79019400D01*
X112335516Y-79019400D01*
X112694936Y-78870523D01*
X112765975Y-78799484D01*
X119418100Y-78799484D01*
X119418100Y-79188516D01*
X119566977Y-79547936D01*
X119842064Y-79823023D01*
X120201484Y-79971900D01*
X120590516Y-79971900D01*
X120923556Y-79833950D01*
X120878600Y-79942484D01*
X120878600Y-80302100D01*
X120836484Y-80302100D01*
X120477064Y-80450977D01*
X120201977Y-80726064D01*
X120053100Y-81085484D01*
X120053100Y-81474516D01*
X120201977Y-81833936D01*
X120477064Y-82109023D01*
X120836484Y-82257900D01*
X121225516Y-82257900D01*
X121584936Y-82109023D01*
X121860023Y-81833936D01*
X122008900Y-81474516D01*
X122008900Y-81359126D01*
X122730881Y-81359126D01*
X122857046Y-81534000D01*
X123698000Y-81534000D01*
X123698000Y-80691865D01*
X123952000Y-80691865D01*
X123952000Y-81534000D01*
X124792954Y-81534000D01*
X124919119Y-81359126D01*
X124812127Y-81100791D01*
X124522604Y-80765677D01*
X124126877Y-80566868D01*
X123952000Y-80691865D01*
X123698000Y-80691865D01*
X123523123Y-80566868D01*
X123127396Y-80765677D01*
X122837873Y-81100791D01*
X122730881Y-81359126D01*
X122008900Y-81359126D01*
X122008900Y-81114900D01*
X122051016Y-81114900D01*
X122410436Y-80966023D01*
X122685523Y-80690936D01*
X122834400Y-80331516D01*
X122834400Y-80106571D01*
X123122484Y-80225900D01*
X123511516Y-80225900D01*
X123870936Y-80077023D01*
X124146023Y-79801936D01*
X124294900Y-79442516D01*
X124294900Y-79053484D01*
X124146023Y-78694064D01*
X123870936Y-78418977D01*
X123511516Y-78270100D01*
X123122484Y-78270100D01*
X122763064Y-78418977D01*
X122487977Y-78694064D01*
X122339100Y-79053484D01*
X122339100Y-79278429D01*
X122051016Y-79159100D01*
X121661984Y-79159100D01*
X121328944Y-79297050D01*
X121373900Y-79188516D01*
X121373900Y-78799484D01*
X121225023Y-78440064D01*
X120949936Y-78164977D01*
X120590516Y-78016100D01*
X120201484Y-78016100D01*
X119842064Y-78164977D01*
X119566977Y-78440064D01*
X119418100Y-78799484D01*
X112765975Y-78799484D01*
X112970023Y-78595436D01*
X113118900Y-78236016D01*
X113118900Y-77846984D01*
X112970023Y-77487564D01*
X112694936Y-77212477D01*
X112335516Y-77063600D01*
X111946484Y-77063600D01*
X111587064Y-77212477D01*
X111311977Y-77487564D01*
X111163100Y-77846984D01*
X106637387Y-77846984D01*
X106620023Y-77805064D01*
X106344936Y-77529977D01*
X105985516Y-77381100D01*
X105596484Y-77381100D01*
X105237064Y-77529977D01*
X104961977Y-77805064D01*
X104813100Y-78164484D01*
X103085900Y-78164484D01*
X102937023Y-77805064D01*
X102661936Y-77529977D01*
X102302516Y-77381100D01*
X102108000Y-77381100D01*
X102108000Y-77021484D01*
X122021600Y-77021484D01*
X122021600Y-77410516D01*
X122170477Y-77769936D01*
X122445564Y-78045023D01*
X122804984Y-78193900D01*
X123194016Y-78193900D01*
X123553436Y-78045023D01*
X123828523Y-77769936D01*
X123977400Y-77410516D01*
X123977400Y-77021484D01*
X123828523Y-76662064D01*
X123553436Y-76386977D01*
X123194016Y-76238100D01*
X122804984Y-76238100D01*
X122445564Y-76386977D01*
X122170477Y-76662064D01*
X122021600Y-77021484D01*
X102108000Y-77021484D01*
X102108000Y-75396099D01*
X102305484Y-75477900D01*
X102694516Y-75477900D01*
X102953840Y-75370484D01*
X104178100Y-75370484D01*
X104178100Y-75759516D01*
X104326977Y-76118936D01*
X104602064Y-76394023D01*
X104961484Y-76542900D01*
X105350516Y-76542900D01*
X105709936Y-76394023D01*
X105985023Y-76118936D01*
X106133900Y-75759516D01*
X106133900Y-75370484D01*
X106038595Y-75140397D01*
X106358484Y-75272900D01*
X106747516Y-75272900D01*
X107106936Y-75124023D01*
X107241475Y-74989484D01*
X108051600Y-74989484D01*
X108051600Y-75378516D01*
X108200477Y-75737936D01*
X108475564Y-76013023D01*
X108834984Y-76161900D01*
X109224016Y-76161900D01*
X109583436Y-76013023D01*
X109858523Y-75737936D01*
X109958121Y-75497484D01*
X111925100Y-75497484D01*
X111925100Y-75886516D01*
X112073977Y-76245936D01*
X112349064Y-76521023D01*
X112708484Y-76669900D01*
X113097516Y-76669900D01*
X113456936Y-76521023D01*
X113732023Y-76245936D01*
X113880900Y-75886516D01*
X113880900Y-75497484D01*
X113732023Y-75138064D01*
X113456936Y-74862977D01*
X113097516Y-74714100D01*
X112708484Y-74714100D01*
X112349064Y-74862977D01*
X112073977Y-75138064D01*
X111925100Y-75497484D01*
X109958121Y-75497484D01*
X110007400Y-75378516D01*
X110007400Y-74989484D01*
X109858523Y-74630064D01*
X109583436Y-74354977D01*
X109547040Y-74339901D01*
X109646936Y-74298523D01*
X109922023Y-74023436D01*
X109926035Y-74013750D01*
X125331000Y-74013750D01*
X125331000Y-74454309D01*
X125427673Y-74687698D01*
X125606301Y-74866327D01*
X125839690Y-74963000D01*
X126280250Y-74963000D01*
X126439000Y-74804250D01*
X126439000Y-73855000D01*
X125489750Y-73855000D01*
X125331000Y-74013750D01*
X109926035Y-74013750D01*
X110070900Y-73664016D01*
X110070900Y-73274984D01*
X109922023Y-72915564D01*
X109646936Y-72640477D01*
X109287516Y-72491600D01*
X108898484Y-72491600D01*
X108539064Y-72640477D01*
X108263977Y-72915564D01*
X108115100Y-73274984D01*
X108115100Y-73664016D01*
X108263977Y-74023436D01*
X108539064Y-74298523D01*
X108575460Y-74313599D01*
X108475564Y-74354977D01*
X108200477Y-74630064D01*
X108051600Y-74989484D01*
X107241475Y-74989484D01*
X107382023Y-74848936D01*
X107530900Y-74489516D01*
X107530900Y-74100484D01*
X107382023Y-73741064D01*
X107106936Y-73465977D01*
X106747516Y-73317100D01*
X106358484Y-73317100D01*
X105999064Y-73465977D01*
X105723977Y-73741064D01*
X105575100Y-74100484D01*
X105575100Y-74489516D01*
X105670405Y-74719603D01*
X105350516Y-74587100D01*
X104961484Y-74587100D01*
X104602064Y-74735977D01*
X104326977Y-75011064D01*
X104178100Y-75370484D01*
X102953840Y-75370484D01*
X103053936Y-75329023D01*
X103329023Y-75053936D01*
X103477900Y-74694516D01*
X103477900Y-74305484D01*
X103329023Y-73946064D01*
X103053936Y-73670977D01*
X102694516Y-73522100D01*
X102305484Y-73522100D01*
X102108000Y-73603901D01*
X102108000Y-71433484D01*
X107035600Y-71433484D01*
X107035600Y-71822516D01*
X107184477Y-72181936D01*
X107459564Y-72457023D01*
X107818984Y-72605900D01*
X108208016Y-72605900D01*
X108567436Y-72457023D01*
X108842523Y-72181936D01*
X108991400Y-71822516D01*
X108991400Y-71433484D01*
X108842523Y-71074064D01*
X108567436Y-70798977D01*
X108208016Y-70650100D01*
X107818984Y-70650100D01*
X107459564Y-70798977D01*
X107184477Y-71074064D01*
X107035600Y-71433484D01*
X102108000Y-71433484D01*
X102108000Y-68173000D01*
X103081250Y-68173000D01*
X103240000Y-68014250D01*
X103240000Y-66665000D01*
X103494000Y-66665000D01*
X103494000Y-68014250D01*
X103652750Y-68173000D01*
X105293310Y-68173000D01*
X105526699Y-68076327D01*
X105705327Y-67897698D01*
X105802000Y-67664309D01*
X105802000Y-66823750D01*
X105643250Y-66665000D01*
X103494000Y-66665000D01*
X103240000Y-66665000D01*
X103220000Y-66665000D01*
X103220000Y-66480484D01*
X106845100Y-66480484D01*
X106845100Y-66869516D01*
X106974950Y-67183000D01*
X106845100Y-67496484D01*
X106845100Y-67885516D01*
X106993548Y-68243901D01*
X106908600Y-68448984D01*
X106908600Y-68838016D01*
X107057048Y-69196401D01*
X106972100Y-69401484D01*
X106972100Y-69790516D01*
X107120977Y-70149936D01*
X107396064Y-70425023D01*
X107755484Y-70573900D01*
X108144516Y-70573900D01*
X108215532Y-70544484D01*
X110274100Y-70544484D01*
X110274100Y-70933516D01*
X110422977Y-71292936D01*
X110698064Y-71568023D01*
X111027913Y-71704651D01*
X110761564Y-71814977D01*
X110486477Y-72090064D01*
X110337600Y-72449484D01*
X110337600Y-72838516D01*
X110486477Y-73197936D01*
X110761564Y-73473023D01*
X111120984Y-73621900D01*
X111510016Y-73621900D01*
X111869436Y-73473023D01*
X112144523Y-73197936D01*
X112225810Y-73001691D01*
X125331000Y-73001691D01*
X125331000Y-73442250D01*
X125489750Y-73601000D01*
X126439000Y-73601000D01*
X126439000Y-72651750D01*
X126280250Y-72493000D01*
X125839690Y-72493000D01*
X125606301Y-72589673D01*
X125427673Y-72768302D01*
X125331000Y-73001691D01*
X112225810Y-73001691D01*
X112293400Y-72838516D01*
X112293400Y-72449484D01*
X112144523Y-72090064D01*
X111869436Y-71814977D01*
X111539587Y-71678349D01*
X111805936Y-71568023D01*
X112081023Y-71292936D01*
X112229900Y-70933516D01*
X112229900Y-70544484D01*
X112182327Y-70429632D01*
X112208023Y-70403936D01*
X112356900Y-70044516D01*
X112356900Y-69655484D01*
X112208023Y-69296064D01*
X112034043Y-69122084D01*
X118960900Y-69122084D01*
X118960900Y-69511116D01*
X119109777Y-69870536D01*
X119384864Y-70145623D01*
X119744284Y-70294500D01*
X120133316Y-70294500D01*
X120492736Y-70145623D01*
X120767823Y-69870536D01*
X120916700Y-69511116D01*
X120916700Y-69122084D01*
X120767823Y-68762664D01*
X120515309Y-68510150D01*
X120780523Y-68244936D01*
X120929400Y-67885516D01*
X120929400Y-67496484D01*
X120780523Y-67137064D01*
X120505436Y-66861977D01*
X120146016Y-66713100D01*
X119756984Y-66713100D01*
X119397564Y-66861977D01*
X119122477Y-67137064D01*
X118973600Y-67496484D01*
X118973600Y-67885516D01*
X119122477Y-68244936D01*
X119374991Y-68497450D01*
X119109777Y-68762664D01*
X118960900Y-69122084D01*
X112034043Y-69122084D01*
X111932936Y-69020977D01*
X111573516Y-68872100D01*
X111184484Y-68872100D01*
X110825064Y-69020977D01*
X110549977Y-69296064D01*
X110401100Y-69655484D01*
X110401100Y-70044516D01*
X110448673Y-70159368D01*
X110422977Y-70185064D01*
X110274100Y-70544484D01*
X108215532Y-70544484D01*
X108503936Y-70425023D01*
X108779023Y-70149936D01*
X108927900Y-69790516D01*
X108927900Y-69401484D01*
X108779452Y-69043099D01*
X108864400Y-68838016D01*
X108864400Y-68448984D01*
X108715952Y-68090599D01*
X108800900Y-67885516D01*
X108800900Y-67496484D01*
X108671050Y-67183000D01*
X108800900Y-66869516D01*
X108800900Y-66543984D01*
X111290100Y-66543984D01*
X111290100Y-66933016D01*
X111438977Y-67292436D01*
X111714064Y-67567523D01*
X112073484Y-67716400D01*
X112462516Y-67716400D01*
X112821936Y-67567523D01*
X112892975Y-67496484D01*
X113830100Y-67496484D01*
X113830100Y-67885516D01*
X113978977Y-68244936D01*
X114254064Y-68520023D01*
X114613484Y-68668900D01*
X115002516Y-68668900D01*
X115361936Y-68520023D01*
X115570000Y-68311959D01*
X115778064Y-68520023D01*
X116137484Y-68668900D01*
X116526516Y-68668900D01*
X116885936Y-68520023D01*
X117161023Y-68244936D01*
X117303528Y-67900900D01*
X117517516Y-67900900D01*
X117876936Y-67752023D01*
X118152023Y-67476936D01*
X118300900Y-67117516D01*
X118300900Y-66728484D01*
X118152023Y-66369064D01*
X117876936Y-66093977D01*
X117517516Y-65945100D01*
X117128484Y-65945100D01*
X116769064Y-66093977D01*
X116493977Y-66369064D01*
X116351472Y-66713100D01*
X116137484Y-66713100D01*
X115778064Y-66861977D01*
X115570000Y-67070041D01*
X115361936Y-66861977D01*
X115002516Y-66713100D01*
X114613484Y-66713100D01*
X114254064Y-66861977D01*
X113978977Y-67137064D01*
X113830100Y-67496484D01*
X112892975Y-67496484D01*
X113097023Y-67292436D01*
X113245900Y-66933016D01*
X113245900Y-66543984D01*
X113097023Y-66184564D01*
X112821936Y-65909477D01*
X112462516Y-65760600D01*
X112073484Y-65760600D01*
X111714064Y-65909477D01*
X111438977Y-66184564D01*
X111290100Y-66543984D01*
X108800900Y-66543984D01*
X108800900Y-66480484D01*
X108652023Y-66121064D01*
X108376936Y-65845977D01*
X108017516Y-65697100D01*
X107628484Y-65697100D01*
X107269064Y-65845977D01*
X106993977Y-66121064D01*
X106845100Y-66480484D01*
X103220000Y-66480484D01*
X103220000Y-66411000D01*
X103240000Y-66411000D01*
X103240000Y-66391000D01*
X103494000Y-66391000D01*
X103494000Y-66411000D01*
X105643250Y-66411000D01*
X105802000Y-66252250D01*
X105802000Y-65411691D01*
X105771263Y-65337484D01*
X123736100Y-65337484D01*
X123736100Y-65726516D01*
X123884977Y-66085936D01*
X124160064Y-66361023D01*
X124519484Y-66509900D01*
X124908516Y-66509900D01*
X125267936Y-66361023D01*
X125543023Y-66085936D01*
X125680845Y-65753204D01*
X125839690Y-65819000D01*
X126280250Y-65819000D01*
X126439000Y-65660250D01*
X126439000Y-64711000D01*
X125489750Y-64711000D01*
X125382855Y-64817896D01*
X125267936Y-64702977D01*
X124908516Y-64554100D01*
X124519484Y-64554100D01*
X124160064Y-64702977D01*
X123884977Y-64978064D01*
X123736100Y-65337484D01*
X105771263Y-65337484D01*
X105705327Y-65178302D01*
X105526699Y-64999673D01*
X105293310Y-64903000D01*
X104223565Y-64903000D01*
X104243265Y-64855440D01*
X105592000Y-64855440D01*
X105839765Y-64806157D01*
X105859456Y-64793000D01*
X111494734Y-64793000D01*
X111572046Y-64808378D01*
X111649358Y-64793000D01*
X111649362Y-64793000D01*
X111878338Y-64747454D01*
X112137999Y-64573953D01*
X112181795Y-64508408D01*
X113715785Y-62974419D01*
X113652300Y-63127684D01*
X113652300Y-63516716D01*
X113801177Y-63876136D01*
X114076264Y-64151223D01*
X114435684Y-64300100D01*
X114824716Y-64300100D01*
X115184136Y-64151223D01*
X115459223Y-63876136D01*
X115466863Y-63857691D01*
X125331000Y-63857691D01*
X125331000Y-64298250D01*
X125489750Y-64457000D01*
X126439000Y-64457000D01*
X126439000Y-63507750D01*
X126280250Y-63349000D01*
X125839690Y-63349000D01*
X125606301Y-63445673D01*
X125427673Y-63624302D01*
X125331000Y-63857691D01*
X115466863Y-63857691D01*
X115608100Y-63516716D01*
X115608100Y-63127684D01*
X115459223Y-62768264D01*
X115265344Y-62574385D01*
X116647501Y-62574385D01*
X116647501Y-62963417D01*
X116796378Y-63322837D01*
X117071465Y-63597924D01*
X117430885Y-63746801D01*
X117819917Y-63746801D01*
X118179337Y-63597924D01*
X118454424Y-63322837D01*
X118603301Y-62963417D01*
X118603301Y-62574385D01*
X118454424Y-62214965D01*
X118179337Y-61939878D01*
X117819917Y-61791001D01*
X117430885Y-61791001D01*
X117071465Y-61939878D01*
X116796378Y-62214965D01*
X116647501Y-62574385D01*
X115265344Y-62574385D01*
X115184136Y-62493177D01*
X114824716Y-62344300D01*
X114435684Y-62344300D01*
X114282419Y-62407785D01*
X116300411Y-60389793D01*
X116365953Y-60345999D01*
X116409747Y-60280457D01*
X116409749Y-60280455D01*
X116539454Y-60086338D01*
X116547557Y-60045600D01*
X116585000Y-59857362D01*
X116585000Y-59857358D01*
X116592995Y-59817162D01*
X117132100Y-59278058D01*
X117132100Y-59630516D01*
X117280977Y-59989936D01*
X117556064Y-60265023D01*
X117765345Y-60351710D01*
X117670991Y-60446064D01*
X117522114Y-60805484D01*
X117522114Y-61194516D01*
X117670991Y-61553936D01*
X117946078Y-61829023D01*
X118305498Y-61977900D01*
X118694530Y-61977900D01*
X119053950Y-61829023D01*
X119329037Y-61553936D01*
X119477914Y-61194516D01*
X119477914Y-60805484D01*
X119329037Y-60446064D01*
X119053950Y-60170977D01*
X118844669Y-60084290D01*
X118939023Y-59989936D01*
X119087900Y-59630516D01*
X119087900Y-59241484D01*
X118939023Y-58882064D01*
X118828754Y-58771795D01*
X118859749Y-58725408D01*
X119850411Y-57734747D01*
X119915953Y-57690953D01*
X119959747Y-57625411D01*
X119959749Y-57625409D01*
X120089454Y-57431292D01*
X120101487Y-57370799D01*
X120135000Y-57202316D01*
X120135000Y-57202312D01*
X120150378Y-57125000D01*
X120135000Y-57047688D01*
X120135000Y-55327168D01*
X120148289Y-55318289D01*
X120197259Y-55245000D01*
X122272861Y-55245000D01*
X122128064Y-55304977D01*
X122128064Y-55304977D01*
G37*
X122128064Y-55304977D02*
X121852977Y-55580064D01*
X121704100Y-55939484D01*
X121704100Y-56328516D01*
X121852977Y-56687936D01*
X122128064Y-56963023D01*
X122487484Y-57111900D01*
X122876516Y-57111900D01*
X123235936Y-56963023D01*
X123511023Y-56687936D01*
X123659900Y-56328516D01*
X123659900Y-55939484D01*
X123511023Y-55580064D01*
X123235936Y-55304977D01*
X123091139Y-55245000D01*
X126070339Y-55245000D01*
X125910138Y-55405201D01*
X125646000Y-56042887D01*
X125646000Y-56733113D01*
X125910138Y-57370799D01*
X126398201Y-57858862D01*
X127035887Y-58123000D01*
X127180694Y-58123000D01*
X127168560Y-58184000D01*
X127168560Y-58984000D01*
X127200261Y-59143375D01*
X127166000Y-59136560D01*
X125966000Y-59136560D01*
X125718235Y-59185843D01*
X125508191Y-59326191D01*
X125367843Y-59536235D01*
X125318560Y-59784000D01*
X125318560Y-60451783D01*
X125280243Y-60490100D01*
X125217984Y-60490100D01*
X124858564Y-60638977D01*
X124583477Y-60914064D01*
X124434600Y-61273484D01*
X124434600Y-61355041D01*
X124429736Y-61350177D01*
X124070316Y-61201300D01*
X123681284Y-61201300D01*
X123321864Y-61350177D01*
X123046777Y-61625264D01*
X122897900Y-61984684D01*
X122897900Y-62373716D01*
X123046777Y-62733136D01*
X123321864Y-63008223D01*
X123681284Y-63157100D01*
X124070316Y-63157100D01*
X124429736Y-63008223D01*
X124704823Y-62733136D01*
X124853700Y-62373716D01*
X124853700Y-62292159D01*
X124858564Y-62297023D01*
X125217984Y-62445900D01*
X125607016Y-62445900D01*
X125966436Y-62297023D01*
X126241523Y-62021936D01*
X126390400Y-61662516D01*
X126390400Y-61631440D01*
X126964808Y-61631440D01*
X127096182Y-61948603D01*
X127401397Y-62253818D01*
X127800180Y-62419000D01*
X128231820Y-62419000D01*
X128574308Y-62277136D01*
X128574273Y-62690849D01*
X128231820Y-62549000D01*
X127800180Y-62549000D01*
X127401397Y-62714182D01*
X127096182Y-63019397D01*
X126959655Y-63349000D01*
X126851750Y-63349000D01*
X126693000Y-63507750D01*
X126693000Y-64457000D01*
X126713000Y-64457000D01*
X126713000Y-64711000D01*
X126693000Y-64711000D01*
X126693000Y-65660250D01*
X126851750Y-65819000D01*
X127201380Y-65819000D01*
X127168560Y-65984000D01*
X127168560Y-66784000D01*
X127217843Y-67031765D01*
X127234036Y-67056000D01*
X127217843Y-67080235D01*
X127168560Y-67328000D01*
X127168560Y-68128000D01*
X127200261Y-68287375D01*
X127166000Y-68280560D01*
X125966000Y-68280560D01*
X125718235Y-68329843D01*
X125508191Y-68470191D01*
X125451790Y-68554600D01*
X125154484Y-68554600D01*
X124795064Y-68703477D01*
X124519977Y-68978564D01*
X124371100Y-69337984D01*
X124371100Y-69727016D01*
X124519977Y-70086436D01*
X124795064Y-70361523D01*
X125154484Y-70510400D01*
X125457804Y-70510400D01*
X125508191Y-70585809D01*
X125718235Y-70726157D01*
X125966000Y-70775440D01*
X126964808Y-70775440D01*
X127096182Y-71092603D01*
X127401397Y-71397818D01*
X127800180Y-71563000D01*
X128231820Y-71563000D01*
X128573533Y-71421457D01*
X128573498Y-71834528D01*
X128231820Y-71693000D01*
X127800180Y-71693000D01*
X127401397Y-71858182D01*
X127096182Y-72163397D01*
X126959655Y-72493000D01*
X126851750Y-72493000D01*
X126693000Y-72651750D01*
X126693000Y-73601000D01*
X126713000Y-73601000D01*
X126713000Y-73855000D01*
X126693000Y-73855000D01*
X126693000Y-74804250D01*
X126851750Y-74963000D01*
X127201380Y-74963000D01*
X127168560Y-75128000D01*
X127168560Y-75928000D01*
X127217843Y-76175765D01*
X127234036Y-76200000D01*
X127217843Y-76224235D01*
X127168560Y-76472000D01*
X127168560Y-76636601D01*
X127109436Y-76577477D01*
X126750016Y-76428600D01*
X126360984Y-76428600D01*
X126001564Y-76577477D01*
X125726477Y-76852564D01*
X125577600Y-77211984D01*
X125577600Y-77567813D01*
X125508191Y-77614191D01*
X125367843Y-77824235D01*
X125318560Y-78072000D01*
X125318560Y-79272000D01*
X125367843Y-79519765D01*
X125508191Y-79729809D01*
X125718235Y-79870157D01*
X125966000Y-79919440D01*
X126964808Y-79919440D01*
X127096182Y-80236603D01*
X127401397Y-80541818D01*
X127800180Y-80707000D01*
X128231820Y-80707000D01*
X128572758Y-80565778D01*
X128572723Y-80978207D01*
X128231820Y-80837000D01*
X127800180Y-80837000D01*
X127401397Y-81002182D01*
X127096182Y-81307397D01*
X126959655Y-81637000D01*
X126851750Y-81637000D01*
X126693000Y-81795750D01*
X126693000Y-82745000D01*
X126713000Y-82745000D01*
X126713000Y-82999000D01*
X126693000Y-82999000D01*
X126693000Y-83948250D01*
X126851750Y-84107000D01*
X127201380Y-84107000D01*
X127168560Y-84272000D01*
X127168560Y-85006000D01*
X127162887Y-85006000D01*
X126525201Y-85270138D01*
X126037138Y-85758201D01*
X125773000Y-86395887D01*
X125773000Y-87086113D01*
X126037138Y-87723799D01*
X126044939Y-87731600D01*
X124733734Y-87731600D01*
X124782809Y-87698809D01*
X124923157Y-87488765D01*
X124972440Y-87241000D01*
X124972440Y-86241000D01*
X124923157Y-85993235D01*
X124882131Y-85931836D01*
X124894146Y-85913855D01*
X124982235Y-85471000D01*
X124894146Y-85028145D01*
X124765759Y-84836000D01*
X124894146Y-84643855D01*
X124982235Y-84201000D01*
X124894146Y-83758145D01*
X124765759Y-83566000D01*
X124894146Y-83373855D01*
X124937131Y-83157750D01*
X125331000Y-83157750D01*
X125331000Y-83598309D01*
X125427673Y-83831698D01*
X125606301Y-84010327D01*
X125839690Y-84107000D01*
X126280250Y-84107000D01*
X126439000Y-83948250D01*
X126439000Y-82999000D01*
X125489750Y-82999000D01*
X125331000Y-83157750D01*
X124937131Y-83157750D01*
X124982235Y-82931000D01*
X124894146Y-82488145D01*
X124757801Y-82284090D01*
X124812127Y-82221209D01*
X124843403Y-82145691D01*
X125331000Y-82145691D01*
X125331000Y-82586250D01*
X125489750Y-82745000D01*
X126439000Y-82745000D01*
X126439000Y-81795750D01*
X126280250Y-81637000D01*
X125839690Y-81637000D01*
X125606301Y-81733673D01*
X125427673Y-81912302D01*
X125331000Y-82145691D01*
X124843403Y-82145691D01*
X124919119Y-81962874D01*
X124792954Y-81788000D01*
X123952000Y-81788000D01*
X123952000Y-81799027D01*
X123936783Y-81796000D01*
X123713217Y-81796000D01*
X123698000Y-81799027D01*
X123698000Y-81788000D01*
X122857046Y-81788000D01*
X122730881Y-81962874D01*
X122837873Y-82221209D01*
X122892199Y-82284090D01*
X122755854Y-82488145D01*
X122667765Y-82931000D01*
X122755854Y-83373855D01*
X122884241Y-83566000D01*
X122755854Y-83758145D01*
X122667765Y-84201000D01*
X122755854Y-84643855D01*
X122884241Y-84836000D01*
X122755854Y-85028145D01*
X122667765Y-85471000D01*
X122755854Y-85913855D01*
X122767869Y-85931836D01*
X122726843Y-85993235D01*
X122677560Y-86241000D01*
X122677560Y-87241000D01*
X122726843Y-87488765D01*
X122867191Y-87698809D01*
X122916266Y-87731600D01*
X120332493Y-87731600D01*
X119713463Y-87137637D01*
X119675371Y-87080629D01*
X119605143Y-87033704D01*
X119599415Y-87028208D01*
X119542818Y-86992060D01*
X119423317Y-86912212D01*
X119415305Y-86910618D01*
X119408423Y-86906223D01*
X119266957Y-86881110D01*
X119201048Y-86868000D01*
X119193105Y-86868000D01*
X119109948Y-86853238D01*
X119042996Y-86868000D01*
X111955746Y-86868000D01*
X111874272Y-86853177D01*
X111577963Y-86917180D01*
X111391620Y-87046155D01*
X110728274Y-87731600D01*
X104460061Y-87731600D01*
X104594862Y-87596799D01*
X104859000Y-86959113D01*
X104859000Y-86268887D01*
X104594862Y-85631201D01*
X104106799Y-85143138D01*
X103469113Y-84879000D01*
X102778887Y-84879000D01*
X102141201Y-85143138D01*
X102108000Y-85176339D01*
X102108000Y-84641484D01*
X105003600Y-84641484D01*
X105003600Y-85030516D01*
X105152477Y-85389936D01*
X105427564Y-85665023D01*
X105786984Y-85813900D01*
X106176016Y-85813900D01*
X106535436Y-85665023D01*
X106810523Y-85389936D01*
X106959400Y-85030516D01*
X106959400Y-84641484D01*
X106810523Y-84282064D01*
X106535436Y-84006977D01*
X106176016Y-83858100D01*
X105786984Y-83858100D01*
X105427564Y-84006977D01*
X105152477Y-84282064D01*
X105003600Y-84641484D01*
X102108000Y-84641484D01*
X102108000Y-84065000D01*
X102330250Y-84065000D01*
X102489000Y-83906250D01*
X102489000Y-83107000D01*
X102743000Y-83107000D01*
X102743000Y-83906250D01*
X102901750Y-84065000D01*
X103592310Y-84065000D01*
X103825699Y-83968327D01*
X104004327Y-83789698D01*
X104101000Y-83556309D01*
X104101000Y-83371484D01*
X106845100Y-83371484D01*
X106845100Y-83760516D01*
X106993977Y-84119936D01*
X107269064Y-84395023D01*
X107628484Y-84543900D01*
X108017516Y-84543900D01*
X108376936Y-84395023D01*
X108652023Y-84119936D01*
X108776260Y-83820000D01*
X109753122Y-83820000D01*
X109768500Y-83897312D01*
X109768500Y-83897315D01*
X109814046Y-84126291D01*
X109987547Y-84385953D01*
X110053092Y-84429749D01*
X110769253Y-85145911D01*
X110813047Y-85211453D01*
X110878589Y-85255247D01*
X110878591Y-85255249D01*
X110953625Y-85305385D01*
X111072708Y-85384954D01*
X111301684Y-85430500D01*
X111301688Y-85430500D01*
X111378999Y-85445878D01*
X111456310Y-85430500D01*
X112358888Y-85430500D01*
X112496600Y-85487542D01*
X112496600Y-85538516D01*
X112645477Y-85897936D01*
X112920564Y-86173023D01*
X113279984Y-86321900D01*
X113669016Y-86321900D01*
X114028436Y-86173023D01*
X114216442Y-85985017D01*
X114232977Y-86024936D01*
X114508064Y-86300023D01*
X114867484Y-86448900D01*
X115256516Y-86448900D01*
X115615936Y-86300023D01*
X115891023Y-86024936D01*
X115938016Y-85911484D01*
X120561100Y-85911484D01*
X120561100Y-86300516D01*
X120709977Y-86659936D01*
X120985064Y-86935023D01*
X121344484Y-87083900D01*
X121733516Y-87083900D01*
X122092936Y-86935023D01*
X122368023Y-86659936D01*
X122516900Y-86300516D01*
X122516900Y-85911484D01*
X122368023Y-85552064D01*
X122092936Y-85276977D01*
X121733516Y-85128100D01*
X121344484Y-85128100D01*
X120985064Y-85276977D01*
X120709977Y-85552064D01*
X120561100Y-85911484D01*
X115938016Y-85911484D01*
X116005581Y-85748369D01*
X116010484Y-85750400D01*
X116399516Y-85750400D01*
X116758936Y-85601523D01*
X117034023Y-85326436D01*
X117182900Y-84967016D01*
X117182900Y-84577984D01*
X117034023Y-84218564D01*
X116758936Y-83943477D01*
X116399516Y-83794600D01*
X116010484Y-83794600D01*
X115651064Y-83943477D01*
X115604340Y-83990201D01*
X115593000Y-83933188D01*
X115593000Y-83117484D01*
X117259100Y-83117484D01*
X117259100Y-83506516D01*
X117407977Y-83865936D01*
X117683064Y-84141023D01*
X118042484Y-84289900D01*
X118431516Y-84289900D01*
X118790936Y-84141023D01*
X119066023Y-83865936D01*
X119214900Y-83506516D01*
X119214900Y-83117484D01*
X119066023Y-82758064D01*
X118790936Y-82482977D01*
X118431516Y-82334100D01*
X118042484Y-82334100D01*
X117683064Y-82482977D01*
X117407977Y-82758064D01*
X117259100Y-83117484D01*
X115593000Y-83117484D01*
X115593000Y-82619684D01*
X115547454Y-82390708D01*
X115373953Y-82131047D01*
X115114291Y-81957546D01*
X114808000Y-81896621D01*
X114501708Y-81957546D01*
X114242047Y-82131047D01*
X114068546Y-82390709D01*
X114023000Y-82619685D01*
X114023000Y-83643316D01*
X114023001Y-83643320D01*
X114023001Y-83685341D01*
X113600762Y-84107580D01*
X113541523Y-83964564D01*
X113266436Y-83689477D01*
X112907016Y-83540600D01*
X112517984Y-83540600D01*
X112158564Y-83689477D01*
X111987541Y-83860500D01*
X111704158Y-83860500D01*
X111338500Y-83494843D01*
X111338500Y-81490589D01*
X111501136Y-81423223D01*
X111776223Y-81148136D01*
X111925100Y-80788716D01*
X111925100Y-80399684D01*
X111776223Y-80040264D01*
X111501136Y-79765177D01*
X111141716Y-79616300D01*
X110752684Y-79616300D01*
X110393264Y-79765177D01*
X110118177Y-80040264D01*
X109969300Y-80399684D01*
X109969300Y-80614357D01*
X109906208Y-80708781D01*
X109867246Y-80764081D01*
X109863277Y-80773030D01*
X109814047Y-80846708D01*
X109800582Y-80914402D01*
X109772600Y-80977498D01*
X109770410Y-81066089D01*
X109768501Y-81075684D01*
X109768501Y-81143284D01*
X109764881Y-81289694D01*
X109768501Y-81299083D01*
X109768500Y-83742688D01*
X109753122Y-83820000D01*
X108776260Y-83820000D01*
X108800900Y-83760516D01*
X108800900Y-83371484D01*
X108771925Y-83301534D01*
X108842523Y-83230936D01*
X108991400Y-82871516D01*
X108991400Y-82482484D01*
X108842523Y-82123064D01*
X108742432Y-82022973D01*
X108864400Y-81728516D01*
X108864400Y-81339484D01*
X108715523Y-80980064D01*
X108440436Y-80704977D01*
X108081016Y-80556100D01*
X107691984Y-80556100D01*
X107332564Y-80704977D01*
X107057477Y-80980064D01*
X106908600Y-81339484D01*
X106908600Y-81728516D01*
X107057477Y-82087936D01*
X107157568Y-82188027D01*
X107035600Y-82482484D01*
X107035600Y-82871516D01*
X107064575Y-82941466D01*
X106993977Y-83012064D01*
X106845100Y-83371484D01*
X104101000Y-83371484D01*
X104101000Y-83265750D01*
X103942250Y-83107000D01*
X102743000Y-83107000D01*
X102489000Y-83107000D01*
X102469000Y-83107000D01*
X102469000Y-82853000D01*
X102489000Y-82853000D01*
X102489000Y-82053750D01*
X102743000Y-82053750D01*
X102743000Y-82853000D01*
X103942250Y-82853000D01*
X104101000Y-82694250D01*
X104101000Y-82403691D01*
X104004327Y-82170302D01*
X103825699Y-81991673D01*
X103592310Y-81895000D01*
X102901750Y-81895000D01*
X102743000Y-82053750D01*
X102489000Y-82053750D01*
X102330250Y-81895000D01*
X102108000Y-81895000D01*
X102108000Y-80677440D01*
X103466000Y-80677440D01*
X103713765Y-80628157D01*
X103923809Y-80487809D01*
X104064157Y-80277765D01*
X104113440Y-80030000D01*
X104113440Y-79130000D01*
X104064157Y-78882235D01*
X103923809Y-78672191D01*
X103713765Y-78531843D01*
X103466000Y-78482560D01*
X103303237Y-78482560D01*
X103260752Y-78418977D01*
X103225749Y-78366591D01*
X103225747Y-78366589D01*
X103181953Y-78301047D01*
X103116410Y-78257253D01*
X103085900Y-78226742D01*
X103085900Y-78164484D01*
X104813100Y-78164484D01*
X104813100Y-78553516D01*
X104961977Y-78912936D01*
X105237064Y-79188023D01*
X105596484Y-79336900D01*
X105985516Y-79336900D01*
X106344936Y-79188023D01*
X106620023Y-78912936D01*
X106768900Y-78553516D01*
X106768900Y-78164484D01*
X106637387Y-77846984D01*
X111163100Y-77846984D01*
X111163100Y-78236016D01*
X111311977Y-78595436D01*
X111587064Y-78870523D01*
X111946484Y-79019400D01*
X112335516Y-79019400D01*
X112694936Y-78870523D01*
X112765975Y-78799484D01*
X119418100Y-78799484D01*
X119418100Y-79188516D01*
X119566977Y-79547936D01*
X119842064Y-79823023D01*
X120201484Y-79971900D01*
X120590516Y-79971900D01*
X120923556Y-79833950D01*
X120878600Y-79942484D01*
X120878600Y-80302100D01*
X120836484Y-80302100D01*
X120477064Y-80450977D01*
X120201977Y-80726064D01*
X120053100Y-81085484D01*
X120053100Y-81474516D01*
X120201977Y-81833936D01*
X120477064Y-82109023D01*
X120836484Y-82257900D01*
X121225516Y-82257900D01*
X121584936Y-82109023D01*
X121860023Y-81833936D01*
X122008900Y-81474516D01*
X122008900Y-81359126D01*
X122730881Y-81359126D01*
X122857046Y-81534000D01*
X123698000Y-81534000D01*
X123698000Y-80691865D01*
X123952000Y-80691865D01*
X123952000Y-81534000D01*
X124792954Y-81534000D01*
X124919119Y-81359126D01*
X124812127Y-81100791D01*
X124522604Y-80765677D01*
X124126877Y-80566868D01*
X123952000Y-80691865D01*
X123698000Y-80691865D01*
X123523123Y-80566868D01*
X123127396Y-80765677D01*
X122837873Y-81100791D01*
X122730881Y-81359126D01*
X122008900Y-81359126D01*
X122008900Y-81114900D01*
X122051016Y-81114900D01*
X122410436Y-80966023D01*
X122685523Y-80690936D01*
X122834400Y-80331516D01*
X122834400Y-80106571D01*
X123122484Y-80225900D01*
X123511516Y-80225900D01*
X123870936Y-80077023D01*
X124146023Y-79801936D01*
X124294900Y-79442516D01*
X124294900Y-79053484D01*
X124146023Y-78694064D01*
X123870936Y-78418977D01*
X123511516Y-78270100D01*
X123122484Y-78270100D01*
X122763064Y-78418977D01*
X122487977Y-78694064D01*
X122339100Y-79053484D01*
X122339100Y-79278429D01*
X122051016Y-79159100D01*
X121661984Y-79159100D01*
X121328944Y-79297050D01*
X121373900Y-79188516D01*
X121373900Y-78799484D01*
X121225023Y-78440064D01*
X120949936Y-78164977D01*
X120590516Y-78016100D01*
X120201484Y-78016100D01*
X119842064Y-78164977D01*
X119566977Y-78440064D01*
X119418100Y-78799484D01*
X112765975Y-78799484D01*
X112970023Y-78595436D01*
X113118900Y-78236016D01*
X113118900Y-77846984D01*
X112970023Y-77487564D01*
X112694936Y-77212477D01*
X112335516Y-77063600D01*
X111946484Y-77063600D01*
X111587064Y-77212477D01*
X111311977Y-77487564D01*
X111163100Y-77846984D01*
X106637387Y-77846984D01*
X106620023Y-77805064D01*
X106344936Y-77529977D01*
X105985516Y-77381100D01*
X105596484Y-77381100D01*
X105237064Y-77529977D01*
X104961977Y-77805064D01*
X104813100Y-78164484D01*
X103085900Y-78164484D01*
X102937023Y-77805064D01*
X102661936Y-77529977D01*
X102302516Y-77381100D01*
X102108000Y-77381100D01*
X102108000Y-77021484D01*
X122021600Y-77021484D01*
X122021600Y-77410516D01*
X122170477Y-77769936D01*
X122445564Y-78045023D01*
X122804984Y-78193900D01*
X123194016Y-78193900D01*
X123553436Y-78045023D01*
X123828523Y-77769936D01*
X123977400Y-77410516D01*
X123977400Y-77021484D01*
X123828523Y-76662064D01*
X123553436Y-76386977D01*
X123194016Y-76238100D01*
X122804984Y-76238100D01*
X122445564Y-76386977D01*
X122170477Y-76662064D01*
X122021600Y-77021484D01*
X102108000Y-77021484D01*
X102108000Y-75396099D01*
X102305484Y-75477900D01*
X102694516Y-75477900D01*
X102953840Y-75370484D01*
X104178100Y-75370484D01*
X104178100Y-75759516D01*
X104326977Y-76118936D01*
X104602064Y-76394023D01*
X104961484Y-76542900D01*
X105350516Y-76542900D01*
X105709936Y-76394023D01*
X105985023Y-76118936D01*
X106133900Y-75759516D01*
X106133900Y-75370484D01*
X106038595Y-75140397D01*
X106358484Y-75272900D01*
X106747516Y-75272900D01*
X107106936Y-75124023D01*
X107241475Y-74989484D01*
X108051600Y-74989484D01*
X108051600Y-75378516D01*
X108200477Y-75737936D01*
X108475564Y-76013023D01*
X108834984Y-76161900D01*
X109224016Y-76161900D01*
X109583436Y-76013023D01*
X109858523Y-75737936D01*
X109958121Y-75497484D01*
X111925100Y-75497484D01*
X111925100Y-75886516D01*
X112073977Y-76245936D01*
X112349064Y-76521023D01*
X112708484Y-76669900D01*
X113097516Y-76669900D01*
X113456936Y-76521023D01*
X113732023Y-76245936D01*
X113880900Y-75886516D01*
X113880900Y-75497484D01*
X113732023Y-75138064D01*
X113456936Y-74862977D01*
X113097516Y-74714100D01*
X112708484Y-74714100D01*
X112349064Y-74862977D01*
X112073977Y-75138064D01*
X111925100Y-75497484D01*
X109958121Y-75497484D01*
X110007400Y-75378516D01*
X110007400Y-74989484D01*
X109858523Y-74630064D01*
X109583436Y-74354977D01*
X109547040Y-74339901D01*
X109646936Y-74298523D01*
X109922023Y-74023436D01*
X109926035Y-74013750D01*
X125331000Y-74013750D01*
X125331000Y-74454309D01*
X125427673Y-74687698D01*
X125606301Y-74866327D01*
X125839690Y-74963000D01*
X126280250Y-74963000D01*
X126439000Y-74804250D01*
X126439000Y-73855000D01*
X125489750Y-73855000D01*
X125331000Y-74013750D01*
X109926035Y-74013750D01*
X110070900Y-73664016D01*
X110070900Y-73274984D01*
X109922023Y-72915564D01*
X109646936Y-72640477D01*
X109287516Y-72491600D01*
X108898484Y-72491600D01*
X108539064Y-72640477D01*
X108263977Y-72915564D01*
X108115100Y-73274984D01*
X108115100Y-73664016D01*
X108263977Y-74023436D01*
X108539064Y-74298523D01*
X108575460Y-74313599D01*
X108475564Y-74354977D01*
X108200477Y-74630064D01*
X108051600Y-74989484D01*
X107241475Y-74989484D01*
X107382023Y-74848936D01*
X107530900Y-74489516D01*
X107530900Y-74100484D01*
X107382023Y-73741064D01*
X107106936Y-73465977D01*
X106747516Y-73317100D01*
X106358484Y-73317100D01*
X105999064Y-73465977D01*
X105723977Y-73741064D01*
X105575100Y-74100484D01*
X105575100Y-74489516D01*
X105670405Y-74719603D01*
X105350516Y-74587100D01*
X104961484Y-74587100D01*
X104602064Y-74735977D01*
X104326977Y-75011064D01*
X104178100Y-75370484D01*
X102953840Y-75370484D01*
X103053936Y-75329023D01*
X103329023Y-75053936D01*
X103477900Y-74694516D01*
X103477900Y-74305484D01*
X103329023Y-73946064D01*
X103053936Y-73670977D01*
X102694516Y-73522100D01*
X102305484Y-73522100D01*
X102108000Y-73603901D01*
X102108000Y-71433484D01*
X107035600Y-71433484D01*
X107035600Y-71822516D01*
X107184477Y-72181936D01*
X107459564Y-72457023D01*
X107818984Y-72605900D01*
X108208016Y-72605900D01*
X108567436Y-72457023D01*
X108842523Y-72181936D01*
X108991400Y-71822516D01*
X108991400Y-71433484D01*
X108842523Y-71074064D01*
X108567436Y-70798977D01*
X108208016Y-70650100D01*
X107818984Y-70650100D01*
X107459564Y-70798977D01*
X107184477Y-71074064D01*
X107035600Y-71433484D01*
X102108000Y-71433484D01*
X102108000Y-68173000D01*
X103081250Y-68173000D01*
X103240000Y-68014250D01*
X103240000Y-66665000D01*
X103494000Y-66665000D01*
X103494000Y-68014250D01*
X103652750Y-68173000D01*
X105293310Y-68173000D01*
X105526699Y-68076327D01*
X105705327Y-67897698D01*
X105802000Y-67664309D01*
X105802000Y-66823750D01*
X105643250Y-66665000D01*
X103494000Y-66665000D01*
X103240000Y-66665000D01*
X103220000Y-66665000D01*
X103220000Y-66480484D01*
X106845100Y-66480484D01*
X106845100Y-66869516D01*
X106974950Y-67183000D01*
X106845100Y-67496484D01*
X106845100Y-67885516D01*
X106993548Y-68243901D01*
X106908600Y-68448984D01*
X106908600Y-68838016D01*
X107057048Y-69196401D01*
X106972100Y-69401484D01*
X106972100Y-69790516D01*
X107120977Y-70149936D01*
X107396064Y-70425023D01*
X107755484Y-70573900D01*
X108144516Y-70573900D01*
X108215532Y-70544484D01*
X110274100Y-70544484D01*
X110274100Y-70933516D01*
X110422977Y-71292936D01*
X110698064Y-71568023D01*
X111027913Y-71704651D01*
X110761564Y-71814977D01*
X110486477Y-72090064D01*
X110337600Y-72449484D01*
X110337600Y-72838516D01*
X110486477Y-73197936D01*
X110761564Y-73473023D01*
X111120984Y-73621900D01*
X111510016Y-73621900D01*
X111869436Y-73473023D01*
X112144523Y-73197936D01*
X112225810Y-73001691D01*
X125331000Y-73001691D01*
X125331000Y-73442250D01*
X125489750Y-73601000D01*
X126439000Y-73601000D01*
X126439000Y-72651750D01*
X126280250Y-72493000D01*
X125839690Y-72493000D01*
X125606301Y-72589673D01*
X125427673Y-72768302D01*
X125331000Y-73001691D01*
X112225810Y-73001691D01*
X112293400Y-72838516D01*
X112293400Y-72449484D01*
X112144523Y-72090064D01*
X111869436Y-71814977D01*
X111539587Y-71678349D01*
X111805936Y-71568023D01*
X112081023Y-71292936D01*
X112229900Y-70933516D01*
X112229900Y-70544484D01*
X112182327Y-70429632D01*
X112208023Y-70403936D01*
X112356900Y-70044516D01*
X112356900Y-69655484D01*
X112208023Y-69296064D01*
X112034043Y-69122084D01*
X118960900Y-69122084D01*
X118960900Y-69511116D01*
X119109777Y-69870536D01*
X119384864Y-70145623D01*
X119744284Y-70294500D01*
X120133316Y-70294500D01*
X120492736Y-70145623D01*
X120767823Y-69870536D01*
X120916700Y-69511116D01*
X120916700Y-69122084D01*
X120767823Y-68762664D01*
X120515309Y-68510150D01*
X120780523Y-68244936D01*
X120929400Y-67885516D01*
X120929400Y-67496484D01*
X120780523Y-67137064D01*
X120505436Y-66861977D01*
X120146016Y-66713100D01*
X119756984Y-66713100D01*
X119397564Y-66861977D01*
X119122477Y-67137064D01*
X118973600Y-67496484D01*
X118973600Y-67885516D01*
X119122477Y-68244936D01*
X119374991Y-68497450D01*
X119109777Y-68762664D01*
X118960900Y-69122084D01*
X112034043Y-69122084D01*
X111932936Y-69020977D01*
X111573516Y-68872100D01*
X111184484Y-68872100D01*
X110825064Y-69020977D01*
X110549977Y-69296064D01*
X110401100Y-69655484D01*
X110401100Y-70044516D01*
X110448673Y-70159368D01*
X110422977Y-70185064D01*
X110274100Y-70544484D01*
X108215532Y-70544484D01*
X108503936Y-70425023D01*
X108779023Y-70149936D01*
X108927900Y-69790516D01*
X108927900Y-69401484D01*
X108779452Y-69043099D01*
X108864400Y-68838016D01*
X108864400Y-68448984D01*
X108715952Y-68090599D01*
X108800900Y-67885516D01*
X108800900Y-67496484D01*
X108671050Y-67183000D01*
X108800900Y-66869516D01*
X108800900Y-66543984D01*
X111290100Y-66543984D01*
X111290100Y-66933016D01*
X111438977Y-67292436D01*
X111714064Y-67567523D01*
X112073484Y-67716400D01*
X112462516Y-67716400D01*
X112821936Y-67567523D01*
X112892975Y-67496484D01*
X113830100Y-67496484D01*
X113830100Y-67885516D01*
X113978977Y-68244936D01*
X114254064Y-68520023D01*
X114613484Y-68668900D01*
X115002516Y-68668900D01*
X115361936Y-68520023D01*
X115570000Y-68311959D01*
X115778064Y-68520023D01*
X116137484Y-68668900D01*
X116526516Y-68668900D01*
X116885936Y-68520023D01*
X117161023Y-68244936D01*
X117303528Y-67900900D01*
X117517516Y-67900900D01*
X117876936Y-67752023D01*
X118152023Y-67476936D01*
X118300900Y-67117516D01*
X118300900Y-66728484D01*
X118152023Y-66369064D01*
X117876936Y-66093977D01*
X117517516Y-65945100D01*
X117128484Y-65945100D01*
X116769064Y-66093977D01*
X116493977Y-66369064D01*
X116351472Y-66713100D01*
X116137484Y-66713100D01*
X115778064Y-66861977D01*
X115570000Y-67070041D01*
X115361936Y-66861977D01*
X115002516Y-66713100D01*
X114613484Y-66713100D01*
X114254064Y-66861977D01*
X113978977Y-67137064D01*
X113830100Y-67496484D01*
X112892975Y-67496484D01*
X113097023Y-67292436D01*
X113245900Y-66933016D01*
X113245900Y-66543984D01*
X113097023Y-66184564D01*
X112821936Y-65909477D01*
X112462516Y-65760600D01*
X112073484Y-65760600D01*
X111714064Y-65909477D01*
X111438977Y-66184564D01*
X111290100Y-66543984D01*
X108800900Y-66543984D01*
X108800900Y-66480484D01*
X108652023Y-66121064D01*
X108376936Y-65845977D01*
X108017516Y-65697100D01*
X107628484Y-65697100D01*
X107269064Y-65845977D01*
X106993977Y-66121064D01*
X106845100Y-66480484D01*
X103220000Y-66480484D01*
X103220000Y-66411000D01*
X103240000Y-66411000D01*
X103240000Y-66391000D01*
X103494000Y-66391000D01*
X103494000Y-66411000D01*
X105643250Y-66411000D01*
X105802000Y-66252250D01*
X105802000Y-65411691D01*
X105771263Y-65337484D01*
X123736100Y-65337484D01*
X123736100Y-65726516D01*
X123884977Y-66085936D01*
X124160064Y-66361023D01*
X124519484Y-66509900D01*
X124908516Y-66509900D01*
X125267936Y-66361023D01*
X125543023Y-66085936D01*
X125680845Y-65753204D01*
X125839690Y-65819000D01*
X126280250Y-65819000D01*
X126439000Y-65660250D01*
X126439000Y-64711000D01*
X125489750Y-64711000D01*
X125382855Y-64817896D01*
X125267936Y-64702977D01*
X124908516Y-64554100D01*
X124519484Y-64554100D01*
X124160064Y-64702977D01*
X123884977Y-64978064D01*
X123736100Y-65337484D01*
X105771263Y-65337484D01*
X105705327Y-65178302D01*
X105526699Y-64999673D01*
X105293310Y-64903000D01*
X104223565Y-64903000D01*
X104243265Y-64855440D01*
X105592000Y-64855440D01*
X105839765Y-64806157D01*
X105859456Y-64793000D01*
X111494734Y-64793000D01*
X111572046Y-64808378D01*
X111649358Y-64793000D01*
X111649362Y-64793000D01*
X111878338Y-64747454D01*
X112137999Y-64573953D01*
X112181795Y-64508408D01*
X113715785Y-62974419D01*
X113652300Y-63127684D01*
X113652300Y-63516716D01*
X113801177Y-63876136D01*
X114076264Y-64151223D01*
X114435684Y-64300100D01*
X114824716Y-64300100D01*
X115184136Y-64151223D01*
X115459223Y-63876136D01*
X115466863Y-63857691D01*
X125331000Y-63857691D01*
X125331000Y-64298250D01*
X125489750Y-64457000D01*
X126439000Y-64457000D01*
X126439000Y-63507750D01*
X126280250Y-63349000D01*
X125839690Y-63349000D01*
X125606301Y-63445673D01*
X125427673Y-63624302D01*
X125331000Y-63857691D01*
X115466863Y-63857691D01*
X115608100Y-63516716D01*
X115608100Y-63127684D01*
X115459223Y-62768264D01*
X115265344Y-62574385D01*
X116647501Y-62574385D01*
X116647501Y-62963417D01*
X116796378Y-63322837D01*
X117071465Y-63597924D01*
X117430885Y-63746801D01*
X117819917Y-63746801D01*
X118179337Y-63597924D01*
X118454424Y-63322837D01*
X118603301Y-62963417D01*
X118603301Y-62574385D01*
X118454424Y-62214965D01*
X118179337Y-61939878D01*
X117819917Y-61791001D01*
X117430885Y-61791001D01*
X117071465Y-61939878D01*
X116796378Y-62214965D01*
X116647501Y-62574385D01*
X115265344Y-62574385D01*
X115184136Y-62493177D01*
X114824716Y-62344300D01*
X114435684Y-62344300D01*
X114282419Y-62407785D01*
X116300411Y-60389793D01*
X116365953Y-60345999D01*
X116409747Y-60280457D01*
X116409749Y-60280455D01*
X116539454Y-60086338D01*
X116547557Y-60045600D01*
X116585000Y-59857362D01*
X116585000Y-59857358D01*
X116592995Y-59817162D01*
X117132100Y-59278058D01*
X117132100Y-59630516D01*
X117280977Y-59989936D01*
X117556064Y-60265023D01*
X117765345Y-60351710D01*
X117670991Y-60446064D01*
X117522114Y-60805484D01*
X117522114Y-61194516D01*
X117670991Y-61553936D01*
X117946078Y-61829023D01*
X118305498Y-61977900D01*
X118694530Y-61977900D01*
X119053950Y-61829023D01*
X119329037Y-61553936D01*
X119477914Y-61194516D01*
X119477914Y-60805484D01*
X119329037Y-60446064D01*
X119053950Y-60170977D01*
X118844669Y-60084290D01*
X118939023Y-59989936D01*
X119087900Y-59630516D01*
X119087900Y-59241484D01*
X118939023Y-58882064D01*
X118828754Y-58771795D01*
X118859749Y-58725408D01*
X119850411Y-57734747D01*
X119915953Y-57690953D01*
X119959747Y-57625411D01*
X119959749Y-57625409D01*
X120089454Y-57431292D01*
X120101487Y-57370799D01*
X120135000Y-57202316D01*
X120135000Y-57202312D01*
X120150378Y-57125000D01*
X120135000Y-57047688D01*
X120135000Y-55327168D01*
X120148289Y-55318289D01*
X120197259Y-55245000D01*
X122272861Y-55245000D01*
X122128064Y-55304977D01*
G36*
X105522100Y-55299830D02*
X105670977Y-55659250D01*
X105946064Y-55934337D01*
X106305484Y-56083214D01*
X106694516Y-56083214D01*
X107053936Y-55934337D01*
X107329023Y-55659250D01*
X107477900Y-55299830D01*
X107477900Y-55245000D01*
X113164163Y-55245000D01*
X113211673Y-55359698D01*
X113390301Y-55538327D01*
X113623690Y-55635000D01*
X113964250Y-55635000D01*
X114123000Y-55476250D01*
X114123000Y-55245000D01*
X114377000Y-55245000D01*
X114377000Y-55476250D01*
X114535750Y-55635000D01*
X114876310Y-55635000D01*
X115061130Y-55558445D01*
X115077145Y-55569146D01*
X115408217Y-55635000D01*
X115631783Y-55635000D01*
X115962855Y-55569146D01*
X116155000Y-55440759D01*
X116347145Y-55569146D01*
X116678217Y-55635000D01*
X116901783Y-55635000D01*
X117232855Y-55569146D01*
X117425000Y-55440759D01*
X117617145Y-55569146D01*
X117948217Y-55635000D01*
X118171783Y-55635000D01*
X118502855Y-55569146D01*
X118565001Y-55527622D01*
X118565000Y-56799842D01*
X117924843Y-57440000D01*
X117152310Y-57440000D01*
X117074999Y-57424622D01*
X116997688Y-57440000D01*
X116997684Y-57440000D01*
X116768708Y-57485546D01*
X116692361Y-57536560D01*
X116574591Y-57615251D01*
X116574589Y-57615253D01*
X116509047Y-57659047D01*
X116465253Y-57724589D01*
X115299591Y-58890252D01*
X115234047Y-58934047D01*
X115060546Y-59193708D01*
X115015000Y-59422684D01*
X115015000Y-59422688D01*
X115007005Y-59462883D01*
X111246889Y-63223000D01*
X106239440Y-63223000D01*
X106239440Y-63173000D01*
X106216068Y-63055500D01*
X106239440Y-62938000D01*
X106239440Y-62538000D01*
X106216068Y-62420500D01*
X106239440Y-62303000D01*
X106239440Y-61903000D01*
X106220798Y-61809281D01*
X106227000Y-61794309D01*
X106227000Y-61726750D01*
X106198766Y-61698516D01*
X106190157Y-61655235D01*
X106049809Y-61445191D01*
X105934285Y-61368000D01*
X106068250Y-61368000D01*
X106227000Y-61209250D01*
X106227000Y-61141691D01*
X106130327Y-60908302D01*
X106051010Y-60828984D01*
X106273600Y-60828984D01*
X106273600Y-61218016D01*
X106422477Y-61577436D01*
X106697564Y-61852523D01*
X107056984Y-62001400D01*
X107446016Y-62001400D01*
X107805436Y-61852523D01*
X108080523Y-61577436D01*
X108229400Y-61218016D01*
X108229400Y-60828984D01*
X108141799Y-60617496D01*
X108263484Y-60667900D01*
X108652516Y-60667900D01*
X109011936Y-60519023D01*
X109287023Y-60243936D01*
X109435900Y-59884516D01*
X109435900Y-59778900D01*
X109541516Y-59778900D01*
X109900936Y-59630023D01*
X110176023Y-59354936D01*
X110324900Y-58995516D01*
X110324900Y-58606484D01*
X110176023Y-58247064D01*
X109900936Y-57971977D01*
X109541516Y-57823100D01*
X109152484Y-57823100D01*
X108793064Y-57971977D01*
X108517977Y-58247064D01*
X108369100Y-58606484D01*
X108369100Y-58712100D01*
X108263484Y-58712100D01*
X107904064Y-58860977D01*
X107628977Y-59136064D01*
X107480100Y-59495484D01*
X107480100Y-59884516D01*
X107567701Y-60096004D01*
X107446016Y-60045600D01*
X107056984Y-60045600D01*
X106697564Y-60194477D01*
X106422477Y-60469564D01*
X106273600Y-60828984D01*
X106051010Y-60828984D01*
X105951699Y-60729673D01*
X105718310Y-60633000D01*
X105187750Y-60633000D01*
X105029000Y-60791750D01*
X105029000Y-61255560D01*
X104775000Y-61255560D01*
X104775000Y-60791750D01*
X104616250Y-60633000D01*
X104085690Y-60633000D01*
X103852301Y-60729673D01*
X103673673Y-60908302D01*
X103577000Y-61141691D01*
X103577000Y-61209250D01*
X103735750Y-61368000D01*
X103869715Y-61368000D01*
X103754191Y-61445191D01*
X103613843Y-61655235D01*
X103605234Y-61698516D01*
X103577000Y-61726750D01*
X103577000Y-61794309D01*
X103583202Y-61809281D01*
X103564560Y-61903000D01*
X103564560Y-61951036D01*
X103554688Y-61953000D01*
X103554684Y-61953000D01*
X103325708Y-61998546D01*
X103131591Y-62128251D01*
X103131589Y-62128253D01*
X103066047Y-62172047D01*
X103022253Y-62237589D01*
X102483743Y-62776100D01*
X102421484Y-62776100D01*
X102108000Y-62905950D01*
X102108000Y-60573000D01*
X103081250Y-60573000D01*
X103240000Y-60414250D01*
X103240000Y-59065000D01*
X103494000Y-59065000D01*
X103494000Y-60414250D01*
X103652750Y-60573000D01*
X105293310Y-60573000D01*
X105526699Y-60476327D01*
X105705327Y-60297698D01*
X105802000Y-60064309D01*
X105802000Y-59223750D01*
X105643250Y-59065000D01*
X103494000Y-59065000D01*
X103240000Y-59065000D01*
X103220000Y-59065000D01*
X103220000Y-58811000D01*
X103240000Y-58811000D01*
X103240000Y-58791000D01*
X103494000Y-58791000D01*
X103494000Y-58811000D01*
X105643250Y-58811000D01*
X105802000Y-58652250D01*
X105802000Y-57811691D01*
X105705327Y-57578302D01*
X105577820Y-57450794D01*
X110083600Y-57450794D01*
X110083600Y-57839826D01*
X110232477Y-58199246D01*
X110507564Y-58474333D01*
X110866984Y-58623210D01*
X111256016Y-58623210D01*
X111615436Y-58474333D01*
X111890523Y-58199246D01*
X112039400Y-57839826D01*
X112039400Y-57450794D01*
X111890523Y-57091374D01*
X111615436Y-56816287D01*
X111256016Y-56667410D01*
X110866984Y-56667410D01*
X110507564Y-56816287D01*
X110232477Y-57091374D01*
X110083600Y-57450794D01*
X105577820Y-57450794D01*
X105526699Y-57399673D01*
X105293310Y-57303000D01*
X104535661Y-57303000D01*
X104721862Y-57116799D01*
X104986000Y-56479113D01*
X104986000Y-55788887D01*
X104760715Y-55245000D01*
X105522100Y-55245000D01*
X105522100Y-55299830D01*
X105522100Y-55299830D01*
G37*
X105522100Y-55299830D02*
X105670977Y-55659250D01*
X105946064Y-55934337D01*
X106305484Y-56083214D01*
X106694516Y-56083214D01*
X107053936Y-55934337D01*
X107329023Y-55659250D01*
X107477900Y-55299830D01*
X107477900Y-55245000D01*
X113164163Y-55245000D01*
X113211673Y-55359698D01*
X113390301Y-55538327D01*
X113623690Y-55635000D01*
X113964250Y-55635000D01*
X114123000Y-55476250D01*
X114123000Y-55245000D01*
X114377000Y-55245000D01*
X114377000Y-55476250D01*
X114535750Y-55635000D01*
X114876310Y-55635000D01*
X115061130Y-55558445D01*
X115077145Y-55569146D01*
X115408217Y-55635000D01*
X115631783Y-55635000D01*
X115962855Y-55569146D01*
X116155000Y-55440759D01*
X116347145Y-55569146D01*
X116678217Y-55635000D01*
X116901783Y-55635000D01*
X117232855Y-55569146D01*
X117425000Y-55440759D01*
X117617145Y-55569146D01*
X117948217Y-55635000D01*
X118171783Y-55635000D01*
X118502855Y-55569146D01*
X118565001Y-55527622D01*
X118565000Y-56799842D01*
X117924843Y-57440000D01*
X117152310Y-57440000D01*
X117074999Y-57424622D01*
X116997688Y-57440000D01*
X116997684Y-57440000D01*
X116768708Y-57485546D01*
X116692361Y-57536560D01*
X116574591Y-57615251D01*
X116574589Y-57615253D01*
X116509047Y-57659047D01*
X116465253Y-57724589D01*
X115299591Y-58890252D01*
X115234047Y-58934047D01*
X115060546Y-59193708D01*
X115015000Y-59422684D01*
X115015000Y-59422688D01*
X115007005Y-59462883D01*
X111246889Y-63223000D01*
X106239440Y-63223000D01*
X106239440Y-63173000D01*
X106216068Y-63055500D01*
X106239440Y-62938000D01*
X106239440Y-62538000D01*
X106216068Y-62420500D01*
X106239440Y-62303000D01*
X106239440Y-61903000D01*
X106220798Y-61809281D01*
X106227000Y-61794309D01*
X106227000Y-61726750D01*
X106198766Y-61698516D01*
X106190157Y-61655235D01*
X106049809Y-61445191D01*
X105934285Y-61368000D01*
X106068250Y-61368000D01*
X106227000Y-61209250D01*
X106227000Y-61141691D01*
X106130327Y-60908302D01*
X106051010Y-60828984D01*
X106273600Y-60828984D01*
X106273600Y-61218016D01*
X106422477Y-61577436D01*
X106697564Y-61852523D01*
X107056984Y-62001400D01*
X107446016Y-62001400D01*
X107805436Y-61852523D01*
X108080523Y-61577436D01*
X108229400Y-61218016D01*
X108229400Y-60828984D01*
X108141799Y-60617496D01*
X108263484Y-60667900D01*
X108652516Y-60667900D01*
X109011936Y-60519023D01*
X109287023Y-60243936D01*
X109435900Y-59884516D01*
X109435900Y-59778900D01*
X109541516Y-59778900D01*
X109900936Y-59630023D01*
X110176023Y-59354936D01*
X110324900Y-58995516D01*
X110324900Y-58606484D01*
X110176023Y-58247064D01*
X109900936Y-57971977D01*
X109541516Y-57823100D01*
X109152484Y-57823100D01*
X108793064Y-57971977D01*
X108517977Y-58247064D01*
X108369100Y-58606484D01*
X108369100Y-58712100D01*
X108263484Y-58712100D01*
X107904064Y-58860977D01*
X107628977Y-59136064D01*
X107480100Y-59495484D01*
X107480100Y-59884516D01*
X107567701Y-60096004D01*
X107446016Y-60045600D01*
X107056984Y-60045600D01*
X106697564Y-60194477D01*
X106422477Y-60469564D01*
X106273600Y-60828984D01*
X106051010Y-60828984D01*
X105951699Y-60729673D01*
X105718310Y-60633000D01*
X105187750Y-60633000D01*
X105029000Y-60791750D01*
X105029000Y-61255560D01*
X104775000Y-61255560D01*
X104775000Y-60791750D01*
X104616250Y-60633000D01*
X104085690Y-60633000D01*
X103852301Y-60729673D01*
X103673673Y-60908302D01*
X103577000Y-61141691D01*
X103577000Y-61209250D01*
X103735750Y-61368000D01*
X103869715Y-61368000D01*
X103754191Y-61445191D01*
X103613843Y-61655235D01*
X103605234Y-61698516D01*
X103577000Y-61726750D01*
X103577000Y-61794309D01*
X103583202Y-61809281D01*
X103564560Y-61903000D01*
X103564560Y-61951036D01*
X103554688Y-61953000D01*
X103554684Y-61953000D01*
X103325708Y-61998546D01*
X103131591Y-62128251D01*
X103131589Y-62128253D01*
X103066047Y-62172047D01*
X103022253Y-62237589D01*
X102483743Y-62776100D01*
X102421484Y-62776100D01*
X102108000Y-62905950D01*
X102108000Y-60573000D01*
X103081250Y-60573000D01*
X103240000Y-60414250D01*
X103240000Y-59065000D01*
X103494000Y-59065000D01*
X103494000Y-60414250D01*
X103652750Y-60573000D01*
X105293310Y-60573000D01*
X105526699Y-60476327D01*
X105705327Y-60297698D01*
X105802000Y-60064309D01*
X105802000Y-59223750D01*
X105643250Y-59065000D01*
X103494000Y-59065000D01*
X103240000Y-59065000D01*
X103220000Y-59065000D01*
X103220000Y-58811000D01*
X103240000Y-58811000D01*
X103240000Y-58791000D01*
X103494000Y-58791000D01*
X103494000Y-58811000D01*
X105643250Y-58811000D01*
X105802000Y-58652250D01*
X105802000Y-57811691D01*
X105705327Y-57578302D01*
X105577820Y-57450794D01*
X110083600Y-57450794D01*
X110083600Y-57839826D01*
X110232477Y-58199246D01*
X110507564Y-58474333D01*
X110866984Y-58623210D01*
X111256016Y-58623210D01*
X111615436Y-58474333D01*
X111890523Y-58199246D01*
X112039400Y-57839826D01*
X112039400Y-57450794D01*
X111890523Y-57091374D01*
X111615436Y-56816287D01*
X111256016Y-56667410D01*
X110866984Y-56667410D01*
X110507564Y-56816287D01*
X110232477Y-57091374D01*
X110083600Y-57450794D01*
X105577820Y-57450794D01*
X105526699Y-57399673D01*
X105293310Y-57303000D01*
X104535661Y-57303000D01*
X104721862Y-57116799D01*
X104986000Y-56479113D01*
X104986000Y-55788887D01*
X104760715Y-55245000D01*
X105522100Y-55245000D01*
X105522100Y-55299830D01*
G04 #@! TD*
M02*
