G04 #@! TF.GenerationSoftware,KiCad,Pcbnew,(5.0.1)-4*
G04 #@! TF.CreationDate,2019-02-22T18:58:47-06:00*
G04 #@! TF.ProjectId,epoch,65706F63682E6B696361645F70636200,rev?*
G04 #@! TF.SameCoordinates,Original*
G04 #@! TF.FileFunction,Soldermask,Top*
G04 #@! TF.FilePolarity,Negative*
%FSLAX46Y46*%
G04 Gerber Fmt 4.6, Leading zero omitted, Abs format (unit mm)*
G04 Created by KiCad (PCBNEW (5.0.1)-4) date 2/22/2019 6:58:47 PM*
%MOMM*%
%LPD*%
G01*
G04 APERTURE LIST*
%ADD10C,0.100000*%
G04 APERTURE END LIST*
D10*
G36*
X127828857Y-85683272D02*
X128029042Y-85766191D01*
X128209213Y-85886578D01*
X128362422Y-86039787D01*
X128482809Y-86219958D01*
X128565728Y-86420143D01*
X128608000Y-86632658D01*
X128608000Y-86849342D01*
X128565728Y-87061857D01*
X128482809Y-87262042D01*
X128362422Y-87442213D01*
X128209213Y-87595422D01*
X128029042Y-87715809D01*
X127828857Y-87798728D01*
X127616342Y-87841000D01*
X127399658Y-87841000D01*
X127187143Y-87798728D01*
X126986958Y-87715809D01*
X126806787Y-87595422D01*
X126653578Y-87442213D01*
X126533191Y-87262042D01*
X126450272Y-87061857D01*
X126408000Y-86849342D01*
X126408000Y-86632658D01*
X126450272Y-86420143D01*
X126533191Y-86219958D01*
X126653578Y-86039787D01*
X126806787Y-85886578D01*
X126986958Y-85766191D01*
X127187143Y-85683272D01*
X127399658Y-85641000D01*
X127616342Y-85641000D01*
X127828857Y-85683272D01*
X127828857Y-85683272D01*
G37*
G36*
X103444857Y-85556272D02*
X103645042Y-85639191D01*
X103645045Y-85639193D01*
X103811074Y-85750130D01*
X103825213Y-85759578D01*
X103978422Y-85912787D01*
X103978424Y-85912790D01*
X103978425Y-85912791D01*
X104012485Y-85963765D01*
X104098809Y-86092958D01*
X104181728Y-86293143D01*
X104224000Y-86505658D01*
X104224000Y-86722342D01*
X104181728Y-86934857D01*
X104098809Y-87135042D01*
X103978422Y-87315213D01*
X103825213Y-87468422D01*
X103645042Y-87588809D01*
X103444857Y-87671728D01*
X103232342Y-87714000D01*
X103015658Y-87714000D01*
X102803143Y-87671728D01*
X102602958Y-87588809D01*
X102422787Y-87468422D01*
X102269578Y-87315213D01*
X102149191Y-87135042D01*
X102066272Y-86934857D01*
X102024000Y-86722342D01*
X102024000Y-86505658D01*
X102066272Y-86293143D01*
X102149191Y-86092958D01*
X102235515Y-85963765D01*
X102269575Y-85912791D01*
X102269576Y-85912790D01*
X102269578Y-85912787D01*
X102422787Y-85759578D01*
X102436927Y-85750130D01*
X102602955Y-85639193D01*
X102602958Y-85639191D01*
X102803143Y-85556272D01*
X103015658Y-85514000D01*
X103232342Y-85514000D01*
X103444857Y-85556272D01*
X103444857Y-85556272D01*
G37*
G36*
X124325000Y-87241000D02*
X123325000Y-87241000D01*
X123325000Y-86241000D01*
X124325000Y-86241000D01*
X124325000Y-87241000D01*
X124325000Y-87241000D01*
G37*
G36*
X123923015Y-84978234D02*
X124017268Y-85006825D01*
X124063697Y-85031643D01*
X124104129Y-85053254D01*
X124104131Y-85053255D01*
X124104130Y-85053255D01*
X124180264Y-85115736D01*
X124242745Y-85191870D01*
X124289175Y-85278732D01*
X124317766Y-85372985D01*
X124327419Y-85471000D01*
X124317766Y-85569015D01*
X124289175Y-85663268D01*
X124278482Y-85683272D01*
X124242746Y-85750129D01*
X124180264Y-85826264D01*
X124104129Y-85888746D01*
X124063697Y-85910357D01*
X124017268Y-85935175D01*
X123923015Y-85963766D01*
X123849564Y-85971000D01*
X123800436Y-85971000D01*
X123726985Y-85963766D01*
X123632732Y-85935175D01*
X123586303Y-85910357D01*
X123545871Y-85888746D01*
X123469736Y-85826264D01*
X123407254Y-85750129D01*
X123371518Y-85683272D01*
X123360825Y-85663268D01*
X123332234Y-85569015D01*
X123322581Y-85471000D01*
X123332234Y-85372985D01*
X123360825Y-85278732D01*
X123407255Y-85191870D01*
X123469736Y-85115736D01*
X123545870Y-85053255D01*
X123545869Y-85053255D01*
X123545871Y-85053254D01*
X123586303Y-85031643D01*
X123632732Y-85006825D01*
X123726985Y-84978234D01*
X123800436Y-84971000D01*
X123849564Y-84971000D01*
X123923015Y-84978234D01*
X123923015Y-84978234D01*
G37*
G36*
X111750000Y-85273000D02*
X109750000Y-85273000D01*
X109750000Y-83973000D01*
X111750000Y-83973000D01*
X111750000Y-85273000D01*
X111750000Y-85273000D01*
G37*
G36*
X120850000Y-85273000D02*
X118850000Y-85273000D01*
X118850000Y-83973000D01*
X120850000Y-83973000D01*
X120850000Y-85273000D01*
X120850000Y-85273000D01*
G37*
G36*
X123923015Y-83708234D02*
X124017268Y-83736825D01*
X124063697Y-83761643D01*
X124104129Y-83783254D01*
X124104131Y-83783255D01*
X124104130Y-83783255D01*
X124180264Y-83845736D01*
X124242745Y-83921870D01*
X124289175Y-84008732D01*
X124317766Y-84102985D01*
X124327419Y-84201000D01*
X124317766Y-84299015D01*
X124289175Y-84393268D01*
X124264357Y-84439697D01*
X124242746Y-84480129D01*
X124180264Y-84556264D01*
X124104129Y-84618746D01*
X124063697Y-84640357D01*
X124017268Y-84665175D01*
X123923015Y-84693766D01*
X123849564Y-84701000D01*
X123800436Y-84701000D01*
X123726985Y-84693766D01*
X123632732Y-84665175D01*
X123586303Y-84640357D01*
X123545871Y-84618746D01*
X123469736Y-84556264D01*
X123407254Y-84480129D01*
X123385643Y-84439697D01*
X123360825Y-84393268D01*
X123332234Y-84299015D01*
X123322581Y-84201000D01*
X123332234Y-84102985D01*
X123360825Y-84008732D01*
X123407255Y-83921870D01*
X123469736Y-83845736D01*
X123545870Y-83783255D01*
X123545869Y-83783255D01*
X123545871Y-83783254D01*
X123586303Y-83761643D01*
X123632732Y-83736825D01*
X123726985Y-83708234D01*
X123800436Y-83701000D01*
X123849564Y-83701000D01*
X123923015Y-83708234D01*
X123923015Y-83708234D01*
G37*
G36*
X123923015Y-82438234D02*
X124017268Y-82466825D01*
X124063697Y-82491643D01*
X124104129Y-82513254D01*
X124104131Y-82513255D01*
X124104130Y-82513255D01*
X124180264Y-82575736D01*
X124242745Y-82651870D01*
X124289175Y-82738732D01*
X124317766Y-82832985D01*
X124327419Y-82931000D01*
X124317766Y-83029015D01*
X124289175Y-83123268D01*
X124264357Y-83169697D01*
X124242746Y-83210129D01*
X124180264Y-83286264D01*
X124104129Y-83348746D01*
X124063697Y-83370357D01*
X124017268Y-83395175D01*
X123923015Y-83423766D01*
X123849564Y-83431000D01*
X123800436Y-83431000D01*
X123726985Y-83423766D01*
X123632732Y-83395175D01*
X123586303Y-83370357D01*
X123545871Y-83348746D01*
X123469736Y-83286264D01*
X123407254Y-83210129D01*
X123385643Y-83169697D01*
X123360825Y-83123268D01*
X123332234Y-83029015D01*
X123322581Y-82931000D01*
X123332234Y-82832985D01*
X123360825Y-82738732D01*
X123407255Y-82651870D01*
X123469736Y-82575736D01*
X123545870Y-82513255D01*
X123545869Y-82513255D01*
X123545871Y-82513254D01*
X123586303Y-82491643D01*
X123632732Y-82466825D01*
X123726985Y-82438234D01*
X123800436Y-82431000D01*
X123849564Y-82431000D01*
X123923015Y-82438234D01*
X123923015Y-82438234D01*
G37*
G36*
X107114500Y-83026000D02*
X105864500Y-83026000D01*
X105864500Y-81526000D01*
X107114500Y-81526000D01*
X107114500Y-83026000D01*
X107114500Y-83026000D01*
G37*
G36*
X105209500Y-83026000D02*
X103959500Y-83026000D01*
X103959500Y-81526000D01*
X105209500Y-81526000D01*
X105209500Y-83026000D01*
X105209500Y-83026000D01*
G37*
G36*
X103304500Y-83026000D02*
X102054500Y-83026000D01*
X102054500Y-81526000D01*
X103304500Y-81526000D01*
X103304500Y-83026000D01*
X103304500Y-83026000D01*
G37*
G36*
X117700000Y-82423000D02*
X112900000Y-82423000D01*
X112900000Y-81423000D01*
X117700000Y-81423000D01*
X117700000Y-82423000D01*
X117700000Y-82423000D01*
G37*
G36*
X128147260Y-81489293D02*
X128229155Y-81523215D01*
X128302861Y-81572464D01*
X128365536Y-81635139D01*
X128414785Y-81708845D01*
X128448707Y-81790740D01*
X128466000Y-81877678D01*
X128466000Y-81966322D01*
X128448707Y-82053260D01*
X128414785Y-82135155D01*
X128365536Y-82208861D01*
X128302861Y-82271536D01*
X128229155Y-82320785D01*
X128147260Y-82354707D01*
X128060322Y-82372000D01*
X127971678Y-82372000D01*
X127884740Y-82354707D01*
X127802845Y-82320785D01*
X127729139Y-82271536D01*
X127666464Y-82208861D01*
X127617215Y-82135155D01*
X127583293Y-82053260D01*
X127566000Y-81966322D01*
X127566000Y-81877678D01*
X127583293Y-81790740D01*
X127617215Y-81708845D01*
X127666464Y-81635139D01*
X127729139Y-81572464D01*
X127802845Y-81523215D01*
X127884740Y-81489293D01*
X127971678Y-81472000D01*
X128060322Y-81472000D01*
X128147260Y-81489293D01*
X128147260Y-81489293D01*
G37*
G36*
X123923015Y-81168234D02*
X124017268Y-81196825D01*
X124063697Y-81221643D01*
X124104129Y-81243254D01*
X124104131Y-81243255D01*
X124104130Y-81243255D01*
X124180264Y-81305736D01*
X124242745Y-81381870D01*
X124289175Y-81468732D01*
X124317766Y-81562985D01*
X124327419Y-81661000D01*
X124317766Y-81759015D01*
X124289175Y-81853268D01*
X124264357Y-81899697D01*
X124242746Y-81940129D01*
X124180264Y-82016264D01*
X124104129Y-82078746D01*
X124063697Y-82100357D01*
X124017268Y-82125175D01*
X123923015Y-82153766D01*
X123849564Y-82161000D01*
X123800436Y-82161000D01*
X123726985Y-82153766D01*
X123632732Y-82125175D01*
X123586303Y-82100357D01*
X123545871Y-82078746D01*
X123469736Y-82016264D01*
X123407254Y-81940129D01*
X123385643Y-81899697D01*
X123360825Y-81853268D01*
X123332234Y-81759015D01*
X123322581Y-81661000D01*
X123332234Y-81562985D01*
X123360825Y-81468732D01*
X123407255Y-81381870D01*
X123469736Y-81305736D01*
X123545870Y-81243255D01*
X123545869Y-81243255D01*
X123545871Y-81243254D01*
X123586303Y-81221643D01*
X123632732Y-81196825D01*
X123726985Y-81168234D01*
X123800436Y-81161000D01*
X123849564Y-81161000D01*
X123923015Y-81168234D01*
X123923015Y-81168234D01*
G37*
G36*
X103304500Y-80526000D02*
X102054500Y-80526000D01*
X102054500Y-79026000D01*
X103304500Y-79026000D01*
X103304500Y-80526000D01*
X103304500Y-80526000D01*
G37*
G36*
X107114500Y-80526000D02*
X105864500Y-80526000D01*
X105864500Y-79026000D01*
X107114500Y-79026000D01*
X107114500Y-80526000D01*
X107114500Y-80526000D01*
G37*
G36*
X105209500Y-80526000D02*
X103959500Y-80526000D01*
X103959500Y-79026000D01*
X105209500Y-79026000D01*
X105209500Y-80526000D01*
X105209500Y-80526000D01*
G37*
G36*
X109616000Y-80205000D02*
X108316000Y-80205000D01*
X108316000Y-78705000D01*
X109616000Y-78705000D01*
X109616000Y-80205000D01*
X109616000Y-80205000D01*
G37*
G36*
X112483000Y-80185000D02*
X112083000Y-80185000D01*
X112083000Y-78685000D01*
X112483000Y-78685000D01*
X112483000Y-80185000D01*
X112483000Y-80185000D01*
G37*
G36*
X111183000Y-80185000D02*
X110783000Y-80185000D01*
X110783000Y-78685000D01*
X111183000Y-78685000D01*
X111183000Y-80185000D01*
X111183000Y-80185000D01*
G37*
G36*
X115705000Y-80127000D02*
X114205000Y-80127000D01*
X114205000Y-78877000D01*
X115705000Y-78877000D01*
X115705000Y-80127000D01*
X115705000Y-80127000D01*
G37*
G36*
X118205000Y-80127000D02*
X116705000Y-80127000D01*
X116705000Y-78877000D01*
X118205000Y-78877000D01*
X118205000Y-80127000D01*
X118205000Y-80127000D01*
G37*
G36*
X128147260Y-79189293D02*
X128229155Y-79223215D01*
X128302861Y-79272464D01*
X128365536Y-79335139D01*
X128414785Y-79408845D01*
X128448707Y-79490740D01*
X128466000Y-79577678D01*
X128466000Y-79666322D01*
X128448707Y-79753260D01*
X128414785Y-79835155D01*
X128365536Y-79908861D01*
X128302861Y-79971536D01*
X128229155Y-80020785D01*
X128147260Y-80054707D01*
X128060322Y-80072000D01*
X127971678Y-80072000D01*
X127884740Y-80054707D01*
X127802845Y-80020785D01*
X127729139Y-79971536D01*
X127666464Y-79908861D01*
X127617215Y-79835155D01*
X127583293Y-79753260D01*
X127566000Y-79666322D01*
X127566000Y-79577678D01*
X127583293Y-79490740D01*
X127617215Y-79408845D01*
X127666464Y-79335139D01*
X127729139Y-79272464D01*
X127802845Y-79223215D01*
X127884740Y-79189293D01*
X127971678Y-79172000D01*
X128060322Y-79172000D01*
X128147260Y-79189293D01*
X128147260Y-79189293D01*
G37*
G36*
X125353500Y-79898000D02*
X123853500Y-79898000D01*
X123853500Y-78598000D01*
X125353500Y-78598000D01*
X125353500Y-79898000D01*
X125353500Y-79898000D01*
G37*
G36*
X122653500Y-79898000D02*
X121153500Y-79898000D01*
X121153500Y-78598000D01*
X122653500Y-78598000D01*
X122653500Y-79898000D01*
X122653500Y-79898000D01*
G37*
G36*
X123729500Y-77841000D02*
X122229500Y-77841000D01*
X122229500Y-76591000D01*
X123729500Y-76591000D01*
X123729500Y-77841000D01*
X123729500Y-77841000D01*
G37*
G36*
X121229500Y-77841000D02*
X119729500Y-77841000D01*
X119729500Y-76591000D01*
X121229500Y-76591000D01*
X121229500Y-77841000D01*
X121229500Y-77841000D01*
G37*
G36*
X106341500Y-77792500D02*
X105281500Y-77792500D01*
X105281500Y-77142500D01*
X106341500Y-77142500D01*
X106341500Y-77792500D01*
X106341500Y-77792500D01*
G37*
G36*
X104141500Y-77792500D02*
X103081500Y-77792500D01*
X103081500Y-77142500D01*
X104141500Y-77142500D01*
X104141500Y-77792500D01*
X104141500Y-77792500D01*
G37*
G36*
X115070000Y-77777500D02*
X113570000Y-77777500D01*
X113570000Y-76527500D01*
X115070000Y-76527500D01*
X115070000Y-77777500D01*
X115070000Y-77777500D01*
G37*
G36*
X117570000Y-77777500D02*
X116070000Y-77777500D01*
X116070000Y-76527500D01*
X117570000Y-76527500D01*
X117570000Y-77777500D01*
X117570000Y-77777500D01*
G37*
G36*
X119370000Y-77755500D02*
X118120000Y-77755500D01*
X118120000Y-76255500D01*
X119370000Y-76255500D01*
X119370000Y-77755500D01*
X119370000Y-77755500D01*
G37*
G36*
X112483000Y-77525000D02*
X110783000Y-77525000D01*
X110783000Y-76025000D01*
X112483000Y-76025000D01*
X112483000Y-77525000D01*
X112483000Y-77525000D01*
G37*
G36*
X109616000Y-77505000D02*
X108316000Y-77505000D01*
X108316000Y-76005000D01*
X109616000Y-76005000D01*
X109616000Y-77505000D01*
X109616000Y-77505000D01*
G37*
G36*
X104141500Y-76842500D02*
X103081500Y-76842500D01*
X103081500Y-76192500D01*
X104141500Y-76192500D01*
X104141500Y-76842500D01*
X104141500Y-76842500D01*
G37*
G36*
X106341500Y-75892500D02*
X105281500Y-75892500D01*
X105281500Y-75242500D01*
X106341500Y-75242500D01*
X106341500Y-75892500D01*
X106341500Y-75892500D01*
G37*
G36*
X104141500Y-75892500D02*
X103081500Y-75892500D01*
X103081500Y-75242500D01*
X104141500Y-75242500D01*
X104141500Y-75892500D01*
X104141500Y-75892500D01*
G37*
G36*
X119370000Y-75255500D02*
X118120000Y-75255500D01*
X118120000Y-73755500D01*
X119370000Y-73755500D01*
X119370000Y-75255500D01*
X119370000Y-75255500D01*
G37*
G36*
X117248000Y-74773000D02*
X111098000Y-74773000D01*
X111098000Y-73173000D01*
X117248000Y-73173000D01*
X117248000Y-74773000D01*
X117248000Y-74773000D01*
G37*
G36*
X128147260Y-72345293D02*
X128229155Y-72379215D01*
X128302861Y-72428464D01*
X128365536Y-72491139D01*
X128414785Y-72564845D01*
X128448707Y-72646740D01*
X128466000Y-72733678D01*
X128466000Y-72822322D01*
X128448707Y-72909260D01*
X128414785Y-72991155D01*
X128365536Y-73064861D01*
X128302861Y-73127536D01*
X128229155Y-73176785D01*
X128147260Y-73210707D01*
X128060322Y-73228000D01*
X127971678Y-73228000D01*
X127884740Y-73210707D01*
X127802845Y-73176785D01*
X127729139Y-73127536D01*
X127666464Y-73064861D01*
X127617215Y-72991155D01*
X127583293Y-72909260D01*
X127566000Y-72822322D01*
X127566000Y-72733678D01*
X127583293Y-72646740D01*
X127617215Y-72564845D01*
X127666464Y-72491139D01*
X127729139Y-72428464D01*
X127802845Y-72379215D01*
X127884740Y-72345293D01*
X127971678Y-72328000D01*
X128060322Y-72328000D01*
X128147260Y-72345293D01*
X128147260Y-72345293D01*
G37*
G36*
X119223000Y-72798000D02*
X117623000Y-72798000D01*
X117623000Y-66648000D01*
X119223000Y-66648000D01*
X119223000Y-72798000D01*
X119223000Y-72798000D01*
G37*
G36*
X110723000Y-72798000D02*
X109123000Y-72798000D01*
X109123000Y-66648000D01*
X110723000Y-66648000D01*
X110723000Y-72798000D01*
X110723000Y-72798000D01*
G37*
G36*
X128147260Y-70045293D02*
X128229155Y-70079215D01*
X128302861Y-70128464D01*
X128365536Y-70191139D01*
X128414785Y-70264845D01*
X128448707Y-70346740D01*
X128466000Y-70433678D01*
X128466000Y-70522322D01*
X128448707Y-70609260D01*
X128414785Y-70691155D01*
X128365536Y-70764861D01*
X128302861Y-70827536D01*
X128229155Y-70876785D01*
X128147260Y-70910707D01*
X128060322Y-70928000D01*
X127971678Y-70928000D01*
X127884740Y-70910707D01*
X127802845Y-70876785D01*
X127729139Y-70827536D01*
X127666464Y-70764861D01*
X127617215Y-70691155D01*
X127583293Y-70609260D01*
X127566000Y-70522322D01*
X127566000Y-70433678D01*
X127583293Y-70346740D01*
X127617215Y-70264845D01*
X127666464Y-70191139D01*
X127729139Y-70128464D01*
X127802845Y-70079215D01*
X127884740Y-70045293D01*
X127971678Y-70028000D01*
X128060322Y-70028000D01*
X128147260Y-70045293D01*
X128147260Y-70045293D01*
G37*
G36*
X127713500Y-69092500D02*
X126413500Y-69092500D01*
X126413500Y-67592500D01*
X127713500Y-67592500D01*
X127713500Y-69092500D01*
X127713500Y-69092500D01*
G37*
G36*
X125822000Y-68375000D02*
X124622000Y-68375000D01*
X124622000Y-67175000D01*
X125822000Y-67175000D01*
X125822000Y-68375000D01*
X125822000Y-68375000D01*
G37*
G36*
X127713500Y-66392500D02*
X126413500Y-66392500D01*
X126413500Y-64892500D01*
X127713500Y-64892500D01*
X127713500Y-66392500D01*
X127713500Y-66392500D01*
G37*
G36*
X117248000Y-66273000D02*
X111098000Y-66273000D01*
X111098000Y-64673000D01*
X117248000Y-64673000D01*
X117248000Y-66273000D01*
X117248000Y-66273000D01*
G37*
G36*
X125822000Y-66175000D02*
X124622000Y-66175000D01*
X124622000Y-64975000D01*
X125822000Y-64975000D01*
X125822000Y-66175000D01*
X125822000Y-66175000D01*
G37*
G36*
X119515000Y-66030000D02*
X118015000Y-66030000D01*
X118015000Y-64780000D01*
X119515000Y-64780000D01*
X119515000Y-66030000D01*
X119515000Y-66030000D01*
G37*
G36*
X122015000Y-66030000D02*
X120515000Y-66030000D01*
X120515000Y-64780000D01*
X122015000Y-64780000D01*
X122015000Y-66030000D01*
X122015000Y-66030000D01*
G37*
G36*
X128147260Y-63201293D02*
X128229155Y-63235215D01*
X128302861Y-63284464D01*
X128365536Y-63347139D01*
X128414785Y-63420845D01*
X128448707Y-63502740D01*
X128466000Y-63589678D01*
X128466000Y-63678322D01*
X128448707Y-63765260D01*
X128414785Y-63847155D01*
X128365536Y-63920861D01*
X128302861Y-63983536D01*
X128229155Y-64032785D01*
X128147260Y-64066707D01*
X128060322Y-64084000D01*
X127971678Y-64084000D01*
X127884740Y-64066707D01*
X127802845Y-64032785D01*
X127729139Y-63983536D01*
X127666464Y-63920861D01*
X127617215Y-63847155D01*
X127583293Y-63765260D01*
X127566000Y-63678322D01*
X127566000Y-63589678D01*
X127583293Y-63502740D01*
X127617215Y-63420845D01*
X127666464Y-63347139D01*
X127729139Y-63284464D01*
X127802845Y-63235215D01*
X127884740Y-63201293D01*
X127971678Y-63184000D01*
X128060322Y-63184000D01*
X128147260Y-63201293D01*
X128147260Y-63201293D01*
G37*
G36*
X113782000Y-63976000D02*
X112532000Y-63976000D01*
X112532000Y-62476000D01*
X113782000Y-62476000D01*
X113782000Y-63976000D01*
X113782000Y-63976000D01*
G37*
G36*
X112060000Y-62593500D02*
X110510000Y-62593500D01*
X110510000Y-61993500D01*
X112060000Y-61993500D01*
X112060000Y-62593500D01*
X112060000Y-62593500D01*
G37*
G36*
X106660000Y-62593500D02*
X105110000Y-62593500D01*
X105110000Y-61993500D01*
X106660000Y-61993500D01*
X106660000Y-62593500D01*
X106660000Y-62593500D01*
G37*
G36*
X121902500Y-62466500D02*
X120352500Y-62466500D01*
X120352500Y-61866500D01*
X121902500Y-61866500D01*
X121902500Y-62466500D01*
X121902500Y-62466500D01*
G37*
G36*
X116502500Y-62466500D02*
X114952500Y-62466500D01*
X114952500Y-61866500D01*
X116502500Y-61866500D01*
X116502500Y-62466500D01*
X116502500Y-62466500D01*
G37*
G36*
X128147260Y-60901293D02*
X128229155Y-60935215D01*
X128302861Y-60984464D01*
X128365536Y-61047139D01*
X128414785Y-61120845D01*
X128448707Y-61202740D01*
X128466000Y-61289678D01*
X128466000Y-61378322D01*
X128448707Y-61465260D01*
X128414785Y-61547155D01*
X128365536Y-61620861D01*
X128302861Y-61683536D01*
X128229155Y-61732785D01*
X128147260Y-61766707D01*
X128060322Y-61784000D01*
X127971678Y-61784000D01*
X127884740Y-61766707D01*
X127802845Y-61732785D01*
X127729139Y-61683536D01*
X127666464Y-61620861D01*
X127617215Y-61547155D01*
X127583293Y-61465260D01*
X127566000Y-61378322D01*
X127566000Y-61289678D01*
X127583293Y-61202740D01*
X127617215Y-61120845D01*
X127666464Y-61047139D01*
X127729139Y-60984464D01*
X127802845Y-60935215D01*
X127884740Y-60901293D01*
X127971678Y-60884000D01*
X128060322Y-60884000D01*
X128147260Y-60901293D01*
X128147260Y-60901293D01*
G37*
G36*
X113782000Y-61476000D02*
X112532000Y-61476000D01*
X112532000Y-59976000D01*
X113782000Y-59976000D01*
X113782000Y-61476000D01*
X113782000Y-61476000D01*
G37*
G36*
X106660000Y-61323500D02*
X105110000Y-61323500D01*
X105110000Y-60723500D01*
X106660000Y-60723500D01*
X106660000Y-61323500D01*
X106660000Y-61323500D01*
G37*
G36*
X112060000Y-61323500D02*
X110510000Y-61323500D01*
X110510000Y-60723500D01*
X112060000Y-60723500D01*
X112060000Y-61323500D01*
X112060000Y-61323500D01*
G37*
G36*
X116502500Y-61196500D02*
X114952500Y-61196500D01*
X114952500Y-60596500D01*
X116502500Y-60596500D01*
X116502500Y-61196500D01*
X116502500Y-61196500D01*
G37*
G36*
X121902500Y-61196500D02*
X120352500Y-61196500D01*
X120352500Y-60596500D01*
X121902500Y-60596500D01*
X121902500Y-61196500D01*
X121902500Y-61196500D01*
G37*
G36*
X106660000Y-60053500D02*
X105110000Y-60053500D01*
X105110000Y-59453500D01*
X106660000Y-59453500D01*
X106660000Y-60053500D01*
X106660000Y-60053500D01*
G37*
G36*
X112060000Y-60053500D02*
X110510000Y-60053500D01*
X110510000Y-59453500D01*
X112060000Y-59453500D01*
X112060000Y-60053500D01*
X112060000Y-60053500D01*
G37*
G36*
X121902500Y-59926500D02*
X120352500Y-59926500D01*
X120352500Y-59326500D01*
X121902500Y-59326500D01*
X121902500Y-59926500D01*
X121902500Y-59926500D01*
G37*
G36*
X116502500Y-59926500D02*
X114952500Y-59926500D01*
X114952500Y-59326500D01*
X116502500Y-59326500D01*
X116502500Y-59926500D01*
X116502500Y-59926500D01*
G37*
G36*
X112060000Y-58783500D02*
X110510000Y-58783500D01*
X110510000Y-58183500D01*
X112060000Y-58183500D01*
X112060000Y-58783500D01*
X112060000Y-58783500D01*
G37*
G36*
X106660000Y-58783500D02*
X105110000Y-58783500D01*
X105110000Y-58183500D01*
X106660000Y-58183500D01*
X106660000Y-58783500D01*
X106660000Y-58783500D01*
G37*
G36*
X121902500Y-58656500D02*
X120352500Y-58656500D01*
X120352500Y-58056500D01*
X121902500Y-58056500D01*
X121902500Y-58656500D01*
X121902500Y-58656500D01*
G37*
G36*
X116502500Y-58656500D02*
X114952500Y-58656500D01*
X114952500Y-58056500D01*
X116502500Y-58056500D01*
X116502500Y-58656500D01*
X116502500Y-58656500D01*
G37*
G36*
X127701857Y-55330272D02*
X127902042Y-55413191D01*
X128082213Y-55533578D01*
X128235422Y-55686787D01*
X128355809Y-55866958D01*
X128438728Y-56067143D01*
X128481000Y-56279658D01*
X128481000Y-56496342D01*
X128438728Y-56708857D01*
X128355809Y-56909042D01*
X128235422Y-57089213D01*
X128082213Y-57242422D01*
X127902042Y-57362809D01*
X127701857Y-57445728D01*
X127489342Y-57488000D01*
X127272658Y-57488000D01*
X127060143Y-57445728D01*
X126859958Y-57362809D01*
X126679787Y-57242422D01*
X126526578Y-57089213D01*
X126406191Y-56909042D01*
X126323272Y-56708857D01*
X126281000Y-56496342D01*
X126281000Y-56279658D01*
X126323272Y-56067143D01*
X126406191Y-55866958D01*
X126526578Y-55686787D01*
X126679787Y-55533578D01*
X126859958Y-55413191D01*
X127060143Y-55330272D01*
X127272658Y-55288000D01*
X127489342Y-55288000D01*
X127701857Y-55330272D01*
X127701857Y-55330272D01*
G37*
G36*
X103571857Y-55076272D02*
X103772042Y-55159191D01*
X103952213Y-55279578D01*
X104105422Y-55432787D01*
X104225809Y-55612958D01*
X104308728Y-55813143D01*
X104351000Y-56025658D01*
X104351000Y-56242342D01*
X104308728Y-56454857D01*
X104225809Y-56655042D01*
X104105422Y-56835213D01*
X103952213Y-56988422D01*
X103772042Y-57108809D01*
X103571857Y-57191728D01*
X103359342Y-57234000D01*
X103142658Y-57234000D01*
X102930143Y-57191728D01*
X102729958Y-57108809D01*
X102549787Y-56988422D01*
X102396578Y-56835213D01*
X102276191Y-56655042D01*
X102193272Y-56454857D01*
X102151000Y-56242342D01*
X102151000Y-56025658D01*
X102193272Y-55813143D01*
X102276191Y-55612958D01*
X102396578Y-55432787D01*
X102549787Y-55279578D01*
X102729958Y-55159191D01*
X102930143Y-55076272D01*
X103142658Y-55034000D01*
X103359342Y-55034000D01*
X103571857Y-55076272D01*
X103571857Y-55076272D01*
G37*
G36*
X116971500Y-56911000D02*
X115471500Y-56911000D01*
X115471500Y-55611000D01*
X116971500Y-55611000D01*
X116971500Y-56911000D01*
X116971500Y-56911000D01*
G37*
G36*
X123258000Y-56911000D02*
X121758000Y-56911000D01*
X121758000Y-55611000D01*
X123258000Y-55611000D01*
X123258000Y-56911000D01*
X123258000Y-56911000D01*
G37*
G36*
X120558000Y-56911000D02*
X119058000Y-56911000D01*
X119058000Y-55611000D01*
X120558000Y-55611000D01*
X120558000Y-56911000D01*
X120558000Y-56911000D01*
G37*
G36*
X114271500Y-56911000D02*
X112771500Y-56911000D01*
X112771500Y-55611000D01*
X114271500Y-55611000D01*
X114271500Y-56911000D01*
X114271500Y-56911000D01*
G37*
G36*
X108874000Y-56847500D02*
X107374000Y-56847500D01*
X107374000Y-55547500D01*
X108874000Y-55547500D01*
X108874000Y-56847500D01*
X108874000Y-56847500D01*
G37*
G36*
X111574000Y-56847500D02*
X110074000Y-56847500D01*
X110074000Y-55547500D01*
X111574000Y-55547500D01*
X111574000Y-56847500D01*
X111574000Y-56847500D01*
G37*
G36*
X118158015Y-54007234D02*
X118252268Y-54035825D01*
X118298697Y-54060643D01*
X118339129Y-54082254D01*
X118339131Y-54082255D01*
X118339130Y-54082255D01*
X118415264Y-54144736D01*
X118477745Y-54220870D01*
X118524175Y-54307732D01*
X118552766Y-54401985D01*
X118562419Y-54500000D01*
X118552766Y-54598015D01*
X118524175Y-54692268D01*
X118499357Y-54738697D01*
X118477746Y-54779129D01*
X118415264Y-54855264D01*
X118339129Y-54917746D01*
X118298697Y-54939357D01*
X118252268Y-54964175D01*
X118158015Y-54992766D01*
X118084564Y-55000000D01*
X118035436Y-55000000D01*
X117961985Y-54992766D01*
X117867732Y-54964175D01*
X117821303Y-54939357D01*
X117780871Y-54917746D01*
X117704736Y-54855264D01*
X117642254Y-54779129D01*
X117620643Y-54738697D01*
X117595825Y-54692268D01*
X117567234Y-54598015D01*
X117557581Y-54500000D01*
X117567234Y-54401985D01*
X117595825Y-54307732D01*
X117642255Y-54220870D01*
X117704736Y-54144736D01*
X117780870Y-54082255D01*
X117780869Y-54082255D01*
X117780871Y-54082254D01*
X117821303Y-54060643D01*
X117867732Y-54035825D01*
X117961985Y-54007234D01*
X118035436Y-54000000D01*
X118084564Y-54000000D01*
X118158015Y-54007234D01*
X118158015Y-54007234D01*
G37*
G36*
X116888015Y-54007234D02*
X116982268Y-54035825D01*
X117028697Y-54060643D01*
X117069129Y-54082254D01*
X117069131Y-54082255D01*
X117069130Y-54082255D01*
X117145264Y-54144736D01*
X117207745Y-54220870D01*
X117254175Y-54307732D01*
X117282766Y-54401985D01*
X117292419Y-54500000D01*
X117282766Y-54598015D01*
X117254175Y-54692268D01*
X117229357Y-54738697D01*
X117207746Y-54779129D01*
X117145264Y-54855264D01*
X117069129Y-54917746D01*
X117028697Y-54939357D01*
X116982268Y-54964175D01*
X116888015Y-54992766D01*
X116814564Y-55000000D01*
X116765436Y-55000000D01*
X116691985Y-54992766D01*
X116597732Y-54964175D01*
X116551303Y-54939357D01*
X116510871Y-54917746D01*
X116434736Y-54855264D01*
X116372254Y-54779129D01*
X116350643Y-54738697D01*
X116325825Y-54692268D01*
X116297234Y-54598015D01*
X116287581Y-54500000D01*
X116297234Y-54401985D01*
X116325825Y-54307732D01*
X116372255Y-54220870D01*
X116434736Y-54144736D01*
X116510870Y-54082255D01*
X116510869Y-54082255D01*
X116510871Y-54082254D01*
X116551303Y-54060643D01*
X116597732Y-54035825D01*
X116691985Y-54007234D01*
X116765436Y-54000000D01*
X116814564Y-54000000D01*
X116888015Y-54007234D01*
X116888015Y-54007234D01*
G37*
G36*
X115618015Y-54007234D02*
X115712268Y-54035825D01*
X115758697Y-54060643D01*
X115799129Y-54082254D01*
X115799131Y-54082255D01*
X115799130Y-54082255D01*
X115875264Y-54144736D01*
X115937745Y-54220870D01*
X115984175Y-54307732D01*
X116012766Y-54401985D01*
X116022419Y-54500000D01*
X116012766Y-54598015D01*
X115984175Y-54692268D01*
X115959357Y-54738697D01*
X115937746Y-54779129D01*
X115875264Y-54855264D01*
X115799129Y-54917746D01*
X115758697Y-54939357D01*
X115712268Y-54964175D01*
X115618015Y-54992766D01*
X115544564Y-55000000D01*
X115495436Y-55000000D01*
X115421985Y-54992766D01*
X115327732Y-54964175D01*
X115281303Y-54939357D01*
X115240871Y-54917746D01*
X115164736Y-54855264D01*
X115102254Y-54779129D01*
X115080643Y-54738697D01*
X115055825Y-54692268D01*
X115027234Y-54598015D01*
X115017581Y-54500000D01*
X115027234Y-54401985D01*
X115055825Y-54307732D01*
X115102255Y-54220870D01*
X115164736Y-54144736D01*
X115240870Y-54082255D01*
X115240869Y-54082255D01*
X115240871Y-54082254D01*
X115281303Y-54060643D01*
X115327732Y-54035825D01*
X115421985Y-54007234D01*
X115495436Y-54000000D01*
X115544564Y-54000000D01*
X115618015Y-54007234D01*
X115618015Y-54007234D01*
G37*
G36*
X114750000Y-55000000D02*
X113750000Y-55000000D01*
X113750000Y-54000000D01*
X114750000Y-54000000D01*
X114750000Y-55000000D01*
X114750000Y-55000000D01*
G37*
G36*
X119428015Y-54007234D02*
X119522268Y-54035825D01*
X119568697Y-54060643D01*
X119609129Y-54082254D01*
X119609131Y-54082255D01*
X119609130Y-54082255D01*
X119685264Y-54144736D01*
X119747745Y-54220870D01*
X119794175Y-54307732D01*
X119822766Y-54401985D01*
X119832419Y-54500000D01*
X119822766Y-54598015D01*
X119794175Y-54692268D01*
X119769357Y-54738697D01*
X119747746Y-54779129D01*
X119685264Y-54855264D01*
X119609129Y-54917746D01*
X119568697Y-54939357D01*
X119522268Y-54964175D01*
X119428015Y-54992766D01*
X119354564Y-55000000D01*
X119305436Y-55000000D01*
X119231985Y-54992766D01*
X119137732Y-54964175D01*
X119091303Y-54939357D01*
X119050871Y-54917746D01*
X118974736Y-54855264D01*
X118912254Y-54779129D01*
X118890643Y-54738697D01*
X118865825Y-54692268D01*
X118837234Y-54598015D01*
X118827581Y-54500000D01*
X118837234Y-54401985D01*
X118865825Y-54307732D01*
X118912255Y-54220870D01*
X118974736Y-54144736D01*
X119050870Y-54082255D01*
X119050869Y-54082255D01*
X119050871Y-54082254D01*
X119091303Y-54060643D01*
X119137732Y-54035825D01*
X119231985Y-54007234D01*
X119305436Y-54000000D01*
X119354564Y-54000000D01*
X119428015Y-54007234D01*
X119428015Y-54007234D01*
G37*
M02*
