G04 #@! TF.GenerationSoftware,KiCad,Pcbnew,(5.0.1)-4*
G04 #@! TF.CreationDate,2019-02-22T18:58:47-06:00*
G04 #@! TF.ProjectId,epoch,65706F63682E6B696361645F70636200,rev?*
G04 #@! TF.SameCoordinates,Original*
G04 #@! TF.FileFunction,Copper,L2,Inr,Signal*
G04 #@! TF.FilePolarity,Positive*
%FSLAX46Y46*%
G04 Gerber Fmt 4.6, Leading zero omitted, Abs format (unit mm)*
G04 Created by KiCad (PCBNEW (5.0.1)-4) date 2/22/2019 6:58:47 PM*
%MOMM*%
%LPD*%
G01*
G04 APERTURE LIST*
G04 #@! TA.AperFunction,ViaPad*
%ADD10R,1.000000X1.000000*%
G04 #@! TD*
G04 #@! TA.AperFunction,ViaPad*
%ADD11O,1.000000X1.000000*%
G04 #@! TD*
G04 #@! TA.AperFunction,ViaPad*
%ADD12C,2.200000*%
G04 #@! TD*
G04 #@! TA.AperFunction,ViaPad*
%ADD13C,0.685800*%
G04 #@! TD*
G04 #@! TA.AperFunction,Conductor*
%ADD14C,0.300000*%
G04 #@! TD*
G04 #@! TA.AperFunction,Conductor*
%ADD15C,0.152400*%
G04 #@! TD*
G04 APERTURE END LIST*
D10*
G04 #@! TO.N,(+3.3)*
G04 #@! TO.C,J2*
X123825000Y-86741000D03*
D11*
G04 #@! TO.N,SWDIO*
X123825000Y-85471000D03*
G04 #@! TO.N,SWDCLK*
X123825000Y-84201000D03*
G04 #@! TO.N,RESET*
X123825000Y-82931000D03*
G04 #@! TO.N,(GND)*
X123825000Y-81661000D03*
G04 #@! TD*
D12*
G04 #@! TO.N,N/C*
G04 #@! TO.C,U6*
X103124000Y-86614000D03*
G04 #@! TD*
G04 #@! TO.N,N/C*
G04 #@! TO.C,U7*
X127381000Y-56388000D03*
G04 #@! TD*
G04 #@! TO.N,N/C*
G04 #@! TO.C,U8*
X127508000Y-86741000D03*
G04 #@! TD*
G04 #@! TO.N,N/C*
G04 #@! TO.C,U9*
X103251000Y-56134000D03*
G04 #@! TD*
D11*
G04 #@! TO.N,VDD*
G04 #@! TO.C,J3*
X119330000Y-54500000D03*
G04 #@! TO.N,(+5)*
X118060000Y-54500000D03*
G04 #@! TO.N,STAT*
X116790000Y-54500000D03*
G04 #@! TO.N,PWR_SENSE*
X115520000Y-54500000D03*
D10*
G04 #@! TO.N,(GND)*
X114250000Y-54500000D03*
G04 #@! TD*
D13*
G04 #@! TO.N,(+3.3)*
X113474500Y-85344000D03*
X105981500Y-84836000D03*
X105791000Y-78359000D03*
X105156000Y-75565000D03*
G04 #@! TO.N,(GND)*
X122174000Y-59563000D03*
X122301000Y-58293000D03*
X118237000Y-79502000D03*
X119888000Y-83312000D03*
X113919000Y-72644000D03*
X116205000Y-64008000D03*
X121285000Y-64135000D03*
X107188000Y-59753500D03*
X127127000Y-66929000D03*
X120269000Y-76708000D03*
X104648000Y-76454000D03*
X110426500Y-76771500D03*
X111442500Y-63182500D03*
X106489500Y-83693000D03*
X112250000Y-56000000D03*
G04 #@! TO.N,RESET*
X122999500Y-77216000D03*
X121856500Y-80137000D03*
X111315500Y-72644000D03*
X115062000Y-85471000D03*
G04 #@! TO.N,USB_D+*
X109093000Y-73469500D03*
X102616000Y-63754000D03*
G04 #@! TO.N,USB_D-*
X108013500Y-71628000D03*
X103378000Y-64389000D03*
G04 #@! TO.N,VCOM*
X110947200Y-80594200D03*
X112712500Y-84518500D03*
G04 #@! TO.N,SPI_CS*
X111252000Y-70739000D03*
X106553000Y-74295000D03*
X107823000Y-83566000D03*
G04 #@! TO.N,SPI_SI*
X108013500Y-82677000D03*
X109029500Y-75184000D03*
X107886500Y-68643500D03*
G04 #@! TO.N,SPI_CLK*
X107950000Y-69596000D03*
X107886500Y-81534000D03*
G04 #@! TO.N,EXTMODE*
X116205000Y-84772500D03*
X112903000Y-75692000D03*
G04 #@! TO.N,Net-(R1-Pad1)*
X121031000Y-81280000D03*
X123317000Y-79248000D03*
X102108000Y-78359000D03*
G04 #@! TO.N,SDA*
X108458000Y-59690000D03*
X107823000Y-66675000D03*
G04 #@! TO.N,SCL*
X118110000Y-59436000D03*
X107823000Y-67691000D03*
X111061500Y-57645310D03*
G04 #@! TO.N,Net-(R5-Pad2)*
X112141000Y-78041500D03*
X120396000Y-78994000D03*
X118500014Y-61000000D03*
G04 #@! TO.N,BUT_UP*
X125412500Y-61468000D03*
X112268000Y-66738500D03*
G04 #@! TO.N,BUT_MID*
X125349000Y-69532500D03*
X119938800Y-69316600D03*
G04 #@! TO.N,BUT_DWN*
X111379000Y-69850000D03*
X126555500Y-77406500D03*
G04 #@! TO.N,INTC*
X107251500Y-61023500D03*
X114630200Y-63322200D03*
G04 #@! TO.N,LED*
X119951500Y-67691000D03*
X124714000Y-65532000D03*
G04 #@! TO.N,32KHz*
X123875800Y-62179200D03*
X109347000Y-58801000D03*
X122682000Y-56134000D03*
G04 #@! TO.N,SWDIO*
X121539000Y-86106000D03*
X118237000Y-83312000D03*
X116332000Y-67691000D03*
G04 #@! TO.N,SWDCLK*
X114808000Y-67691000D03*
G04 #@! TO.N,(+5)*
X102500000Y-74500000D03*
X106500000Y-55105314D03*
G04 #@! TO.N,PWR_SENSE*
X117323000Y-66923000D03*
G04 #@! TO.N,STAT*
X117625401Y-62768901D03*
G04 #@! TD*
D14*
G04 #@! TO.N,(+3.3)*
X105791000Y-78359000D02*
X105791000Y-84645500D01*
X105791000Y-84645500D02*
X105981500Y-84836000D01*
X105791000Y-76200000D02*
X105791000Y-78359000D01*
X105156000Y-75565000D02*
X105791000Y-76200000D01*
G04 #@! TO.N,(GND)*
X104648000Y-76454000D02*
X104648000Y-76517500D01*
G04 #@! TO.N,RESET*
X111315500Y-72644000D02*
X111315500Y-75438000D01*
X111315500Y-75438000D02*
X112903000Y-77025500D01*
X112903000Y-77025500D02*
X112903000Y-80645000D01*
X112903000Y-80645000D02*
X114173000Y-81915000D01*
X114173000Y-81915000D02*
X115125500Y-82931000D01*
X115125500Y-82931000D02*
X115062000Y-85471000D01*
G04 #@! TO.N,USB_D+*
X103822500Y-69596000D02*
X103822500Y-68262500D01*
X109093000Y-73469500D02*
X109029500Y-73406000D01*
X109029500Y-73406000D02*
X104521000Y-73406000D01*
X104521000Y-73406000D02*
X103822500Y-72771000D01*
X103822500Y-72771000D02*
X103822500Y-69596000D01*
X102616000Y-67056000D02*
X102616000Y-63754000D01*
X103822500Y-68262500D02*
X102616000Y-67056000D01*
G04 #@! TO.N,USB_D-*
X104521000Y-69786500D02*
X104521000Y-68072000D01*
X108013500Y-71628000D02*
X106934000Y-72707500D01*
X106934000Y-72707500D02*
X104902000Y-72707500D01*
X104902000Y-72707500D02*
X104521000Y-72326500D01*
X104521000Y-72326500D02*
X104521000Y-69786500D01*
X103378000Y-66929000D02*
X103378000Y-64389000D01*
X104521000Y-68072000D02*
X103378000Y-66929000D01*
G04 #@! TO.N,SPI_CS*
X106553000Y-82296000D02*
X106553000Y-74295000D01*
X107823000Y-83566000D02*
X106553000Y-82296000D01*
G04 #@! TO.N,SPI_SI*
X109029500Y-75184000D02*
X107632500Y-75184000D01*
X107632500Y-75184000D02*
X107124500Y-75692000D01*
X107124500Y-75692000D02*
X107124500Y-81788000D01*
X108013500Y-82677000D02*
X107124500Y-81788000D01*
D15*
X108902500Y-75311000D02*
X109029500Y-75184000D01*
D14*
G04 #@! TO.N,SPI_CLK*
X107886500Y-81534000D02*
X107886500Y-76454000D01*
X107886500Y-76454000D02*
X108204000Y-76136500D01*
X108204000Y-76136500D02*
X109474000Y-76136500D01*
X109474000Y-76136500D02*
X109918500Y-75692000D01*
X109918500Y-74612500D02*
X109918500Y-75692000D01*
X109918500Y-74295000D02*
X109918500Y-74612500D01*
X109918500Y-73850500D02*
X109918500Y-74295000D01*
X109918500Y-71564500D02*
X109918500Y-73850500D01*
X107950000Y-69596000D02*
X109918500Y-71564500D01*
D15*
X107886500Y-81534000D02*
X107950000Y-81470500D01*
D14*
G04 #@! TO.N,EXTMODE*
X112903000Y-75946000D02*
X112903000Y-75692000D01*
X116205000Y-84772500D02*
X115760500Y-84328000D01*
X115760500Y-84328000D02*
X115760500Y-82804000D01*
X115760500Y-82804000D02*
X113601500Y-80645000D01*
X113601500Y-80645000D02*
X113601500Y-76708000D01*
X113601500Y-76708000D02*
X112903000Y-75946000D01*
G04 #@! TO.N,Net-(R1-Pad1)*
X121031000Y-81280000D02*
X122428000Y-81280000D01*
X122428000Y-81280000D02*
X123317000Y-80391000D01*
X123317000Y-80391000D02*
X123317000Y-79248000D01*
G04 #@! TO.N,SDA*
X107823000Y-66675000D02*
X105156000Y-66675000D01*
X108013500Y-58991500D02*
X108458000Y-59690000D01*
X106044492Y-59025903D02*
X108013500Y-58991500D01*
X104838500Y-60134500D02*
X106044492Y-59025903D01*
X104838500Y-63436500D02*
X104838500Y-60134500D01*
X104838500Y-66357500D02*
X104838500Y-63436500D01*
X105156000Y-66675000D02*
X104838500Y-66357500D01*
G04 #@! TO.N,SCL*
X105156000Y-67691000D02*
X104140000Y-66675000D01*
X104140000Y-66675000D02*
X104140000Y-59817000D01*
X104140000Y-59817000D02*
X106311690Y-57645310D01*
X106311690Y-57645310D02*
X110576567Y-57645310D01*
X110576567Y-57645310D02*
X111061500Y-57645310D01*
X107823000Y-67691000D02*
X105156000Y-67691000D01*
G04 #@! TO.N,Net-(R5-Pad2)*
X118500014Y-61484933D02*
X118500014Y-61000000D01*
X118500014Y-77098014D02*
X118500014Y-61484933D01*
X120396000Y-78994000D02*
X118500014Y-77098014D01*
G04 #@! TO.N,INTC*
X107315000Y-61087000D02*
X107251500Y-61023500D01*
G04 #@! TO.N,LED*
X119951500Y-67691000D02*
X120015000Y-67627500D01*
X120015000Y-67627500D02*
X121920000Y-67627500D01*
X121920000Y-67627500D02*
X124015500Y-65532000D01*
X124015500Y-65532000D02*
X124714000Y-65532000D01*
G04 #@! TO.N,32KHz*
X123875800Y-57327800D02*
X123875800Y-62179200D01*
X122682000Y-56134000D02*
X123875800Y-57327800D01*
G04 #@! TO.N,SWDIO*
X122174000Y-85471000D02*
X123825000Y-85471000D01*
X121539000Y-86106000D02*
X122174000Y-85471000D01*
X117348000Y-83312000D02*
X118237000Y-83312000D01*
X117094000Y-83058000D02*
X117348000Y-83312000D01*
X117094000Y-79756000D02*
X117094000Y-83058000D01*
X115570000Y-78232000D02*
X117094000Y-79756000D01*
X115570000Y-68453000D02*
X115570000Y-78232000D01*
X116332000Y-67691000D02*
X115570000Y-68453000D01*
G04 #@! TO.N,SWDCLK*
X116268500Y-80137000D02*
X116205000Y-80137000D01*
X114808000Y-78740000D02*
X114808000Y-67691000D01*
X116205000Y-80137000D02*
X114808000Y-78740000D01*
X116903500Y-84201000D02*
X123825000Y-84201000D01*
X116268500Y-83566000D02*
X116903500Y-84201000D01*
X116268500Y-80073500D02*
X116268500Y-80137000D01*
X116268500Y-80137000D02*
X116268500Y-83566000D01*
G04 #@! TO.N,(+5)*
X101970699Y-59634615D02*
X106157101Y-55448213D01*
X106157101Y-55448213D02*
X106500000Y-55105314D01*
X101970699Y-73970699D02*
X101970699Y-59634615D01*
X102500000Y-74500000D02*
X101970699Y-73970699D01*
G04 #@! TO.N,PWR_SENSE*
X116980101Y-56230101D02*
X115662410Y-54912410D01*
X117323000Y-66923000D02*
X116980101Y-66580101D01*
X116980101Y-66580101D02*
X116980101Y-56230101D01*
X115662410Y-54912410D02*
X115500000Y-54912410D01*
G04 #@! TO.N,STAT*
X118755301Y-56755301D02*
X116912410Y-54912410D01*
X118755301Y-59745745D02*
X118755301Y-56755301D01*
X117625401Y-62768901D02*
X117625401Y-60875645D01*
X117625401Y-60875645D02*
X118755301Y-59745745D01*
X116912410Y-54912410D02*
X116750000Y-54912410D01*
G04 #@! TD*
M02*
