G04 #@! TF.GenerationSoftware,KiCad,Pcbnew,(5.0.1)-4*
G04 #@! TF.CreationDate,2019-02-22T19:20:15-06:00*
G04 #@! TF.ProjectId,epoch,65706F63682E6B696361645F70636200,rev?*
G04 #@! TF.SameCoordinates,Original*
G04 #@! TF.FileFunction,Copper,L3,Inr,Signal*
G04 #@! TF.FilePolarity,Positive*
%FSLAX46Y46*%
G04 Gerber Fmt 4.6, Leading zero omitted, Abs format (unit mm)*
G04 Created by KiCad (PCBNEW (5.0.1)-4) date 2/22/2019 7:20:15 PM*
%MOMM*%
%LPD*%
G01*
G04 APERTURE LIST*
G04 #@! TA.AperFunction,ViaPad*
%ADD10O,1.000000X1.000000*%
G04 #@! TD*
G04 #@! TA.AperFunction,ViaPad*
%ADD11R,1.000000X1.000000*%
G04 #@! TD*
G04 #@! TA.AperFunction,ViaPad*
%ADD12C,2.200000*%
G04 #@! TD*
G04 #@! TA.AperFunction,ViaPad*
%ADD13C,0.685800*%
G04 #@! TD*
G04 #@! TA.AperFunction,Conductor*
%ADD14C,0.300000*%
G04 #@! TD*
G04 APERTURE END LIST*
D10*
G04 #@! TO.N,VDD*
G04 #@! TO.C,J3*
X119330000Y-54500000D03*
G04 #@! TO.N,(+5)*
X118060000Y-54500000D03*
G04 #@! TO.N,STAT*
X116790000Y-54500000D03*
G04 #@! TO.N,PWR_SENSE*
X115520000Y-54500000D03*
D11*
G04 #@! TO.N,(GND)*
X114250000Y-54500000D03*
G04 #@! TD*
G04 #@! TO.N,(+3.3)*
G04 #@! TO.C,J2*
X123825000Y-86741000D03*
D10*
G04 #@! TO.N,SWDIO*
X123825000Y-85471000D03*
G04 #@! TO.N,SWDCLK*
X123825000Y-84201000D03*
G04 #@! TO.N,RESET*
X123825000Y-82931000D03*
G04 #@! TO.N,(GND)*
X123825000Y-81661000D03*
G04 #@! TD*
D12*
G04 #@! TO.N,N/C*
G04 #@! TO.C,U6*
X103124000Y-86614000D03*
G04 #@! TD*
G04 #@! TO.N,N/C*
G04 #@! TO.C,U7*
X127381000Y-56388000D03*
G04 #@! TD*
G04 #@! TO.N,N/C*
G04 #@! TO.C,U8*
X127508000Y-86741000D03*
G04 #@! TD*
G04 #@! TO.N,N/C*
G04 #@! TO.C,U9*
X103251000Y-56134000D03*
G04 #@! TD*
D13*
G04 #@! TO.N,(+3.3)*
X113474500Y-85344000D03*
X105981500Y-84836000D03*
X105791000Y-78359000D03*
X105156000Y-75565000D03*
G04 #@! TO.N,(GND)*
X122174000Y-59563000D03*
X122301000Y-58293000D03*
X118237000Y-79502000D03*
X119888000Y-83312000D03*
X113919000Y-72644000D03*
X116205000Y-64008000D03*
X121285000Y-64135000D03*
X107188000Y-59753500D03*
X127127000Y-66929000D03*
X120269000Y-76708000D03*
X104648000Y-76454000D03*
X110426500Y-76771500D03*
X111442500Y-63182500D03*
X106489500Y-83693000D03*
X112250000Y-56000000D03*
G04 #@! TO.N,RESET*
X122999500Y-77216000D03*
X121856500Y-80137000D03*
X111315500Y-72644000D03*
X115062000Y-85471000D03*
G04 #@! TO.N,USB_D+*
X109093000Y-73469500D03*
X102616000Y-63754000D03*
G04 #@! TO.N,USB_D-*
X108013500Y-71628000D03*
X103378000Y-64389000D03*
G04 #@! TO.N,VCOM*
X110947200Y-80594200D03*
X112712500Y-84518500D03*
G04 #@! TO.N,SPI_CS*
X111252000Y-70739000D03*
X106553000Y-74295000D03*
X107823000Y-83566000D03*
G04 #@! TO.N,SPI_SI*
X108013500Y-82677000D03*
X109029500Y-75184000D03*
X107886500Y-68643500D03*
G04 #@! TO.N,SPI_CLK*
X107950000Y-69596000D03*
X107886500Y-81534000D03*
G04 #@! TO.N,EXTMODE*
X116205000Y-84772500D03*
X112903000Y-75692000D03*
G04 #@! TO.N,Net-(R1-Pad1)*
X121031000Y-81280000D03*
X123317000Y-79248000D03*
X102108000Y-78359000D03*
G04 #@! TO.N,SDA*
X108458000Y-59690000D03*
X107823000Y-66675000D03*
G04 #@! TO.N,SCL*
X118110000Y-59436000D03*
X107823000Y-67691000D03*
X111061500Y-57645310D03*
G04 #@! TO.N,Net-(R5-Pad2)*
X112141000Y-78041500D03*
X120396000Y-78994000D03*
X118500014Y-61000000D03*
G04 #@! TO.N,BUT_UP*
X125412500Y-61468000D03*
X112268000Y-66738500D03*
G04 #@! TO.N,BUT_MID*
X125349000Y-69532500D03*
X119938800Y-69316600D03*
G04 #@! TO.N,BUT_DWN*
X111379000Y-69850000D03*
X126555500Y-77406500D03*
G04 #@! TO.N,INTC*
X107251500Y-61023500D03*
X114630200Y-63322200D03*
G04 #@! TO.N,LED*
X119951500Y-67691000D03*
X124714000Y-65532000D03*
G04 #@! TO.N,32KHz*
X123875800Y-62179200D03*
X109347000Y-58801000D03*
X122682000Y-56134000D03*
G04 #@! TO.N,SWDIO*
X121539000Y-86106000D03*
X118237000Y-83312000D03*
X116332000Y-67691000D03*
G04 #@! TO.N,SWDCLK*
X114808000Y-67691000D03*
G04 #@! TO.N,(+5)*
X102500000Y-74500000D03*
X106500000Y-55105314D03*
G04 #@! TO.N,PWR_SENSE*
X117323000Y-66923000D03*
G04 #@! TO.N,STAT*
X117625401Y-62768901D03*
G04 #@! TD*
D14*
G04 #@! TO.N,RESET*
X111315500Y-72644000D02*
X111315500Y-75882500D01*
X111315500Y-75882500D02*
X112903000Y-77470000D01*
X112903000Y-77470000D02*
X122745500Y-77470000D01*
X122745500Y-77470000D02*
X122999500Y-77216000D01*
X121856500Y-80137000D02*
X121856500Y-82296000D01*
X121856500Y-82296000D02*
X121539000Y-82613500D01*
X115062000Y-85471000D02*
X115062000Y-83947000D01*
X115062000Y-83947000D02*
X115951000Y-83185000D01*
X115951000Y-83185000D02*
X116649500Y-82613500D01*
X116649500Y-82613500D02*
X121539000Y-82613500D01*
X121539000Y-82613500D02*
X121856500Y-82613500D01*
X122364500Y-82931000D02*
X123825000Y-82931000D01*
X122047000Y-82613500D02*
X122364500Y-82931000D01*
X121856500Y-82613500D02*
X122047000Y-82613500D01*
G04 #@! TO.N,SPI_CS*
X107188000Y-70739000D02*
X111252000Y-70739000D01*
X106553000Y-71374000D02*
X107188000Y-70739000D01*
X106553000Y-74295000D02*
X106553000Y-71374000D01*
G04 #@! TO.N,SPI_SI*
X109029500Y-75184000D02*
X108712000Y-75057000D01*
X108712000Y-75057000D02*
X105981500Y-75057000D01*
X105981500Y-75057000D02*
X105156000Y-74231500D01*
X105156000Y-74231500D02*
X105156000Y-69278500D01*
X105156000Y-69278500D02*
X105791000Y-68643500D01*
X105791000Y-68643500D02*
X107886500Y-68643500D01*
G04 #@! TO.N,Net-(R1-Pad1)*
X109093000Y-78740000D02*
X118491000Y-78740000D01*
X118491000Y-78740000D02*
X120777000Y-81280000D01*
X120777000Y-81280000D02*
X121031000Y-81280000D01*
X102997000Y-79248000D02*
X107569000Y-79248000D01*
X107569000Y-79248000D02*
X109093000Y-78740000D01*
X102108000Y-78359000D02*
X102997000Y-79248000D01*
G04 #@! TO.N,SCL*
X111175810Y-57531000D02*
X111061500Y-57645310D01*
X118110000Y-59436000D02*
X116205000Y-57531000D01*
X116205000Y-57531000D02*
X111175810Y-57531000D01*
G04 #@! TO.N,Net-(R5-Pad2)*
X118808500Y-78041500D02*
X112141000Y-78041500D01*
X119443500Y-78041500D02*
X118808500Y-78041500D01*
X120396000Y-78994000D02*
X119443500Y-78041500D01*
G04 #@! TO.N,BUT_UP*
X125425200Y-63119000D02*
X125412500Y-61468000D01*
X125349000Y-61404500D02*
X125412500Y-61468000D01*
X122758200Y-65786000D02*
X125425200Y-63119000D01*
X114274600Y-65786000D02*
X122758200Y-65786000D01*
X113322100Y-66738500D02*
X114274600Y-65786000D01*
X112268000Y-66738500D02*
X113322100Y-66738500D01*
G04 #@! TO.N,BUT_MID*
X120396000Y-69405500D02*
X119938800Y-69316600D01*
X120967500Y-69405500D02*
X120650000Y-69405500D01*
X121729500Y-69405500D02*
X120967500Y-69405500D01*
X125222000Y-69405500D02*
X121729500Y-69405500D01*
X125349000Y-69532500D02*
X125222000Y-69405500D01*
X120650000Y-69405500D02*
X120396000Y-69405500D01*
G04 #@! TO.N,BUT_DWN*
X126555500Y-77406500D02*
X126555500Y-75755500D01*
X126555500Y-75755500D02*
X125730000Y-74993500D01*
X125730000Y-74993500D02*
X120980200Y-74980800D01*
X120980200Y-74980800D02*
X119913400Y-73914000D01*
X119913400Y-73914000D02*
X119913400Y-70942200D01*
X119913400Y-70942200D02*
X118821200Y-69850000D01*
X118821200Y-69850000D02*
X111379000Y-69850000D01*
G04 #@! TO.N,INTC*
X114287301Y-62979301D02*
X114630200Y-63322200D01*
X112674399Y-61366399D02*
X114287301Y-62979301D01*
X107594399Y-61366399D02*
X112674399Y-61366399D01*
X107251500Y-61023500D02*
X107594399Y-61366399D01*
G04 #@! TO.N,32KHz*
X109347000Y-58801000D02*
X110650699Y-60104699D01*
X110650699Y-60104699D02*
X121801299Y-60104699D01*
X123532901Y-61836301D02*
X123875800Y-62179200D01*
X121801299Y-60104699D02*
X123532901Y-61836301D01*
G04 #@! TO.N,SWDIO*
X121412000Y-86233000D02*
X121539000Y-86106000D01*
X118618000Y-86233000D02*
X121412000Y-86233000D01*
X118237000Y-85852000D02*
X118618000Y-86233000D01*
X118237000Y-83312000D02*
X118237000Y-85852000D01*
G04 #@! TO.N,(+5)*
X106842899Y-55448213D02*
X106500000Y-55105314D01*
X108237585Y-56842899D02*
X106842899Y-55448213D01*
X108237585Y-56842899D02*
X117007101Y-56842899D01*
X117007101Y-56842899D02*
X118050000Y-55800000D01*
X118050000Y-55800000D02*
X118050000Y-54912410D01*
G04 #@! TD*
M02*
