G04 #@! TF.GenerationSoftware,KiCad,Pcbnew,(5.0.1)-4*
G04 #@! TF.CreationDate,2019-02-22T18:58:47-06:00*
G04 #@! TF.ProjectId,epoch,65706F63682E6B696361645F70636200,rev?*
G04 #@! TF.SameCoordinates,Original*
G04 #@! TF.FileFunction,Legend,Bot*
G04 #@! TF.FilePolarity,Positive*
%FSLAX46Y46*%
G04 Gerber Fmt 4.6, Leading zero omitted, Abs format (unit mm)*
G04 Created by KiCad (PCBNEW (5.0.1)-4) date 2/22/2019 6:58:47 PM*
%MOMM*%
%LPD*%
G01*
G04 APERTURE LIST*
%ADD10C,0.120000*%
%ADD11C,0.150000*%
%ADD12C,0.080000*%
G04 APERTURE END LIST*
D10*
G04 #@! TO.C,SW1*
X100516000Y-80780000D02*
X100896000Y-80280000D01*
X100896000Y-80280000D02*
X101216000Y-80280000D01*
X100516000Y-80780000D02*
X100516000Y-81780000D01*
X100516000Y-81780000D02*
X100896000Y-82280000D01*
X100896000Y-82280000D02*
X101216000Y-82280000D01*
X104016000Y-79630000D02*
X104016000Y-82930000D01*
X103716000Y-79630000D02*
X104016000Y-79630000D01*
X104016000Y-82930000D02*
X103716000Y-82930000D01*
X101516000Y-79630000D02*
X101216000Y-79630000D01*
X101216000Y-79630000D02*
X101216000Y-82930000D01*
X101216000Y-82930000D02*
X101516000Y-82930000D01*
G04 #@! TO.C,J1*
D11*
X105878380Y-62341166D02*
X106592666Y-62341166D01*
X106735523Y-62293547D01*
X106830761Y-62198309D01*
X106878380Y-62055452D01*
X106878380Y-61960214D01*
X106878380Y-63341166D02*
X106878380Y-62769738D01*
X106878380Y-63055452D02*
X105878380Y-63055452D01*
X106021238Y-62960214D01*
X106116476Y-62864976D01*
X106164095Y-62769738D01*
D12*
X103857333Y-63788952D02*
X103724000Y-64188952D01*
X103590666Y-63788952D01*
X103324000Y-63979428D02*
X103266857Y-63998476D01*
X103247809Y-64017523D01*
X103228761Y-64055619D01*
X103228761Y-64112761D01*
X103247809Y-64150857D01*
X103266857Y-64169904D01*
X103304952Y-64188952D01*
X103457333Y-64188952D01*
X103457333Y-63788952D01*
X103324000Y-63788952D01*
X103285904Y-63808000D01*
X103266857Y-63827047D01*
X103247809Y-63865142D01*
X103247809Y-63903238D01*
X103266857Y-63941333D01*
X103285904Y-63960380D01*
X103324000Y-63979428D01*
X103457333Y-63979428D01*
X103057333Y-63788952D02*
X103057333Y-64112761D01*
X103038285Y-64150857D01*
X103019238Y-64169904D01*
X102981142Y-64188952D01*
X102904952Y-64188952D01*
X102866857Y-64169904D01*
X102847809Y-64150857D01*
X102828761Y-64112761D01*
X102828761Y-63788952D01*
X102657333Y-64169904D02*
X102600190Y-64188952D01*
X102504952Y-64188952D01*
X102466857Y-64169904D01*
X102447809Y-64150857D01*
X102428761Y-64112761D01*
X102428761Y-64074666D01*
X102447809Y-64036571D01*
X102466857Y-64017523D01*
X102504952Y-63998476D01*
X102581142Y-63979428D01*
X102619238Y-63960380D01*
X102638285Y-63941333D01*
X102657333Y-63903238D01*
X102657333Y-63865142D01*
X102638285Y-63827047D01*
X102619238Y-63808000D01*
X102581142Y-63788952D01*
X102485904Y-63788952D01*
X102428761Y-63808000D01*
X103857380Y-63553952D02*
X103857380Y-63153952D01*
X103762142Y-63153952D01*
X103705000Y-63173000D01*
X103666904Y-63211095D01*
X103647857Y-63249190D01*
X103628809Y-63325380D01*
X103628809Y-63382523D01*
X103647857Y-63458714D01*
X103666904Y-63496809D01*
X103705000Y-63534904D01*
X103762142Y-63553952D01*
X103857380Y-63553952D01*
X103457380Y-63401571D02*
X103152619Y-63401571D01*
X103857380Y-62918952D02*
X103857380Y-62518952D01*
X103762142Y-62518952D01*
X103705000Y-62538000D01*
X103666904Y-62576095D01*
X103647857Y-62614190D01*
X103628809Y-62690380D01*
X103628809Y-62747523D01*
X103647857Y-62823714D01*
X103666904Y-62861809D01*
X103705000Y-62899904D01*
X103762142Y-62918952D01*
X103857380Y-62918952D01*
X103457380Y-62766571D02*
X103152619Y-62766571D01*
X103305000Y-62918952D02*
X103305000Y-62614190D01*
X103578000Y-62283952D02*
X103578000Y-61883952D01*
X103387523Y-62283952D02*
X103387523Y-61883952D01*
X103292285Y-61883952D01*
X103235142Y-61903000D01*
X103197047Y-61941095D01*
X103178000Y-61979190D01*
X103158952Y-62055380D01*
X103158952Y-62112523D01*
X103178000Y-62188714D01*
X103197047Y-62226809D01*
X103235142Y-62264904D01*
X103292285Y-62283952D01*
X103387523Y-62283952D01*
X103682761Y-61268000D02*
X103720857Y-61248952D01*
X103778000Y-61248952D01*
X103835142Y-61268000D01*
X103873238Y-61306095D01*
X103892285Y-61344190D01*
X103911333Y-61420380D01*
X103911333Y-61477523D01*
X103892285Y-61553714D01*
X103873238Y-61591809D01*
X103835142Y-61629904D01*
X103778000Y-61648952D01*
X103739904Y-61648952D01*
X103682761Y-61629904D01*
X103663714Y-61610857D01*
X103663714Y-61477523D01*
X103739904Y-61477523D01*
X103492285Y-61648952D02*
X103492285Y-61248952D01*
X103263714Y-61648952D01*
X103263714Y-61248952D01*
X103073238Y-61648952D02*
X103073238Y-61248952D01*
X102978000Y-61248952D01*
X102920857Y-61268000D01*
X102882761Y-61306095D01*
X102863714Y-61344190D01*
X102844666Y-61420380D01*
X102844666Y-61477523D01*
X102863714Y-61553714D01*
X102882761Y-61591809D01*
X102920857Y-61629904D01*
X102978000Y-61648952D01*
X103073238Y-61648952D01*
G04 #@! TO.C,SW1*
D11*
X102893761Y-79819666D02*
X102941380Y-79962523D01*
X102941380Y-80200619D01*
X102893761Y-80295857D01*
X102846142Y-80343476D01*
X102750904Y-80391095D01*
X102655666Y-80391095D01*
X102560428Y-80343476D01*
X102512809Y-80295857D01*
X102465190Y-80200619D01*
X102417571Y-80010142D01*
X102369952Y-79914904D01*
X102322333Y-79867285D01*
X102227095Y-79819666D01*
X102131857Y-79819666D01*
X102036619Y-79867285D01*
X101989000Y-79914904D01*
X101941380Y-80010142D01*
X101941380Y-80248238D01*
X101989000Y-80391095D01*
X101941380Y-80724428D02*
X102941380Y-80962523D01*
X102227095Y-81153000D01*
X102941380Y-81343476D01*
X101941380Y-81581571D01*
X102941380Y-82486333D02*
X102941380Y-81914904D01*
X102941380Y-82200619D02*
X101941380Y-82200619D01*
X102084238Y-82105380D01*
X102179476Y-82010142D01*
X102227095Y-81914904D01*
G04 #@! TO.C,DOWN1*
X124418380Y-78514857D02*
X123418380Y-78514857D01*
X123418380Y-78752952D01*
X123466000Y-78895809D01*
X123561238Y-78991047D01*
X123656476Y-79038666D01*
X123846952Y-79086285D01*
X123989809Y-79086285D01*
X124180285Y-79038666D01*
X124275523Y-78991047D01*
X124370761Y-78895809D01*
X124418380Y-78752952D01*
X124418380Y-78514857D01*
X123418380Y-79705333D02*
X123418380Y-79895809D01*
X123466000Y-79991047D01*
X123561238Y-80086285D01*
X123751714Y-80133904D01*
X124085047Y-80133904D01*
X124275523Y-80086285D01*
X124370761Y-79991047D01*
X124418380Y-79895809D01*
X124418380Y-79705333D01*
X124370761Y-79610095D01*
X124275523Y-79514857D01*
X124085047Y-79467238D01*
X123751714Y-79467238D01*
X123561238Y-79514857D01*
X123466000Y-79610095D01*
X123418380Y-79705333D01*
X123418380Y-80467238D02*
X124418380Y-80705333D01*
X123704095Y-80895809D01*
X124418380Y-81086285D01*
X123418380Y-81324380D01*
X124418380Y-81705333D02*
X123418380Y-81705333D01*
X124418380Y-82276761D01*
X123418380Y-82276761D01*
X124418380Y-83276761D02*
X124418380Y-82705333D01*
X124418380Y-82991047D02*
X123418380Y-82991047D01*
X123561238Y-82895809D01*
X123656476Y-82800571D01*
X123704095Y-82705333D01*
G04 #@! TO.C,MID1*
X124418380Y-70180380D02*
X123418380Y-70180380D01*
X124132666Y-70513714D01*
X123418380Y-70847047D01*
X124418380Y-70847047D01*
X124418380Y-71323238D02*
X123418380Y-71323238D01*
X124418380Y-71799428D02*
X123418380Y-71799428D01*
X123418380Y-72037523D01*
X123466000Y-72180380D01*
X123561238Y-72275619D01*
X123656476Y-72323238D01*
X123846952Y-72370857D01*
X123989809Y-72370857D01*
X124180285Y-72323238D01*
X124275523Y-72275619D01*
X124370761Y-72180380D01*
X124418380Y-72037523D01*
X124418380Y-71799428D01*
X124418380Y-73323238D02*
X124418380Y-72751809D01*
X124418380Y-73037523D02*
X123418380Y-73037523D01*
X123561238Y-72942285D01*
X123656476Y-72847047D01*
X123704095Y-72751809D01*
G04 #@! TO.C,UP1*
X123418380Y-61322095D02*
X124227904Y-61322095D01*
X124323142Y-61369714D01*
X124370761Y-61417333D01*
X124418380Y-61512571D01*
X124418380Y-61703047D01*
X124370761Y-61798285D01*
X124323142Y-61845904D01*
X124227904Y-61893523D01*
X123418380Y-61893523D01*
X124418380Y-62369714D02*
X123418380Y-62369714D01*
X123418380Y-62750666D01*
X123466000Y-62845904D01*
X123513619Y-62893523D01*
X123608857Y-62941142D01*
X123751714Y-62941142D01*
X123846952Y-62893523D01*
X123894571Y-62845904D01*
X123942190Y-62750666D01*
X123942190Y-62369714D01*
X124418380Y-63893523D02*
X124418380Y-63322095D01*
X124418380Y-63607809D02*
X123418380Y-63607809D01*
X123561238Y-63512571D01*
X123656476Y-63417333D01*
X123704095Y-63322095D01*
G04 #@! TD*
M02*
