G04 #@! TF.GenerationSoftware,KiCad,Pcbnew,(5.0.1)-4*
G04 #@! TF.CreationDate,2019-02-22T18:58:47-06:00*
G04 #@! TF.ProjectId,epoch,65706F63682E6B696361645F70636200,rev?*
G04 #@! TF.SameCoordinates,Original*
G04 #@! TF.FileFunction,Legend,Top*
G04 #@! TF.FilePolarity,Positive*
%FSLAX46Y46*%
G04 Gerber Fmt 4.6, Leading zero omitted, Abs format (unit mm)*
G04 Created by KiCad (PCBNEW (5.0.1)-4) date 2/22/2019 6:58:47 PM*
%MOMM*%
%LPD*%
G01*
G04 APERTURE LIST*
%ADD10C,0.100000*%
%ADD11C,0.125000*%
%ADD12C,0.200000*%
%ADD13C,0.120000*%
%ADD14C,0.150000*%
G04 APERTURE END LIST*
D10*
X114966666Y-55430952D02*
X114966666Y-55030952D01*
X115119047Y-55030952D01*
X115157142Y-55050000D01*
X115176190Y-55069047D01*
X115195238Y-55107142D01*
X115195238Y-55164285D01*
X115176190Y-55202380D01*
X115157142Y-55221428D01*
X115119047Y-55240476D01*
X114966666Y-55240476D01*
X115328571Y-55030952D02*
X115423809Y-55430952D01*
X115500000Y-55145238D01*
X115576190Y-55430952D01*
X115671428Y-55030952D01*
X116052380Y-55430952D02*
X115919047Y-55240476D01*
X115823809Y-55430952D02*
X115823809Y-55030952D01*
X115976190Y-55030952D01*
X116014285Y-55050000D01*
X116033333Y-55069047D01*
X116052380Y-55107142D01*
X116052380Y-55164285D01*
X116033333Y-55202380D01*
X116014285Y-55221428D01*
X115976190Y-55240476D01*
X115823809Y-55240476D01*
X116483333Y-55411904D02*
X116540476Y-55430952D01*
X116635714Y-55430952D01*
X116673809Y-55411904D01*
X116692857Y-55392857D01*
X116711904Y-55354761D01*
X116711904Y-55316666D01*
X116692857Y-55278571D01*
X116673809Y-55259523D01*
X116635714Y-55240476D01*
X116559523Y-55221428D01*
X116521428Y-55202380D01*
X116502380Y-55183333D01*
X116483333Y-55145238D01*
X116483333Y-55107142D01*
X116502380Y-55069047D01*
X116521428Y-55050000D01*
X116559523Y-55030952D01*
X116654761Y-55030952D01*
X116711904Y-55050000D01*
X116826190Y-55030952D02*
X117054761Y-55030952D01*
X116940476Y-55430952D02*
X116940476Y-55030952D01*
X117485714Y-55030952D02*
X117619047Y-55430952D01*
X117752380Y-55030952D01*
X117866666Y-55411904D02*
X117923809Y-55430952D01*
X118019047Y-55430952D01*
X118057142Y-55411904D01*
X118076190Y-55392857D01*
X118095238Y-55354761D01*
X118095238Y-55316666D01*
X118076190Y-55278571D01*
X118057142Y-55259523D01*
X118019047Y-55240476D01*
X117942857Y-55221428D01*
X117904761Y-55202380D01*
X117885714Y-55183333D01*
X117866666Y-55145238D01*
X117866666Y-55107142D01*
X117885714Y-55069047D01*
X117904761Y-55050000D01*
X117942857Y-55030952D01*
X118038095Y-55030952D01*
X118095238Y-55050000D01*
X118247619Y-55411904D02*
X118304761Y-55430952D01*
X118400000Y-55430952D01*
X118438095Y-55411904D01*
X118457142Y-55392857D01*
X118476190Y-55354761D01*
X118476190Y-55316666D01*
X118457142Y-55278571D01*
X118438095Y-55259523D01*
X118400000Y-55240476D01*
X118323809Y-55221428D01*
X118285714Y-55202380D01*
X118266666Y-55183333D01*
X118247619Y-55145238D01*
X118247619Y-55107142D01*
X118266666Y-55069047D01*
X118285714Y-55050000D01*
X118323809Y-55030952D01*
X118419047Y-55030952D01*
X118476190Y-55050000D01*
X118985714Y-55278571D02*
X119290476Y-55278571D01*
X119138095Y-55430952D02*
X119138095Y-55126190D01*
X119671428Y-55030952D02*
X119480952Y-55030952D01*
X119461904Y-55221428D01*
X119480952Y-55202380D01*
X119519047Y-55183333D01*
X119614285Y-55183333D01*
X119652380Y-55202380D01*
X119671428Y-55221428D01*
X119690476Y-55259523D01*
X119690476Y-55354761D01*
X119671428Y-55392857D01*
X119652380Y-55411904D01*
X119614285Y-55430952D01*
X119519047Y-55430952D01*
X119480952Y-55411904D01*
X119461904Y-55392857D01*
X119804761Y-55030952D02*
X119938095Y-55430952D01*
X120071428Y-55030952D01*
X113695238Y-55050000D02*
X113657142Y-55030952D01*
X113600000Y-55030952D01*
X113542857Y-55050000D01*
X113504761Y-55088095D01*
X113485714Y-55126190D01*
X113466666Y-55202380D01*
X113466666Y-55259523D01*
X113485714Y-55335714D01*
X113504761Y-55373809D01*
X113542857Y-55411904D01*
X113600000Y-55430952D01*
X113638095Y-55430952D01*
X113695238Y-55411904D01*
X113714285Y-55392857D01*
X113714285Y-55259523D01*
X113638095Y-55259523D01*
X113885714Y-55430952D02*
X113885714Y-55030952D01*
X114114285Y-55430952D01*
X114114285Y-55030952D01*
X114304761Y-55430952D02*
X114304761Y-55030952D01*
X114400000Y-55030952D01*
X114457142Y-55050000D01*
X114495238Y-55088095D01*
X114514285Y-55126190D01*
X114533333Y-55202380D01*
X114533333Y-55259523D01*
X114514285Y-55335714D01*
X114495238Y-55373809D01*
X114457142Y-55411904D01*
X114400000Y-55430952D01*
X114304761Y-55430952D01*
D11*
X109177142Y-85126428D02*
X109205714Y-85040714D01*
X109234285Y-85012142D01*
X109291428Y-84983571D01*
X109377142Y-84983571D01*
X109434285Y-85012142D01*
X109462857Y-85040714D01*
X109491428Y-85097857D01*
X109491428Y-85326428D01*
X108891428Y-85326428D01*
X108891428Y-85126428D01*
X108920000Y-85069285D01*
X108948571Y-85040714D01*
X109005714Y-85012142D01*
X109062857Y-85012142D01*
X109120000Y-85040714D01*
X109148571Y-85069285D01*
X109177142Y-85126428D01*
X109177142Y-85326428D01*
X109320000Y-84755000D02*
X109320000Y-84469285D01*
X109491428Y-84812142D02*
X108891428Y-84612142D01*
X109491428Y-84412142D01*
X108891428Y-84297857D02*
X108891428Y-83955000D01*
X109491428Y-84126428D02*
X108891428Y-84126428D01*
X108891428Y-83840714D02*
X108891428Y-83497857D01*
X109491428Y-83669285D02*
X108891428Y-83669285D01*
X108221428Y-84967714D02*
X107935714Y-85167714D01*
X108221428Y-85310571D02*
X107621428Y-85310571D01*
X107621428Y-85082000D01*
X107650000Y-85024857D01*
X107678571Y-84996285D01*
X107735714Y-84967714D01*
X107821428Y-84967714D01*
X107878571Y-84996285D01*
X107907142Y-85024857D01*
X107935714Y-85082000D01*
X107935714Y-85310571D01*
X107907142Y-84710571D02*
X107907142Y-84510571D01*
X108221428Y-84424857D02*
X108221428Y-84710571D01*
X107621428Y-84710571D01*
X107621428Y-84424857D01*
X107650000Y-83853428D02*
X107621428Y-83910571D01*
X107621428Y-83996285D01*
X107650000Y-84082000D01*
X107707142Y-84139142D01*
X107764285Y-84167714D01*
X107878571Y-84196285D01*
X107964285Y-84196285D01*
X108078571Y-84167714D01*
X108135714Y-84139142D01*
X108192857Y-84082000D01*
X108221428Y-83996285D01*
X108221428Y-83939142D01*
X108192857Y-83853428D01*
X108164285Y-83824857D01*
X107964285Y-83824857D01*
X107964285Y-83939142D01*
D12*
X116403317Y-71945500D02*
G75*
G03X116403317Y-71945500I-261817J0D01*
G01*
X119705317Y-61912500D02*
G75*
G03X119705317Y-61912500I-261817J0D01*
G01*
D11*
X120272285Y-86412428D02*
X120643714Y-86412428D01*
X120443714Y-86641000D01*
X120529428Y-86641000D01*
X120586571Y-86669571D01*
X120615142Y-86698142D01*
X120643714Y-86755285D01*
X120643714Y-86898142D01*
X120615142Y-86955285D01*
X120586571Y-86983857D01*
X120529428Y-87012428D01*
X120358000Y-87012428D01*
X120300857Y-86983857D01*
X120272285Y-86955285D01*
X120900857Y-86955285D02*
X120929428Y-86983857D01*
X120900857Y-87012428D01*
X120872285Y-86983857D01*
X120900857Y-86955285D01*
X120900857Y-87012428D01*
X121129428Y-86412428D02*
X121500857Y-86412428D01*
X121300857Y-86641000D01*
X121386571Y-86641000D01*
X121443714Y-86669571D01*
X121472285Y-86698142D01*
X121500857Y-86755285D01*
X121500857Y-86898142D01*
X121472285Y-86955285D01*
X121443714Y-86983857D01*
X121386571Y-87012428D01*
X121215142Y-87012428D01*
X121158000Y-86983857D01*
X121129428Y-86955285D01*
X121672285Y-86412428D02*
X121872285Y-87012428D01*
X122072285Y-86412428D01*
X120356428Y-85713857D02*
X120442142Y-85742428D01*
X120585000Y-85742428D01*
X120642142Y-85713857D01*
X120670714Y-85685285D01*
X120699285Y-85628142D01*
X120699285Y-85571000D01*
X120670714Y-85513857D01*
X120642142Y-85485285D01*
X120585000Y-85456714D01*
X120470714Y-85428142D01*
X120413571Y-85399571D01*
X120385000Y-85371000D01*
X120356428Y-85313857D01*
X120356428Y-85256714D01*
X120385000Y-85199571D01*
X120413571Y-85171000D01*
X120470714Y-85142428D01*
X120613571Y-85142428D01*
X120699285Y-85171000D01*
X120956428Y-85742428D02*
X120956428Y-85142428D01*
X121099285Y-85142428D01*
X121185000Y-85171000D01*
X121242142Y-85228142D01*
X121270714Y-85285285D01*
X121299285Y-85399571D01*
X121299285Y-85485285D01*
X121270714Y-85599571D01*
X121242142Y-85656714D01*
X121185000Y-85713857D01*
X121099285Y-85742428D01*
X120956428Y-85742428D01*
X121556428Y-85742428D02*
X121556428Y-85142428D01*
X121956428Y-85142428D02*
X122070714Y-85142428D01*
X122127857Y-85171000D01*
X122185000Y-85228142D01*
X122213571Y-85342428D01*
X122213571Y-85542428D01*
X122185000Y-85656714D01*
X122127857Y-85713857D01*
X122070714Y-85742428D01*
X121956428Y-85742428D01*
X121899285Y-85713857D01*
X121842142Y-85656714D01*
X121813571Y-85542428D01*
X121813571Y-85342428D01*
X121842142Y-85228142D01*
X121899285Y-85171000D01*
X121956428Y-85142428D01*
X125477714Y-84316857D02*
X125563428Y-84345428D01*
X125706285Y-84345428D01*
X125763428Y-84316857D01*
X125792000Y-84288285D01*
X125820571Y-84231142D01*
X125820571Y-84174000D01*
X125792000Y-84116857D01*
X125763428Y-84088285D01*
X125706285Y-84059714D01*
X125592000Y-84031142D01*
X125534857Y-84002571D01*
X125506285Y-83974000D01*
X125477714Y-83916857D01*
X125477714Y-83859714D01*
X125506285Y-83802571D01*
X125534857Y-83774000D01*
X125592000Y-83745428D01*
X125734857Y-83745428D01*
X125820571Y-83774000D01*
X126420571Y-84288285D02*
X126392000Y-84316857D01*
X126306285Y-84345428D01*
X126249142Y-84345428D01*
X126163428Y-84316857D01*
X126106285Y-84259714D01*
X126077714Y-84202571D01*
X126049142Y-84088285D01*
X126049142Y-84002571D01*
X126077714Y-83888285D01*
X126106285Y-83831142D01*
X126163428Y-83774000D01*
X126249142Y-83745428D01*
X126306285Y-83745428D01*
X126392000Y-83774000D01*
X126420571Y-83802571D01*
X126963428Y-84345428D02*
X126677714Y-84345428D01*
X126677714Y-83745428D01*
X127163428Y-84345428D02*
X127163428Y-83745428D01*
X127506285Y-84345428D02*
X127249142Y-84002571D01*
X127506285Y-83745428D02*
X127163428Y-84088285D01*
X125909428Y-83202428D02*
X125709428Y-82916714D01*
X125566571Y-83202428D02*
X125566571Y-82602428D01*
X125795142Y-82602428D01*
X125852285Y-82631000D01*
X125880857Y-82659571D01*
X125909428Y-82716714D01*
X125909428Y-82802428D01*
X125880857Y-82859571D01*
X125852285Y-82888142D01*
X125795142Y-82916714D01*
X125566571Y-82916714D01*
X126138000Y-83173857D02*
X126223714Y-83202428D01*
X126366571Y-83202428D01*
X126423714Y-83173857D01*
X126452285Y-83145285D01*
X126480857Y-83088142D01*
X126480857Y-83031000D01*
X126452285Y-82973857D01*
X126423714Y-82945285D01*
X126366571Y-82916714D01*
X126252285Y-82888142D01*
X126195142Y-82859571D01*
X126166571Y-82831000D01*
X126138000Y-82773857D01*
X126138000Y-82716714D01*
X126166571Y-82659571D01*
X126195142Y-82631000D01*
X126252285Y-82602428D01*
X126395142Y-82602428D01*
X126480857Y-82631000D01*
X126652285Y-82602428D02*
X126995142Y-82602428D01*
X126823714Y-83202428D02*
X126823714Y-82602428D01*
X125780857Y-81488000D02*
X125723714Y-81459428D01*
X125638000Y-81459428D01*
X125552285Y-81488000D01*
X125495142Y-81545142D01*
X125466571Y-81602285D01*
X125438000Y-81716571D01*
X125438000Y-81802285D01*
X125466571Y-81916571D01*
X125495142Y-81973714D01*
X125552285Y-82030857D01*
X125638000Y-82059428D01*
X125695142Y-82059428D01*
X125780857Y-82030857D01*
X125809428Y-82002285D01*
X125809428Y-81802285D01*
X125695142Y-81802285D01*
X126066571Y-82059428D02*
X126066571Y-81459428D01*
X126409428Y-82059428D01*
X126409428Y-81459428D01*
X126695142Y-82059428D02*
X126695142Y-81459428D01*
X126838000Y-81459428D01*
X126923714Y-81488000D01*
X126980857Y-81545142D01*
X127009428Y-81602285D01*
X127038000Y-81716571D01*
X127038000Y-81802285D01*
X127009428Y-81916571D01*
X126980857Y-81973714D01*
X126923714Y-82030857D01*
X126838000Y-82059428D01*
X126695142Y-82059428D01*
D12*
X107640317Y-59245500D02*
G75*
G03X107640317Y-59245500I-261817J0D01*
G01*
D13*
G04 #@! TO.C,U1*
X103811500Y-78127500D02*
X105611500Y-78127500D01*
X105611500Y-74907500D02*
X103161500Y-74907500D01*
D14*
G04 #@! TO.C,P3*
X117800000Y-82123000D02*
X118900000Y-82123000D01*
X118900000Y-82123000D02*
X118900000Y-81823000D01*
X118900000Y-81823000D02*
X120100000Y-81823000D01*
X120100000Y-81823000D02*
X120100000Y-85623000D01*
X120100000Y-85623000D02*
X119200000Y-85623000D01*
X119200000Y-85623000D02*
X119200000Y-86823000D01*
X119200000Y-86823000D02*
X111500000Y-86823000D01*
X111500000Y-86823000D02*
X111500000Y-85723000D01*
X111500000Y-85723000D02*
X110600000Y-85723000D01*
X110600000Y-85723000D02*
X110600000Y-81823000D01*
X110600000Y-81823000D02*
X111900000Y-81823000D01*
X111900000Y-81823000D02*
X111900000Y-82123000D01*
X111900000Y-82123000D02*
X117800000Y-82123000D01*
D13*
G04 #@! TO.C,C1*
X120515000Y-64555000D02*
X119515000Y-64555000D01*
X119515000Y-66255000D02*
X120515000Y-66255000D01*
G04 #@! TO.C,C2*
X119595000Y-76255500D02*
X119595000Y-75255500D01*
X117895000Y-75255500D02*
X117895000Y-76255500D01*
G04 #@! TO.C,C3*
X116070000Y-76302500D02*
X115070000Y-76302500D01*
X115070000Y-78002500D02*
X116070000Y-78002500D01*
G04 #@! TO.C,C4*
X121229500Y-78066000D02*
X122229500Y-78066000D01*
X122229500Y-76366000D02*
X121229500Y-76366000D01*
G04 #@! TO.C,C5*
X101829500Y-80526000D02*
X101829500Y-81526000D01*
X103529500Y-81526000D02*
X103529500Y-80526000D01*
G04 #@! TO.C,C6*
X107339500Y-81526000D02*
X107339500Y-80526000D01*
X105639500Y-80526000D02*
X105639500Y-81526000D01*
G04 #@! TO.C,C9*
X112307000Y-61476000D02*
X112307000Y-62476000D01*
X114007000Y-62476000D02*
X114007000Y-61476000D01*
G04 #@! TO.C,C11*
X116705000Y-78652000D02*
X115705000Y-78652000D01*
X115705000Y-80352000D02*
X116705000Y-80352000D01*
G04 #@! TO.C,C14*
X105434500Y-81526000D02*
X105434500Y-80526000D01*
X103734500Y-80526000D02*
X103734500Y-81526000D01*
G04 #@! TO.C,J2*
X125215000Y-86106000D02*
X125215000Y-80906000D01*
X125215000Y-80906000D02*
X122435000Y-80906000D01*
X122435000Y-80906000D02*
X122435000Y-86106000D01*
X122435000Y-86106000D02*
X125215000Y-86106000D01*
X125215000Y-86741000D02*
X125215000Y-87496000D01*
X125215000Y-87496000D02*
X123825000Y-87496000D01*
G04 #@! TO.C,R1*
X122653500Y-78368000D02*
X123853500Y-78368000D01*
X123853500Y-80128000D02*
X122653500Y-80128000D01*
G04 #@! TO.C,R2*
X114271500Y-55381000D02*
X115471500Y-55381000D01*
X115471500Y-57141000D02*
X114271500Y-57141000D01*
G04 #@! TO.C,R3*
X110074000Y-57077500D02*
X108874000Y-57077500D01*
X108874000Y-55317500D02*
X110074000Y-55317500D01*
G04 #@! TO.C,R5*
X109846000Y-77505000D02*
X109846000Y-78705000D01*
X108086000Y-78705000D02*
X108086000Y-77505000D01*
D14*
G04 #@! TO.C,U2*
X117798000Y-73348000D02*
X117798000Y-73123000D01*
X110548000Y-73348000D02*
X110548000Y-73023000D01*
X110548000Y-66098000D02*
X110548000Y-66423000D01*
X117798000Y-66098000D02*
X117798000Y-66423000D01*
X117798000Y-73348000D02*
X117473000Y-73348000D01*
X117798000Y-66098000D02*
X117473000Y-66098000D01*
X110548000Y-66098000D02*
X110873000Y-66098000D01*
X110548000Y-73348000D02*
X110873000Y-73348000D01*
X117798000Y-73123000D02*
X119223000Y-73123000D01*
G04 #@! TO.C,U3*
X106510000Y-57813500D02*
X106510000Y-57863500D01*
X110660000Y-57813500D02*
X110660000Y-57958500D01*
X110660000Y-62963500D02*
X110660000Y-62818500D01*
X106510000Y-62963500D02*
X106510000Y-62818500D01*
X106510000Y-57813500D02*
X110660000Y-57813500D01*
X106510000Y-62963500D02*
X110660000Y-62963500D01*
X106510000Y-57863500D02*
X105110000Y-57863500D01*
G04 #@! TO.C,U4*
X120502500Y-62836500D02*
X120502500Y-62786500D01*
X116352500Y-62836500D02*
X116352500Y-62691500D01*
X116352500Y-57686500D02*
X116352500Y-57831500D01*
X120502500Y-57686500D02*
X120502500Y-57831500D01*
X120502500Y-62836500D02*
X116352500Y-62836500D01*
X120502500Y-57686500D02*
X116352500Y-57686500D01*
X120502500Y-62786500D02*
X121902500Y-62786500D01*
D13*
G04 #@! TO.C,U5*
X112793000Y-78805000D02*
X112793000Y-76905000D01*
X110473000Y-77405000D02*
X110473000Y-78805000D01*
G04 #@! TO.C,R4*
X127943500Y-66392500D02*
X127943500Y-67592500D01*
X126183500Y-67592500D02*
X126183500Y-66392500D01*
G04 #@! TO.C,R6*
X121758000Y-57141000D02*
X120558000Y-57141000D01*
X120558000Y-55381000D02*
X121758000Y-55381000D01*
G04 #@! TO.C,D1*
X124522000Y-68475000D02*
X125922000Y-68475000D01*
X125922000Y-68475000D02*
X125922000Y-65675000D01*
X124522000Y-68475000D02*
X124522000Y-65675000D01*
G04 #@! TO.C,U1*
D14*
X106576880Y-77279404D02*
X107386404Y-77279404D01*
X107481642Y-77231785D01*
X107529261Y-77184166D01*
X107576880Y-77088928D01*
X107576880Y-76898452D01*
X107529261Y-76803214D01*
X107481642Y-76755595D01*
X107386404Y-76707976D01*
X106576880Y-76707976D01*
X107576880Y-75707976D02*
X107576880Y-76279404D01*
X107576880Y-75993690D02*
X106576880Y-75993690D01*
X106719738Y-76088928D01*
X106814976Y-76184166D01*
X106862595Y-76279404D01*
G04 #@! TO.C,P3*
X114577904Y-85796380D02*
X114577904Y-84796380D01*
X114958857Y-84796380D01*
X115054095Y-84844000D01*
X115101714Y-84891619D01*
X115149333Y-84986857D01*
X115149333Y-85129714D01*
X115101714Y-85224952D01*
X115054095Y-85272571D01*
X114958857Y-85320190D01*
X114577904Y-85320190D01*
X115482666Y-84796380D02*
X116101714Y-84796380D01*
X115768380Y-85177333D01*
X115911238Y-85177333D01*
X116006476Y-85224952D01*
X116054095Y-85272571D01*
X116101714Y-85367809D01*
X116101714Y-85605904D01*
X116054095Y-85701142D01*
X116006476Y-85748761D01*
X115911238Y-85796380D01*
X115625523Y-85796380D01*
X115530285Y-85748761D01*
X115482666Y-85701142D01*
G04 #@! TO.C,C1*
X122832833Y-65889142D02*
X122785214Y-65936761D01*
X122642357Y-65984380D01*
X122547119Y-65984380D01*
X122404261Y-65936761D01*
X122309023Y-65841523D01*
X122261404Y-65746285D01*
X122213785Y-65555809D01*
X122213785Y-65412952D01*
X122261404Y-65222476D01*
X122309023Y-65127238D01*
X122404261Y-65032000D01*
X122547119Y-64984380D01*
X122642357Y-64984380D01*
X122785214Y-65032000D01*
X122832833Y-65079619D01*
X123785214Y-65984380D02*
X123213785Y-65984380D01*
X123499500Y-65984380D02*
X123499500Y-64984380D01*
X123404261Y-65127238D01*
X123309023Y-65222476D01*
X123213785Y-65270095D01*
G04 #@! TO.C,C2*
X120626142Y-75922166D02*
X120673761Y-75969785D01*
X120721380Y-76112642D01*
X120721380Y-76207880D01*
X120673761Y-76350738D01*
X120578523Y-76445976D01*
X120483285Y-76493595D01*
X120292809Y-76541214D01*
X120149952Y-76541214D01*
X119959476Y-76493595D01*
X119864238Y-76445976D01*
X119769000Y-76350738D01*
X119721380Y-76207880D01*
X119721380Y-76112642D01*
X119769000Y-75969785D01*
X119816619Y-75922166D01*
X119816619Y-75541214D02*
X119769000Y-75493595D01*
X119721380Y-75398357D01*
X119721380Y-75160261D01*
X119769000Y-75065023D01*
X119816619Y-75017404D01*
X119911857Y-74969785D01*
X120007095Y-74969785D01*
X120149952Y-75017404D01*
X120721380Y-75588833D01*
X120721380Y-74969785D01*
G04 #@! TO.C,C3*
X115657333Y-75985642D02*
X115609714Y-76033261D01*
X115466857Y-76080880D01*
X115371619Y-76080880D01*
X115228761Y-76033261D01*
X115133523Y-75938023D01*
X115085904Y-75842785D01*
X115038285Y-75652309D01*
X115038285Y-75509452D01*
X115085904Y-75318976D01*
X115133523Y-75223738D01*
X115228761Y-75128500D01*
X115371619Y-75080880D01*
X115466857Y-75080880D01*
X115609714Y-75128500D01*
X115657333Y-75176119D01*
X115990666Y-75080880D02*
X116609714Y-75080880D01*
X116276380Y-75461833D01*
X116419238Y-75461833D01*
X116514476Y-75509452D01*
X116562095Y-75557071D01*
X116609714Y-75652309D01*
X116609714Y-75890404D01*
X116562095Y-75985642D01*
X116514476Y-76033261D01*
X116419238Y-76080880D01*
X116133523Y-76080880D01*
X116038285Y-76033261D01*
X115990666Y-75985642D01*
G04 #@! TO.C,C4*
X124674333Y-77573142D02*
X124626714Y-77620761D01*
X124483857Y-77668380D01*
X124388619Y-77668380D01*
X124245761Y-77620761D01*
X124150523Y-77525523D01*
X124102904Y-77430285D01*
X124055285Y-77239809D01*
X124055285Y-77096952D01*
X124102904Y-76906476D01*
X124150523Y-76811238D01*
X124245761Y-76716000D01*
X124388619Y-76668380D01*
X124483857Y-76668380D01*
X124626714Y-76716000D01*
X124674333Y-76763619D01*
X125531476Y-77001714D02*
X125531476Y-77668380D01*
X125293380Y-76620761D02*
X125055285Y-77335047D01*
X125674333Y-77335047D01*
G04 #@! TO.C,C5*
X103100142Y-84367666D02*
X103147761Y-84415285D01*
X103195380Y-84558142D01*
X103195380Y-84653380D01*
X103147761Y-84796238D01*
X103052523Y-84891476D01*
X102957285Y-84939095D01*
X102766809Y-84986714D01*
X102623952Y-84986714D01*
X102433476Y-84939095D01*
X102338238Y-84891476D01*
X102243000Y-84796238D01*
X102195380Y-84653380D01*
X102195380Y-84558142D01*
X102243000Y-84415285D01*
X102290619Y-84367666D01*
X102195380Y-83462904D02*
X102195380Y-83939095D01*
X102671571Y-83986714D01*
X102623952Y-83939095D01*
X102576333Y-83843857D01*
X102576333Y-83605761D01*
X102623952Y-83510523D01*
X102671571Y-83462904D01*
X102766809Y-83415285D01*
X103004904Y-83415285D01*
X103100142Y-83462904D01*
X103147761Y-83510523D01*
X103195380Y-83605761D01*
X103195380Y-83843857D01*
X103147761Y-83939095D01*
X103100142Y-83986714D01*
G04 #@! TO.C,C6*
X106846642Y-85256666D02*
X106894261Y-85304285D01*
X106941880Y-85447142D01*
X106941880Y-85542380D01*
X106894261Y-85685238D01*
X106799023Y-85780476D01*
X106703785Y-85828095D01*
X106513309Y-85875714D01*
X106370452Y-85875714D01*
X106179976Y-85828095D01*
X106084738Y-85780476D01*
X105989500Y-85685238D01*
X105941880Y-85542380D01*
X105941880Y-85447142D01*
X105989500Y-85304285D01*
X106037119Y-85256666D01*
X105941880Y-84399523D02*
X105941880Y-84590000D01*
X105989500Y-84685238D01*
X106037119Y-84732857D01*
X106179976Y-84828095D01*
X106370452Y-84875714D01*
X106751404Y-84875714D01*
X106846642Y-84828095D01*
X106894261Y-84780476D01*
X106941880Y-84685238D01*
X106941880Y-84494761D01*
X106894261Y-84399523D01*
X106846642Y-84351904D01*
X106751404Y-84304285D01*
X106513309Y-84304285D01*
X106418071Y-84351904D01*
X106370452Y-84399523D01*
X106322833Y-84494761D01*
X106322833Y-84685238D01*
X106370452Y-84780476D01*
X106418071Y-84828095D01*
X106513309Y-84875714D01*
G04 #@! TO.C,C9*
X113577642Y-58967666D02*
X113625261Y-59015285D01*
X113672880Y-59158142D01*
X113672880Y-59253380D01*
X113625261Y-59396238D01*
X113530023Y-59491476D01*
X113434785Y-59539095D01*
X113244309Y-59586714D01*
X113101452Y-59586714D01*
X112910976Y-59539095D01*
X112815738Y-59491476D01*
X112720500Y-59396238D01*
X112672880Y-59253380D01*
X112672880Y-59158142D01*
X112720500Y-59015285D01*
X112768119Y-58967666D01*
X113672880Y-58491476D02*
X113672880Y-58301000D01*
X113625261Y-58205761D01*
X113577642Y-58158142D01*
X113434785Y-58062904D01*
X113244309Y-58015285D01*
X112863357Y-58015285D01*
X112768119Y-58062904D01*
X112720500Y-58110523D01*
X112672880Y-58205761D01*
X112672880Y-58396238D01*
X112720500Y-58491476D01*
X112768119Y-58539095D01*
X112863357Y-58586714D01*
X113101452Y-58586714D01*
X113196690Y-58539095D01*
X113244309Y-58491476D01*
X113291928Y-58396238D01*
X113291928Y-58205761D01*
X113244309Y-58110523D01*
X113196690Y-58062904D01*
X113101452Y-58015285D01*
G04 #@! TO.C,C11*
X119118142Y-79859142D02*
X119070523Y-79906761D01*
X118927666Y-79954380D01*
X118832428Y-79954380D01*
X118689571Y-79906761D01*
X118594333Y-79811523D01*
X118546714Y-79716285D01*
X118499095Y-79525809D01*
X118499095Y-79382952D01*
X118546714Y-79192476D01*
X118594333Y-79097238D01*
X118689571Y-79002000D01*
X118832428Y-78954380D01*
X118927666Y-78954380D01*
X119070523Y-79002000D01*
X119118142Y-79049619D01*
X120070523Y-79954380D02*
X119499095Y-79954380D01*
X119784809Y-79954380D02*
X119784809Y-78954380D01*
X119689571Y-79097238D01*
X119594333Y-79192476D01*
X119499095Y-79240095D01*
X121022904Y-79954380D02*
X120451476Y-79954380D01*
X120737190Y-79954380D02*
X120737190Y-78954380D01*
X120641952Y-79097238D01*
X120546714Y-79192476D01*
X120451476Y-79240095D01*
G04 #@! TO.C,C14*
X105259142Y-85224857D02*
X105306761Y-85272476D01*
X105354380Y-85415333D01*
X105354380Y-85510571D01*
X105306761Y-85653428D01*
X105211523Y-85748666D01*
X105116285Y-85796285D01*
X104925809Y-85843904D01*
X104782952Y-85843904D01*
X104592476Y-85796285D01*
X104497238Y-85748666D01*
X104402000Y-85653428D01*
X104354380Y-85510571D01*
X104354380Y-85415333D01*
X104402000Y-85272476D01*
X104449619Y-85224857D01*
X105354380Y-84272476D02*
X105354380Y-84843904D01*
X105354380Y-84558190D02*
X104354380Y-84558190D01*
X104497238Y-84653428D01*
X104592476Y-84748666D01*
X104640095Y-84843904D01*
X104687714Y-83415333D02*
X105354380Y-83415333D01*
X104306761Y-83653428D02*
X105021047Y-83891523D01*
X105021047Y-83272476D01*
G04 #@! TO.C,J2*
X121054880Y-84216833D02*
X121769166Y-84216833D01*
X121912023Y-84264452D01*
X122007261Y-84359690D01*
X122054880Y-84502547D01*
X122054880Y-84597785D01*
X121150119Y-83788261D02*
X121102500Y-83740642D01*
X121054880Y-83645404D01*
X121054880Y-83407309D01*
X121102500Y-83312071D01*
X121150119Y-83264452D01*
X121245357Y-83216833D01*
X121340595Y-83216833D01*
X121483452Y-83264452D01*
X122054880Y-83835880D01*
X122054880Y-83216833D01*
G04 #@! TO.C,R1*
X126325333Y-79700380D02*
X125992000Y-79224190D01*
X125753904Y-79700380D02*
X125753904Y-78700380D01*
X126134857Y-78700380D01*
X126230095Y-78748000D01*
X126277714Y-78795619D01*
X126325333Y-78890857D01*
X126325333Y-79033714D01*
X126277714Y-79128952D01*
X126230095Y-79176571D01*
X126134857Y-79224190D01*
X125753904Y-79224190D01*
X127277714Y-79700380D02*
X126706285Y-79700380D01*
X126992000Y-79700380D02*
X126992000Y-78700380D01*
X126896761Y-78843238D01*
X126801523Y-78938476D01*
X126706285Y-78986095D01*
G04 #@! TO.C,R2*
X118452380Y-56666666D02*
X117976190Y-57000000D01*
X118452380Y-57238095D02*
X117452380Y-57238095D01*
X117452380Y-56857142D01*
X117500000Y-56761904D01*
X117547619Y-56714285D01*
X117642857Y-56666666D01*
X117785714Y-56666666D01*
X117880952Y-56714285D01*
X117928571Y-56761904D01*
X117976190Y-56857142D01*
X117976190Y-57238095D01*
X117547619Y-56285714D02*
X117500000Y-56238095D01*
X117452380Y-56142857D01*
X117452380Y-55904761D01*
X117500000Y-55809523D01*
X117547619Y-55761904D01*
X117642857Y-55714285D01*
X117738095Y-55714285D01*
X117880952Y-55761904D01*
X118452380Y-56333333D01*
X118452380Y-55714285D01*
G04 #@! TO.C,R3*
X105833333Y-56702380D02*
X105500000Y-56226190D01*
X105261904Y-56702380D02*
X105261904Y-55702380D01*
X105642857Y-55702380D01*
X105738095Y-55750000D01*
X105785714Y-55797619D01*
X105833333Y-55892857D01*
X105833333Y-56035714D01*
X105785714Y-56130952D01*
X105738095Y-56178571D01*
X105642857Y-56226190D01*
X105261904Y-56226190D01*
X106166666Y-55702380D02*
X106785714Y-55702380D01*
X106452380Y-56083333D01*
X106595238Y-56083333D01*
X106690476Y-56130952D01*
X106738095Y-56178571D01*
X106785714Y-56273809D01*
X106785714Y-56511904D01*
X106738095Y-56607142D01*
X106690476Y-56654761D01*
X106595238Y-56702380D01*
X106309523Y-56702380D01*
X106214285Y-56654761D01*
X106166666Y-56607142D01*
G04 #@! TO.C,R5*
X109608880Y-81446666D02*
X109132690Y-81780000D01*
X109608880Y-82018095D02*
X108608880Y-82018095D01*
X108608880Y-81637142D01*
X108656500Y-81541904D01*
X108704119Y-81494285D01*
X108799357Y-81446666D01*
X108942214Y-81446666D01*
X109037452Y-81494285D01*
X109085071Y-81541904D01*
X109132690Y-81637142D01*
X109132690Y-82018095D01*
X108608880Y-80541904D02*
X108608880Y-81018095D01*
X109085071Y-81065714D01*
X109037452Y-81018095D01*
X108989833Y-80922857D01*
X108989833Y-80684761D01*
X109037452Y-80589523D01*
X109085071Y-80541904D01*
X109180309Y-80494285D01*
X109418404Y-80494285D01*
X109513642Y-80541904D01*
X109561261Y-80589523D01*
X109608880Y-80684761D01*
X109608880Y-80922857D01*
X109561261Y-81018095D01*
X109513642Y-81065714D01*
G04 #@! TO.C,U2*
X113347595Y-69175380D02*
X113347595Y-69984904D01*
X113395214Y-70080142D01*
X113442833Y-70127761D01*
X113538071Y-70175380D01*
X113728547Y-70175380D01*
X113823785Y-70127761D01*
X113871404Y-70080142D01*
X113919023Y-69984904D01*
X113919023Y-69175380D01*
X114347595Y-69270619D02*
X114395214Y-69223000D01*
X114490452Y-69175380D01*
X114728547Y-69175380D01*
X114823785Y-69223000D01*
X114871404Y-69270619D01*
X114919023Y-69365857D01*
X114919023Y-69461095D01*
X114871404Y-69603952D01*
X114299976Y-70175380D01*
X114919023Y-70175380D01*
G04 #@! TO.C,U3*
X107823095Y-59777380D02*
X107823095Y-60586904D01*
X107870714Y-60682142D01*
X107918333Y-60729761D01*
X108013571Y-60777380D01*
X108204047Y-60777380D01*
X108299285Y-60729761D01*
X108346904Y-60682142D01*
X108394523Y-60586904D01*
X108394523Y-59777380D01*
X108775476Y-59777380D02*
X109394523Y-59777380D01*
X109061190Y-60158333D01*
X109204047Y-60158333D01*
X109299285Y-60205952D01*
X109346904Y-60253571D01*
X109394523Y-60348809D01*
X109394523Y-60586904D01*
X109346904Y-60682142D01*
X109299285Y-60729761D01*
X109204047Y-60777380D01*
X108918333Y-60777380D01*
X108823095Y-60729761D01*
X108775476Y-60682142D01*
G04 #@! TO.C,U4*
X117856095Y-59777380D02*
X117856095Y-60586904D01*
X117903714Y-60682142D01*
X117951333Y-60729761D01*
X118046571Y-60777380D01*
X118237047Y-60777380D01*
X118332285Y-60729761D01*
X118379904Y-60682142D01*
X118427523Y-60586904D01*
X118427523Y-59777380D01*
X119332285Y-60110714D02*
X119332285Y-60777380D01*
X119094190Y-59729761D02*
X118856095Y-60444047D01*
X119475142Y-60444047D01*
G04 #@! TO.C,U5*
X110998095Y-80541880D02*
X110998095Y-81351404D01*
X111045714Y-81446642D01*
X111093333Y-81494261D01*
X111188571Y-81541880D01*
X111379047Y-81541880D01*
X111474285Y-81494261D01*
X111521904Y-81446642D01*
X111569523Y-81351404D01*
X111569523Y-80541880D01*
X112521904Y-80541880D02*
X112045714Y-80541880D01*
X111998095Y-81018071D01*
X112045714Y-80970452D01*
X112140952Y-80922833D01*
X112379047Y-80922833D01*
X112474285Y-80970452D01*
X112521904Y-81018071D01*
X112569523Y-81113309D01*
X112569523Y-81351404D01*
X112521904Y-81446642D01*
X112474285Y-81494261D01*
X112379047Y-81541880D01*
X112140952Y-81541880D01*
X112045714Y-81494261D01*
X111998095Y-81446642D01*
G04 #@! TO.C,R4*
X127579380Y-70397666D02*
X127103190Y-70731000D01*
X127579380Y-70969095D02*
X126579380Y-70969095D01*
X126579380Y-70588142D01*
X126627000Y-70492904D01*
X126674619Y-70445285D01*
X126769857Y-70397666D01*
X126912714Y-70397666D01*
X127007952Y-70445285D01*
X127055571Y-70492904D01*
X127103190Y-70588142D01*
X127103190Y-70969095D01*
X126912714Y-69540523D02*
X127579380Y-69540523D01*
X126531761Y-69778619D02*
X127246047Y-70016714D01*
X127246047Y-69397666D01*
G04 #@! TO.C,R6*
X124912380Y-56427666D02*
X124436190Y-56761000D01*
X124912380Y-56999095D02*
X123912380Y-56999095D01*
X123912380Y-56618142D01*
X123960000Y-56522904D01*
X124007619Y-56475285D01*
X124102857Y-56427666D01*
X124245714Y-56427666D01*
X124340952Y-56475285D01*
X124388571Y-56522904D01*
X124436190Y-56618142D01*
X124436190Y-56999095D01*
X123912380Y-55570523D02*
X123912380Y-55761000D01*
X123960000Y-55856238D01*
X124007619Y-55903857D01*
X124150476Y-55999095D01*
X124340952Y-56046714D01*
X124721904Y-56046714D01*
X124817142Y-55999095D01*
X124864761Y-55951476D01*
X124912380Y-55856238D01*
X124912380Y-55665761D01*
X124864761Y-55570523D01*
X124817142Y-55522904D01*
X124721904Y-55475285D01*
X124483809Y-55475285D01*
X124388571Y-55522904D01*
X124340952Y-55570523D01*
X124293333Y-55665761D01*
X124293333Y-55856238D01*
X124340952Y-55951476D01*
X124388571Y-55999095D01*
X124483809Y-56046714D01*
G04 #@! TO.C,D1*
X124150380Y-68429095D02*
X123150380Y-68429095D01*
X123150380Y-68191000D01*
X123198000Y-68048142D01*
X123293238Y-67952904D01*
X123388476Y-67905285D01*
X123578952Y-67857666D01*
X123721809Y-67857666D01*
X123912285Y-67905285D01*
X124007523Y-67952904D01*
X124102761Y-68048142D01*
X124150380Y-68191000D01*
X124150380Y-68429095D01*
X124150380Y-66905285D02*
X124150380Y-67476714D01*
X124150380Y-67191000D02*
X123150380Y-67191000D01*
X123293238Y-67286238D01*
X123388476Y-67381476D01*
X123436095Y-67476714D01*
G04 #@! TO.C,U6*
X102362095Y-92266380D02*
X102362095Y-93075904D01*
X102409714Y-93171142D01*
X102457333Y-93218761D01*
X102552571Y-93266380D01*
X102743047Y-93266380D01*
X102838285Y-93218761D01*
X102885904Y-93171142D01*
X102933523Y-93075904D01*
X102933523Y-92266380D01*
X103838285Y-92266380D02*
X103647809Y-92266380D01*
X103552571Y-92314000D01*
X103504952Y-92361619D01*
X103409714Y-92504476D01*
X103362095Y-92694952D01*
X103362095Y-93075904D01*
X103409714Y-93171142D01*
X103457333Y-93218761D01*
X103552571Y-93266380D01*
X103743047Y-93266380D01*
X103838285Y-93218761D01*
X103885904Y-93171142D01*
X103933523Y-93075904D01*
X103933523Y-92837809D01*
X103885904Y-92742571D01*
X103838285Y-92694952D01*
X103743047Y-92647333D01*
X103552571Y-92647333D01*
X103457333Y-92694952D01*
X103409714Y-92742571D01*
X103362095Y-92837809D01*
G04 #@! TO.C,U7*
X128988095Y-50952380D02*
X128988095Y-51761904D01*
X129035714Y-51857142D01*
X129083333Y-51904761D01*
X129178571Y-51952380D01*
X129369047Y-51952380D01*
X129464285Y-51904761D01*
X129511904Y-51857142D01*
X129559523Y-51761904D01*
X129559523Y-50952380D01*
X129940476Y-50952380D02*
X130607142Y-50952380D01*
X130178571Y-51952380D01*
G04 #@! TO.C,U8*
X126746095Y-92393380D02*
X126746095Y-93202904D01*
X126793714Y-93298142D01*
X126841333Y-93345761D01*
X126936571Y-93393380D01*
X127127047Y-93393380D01*
X127222285Y-93345761D01*
X127269904Y-93298142D01*
X127317523Y-93202904D01*
X127317523Y-92393380D01*
X127936571Y-92821952D02*
X127841333Y-92774333D01*
X127793714Y-92726714D01*
X127746095Y-92631476D01*
X127746095Y-92583857D01*
X127793714Y-92488619D01*
X127841333Y-92441000D01*
X127936571Y-92393380D01*
X128127047Y-92393380D01*
X128222285Y-92441000D01*
X128269904Y-92488619D01*
X128317523Y-92583857D01*
X128317523Y-92631476D01*
X128269904Y-92726714D01*
X128222285Y-92774333D01*
X128127047Y-92821952D01*
X127936571Y-92821952D01*
X127841333Y-92869571D01*
X127793714Y-92917190D01*
X127746095Y-93012428D01*
X127746095Y-93202904D01*
X127793714Y-93298142D01*
X127841333Y-93345761D01*
X127936571Y-93393380D01*
X128127047Y-93393380D01*
X128222285Y-93345761D01*
X128269904Y-93298142D01*
X128317523Y-93202904D01*
X128317523Y-93012428D01*
X128269904Y-92917190D01*
X128222285Y-92869571D01*
X128127047Y-92821952D01*
G04 #@! TO.C,U9*
X99988095Y-50952380D02*
X99988095Y-51761904D01*
X100035714Y-51857142D01*
X100083333Y-51904761D01*
X100178571Y-51952380D01*
X100369047Y-51952380D01*
X100464285Y-51904761D01*
X100511904Y-51857142D01*
X100559523Y-51761904D01*
X100559523Y-50952380D01*
X101083333Y-51952380D02*
X101273809Y-51952380D01*
X101369047Y-51904761D01*
X101416666Y-51857142D01*
X101511904Y-51714285D01*
X101559523Y-51523809D01*
X101559523Y-51142857D01*
X101511904Y-51047619D01*
X101464285Y-51000000D01*
X101369047Y-50952380D01*
X101178571Y-50952380D01*
X101083333Y-51000000D01*
X101035714Y-51047619D01*
X100988095Y-51142857D01*
X100988095Y-51380952D01*
X101035714Y-51476190D01*
X101083333Y-51523809D01*
X101178571Y-51571428D01*
X101369047Y-51571428D01*
X101464285Y-51523809D01*
X101511904Y-51476190D01*
X101559523Y-51380952D01*
G04 #@! TO.C,J3*
X110702380Y-46083333D02*
X111416666Y-46083333D01*
X111559523Y-46130952D01*
X111654761Y-46226190D01*
X111702380Y-46369047D01*
X111702380Y-46464285D01*
X110702380Y-45702380D02*
X110702380Y-45083333D01*
X111083333Y-45416666D01*
X111083333Y-45273809D01*
X111130952Y-45178571D01*
X111178571Y-45130952D01*
X111273809Y-45083333D01*
X111511904Y-45083333D01*
X111607142Y-45130952D01*
X111654761Y-45178571D01*
X111702380Y-45273809D01*
X111702380Y-45559523D01*
X111654761Y-45654761D01*
X111607142Y-45702380D01*
G04 #@! TD*
M02*
