G04 #@! TF.GenerationSoftware,KiCad,Pcbnew,(5.0.1)-4*
G04 #@! TF.CreationDate,2019-01-27T12:38:07-06:00*
G04 #@! TF.ProjectId,power_board,706F7765725F626F6172642E6B696361,rev?*
G04 #@! TF.SameCoordinates,Original*
G04 #@! TF.FileFunction,Legend,Top*
G04 #@! TF.FilePolarity,Positive*
%FSLAX46Y46*%
G04 Gerber Fmt 4.6, Leading zero omitted, Abs format (unit mm)*
G04 Created by KiCad (PCBNEW (5.0.1)-4) date 1/27/2019 12:38:07 PM*
%MOMM*%
%LPD*%
G01*
G04 APERTURE LIST*
%ADD10C,0.100000*%
%ADD11C,0.120000*%
%ADD12C,0.150000*%
%ADD13C,0.500000*%
%ADD14C,0.125000*%
G04 APERTURE END LIST*
D10*
X162745238Y-110500000D02*
X162707142Y-110480952D01*
X162650000Y-110480952D01*
X162592857Y-110500000D01*
X162554761Y-110538095D01*
X162535714Y-110576190D01*
X162516666Y-110652380D01*
X162516666Y-110709523D01*
X162535714Y-110785714D01*
X162554761Y-110823809D01*
X162592857Y-110861904D01*
X162650000Y-110880952D01*
X162688095Y-110880952D01*
X162745238Y-110861904D01*
X162764285Y-110842857D01*
X162764285Y-110709523D01*
X162688095Y-110709523D01*
X162935714Y-110880952D02*
X162935714Y-110480952D01*
X163164285Y-110880952D01*
X163164285Y-110480952D01*
X163354761Y-110880952D02*
X163354761Y-110480952D01*
X163450000Y-110480952D01*
X163507142Y-110500000D01*
X163545238Y-110538095D01*
X163564285Y-110576190D01*
X163583333Y-110652380D01*
X163583333Y-110709523D01*
X163564285Y-110785714D01*
X163545238Y-110823809D01*
X163507142Y-110861904D01*
X163450000Y-110880952D01*
X163354761Y-110880952D01*
X161176190Y-110905952D02*
X161176190Y-110505952D01*
X161328571Y-110505952D01*
X161366666Y-110525000D01*
X161385714Y-110544047D01*
X161404761Y-110582142D01*
X161404761Y-110639285D01*
X161385714Y-110677380D01*
X161366666Y-110696428D01*
X161328571Y-110715476D01*
X161176190Y-110715476D01*
X161538095Y-110505952D02*
X161633333Y-110905952D01*
X161709523Y-110620238D01*
X161785714Y-110905952D01*
X161880952Y-110505952D01*
X162014285Y-110886904D02*
X162071428Y-110905952D01*
X162166666Y-110905952D01*
X162204761Y-110886904D01*
X162223809Y-110867857D01*
X162242857Y-110829761D01*
X162242857Y-110791666D01*
X162223809Y-110753571D01*
X162204761Y-110734523D01*
X162166666Y-110715476D01*
X162090476Y-110696428D01*
X162052380Y-110677380D01*
X162033333Y-110658333D01*
X162014285Y-110620238D01*
X162014285Y-110582142D01*
X162033333Y-110544047D01*
X162052380Y-110525000D01*
X162090476Y-110505952D01*
X162185714Y-110505952D01*
X162242857Y-110525000D01*
X160258333Y-110886904D02*
X160315476Y-110905952D01*
X160410714Y-110905952D01*
X160448809Y-110886904D01*
X160467857Y-110867857D01*
X160486904Y-110829761D01*
X160486904Y-110791666D01*
X160467857Y-110753571D01*
X160448809Y-110734523D01*
X160410714Y-110715476D01*
X160334523Y-110696428D01*
X160296428Y-110677380D01*
X160277380Y-110658333D01*
X160258333Y-110620238D01*
X160258333Y-110582142D01*
X160277380Y-110544047D01*
X160296428Y-110525000D01*
X160334523Y-110505952D01*
X160429761Y-110505952D01*
X160486904Y-110525000D01*
X160601190Y-110505952D02*
X160829761Y-110505952D01*
X160715476Y-110905952D02*
X160715476Y-110505952D01*
X158660714Y-110778571D02*
X158965476Y-110778571D01*
X158813095Y-110930952D02*
X158813095Y-110626190D01*
X159346428Y-110530952D02*
X159155952Y-110530952D01*
X159136904Y-110721428D01*
X159155952Y-110702380D01*
X159194047Y-110683333D01*
X159289285Y-110683333D01*
X159327380Y-110702380D01*
X159346428Y-110721428D01*
X159365476Y-110759523D01*
X159365476Y-110854761D01*
X159346428Y-110892857D01*
X159327380Y-110911904D01*
X159289285Y-110930952D01*
X159194047Y-110930952D01*
X159155952Y-110911904D01*
X159136904Y-110892857D01*
X159479761Y-110530952D02*
X159613095Y-110930952D01*
X159746428Y-110530952D01*
X157341666Y-110530952D02*
X157475000Y-110930952D01*
X157608333Y-110530952D01*
X157741666Y-110930952D02*
X157741666Y-110530952D01*
X157836904Y-110530952D01*
X157894047Y-110550000D01*
X157932142Y-110588095D01*
X157951190Y-110626190D01*
X157970238Y-110702380D01*
X157970238Y-110759523D01*
X157951190Y-110835714D01*
X157932142Y-110873809D01*
X157894047Y-110911904D01*
X157836904Y-110930952D01*
X157741666Y-110930952D01*
X158141666Y-110930952D02*
X158141666Y-110530952D01*
X158236904Y-110530952D01*
X158294047Y-110550000D01*
X158332142Y-110588095D01*
X158351190Y-110626190D01*
X158370238Y-110702380D01*
X158370238Y-110759523D01*
X158351190Y-110835714D01*
X158332142Y-110873809D01*
X158294047Y-110911904D01*
X158236904Y-110930952D01*
X158141666Y-110930952D01*
D11*
G04 #@! TO.C,Q1*
X152598000Y-115212400D02*
X153528000Y-115212400D01*
X155758000Y-115212400D02*
X154828000Y-115212400D01*
X155758000Y-115212400D02*
X155758000Y-113052400D01*
X152598000Y-115212400D02*
X152598000Y-113752400D01*
G04 #@! TO.C,C1*
X158128400Y-114946800D02*
X159128400Y-114946800D01*
X159128400Y-113246800D02*
X158128400Y-113246800D01*
G04 #@! TO.C,C2*
X163872800Y-115100000D02*
X162872800Y-115100000D01*
X162872800Y-116800000D02*
X163872800Y-116800000D01*
G04 #@! TO.C,C3*
X165875600Y-113785600D02*
X165875600Y-114785600D01*
X167575600Y-114785600D02*
X167575600Y-113785600D01*
G04 #@! TO.C,D2*
X154005200Y-117158400D02*
X154005200Y-118858400D01*
X154005200Y-118858400D02*
X157155200Y-118858400D01*
X154005200Y-117158400D02*
X157155200Y-117158400D01*
G04 #@! TO.C,R1*
X157976000Y-115120000D02*
X159176000Y-115120000D01*
X159176000Y-116880000D02*
X157976000Y-116880000D01*
G04 #@! TO.C,R2*
X159125200Y-113148000D02*
X157925200Y-113148000D01*
X157925200Y-111388000D02*
X159125200Y-111388000D01*
G04 #@! TO.C,R3*
X167776000Y-114849200D02*
X167776000Y-113649200D01*
X169536000Y-113649200D02*
X169536000Y-114849200D01*
G04 #@! TO.C,R4*
X168850000Y-111725600D02*
X167650000Y-111725600D01*
X167650000Y-109965600D02*
X168850000Y-109965600D01*
G04 #@! TO.C,U1*
X164272800Y-111521600D02*
X161822800Y-111521600D01*
X162472800Y-114741600D02*
X164272800Y-114741600D01*
G04 #@! TO.C,LED*
X155650000Y-111550000D02*
X155650000Y-110150000D01*
X155650000Y-110150000D02*
X152850000Y-110150000D01*
X155650000Y-111550000D02*
X152850000Y-111550000D01*
G04 #@! TO.C,Q1*
D10*
X153148809Y-115847619D02*
X153125000Y-115895238D01*
X153077380Y-115942857D01*
X153005952Y-116014285D01*
X152982142Y-116061904D01*
X152982142Y-116109523D01*
X153101190Y-116085714D02*
X153077380Y-116133333D01*
X153029761Y-116180952D01*
X152934523Y-116204761D01*
X152767857Y-116204761D01*
X152672619Y-116180952D01*
X152625000Y-116133333D01*
X152601190Y-116085714D01*
X152601190Y-115990476D01*
X152625000Y-115942857D01*
X152672619Y-115895238D01*
X152767857Y-115871428D01*
X152934523Y-115871428D01*
X153029761Y-115895238D01*
X153077380Y-115942857D01*
X153101190Y-115990476D01*
X153101190Y-116085714D01*
X153101190Y-115395238D02*
X153101190Y-115680952D01*
X153101190Y-115538095D02*
X152601190Y-115538095D01*
X152672619Y-115585714D01*
X152720238Y-115633333D01*
X152744047Y-115680952D01*
G04 #@! TO.C,P1*
D12*
X166161904Y-106002380D02*
X166161904Y-105002380D01*
X166542857Y-105002380D01*
X166638095Y-105050000D01*
X166685714Y-105097619D01*
X166733333Y-105192857D01*
X166733333Y-105335714D01*
X166685714Y-105430952D01*
X166638095Y-105478571D01*
X166542857Y-105526190D01*
X166161904Y-105526190D01*
X167685714Y-106002380D02*
X167114285Y-106002380D01*
X167400000Y-106002380D02*
X167400000Y-105002380D01*
X167304761Y-105145238D01*
X167209523Y-105240476D01*
X167114285Y-105288095D01*
D13*
X162188095Y-118517857D02*
X163711904Y-118517857D01*
X168013095Y-118617857D02*
X169536904Y-118617857D01*
X168775000Y-119379761D02*
X168775000Y-117855952D01*
G04 #@! TO.C,C1*
D10*
X156403571Y-114158333D02*
X156427380Y-114182142D01*
X156451190Y-114253571D01*
X156451190Y-114301190D01*
X156427380Y-114372619D01*
X156379761Y-114420238D01*
X156332142Y-114444047D01*
X156236904Y-114467857D01*
X156165476Y-114467857D01*
X156070238Y-114444047D01*
X156022619Y-114420238D01*
X155975000Y-114372619D01*
X155951190Y-114301190D01*
X155951190Y-114253571D01*
X155975000Y-114182142D01*
X155998809Y-114158333D01*
X156451190Y-113682142D02*
X156451190Y-113967857D01*
X156451190Y-113825000D02*
X155951190Y-113825000D01*
X156022619Y-113872619D01*
X156070238Y-113920238D01*
X156094047Y-113967857D01*
G04 #@! TO.C,C2*
X163341666Y-117479571D02*
X163317857Y-117503380D01*
X163246428Y-117527190D01*
X163198809Y-117527190D01*
X163127380Y-117503380D01*
X163079761Y-117455761D01*
X163055952Y-117408142D01*
X163032142Y-117312904D01*
X163032142Y-117241476D01*
X163055952Y-117146238D01*
X163079761Y-117098619D01*
X163127380Y-117051000D01*
X163198809Y-117027190D01*
X163246428Y-117027190D01*
X163317857Y-117051000D01*
X163341666Y-117074809D01*
X163532142Y-117074809D02*
X163555952Y-117051000D01*
X163603571Y-117027190D01*
X163722619Y-117027190D01*
X163770238Y-117051000D01*
X163794047Y-117074809D01*
X163817857Y-117122428D01*
X163817857Y-117170047D01*
X163794047Y-117241476D01*
X163508333Y-117527190D01*
X163817857Y-117527190D01*
G04 #@! TO.C,C3*
X166666666Y-116953571D02*
X166642857Y-116977380D01*
X166571428Y-117001190D01*
X166523809Y-117001190D01*
X166452380Y-116977380D01*
X166404761Y-116929761D01*
X166380952Y-116882142D01*
X166357142Y-116786904D01*
X166357142Y-116715476D01*
X166380952Y-116620238D01*
X166404761Y-116572619D01*
X166452380Y-116525000D01*
X166523809Y-116501190D01*
X166571428Y-116501190D01*
X166642857Y-116525000D01*
X166666666Y-116548809D01*
X166833333Y-116501190D02*
X167142857Y-116501190D01*
X166976190Y-116691666D01*
X167047619Y-116691666D01*
X167095238Y-116715476D01*
X167119047Y-116739285D01*
X167142857Y-116786904D01*
X167142857Y-116905952D01*
X167119047Y-116953571D01*
X167095238Y-116977380D01*
X167047619Y-117001190D01*
X166904761Y-117001190D01*
X166857142Y-116977380D01*
X166833333Y-116953571D01*
G04 #@! TO.C,D2*
X155480952Y-119601190D02*
X155480952Y-119101190D01*
X155600000Y-119101190D01*
X155671428Y-119125000D01*
X155719047Y-119172619D01*
X155742857Y-119220238D01*
X155766666Y-119315476D01*
X155766666Y-119386904D01*
X155742857Y-119482142D01*
X155719047Y-119529761D01*
X155671428Y-119577380D01*
X155600000Y-119601190D01*
X155480952Y-119601190D01*
X155957142Y-119148809D02*
X155980952Y-119125000D01*
X156028571Y-119101190D01*
X156147619Y-119101190D01*
X156195238Y-119125000D01*
X156219047Y-119148809D01*
X156242857Y-119196428D01*
X156242857Y-119244047D01*
X156219047Y-119315476D01*
X155933333Y-119601190D01*
X156242857Y-119601190D01*
G04 #@! TO.C,R1*
X156276190Y-116055333D02*
X156038095Y-116222000D01*
X156276190Y-116341047D02*
X155776190Y-116341047D01*
X155776190Y-116150571D01*
X155800000Y-116102952D01*
X155823809Y-116079142D01*
X155871428Y-116055333D01*
X155942857Y-116055333D01*
X155990476Y-116079142D01*
X156014285Y-116102952D01*
X156038095Y-116150571D01*
X156038095Y-116341047D01*
X156276190Y-115579142D02*
X156276190Y-115864857D01*
X156276190Y-115722000D02*
X155776190Y-115722000D01*
X155847619Y-115769619D01*
X155895238Y-115817238D01*
X155919047Y-115864857D01*
G04 #@! TO.C,R2*
X156226190Y-112358333D02*
X155988095Y-112525000D01*
X156226190Y-112644047D02*
X155726190Y-112644047D01*
X155726190Y-112453571D01*
X155750000Y-112405952D01*
X155773809Y-112382142D01*
X155821428Y-112358333D01*
X155892857Y-112358333D01*
X155940476Y-112382142D01*
X155964285Y-112405952D01*
X155988095Y-112453571D01*
X155988095Y-112644047D01*
X155773809Y-112167857D02*
X155750000Y-112144047D01*
X155726190Y-112096428D01*
X155726190Y-111977380D01*
X155750000Y-111929761D01*
X155773809Y-111905952D01*
X155821428Y-111882142D01*
X155869047Y-111882142D01*
X155940476Y-111905952D01*
X156226190Y-112191666D01*
X156226190Y-111882142D01*
G04 #@! TO.C,R3*
X170226190Y-114333333D02*
X169988095Y-114500000D01*
X170226190Y-114619047D02*
X169726190Y-114619047D01*
X169726190Y-114428571D01*
X169750000Y-114380952D01*
X169773809Y-114357142D01*
X169821428Y-114333333D01*
X169892857Y-114333333D01*
X169940476Y-114357142D01*
X169964285Y-114380952D01*
X169988095Y-114428571D01*
X169988095Y-114619047D01*
X169726190Y-114166666D02*
X169726190Y-113857142D01*
X169916666Y-114023809D01*
X169916666Y-113952380D01*
X169940476Y-113904761D01*
X169964285Y-113880952D01*
X170011904Y-113857142D01*
X170130952Y-113857142D01*
X170178571Y-113880952D01*
X170202380Y-113904761D01*
X170226190Y-113952380D01*
X170226190Y-114095238D01*
X170202380Y-114142857D01*
X170178571Y-114166666D01*
G04 #@! TO.C,R4*
X170979790Y-110833333D02*
X170741695Y-111000000D01*
X170979790Y-111119047D02*
X170479790Y-111119047D01*
X170479790Y-110928571D01*
X170503600Y-110880952D01*
X170527409Y-110857142D01*
X170575028Y-110833333D01*
X170646457Y-110833333D01*
X170694076Y-110857142D01*
X170717885Y-110880952D01*
X170741695Y-110928571D01*
X170741695Y-111119047D01*
X170646457Y-110404761D02*
X170979790Y-110404761D01*
X170455980Y-110523809D02*
X170813123Y-110642857D01*
X170813123Y-110333333D01*
G04 #@! TO.C,U1*
X164776190Y-113480952D02*
X165180952Y-113480952D01*
X165228571Y-113457142D01*
X165252380Y-113433333D01*
X165276190Y-113385714D01*
X165276190Y-113290476D01*
X165252380Y-113242857D01*
X165228571Y-113219047D01*
X165180952Y-113195238D01*
X164776190Y-113195238D01*
X165276190Y-112695238D02*
X165276190Y-112980952D01*
X165276190Y-112838095D02*
X164776190Y-112838095D01*
X164847619Y-112885714D01*
X164895238Y-112933333D01*
X164919047Y-112980952D01*
G04 #@! TO.C,H1*
D12*
X148963095Y-118227380D02*
X148963095Y-117227380D01*
X148963095Y-117703571D02*
X149534523Y-117703571D01*
X149534523Y-118227380D02*
X149534523Y-117227380D01*
X150534523Y-118227380D02*
X149963095Y-118227380D01*
X150248809Y-118227380D02*
X150248809Y-117227380D01*
X150153571Y-117370238D01*
X150058333Y-117465476D01*
X149963095Y-117513095D01*
G04 #@! TO.C,LED*
D14*
X153478571Y-112276190D02*
X153240476Y-112276190D01*
X153240476Y-111776190D01*
X153645238Y-112014285D02*
X153811904Y-112014285D01*
X153883333Y-112276190D02*
X153645238Y-112276190D01*
X153645238Y-111776190D01*
X153883333Y-111776190D01*
X154097619Y-112276190D02*
X154097619Y-111776190D01*
X154216666Y-111776190D01*
X154288095Y-111800000D01*
X154335714Y-111847619D01*
X154359523Y-111895238D01*
X154383333Y-111990476D01*
X154383333Y-112061904D01*
X154359523Y-112157142D01*
X154335714Y-112204761D01*
X154288095Y-112252380D01*
X154216666Y-112276190D01*
X154097619Y-112276190D01*
G04 #@! TD*
M02*
