G04 #@! TF.GenerationSoftware,KiCad,Pcbnew,(5.0.1)-4*
G04 #@! TF.CreationDate,2019-01-27T12:38:07-06:00*
G04 #@! TF.ProjectId,power_board,706F7765725F626F6172642E6B696361,rev?*
G04 #@! TF.SameCoordinates,Original*
G04 #@! TF.FileFunction,Soldermask,Bot*
G04 #@! TF.FilePolarity,Negative*
%FSLAX46Y46*%
G04 Gerber Fmt 4.6, Leading zero omitted, Abs format (unit mm)*
G04 Created by KiCad (PCBNEW (5.0.1)-4) date 1/27/2019 12:38:07 PM*
%MOMM*%
%LPD*%
G01*
G04 APERTURE LIST*
%ADD10C,0.100000*%
G04 APERTURE END LIST*
D10*
G36*
X150045857Y-110517272D02*
X150246042Y-110600191D01*
X150426213Y-110720578D01*
X150579422Y-110873787D01*
X150699809Y-111053958D01*
X150782728Y-111254143D01*
X150825000Y-111466658D01*
X150825000Y-111683342D01*
X150782728Y-111895857D01*
X150699809Y-112096042D01*
X150579422Y-112276213D01*
X150426213Y-112429422D01*
X150246042Y-112549809D01*
X150045857Y-112632728D01*
X149833342Y-112675000D01*
X149616658Y-112675000D01*
X149404143Y-112632728D01*
X149203958Y-112549809D01*
X149023787Y-112429422D01*
X148870578Y-112276213D01*
X148750191Y-112096042D01*
X148667272Y-111895857D01*
X148625000Y-111683342D01*
X148625000Y-111466658D01*
X148667272Y-111254143D01*
X148750191Y-111053958D01*
X148870578Y-110873787D01*
X149023787Y-110720578D01*
X149203958Y-110600191D01*
X149404143Y-110517272D01*
X149616658Y-110475000D01*
X149833342Y-110475000D01*
X150045857Y-110517272D01*
X150045857Y-110517272D01*
G37*
G36*
X163500000Y-110300000D02*
X162500000Y-110300000D01*
X162500000Y-109300000D01*
X163500000Y-109300000D01*
X163500000Y-110300000D01*
X163500000Y-110300000D01*
G37*
G36*
X161828015Y-109307234D02*
X161922268Y-109335825D01*
X161968697Y-109360643D01*
X162009129Y-109382254D01*
X162009131Y-109382255D01*
X162009130Y-109382255D01*
X162085264Y-109444736D01*
X162147745Y-109520870D01*
X162194175Y-109607732D01*
X162222766Y-109701985D01*
X162232419Y-109800000D01*
X162222766Y-109898015D01*
X162194175Y-109992268D01*
X162169357Y-110038697D01*
X162147746Y-110079129D01*
X162085264Y-110155264D01*
X162009129Y-110217746D01*
X161968697Y-110239357D01*
X161922268Y-110264175D01*
X161828015Y-110292766D01*
X161754564Y-110300000D01*
X161705436Y-110300000D01*
X161631985Y-110292766D01*
X161537732Y-110264175D01*
X161491303Y-110239357D01*
X161450871Y-110217746D01*
X161374736Y-110155264D01*
X161312254Y-110079129D01*
X161290643Y-110038697D01*
X161265825Y-109992268D01*
X161237234Y-109898015D01*
X161227581Y-109800000D01*
X161237234Y-109701985D01*
X161265825Y-109607732D01*
X161312255Y-109520870D01*
X161374736Y-109444736D01*
X161450870Y-109382255D01*
X161450869Y-109382255D01*
X161450871Y-109382254D01*
X161491303Y-109360643D01*
X161537732Y-109335825D01*
X161631985Y-109307234D01*
X161705436Y-109300000D01*
X161754564Y-109300000D01*
X161828015Y-109307234D01*
X161828015Y-109307234D01*
G37*
G36*
X160558015Y-109307234D02*
X160652268Y-109335825D01*
X160698697Y-109360643D01*
X160739129Y-109382254D01*
X160739131Y-109382255D01*
X160739130Y-109382255D01*
X160815264Y-109444736D01*
X160877745Y-109520870D01*
X160924175Y-109607732D01*
X160952766Y-109701985D01*
X160962419Y-109800000D01*
X160952766Y-109898015D01*
X160924175Y-109992268D01*
X160899357Y-110038697D01*
X160877746Y-110079129D01*
X160815264Y-110155264D01*
X160739129Y-110217746D01*
X160698697Y-110239357D01*
X160652268Y-110264175D01*
X160558015Y-110292766D01*
X160484564Y-110300000D01*
X160435436Y-110300000D01*
X160361985Y-110292766D01*
X160267732Y-110264175D01*
X160221303Y-110239357D01*
X160180871Y-110217746D01*
X160104736Y-110155264D01*
X160042254Y-110079129D01*
X160020643Y-110038697D01*
X159995825Y-109992268D01*
X159967234Y-109898015D01*
X159957581Y-109800000D01*
X159967234Y-109701985D01*
X159995825Y-109607732D01*
X160042255Y-109520870D01*
X160104736Y-109444736D01*
X160180870Y-109382255D01*
X160180869Y-109382255D01*
X160180871Y-109382254D01*
X160221303Y-109360643D01*
X160267732Y-109335825D01*
X160361985Y-109307234D01*
X160435436Y-109300000D01*
X160484564Y-109300000D01*
X160558015Y-109307234D01*
X160558015Y-109307234D01*
G37*
G36*
X159288015Y-109307234D02*
X159382268Y-109335825D01*
X159428697Y-109360643D01*
X159469129Y-109382254D01*
X159469131Y-109382255D01*
X159469130Y-109382255D01*
X159545264Y-109444736D01*
X159607745Y-109520870D01*
X159654175Y-109607732D01*
X159682766Y-109701985D01*
X159692419Y-109800000D01*
X159682766Y-109898015D01*
X159654175Y-109992268D01*
X159629357Y-110038697D01*
X159607746Y-110079129D01*
X159545264Y-110155264D01*
X159469129Y-110217746D01*
X159428697Y-110239357D01*
X159382268Y-110264175D01*
X159288015Y-110292766D01*
X159214564Y-110300000D01*
X159165436Y-110300000D01*
X159091985Y-110292766D01*
X158997732Y-110264175D01*
X158951303Y-110239357D01*
X158910871Y-110217746D01*
X158834736Y-110155264D01*
X158772254Y-110079129D01*
X158750643Y-110038697D01*
X158725825Y-109992268D01*
X158697234Y-109898015D01*
X158687581Y-109800000D01*
X158697234Y-109701985D01*
X158725825Y-109607732D01*
X158772255Y-109520870D01*
X158834736Y-109444736D01*
X158910870Y-109382255D01*
X158910869Y-109382255D01*
X158910871Y-109382254D01*
X158951303Y-109360643D01*
X158997732Y-109335825D01*
X159091985Y-109307234D01*
X159165436Y-109300000D01*
X159214564Y-109300000D01*
X159288015Y-109307234D01*
X159288015Y-109307234D01*
G37*
G36*
X158018015Y-109307234D02*
X158112268Y-109335825D01*
X158158697Y-109360643D01*
X158199129Y-109382254D01*
X158199131Y-109382255D01*
X158199130Y-109382255D01*
X158275264Y-109444736D01*
X158337745Y-109520870D01*
X158384175Y-109607732D01*
X158412766Y-109701985D01*
X158422419Y-109800000D01*
X158412766Y-109898015D01*
X158384175Y-109992268D01*
X158359357Y-110038697D01*
X158337746Y-110079129D01*
X158275264Y-110155264D01*
X158199129Y-110217746D01*
X158158697Y-110239357D01*
X158112268Y-110264175D01*
X158018015Y-110292766D01*
X157944564Y-110300000D01*
X157895436Y-110300000D01*
X157821985Y-110292766D01*
X157727732Y-110264175D01*
X157681303Y-110239357D01*
X157640871Y-110217746D01*
X157564736Y-110155264D01*
X157502254Y-110079129D01*
X157480643Y-110038697D01*
X157455825Y-109992268D01*
X157427234Y-109898015D01*
X157417581Y-109800000D01*
X157427234Y-109701985D01*
X157455825Y-109607732D01*
X157502255Y-109520870D01*
X157564736Y-109444736D01*
X157640870Y-109382255D01*
X157640869Y-109382255D01*
X157640871Y-109382254D01*
X157681303Y-109360643D01*
X157727732Y-109335825D01*
X157821985Y-109307234D01*
X157895436Y-109300000D01*
X157944564Y-109300000D01*
X158018015Y-109307234D01*
X158018015Y-109307234D01*
G37*
M02*
