M48
;DRILL file {KiCad (5.0.1)-4} date 1/27/2019 12:38:14 PM
;FORMAT={-:-/ absolute / metric / decimal}
FMAT,2
METRIC,TZ
T1C0.330
T2C0.650
T3C2.100
%
G90
G05
M71
T1
X153.2Y-114.45
X153.675Y-116.7
X154.7Y-116.725
X155.45Y-112.25
X158.6Y-115.
X158.65Y-113.2
X163.225Y-117.8
X163.35Y-111.7
X163.35Y-113.895
X163.8Y-119.45
X163.87Y-117.2
X165.2Y-113.15
X168.Y-117.5
X170.275Y-112.225
T2
X157.92Y-109.8
X159.19Y-109.8
X160.46Y-109.8
X161.73Y-109.8
X163.Y-109.8
T3
X149.725Y-111.575
T0
M30
